<svg xmlns="http://www.w3.org/2000/svg" width="661.417" height="56.013" style="color-scheme:light dark" viewBox="8.536 0.001 99.585 8.432"><style>tspan{white-space:pre}</style><path stroke="currentColor" stroke-linecap="round" stroke-linejoin="round" stroke-width=".1" d="M8.586 6.883h99.485M8.586 5.883h99.485M8.586 4.883h99.485M8.586 3.883h99.485M8.586 2.883h99.485"/><rect width=".19" height="4" y="-2" fill="currentColor" ry="0" transform="translate(35.874 4.883)"/><rect width=".19" height="4" y="-2" fill="currentColor" ry="0" transform="translate(87.21 4.883)"/><rect width=".19" height="4" y="-2" fill="currentColor" ry="0" transform="translate(42.668 4.883)"/><rect width=".19" height="4" y="-2" fill="currentColor" ry="0" transform="translate(80.078 4.883)"/><rect width=".19" height="4" y="-2" fill="currentColor" ry="0" transform="translate(29.08 4.883)"/><rect width=".19" height="4" y="-2" fill="currentColor" ry="0" transform="translate(94.342 4.883)"/><rect width=".19" height="4" y="-2" fill="currentColor" ry="0" transform="translate(49.462 4.883)"/><rect width=".19" height="4" y="-2" fill="currentColor" ry="0" transform="translate(72.946 4.883)"/><rect width=".19" height="4" y="-2" fill="currentColor" ry="0" transform="translate(22.285 4.883)"/><rect width=".19" height="4" y="-2" fill="currentColor" ry="0" transform="translate(101.136 4.883)"/><rect width=".19" height="4" y="-2" fill="currentColor" ry="0" transform="translate(56.257 4.883)"/><rect width=".19" height="4" y="-2" fill="currentColor" ry="0" transform="translate(107.93 4.883)"/><rect width=".19" height="4" y="-2" fill="currentColor" ry="0" transform="translate(65.814 4.883)"/><rect width="2.943" height=".2" x="16.745" y="-.1" fill="currentColor" ry=".1" transform="translate(0 7.883)"/><text fill="currentColor" font-family="serif" font-size="2.2" font-style="italic" font-weight="bold" transform="translate(30.024 1.634)">
<tspan>8</tspan>
</text><path stroke="currentColor" stroke-linecap="round" stroke-linejoin="round" stroke-width=".1" d="M40.18.833v.8M31.86.833"/><path stroke="currentColor" stroke-dasharray="0.300715124054292,0.701668622793348" stroke-linecap="round" stroke-linejoin="round" stroke-width=".1" d="M31.86.833h8.32"/><path fill="currentColor" d="m61.015 5.72-.004.263v.044q-.001.132.016.264c.18-.152.372-.32.372-.556 0-.132-.056-.268-.172-.268-.124 0-.208.12-.212.252m-.168.715-.048-2.38c.032-.02.072-.032.108-.032s.076.012.108.032l-.028 1.38a.58.58 0 0 1 .364-.136c.208 0 .356.192.356.408 0 .32-.344.468-.588.676-.06.052-.096.152-.18.152-.052 0-.092-.044-.092-.1M83.013 2.935c-.2 0-.277.172-.277.352 0 .308.229.544.537.544.2 0 .276-.172.276-.352a.53.53 0 0 0-.537-.544m1.111.448c0 .172-.135.3-.287.384-.213.116-.457.16-.697.16s-.48-.044-.691-.16c-.152-.084-.288-.212-.288-.384s.136-.3.288-.384c.212-.116.452-.16.692-.16s.483.044.695.16c.153.084.289.212.289.384M81.119 3.22l-.005.263v.044q-.001.132.016.264c.18-.152.373-.32.373-.556 0-.132-.057-.268-.173-.268-.123 0-.207.12-.211.252m-.169.715-.048-2.38c.032-.02.072-.032.108-.032s.076.012.108.032l-.027 1.38a.58.58 0 0 1 .363-.136c.209 0 .357.192.357.408 0 .32-.345.468-.589.676-.06.052-.095.152-.18.152-.052 0-.092-.044-.092-.1M66.854 3.72l-.004.263v.044q-.001.132.016.264c.18-.152.372-.32.372-.556 0-.132-.056-.268-.172-.268-.124 0-.208.12-.212.252m-.168.715-.048-2.38c.032-.02.072-.032.108-.032s.076.012.108.032l-.028 1.38a.58.58 0 0 1 .364-.136c.208 0 .356.192.356.408 0 .32-.344.468-.588.676-.06.052-.096.152-.18.152-.052 0-.092-.044-.092-.1M75.88 4.935c-.2 0-.276.172-.276.352 0 .308.228.544.536.544.2 0 .276-.172.276-.352a.53.53 0 0 0-.536-.544m1.112.448c0 .172-.136.3-.288.384-.212.116-.456.16-.696.16s-.48-.044-.692-.16c-.152-.084-.288-.212-.288-.384s.136-.3.288-.384c.212-.116.452-.16.692-.16s.484.044.696.16c.152.084.288.212.288.384M68.748 3.435c-.2 0-.276.172-.276.352 0 .308.228.544.536.544.2 0 .276-.172.276-.352a.53.53 0 0 0-.536-.544m1.112.448c0 .172-.136.3-.288.384-.212.116-.456.16-.696.16s-.48-.044-.692-.16c-.152-.084-.288-.212-.288-.384s.136-.3.288-.384c.212-.116.452-.16.692-.16s.484.044.696.16c.152.084.288.212.288.384M73.986 5.22l-.004.263v.044q-.001.132.016.264c.18-.152.372-.32.372-.556 0-.132-.056-.268-.172-.268-.124 0-.208.12-.212.252m-.168.715-.048-2.38c.032-.02.072-.032.108-.032s.076.012.108.032l-.028 1.38a.58.58 0 0 1 .364-.136c.208 0 .356.192.356.408 0 .32-.344.468-.588.676-.06.052-.096.152-.18.152-.052 0-.092-.044-.092-.1M103.733 3.935c-.2 0-.276.172-.276.352 0 .308.228.544.536.544.2 0 .276-.172.276-.352a.53.53 0 0 0-.536-.544m1.112.448c0 .172-.136.3-.288.384-.212.116-.456.16-.696.16s-.48-.044-.692-.16c-.152-.084-.288-.212-.288-.384s.136-.3.288-.384c.212-.116.452-.16.692-.16s.484.044.696.16c.152.084.288.212.288.384"/><text fill="currentColor" font-family="serif" font-size="2.2" font-style="italic" font-weight="bold" transform="translate(101.77 1.634)">
<tspan>43</tspan>
</text><path stroke="currentColor" stroke-linecap="round" stroke-linejoin="round" stroke-width=".1" d="M105.443.833v.8M105.143.833"/><path stroke="currentColor" stroke-dasharray="0.3,0.7" stroke-linecap="round" stroke-linejoin="round" stroke-width=".1" d="M105.143.833h.3"/><text fill="currentColor" font-family="serif" font-size="2.2" font-style="italic" font-weight="bold" transform="translate(88.493 1.634)">
<tspan>36</tspan>
</text><path stroke="currentColor" stroke-linecap="round" stroke-linejoin="round" stroke-width=".1" d="M98.648.833v.8M91.865.833"/><path stroke="currentColor" stroke-dasharray="0.323016013330369,0.753704031104195" stroke-linecap="round" stroke-linejoin="round" stroke-width=".1" d="M91.865.833h6.783"/><text fill="currentColor" font-family="serif" font-size="2.2" font-style="italic" font-weight="bold" transform="translate(74.228 1.634)">
<tspan>29</tspan>
</text><path stroke="currentColor" stroke-linecap="round" stroke-linejoin="round" stroke-width=".1" d="M84.722.833v.8M77.601.833"/><path stroke="currentColor" stroke-dasharray="0.292651234701224,0.682852880969523" stroke-linecap="round" stroke-linejoin="round" stroke-width=".1" d="M77.601.833h7.121"/><text fill="currentColor" font-family="serif" font-size="2.2" font-style="italic" font-weight="bold" transform="translate(57.697 1.65)">
<tspan>22</tspan>
</text><path stroke="currentColor" stroke-linecap="round" stroke-linejoin="round" stroke-width=".1" d="M70.458.833v.8M61.07.833"/><path stroke="currentColor" stroke-dasharray="0.302869779326448,0.706696151761712" stroke-linecap="round" stroke-linejoin="round" stroke-width=".1" d="M61.07.833h9.388"/><text fill="currentColor" font-family="serif" font-size="2.2" font-style="italic" font-weight="bold" transform="translate(43.613 1.634)">
<tspan>15</tspan>
</text><path stroke="currentColor" stroke-linecap="round" stroke-linejoin="round" stroke-width=".1" d="M53.769.833v.8M46.986.833"/><path stroke="currentColor" stroke-dasharray="0.32301601333037,0.753704031104196" stroke-linecap="round" stroke-linejoin="round" stroke-width=".1" d="M46.986.833h6.783"/><path fill="currentColor" d="m88.25 4.72-.003.263v.044q-.001.132.015.264c.18-.152.373-.32.373-.556 0-.132-.057-.268-.173-.268-.123 0-.207.12-.211.252m-.168.715-.047-2.38c.031-.02.071-.032.107-.032s.077.012.109.032l-.029 1.38a.58.58 0 0 1 .365-.136c.207 0 .355.192.355.408 0 .32-.343.468-.587.676-.06.052-.097.152-.18.152-.053 0-.093-.044-.093-.1M90.145 4.435c-.2 0-.276.172-.276.352 0 .308.228.544.536.544.2 0 .276-.172.276-.352a.53.53 0 0 0-.536-.544m1.112.448c0 .172-.137.3-.289.384-.211.116-.455.16-.695.16s-.48-.044-.692-.16c-.152-.084-.288-.212-.288-.384s.136-.3.288-.384c.212-.116.452-.16.692-.16s.484.044.696.16c.152.084.288.212.288.384M96.939 2.435c-.2 0-.276.172-.276.352 0 .308.228.544.536.544.2 0 .276-.172.276-.352a.53.53 0 0 0-.536-.544m1.112.448c0 .172-.136.3-.288.384-.212.116-.456.16-.696.16s-.48-.044-.692-.16c-.152-.084-.288-.212-.288-.384s.136-.3.288-.384c.212-.116.452-.16.692-.16s.484.044.696.16c.152.084.288.212.288.384M31.676 6.935c-.2 0-.276.172-.276.352 0 .308.228.544.536.544.2 0 .276-.172.276-.352a.53.53 0 0 0-.536-.544m1.112.448c0 .172-.136.3-.288.384-.212.116-.456.16-.696.16s-.48-.044-.692-.16c-.152-.084-.288-.212-.288-.384s.136-.3.288-.384c.212-.116.452-.16.692-.16s.484.044.696.16c.152.084.288.212.288.384M38.47 4.935c-.2 0-.276.172-.276.352 0 .308.228.544.536.544.2 0 .276-.172.276-.352a.53.53 0 0 0-.536-.544m1.112.448c0 .172-.136.3-.288.384-.211.116-.455.16-.695.16s-.48-.044-.692-.16c-.152-.084-.288-.212-.288-.384s.136-.3.288-.384c.212-.116.452-.16.692-.16s.484.044.696.16c.151.084.287.212.287.384"/><rect width=".13" height="3.241" x="-.065" y="-2.5" fill="currentColor" ry=".04" transform="translate(63.37 4.883)"/><path fill="currentColor" d="M18.088 7.435c-.2 0-.276.172-.276.352 0 .308.228.544.536.544.2 0 .276-.172.276-.352a.53.53 0 0 0-.536-.544m1.112.448c0 .172-.136.3-.288.384-.212.116-.456.16-.696.16s-.48-.044-.692-.16c-.152-.084-.288-.212-.288-.384s.136-.3.288-.384c.212-.116.452-.16.692-.16s.484.044.696.16c.152.084.288.212.288.384M10.4 8.423h-.024a.783.783 0 0 1-.78-.788c0-.232.212-.412.448-.412.216 0 .38.188.38.412 0 .208-.172.38-.38.38a.3.3 0 0 1-.124-.024c.104.156.272.26.468.26h.016zm.78-1.728a.71.71 0 0 0 .452-.656.764.764 0 0 0-.692-.76c.096.464.184.924.24 1.416m-1.548-.924c0 .54.516.988 1.056.988q.167 0 .328-.024c-.056-.508-.148-.98-.252-1.456-.316.032-.496.244-.496.476 0 .176.1.364.324.492q.029.03.028.06c0 .044-.04.088-.088.088q-.018-.001-.036-.008c-.32-.172-.468-.46-.468-.74 0-.352.232-.696.64-.788a15 15 0 0 0-.184-.7c-.428.484-.852.972-.852 1.612m1.044 1.16c-.752 0-1.332-.688-1.332-1.496 0-.708.524-1.224.992-1.764a4.5 4.5 0 0 1-.18-.76 5 5 0 0 1-.028-.624c0-.46.22-.896.596-1.168a.06.06 0 0 1 .08 0c.284.336.532.98.532 1.432 0 .572-.344 1.02-.72 1.456.084.272.156.552.224.828.016 0 .036-.004.052-.004.62 0 1.024.512 1.024 1.044 0 .304-.132.616-.428.84a.9.9 0 0 1-.292.144q.019.21.02.42c0 .076-.004.156-.008.232-.028.476-.352.9-.808.912l.004-.172c.372-.008.612-.368.636-.764q.007-.11.008-.22c0-.124-.004-.244-.016-.368-.116.02-.232.032-.356.032m.372-4.712c0-.22-.016-.316-.08-.516a1.15 1.15 0 0 0-.648 1.036c0 .296.072.532.144.776.32-.388.584-.792.584-1.296M14.972 4.775a.3.3 0 0 1-.3-.3c0-.152.108-.308.288-.308q.025-.001.056.004a.6.6 0 0 0-.48-.236c-.424 0-.452.292-.452.744v.408c0 .452.028.748.452.748.32 0 .556-.28.632-.604.008-.028.028-.04.048-.04.024 0 .052.016.052.048 0 .376-.42.696-.732.696-.272 0-.548-.084-.736-.28-.196-.204-.264-.488-.264-.772s.068-.568.264-.772c.188-.196.464-.276.736-.276.348 0 .64.252.7.596q.005.031.004.056c0 .16-.12.288-.268.288M24.882 5.435c-.2 0-.276.172-.276.352 0 .308.228.544.536.544.2 0 .276-.172.276-.352a.53.53 0 0 0-.536-.544m1.112.448c0 .172-.136.3-.288.384-.212.116-.456.16-.696.16s-.48-.044-.692-.16c-.152-.084-.288-.212-.288-.384s.136-.3.288-.384c.212-.116.452-.16.692-.16s.484.044.696.16c.152.084.288.212.288.384M59.753 6.123a.17.17 0 0 0-.169-.164q-.024-.001-.048.004c-.124.036-.312.16-.46.256s-.336.212-.416.312a.168.168 0 0 0 .128.276q.025.001.049-.004c.123-.036.307-.16.455-.256s.337-.212.417-.312a.17.17 0 0 0 .043-.112m-.209-.284c.185 0 .329.084.329.284a.7.7 0 0 1-.04.228.7.7 0 0 1-.256.376c-.212.144-.452.2-.748.2-.184 0-.332-.084-.332-.284 0-.076.02-.156.044-.228a.7.7 0 0 1 .252-.376c.212-.144.456-.2.752-.2"/><rect width=".13" height="3.241" x="-.065" y="-2" fill="currentColor" ry=".04" transform="translate(59.809 4.883)"/><path fill="currentColor" d="M57.91 7.631c0 .04-.031.076-.071.076s-.077-.036-.077-.076v-.58l-.332.124v.632c0 .04-.036.076-.076.076s-.072-.036-.072-.076v-.58l-.128.048c-.008.004-.02.004-.028.004a.08.08 0 0 1-.08-.08v-.24c0-.032.02-.064.052-.076l.184-.064v-.64l-.128.044c-.008.004-.02.004-.028.004a.08.08 0 0 1-.08-.08v-.24c0-.032.02-.06.052-.072l.184-.068v-.632c0-.04.032-.076.072-.076s.076.036.076.076v.58l.332-.124V4.96c0-.04.036-.076.076-.076s.072.036.072.076v.58l.129-.048c.007-.004.02-.004.027-.004a.08.08 0 0 1 .08.08v.24c0 .032-.02.064-.052.076l-.184.064v.64l.129-.044c.007-.004.02-.004.027-.004a.08.08 0 0 1 .08.08v.24c0 .032-.02.06-.052.072L57.91 7zm-.48-1.508v.64l.333-.12v-.64zM63.313 5.623a.17.17 0 0 0-.168-.164q-.024-.001-.048.004c-.124.036-.312.16-.46.256s-.336.212-.416.312a.168.168 0 0 0 .128.276q.024.001.048-.004c.124-.036.308-.16.456-.256s.336-.212.416-.312a.17.17 0 0 0 .044-.112m-.208-.284c.184 0 .328.084.328.284a.7.7 0 0 1-.04.228.7.7 0 0 1-.256.376c-.212.144-.452.2-.748.2-.184 0-.332-.084-.332-.284 0-.076.02-.156.044-.228a.7.7 0 0 1 .252-.376c.212-.144.456-.2.752-.2M45.265 6.435c-.2 0-.276.172-.276.352 0 .308.228.544.536.544.2 0 .276-.172.276-.352a.53.53 0 0 0-.536-.544m1.112.448c0 .172-.136.3-.288.384-.212.116-.456.16-.696.16s-.48-.044-.692-.16c-.152-.084-.288-.212-.288-.384s.136-.3.288-.384c.212-.116.452-.16.692-.16s.484.044.696.16c.152.084.288.212.288.384M52.059 4.435c-.2 0-.276.172-.276.352 0 .308.228.544.536.544.2 0 .276-.172.276-.352a.53.53 0 0 0-.536-.544m1.112.448c0 .172-.136.3-.288.384-.212.116-.456.16-.696.16s-.48-.044-.692-.16c-.152-.084-.288-.212-.288-.384s.136-.3.288-.384c.212-.116.452-.16.692-.16s.484.044.696.16c.152.084.288.212.288.384"/></svg>