<svg xmlns="http://www.w3.org/2000/svg" width="697.928" height="54.38mm" style="color-scheme:light dark" viewBox="-12.959 -5.156 105.082 30.946"><style>tspan{white-space:pre}</style><rect width=".19" height="4" y="-2" fill="currentColor" ry="0" transform="translate(25.864 11.313)"/><rect width=".19" height="4" y="-2" fill="currentColor" ry="0" transform="translate(76.027 21.79)"/><rect width=".19" height="4" y="-2" fill="currentColor" ry="0" transform="translate(25.864 2.313)"/><rect width=".19" height="4" y="-2" fill="currentColor" ry="0" transform="translate(47.618 11.313)"/><rect width=".19" height="4" y="-2" fill="currentColor" ry="0" transform="translate(86.58 21.79)"/><rect width=".19" height="4" y="-2" fill="currentColor" ry="0" transform="translate(36.516 21.79)"/><rect width=".19" height="4" y="-2" fill="currentColor" ry="0" transform="translate(65.48 2.313)"/><rect width=".19" height="4" y="-2" fill="currentColor" ry="0" transform="translate(65.48 21.79)"/><rect width=".19" height="4" y="-2" fill="currentColor" ry="0" transform="translate(36.516 2.313)"/><rect width="2.066" height=".2" x="21.167" y="-.1" fill="currentColor" ry=".1" transform="translate(0 5.313)"/><rect width="2.066" height=".2" x="16.892" y="-.1" fill="currentColor" ry=".1" transform="translate(0 5.313)"/><rect width=".19" height="4" y="-2" fill="currentColor" ry="0" transform="translate(76.027 11.313)"/><rect width=".19" height="4" y="-2" fill="currentColor" ry="0" transform="translate(86.58 11.313)"/><rect width=".19" height="4" y="-2" fill="currentColor" ry="0" transform="translate(47.618 2.313)"/><rect width=".19" height="4" y="-2" fill="currentColor" ry="0" transform="translate(86.58 2.313)"/><rect width=".19" height="4" y="-2" fill="currentColor" ry="0" transform="translate(65.48 11.313)"/><rect width=".19" height="4" y="-2" fill="currentColor" ry="0" transform="translate(76.027 2.313)"/><rect width=".19" height="4" y="-2" fill="currentColor" ry="0" transform="translate(36.516 11.313)"/><rect width=".19" height="4" y="-2" fill="currentColor" ry="0" transform="translate(25.864 21.79)"/><rect width="2.066" height=".2" x="87.554" y="-.1" fill="currentColor" ry=".1" transform="translate(0 16.79)"/><rect width="2.066" height=".2" x="87.554" y="-.1" fill="currentColor" ry=".1" transform="translate(0 17.79)"/><rect width="2.066" height=".2" x="87.554" y="-.1" fill="currentColor" ry=".1" transform="translate(0 18.79)"/><rect width="2.066" height=".2" x="82.198" y="-.1" fill="currentColor" ry=".1" transform="translate(0 17.79)"/><rect width="2.066" height=".2" x="82.198" y="-.1" fill="currentColor" ry=".1" transform="translate(0 18.79)"/><rect width="2.066" height=".2" x="77.922" y="-.1" fill="currentColor" ry=".1" transform="translate(0 17.79)"/><rect width="2.066" height=".2" x="77.922" y="-.1" fill="currentColor" ry=".1" transform="translate(0 18.79)"/><rect width="1.897" height=".2" x="71.82" y="-.1" fill="currentColor" ry=".1" transform="translate(0 17.79)"/><rect width="2.066" height=".2" x="71.651" y="-.1" fill="currentColor" ry=".1" transform="translate(0 18.79)"/><rect width="2.066" height=".2" x="67.375" y="-.1" fill="currentColor" ry=".1" transform="translate(0 18.79)"/><rect width="1.911" height=".2" x="61.104" y="-.1" fill="currentColor" ry=".1" transform="translate(0 18.79)"/><rect width="1.805" height=".2" x="56.889" y="-.1" fill="currentColor" ry=".1" transform="translate(0 18.79)"/><rect width="1.805" height=".2" x="51.171" y="-.1" fill="currentColor" ry=".1" transform="translate(0 18.79)"/><rect width="2.066" height=".2" x="43.088" y="-.1" fill="currentColor" ry=".1" transform="translate(0 18.79)"/><rect width="1.897" height=".2" x="38.982" y="-.1" fill="currentColor" ry=".1" transform="translate(0 18.79)"/><path stroke="currentColor" stroke-linecap="round" stroke-linejoin="round" stroke-width=".1" d="M8.586 4.313h83.538M8.586 3.313h83.538M8.586 2.313h83.538M8.586 1.313h83.538M8.586.313h83.538M8.586 23.79h83.538M8.586 22.79h83.538M8.586 21.79h83.538M8.586 20.79h83.538M8.586 19.79h83.538"/><rect width="2.066" height=".2" x="87.554" y="-.1" fill="currentColor" ry=".1" transform="translate(0 7.313)"/><rect width="2.066" height=".2" x="87.554" y="-.1" fill="currentColor" ry=".1" transform="translate(0 8.313)"/><rect width="2.066" height=".2" x="82.198" y="-.1" fill="currentColor" ry=".1" transform="translate(0 8.313)"/><rect width="2.066" height=".2" x="77.922" y="-.1" fill="currentColor" ry=".1" transform="translate(0 8.313)"/><rect width="2.066" height=".2" x="71.651" y="-.1" fill="currentColor" ry=".1" transform="translate(0 8.313)"/><path stroke="currentColor" stroke-linecap="round" stroke-linejoin="round" stroke-width=".1" d="M8.586 13.313h83.538M8.586 12.313h83.538M8.586 11.313h83.538M8.586 10.313h83.538M8.586 9.313h83.538"/><rect width=".19" height="4" y="-2" fill="currentColor" ry="0" transform="translate(47.618 21.79)"/><text fill="currentColor" font-family="sans-serif" font-size="2.616" transform="translate(67.72 -2.843)">
<tspan>E</tspan>
</text><path fill="currentColor" d="M67.134 4.561c0 .04-.032.076-.072.076s-.076-.036-.076-.076v-.58l-.332.124v.632c0 .04-.036.076-.076.076s-.072-.036-.072-.076v-.58l-.128.048c-.008.004-.02.004-.028.004a.08.08 0 0 1-.08-.08v-.24c0-.032.02-.064.052-.076l.184-.064v-.64l-.128.044c-.008.004-.02.004-.028.004a.08.08 0 0 1-.08-.08v-.24c0-.032.02-.06.052-.072l.184-.068v-.632c0-.04.032-.076.072-.076s.076.036.076.076v.58l.332-.124v-.632c0-.04.036-.076.076-.076s.072.036.072.076v.58l.128-.048c.008-.004.02-.004.028-.004a.08.08 0 0 1 .08.08v.24c0 .032-.02.064-.052.076l-.184.064v.64l.128-.044c.008-.004.02-.004.028-.004a.08.08 0 0 1 .08.08v.24c0 .032-.02.06-.052.072l-.184.068zm-.48-1.508v.64l.332-.12v-.64z"/><rect width=".13" height="5.574" x="-.065" y="-2.241" fill="currentColor" ry=".04" transform="translate(67.785 11.313)"/><path fill="currentColor" d="M60.216 16.79q.049-.026.104-.028c.055-.002.064.012.096.028l-.008.732.424-.08h.012c.04 0 .072.028.072.068l.028 2.28c-.032.016-.064.028-.1.028s-.068-.012-.1-.028l.012-.732-.424.08h-.012c-.04 0-.072-.028-.072-.068zm.556 1.052-.368.068-.012.828.368-.068zM73.251 17.53a.17.17 0 0 0-.168-.164q-.024-.001-.048.004c-.124.036-.312.16-.46.256s-.336.212-.416.312a.168.168 0 0 0 .128.276q.024.001.048-.004c.124-.036.308-.16.456-.256s.336-.212.416-.312a.17.17 0 0 0 .044-.112m-.208-.284c.184 0 .328.084.328.284a.7.7 0 0 1-.04.228.7.7 0 0 1-.256.376c-.212.144-.452.2-.748.2-.184 0-.332-.084-.332-.284 0-.076.02-.156.044-.228a.7.7 0 0 1 .252-.376c.212-.144.456-.2.752-.2M68.976 19.03a.17.17 0 0 0-.168-.164q-.024-.001-.048.004c-.124.036-.312.16-.46.256s-.336.212-.416.312a.168.168 0 0 0 .128.276q.024.001.048-.004c.124-.036.308-.16.456-.256s.336-.212.416-.312a.17.17 0 0 0 .044-.112m-.208-.284c.184 0 .328.084.328.284a.7.7 0 0 1-.04.228.7.7 0 0 1-.256.376c-.212.144-.452.2-.748.2-.184 0-.332-.084-.332-.284 0-.076.02-.156.044-.228a.7.7 0 0 1 .252-.376c.212-.144.456-.2.752-.2M68.976 3.053a.17.17 0 0 0-.168-.164q-.024-.001-.048.004c-.124.036-.312.16-.46.256s-.336.212-.416.312a.168.168 0 0 0 .128.276q.024.001.048-.004c.124-.036.308-.16.456-.256s.336-.212.416-.312a.17.17 0 0 0 .044-.112m-.208-.284c.184 0 .328.084.328.284a.7.7 0 0 1-.04.228.7.7 0 0 1-.256.376c-.212.144-.452.2-.748.2-.184 0-.332-.084-.332-.284 0-.076.02-.156.044-.228a.7.7 0 0 1 .252-.376c.212-.144.456-.2.752-.2"/><path fill="currentColor" d="M68.976 2.053a.17.17 0 0 0-.168-.164q-.024-.001-.048.004c-.124.036-.312.16-.46.256s-.336.212-.416.312a.168.168 0 0 0 .128.276q.024.001.048-.004c.124-.036.308-.16.456-.256s.336-.212.416-.312a.17.17 0 0 0 .044-.112m-.208-.284c.184 0 .328.084.328.284a.7.7 0 0 1-.04.228.7.7 0 0 1-.256.376c-.212.144-.452.2-.748.2-.184 0-.332-.084-.332-.284 0-.076.02-.156.044-.228a.7.7 0 0 1 .252-.376c.212-.144.456-.2.752-.2M68.976.553a.17.17 0 0 0-.168-.164q-.024-.001-.048.004c-.124.036-.312.16-.46.256s-.336.212-.416.312a.168.168 0 0 0 .128.276q.024.001.048-.004c.124-.036.308-.16.456-.256s.336-.212.416-.312a.17.17 0 0 0 .044-.112m-.208-.284c.184 0 .328.084.328.284a.7.7 0 0 1-.04.228.7.7 0 0 1-.256.376c-.212.144-.452.2-.748.2-.184 0-.332-.084-.332-.284 0-.076.02-.156.044-.228a.7.7 0 0 1 .252-.376c.212-.144.456-.2.752-.2M68.976 11.053a.17.17 0 0 0-.168-.164q-.024-.001-.048.004c-.124.036-.312.16-.46.256s-.336.212-.416.312a.168.168 0 0 0 .128.276q.024.001.048-.004c.124-.036.308-.16.456-.256s.336-.212.416-.312a.17.17 0 0 0 .044-.112m-.208-.284c.184 0 .328.084.328.284a.7.7 0 0 1-.04.228.7.7 0 0 1-.256.376c-.212.144-.452.2-.748.2-.184 0-.332-.084-.332-.284 0-.076.02-.156.044-.228a.7.7 0 0 1 .252-.376c.212-.144.456-.2.752-.2M68.976 9.553a.17.17 0 0 0-.168-.164q-.024-.001-.048.004c-.124.036-.312.16-.46.256s-.336.212-.416.312a.168.168 0 0 0 .128.276q.024.001.048-.004c.124-.036.308-.16.456-.256s.336-.212.416-.312a.17.17 0 0 0 .044-.112m-.208-.284c.184 0 .328.084.328.284a.7.7 0 0 1-.04.228.7.7 0 0 1-.256.376c-.212.144-.452.2-.748.2-.184 0-.332-.084-.332-.284 0-.076.02-.156.044-.228a.7.7 0 0 1 .252-.376c.212-.144.456-.2.752-.2"/><rect width=".13" height="5.241" x="-.065" y="-1.241" fill="currentColor" ry=".04" transform="translate(67.785 2.313)"/><path fill="currentColor" d="M68.976 18.03a.17.17 0 0 0-.168-.164q-.024-.001-.048.004c-.124.036-.312.16-.46.256s-.336.212-.416.312a.168.168 0 0 0 .128.276q.024.001.048-.004c.124-.036.308-.16.456-.256s.336-.212.416-.312a.17.17 0 0 0 .044-.112m-.208-.284c.184 0 .328.084.328.284a.7.7 0 0 1-.04.228.7.7 0 0 1-.256.376c-.212.144-.452.2-.748.2-.184 0-.332-.084-.332-.284 0-.076.02-.156.044-.228a.7.7 0 0 1 .252-.376c.212-.144.456-.2.752-.2M68.976 8.553a.17.17 0 0 0-.168-.164q-.024-.001-.048.004c-.124.036-.312.16-.46.256s-.336.212-.416.312a.168.168 0 0 0 .128.276q.024.001.048-.004c.124-.036.308-.16.456-.256s.336-.212.416-.312a.17.17 0 0 0 .044-.112m-.208-.284c.184 0 .328.084.328.284a.7.7 0 0 1-.04.228.7.7 0 0 1-.256.376c-.212.144-.452.2-.748.2-.184 0-.332-.084-.332-.284 0-.076.02-.156.044-.228a.7.7 0 0 1 .252-.376c.212-.144.456-.2.752-.2M68.976 20.03a.17.17 0 0 0-.168-.164q-.024-.001-.048.004c-.124.036-.312.16-.46.256s-.336.212-.416.312a.168.168 0 0 0 .128.276q.024.001.048-.004c.124-.036.308-.16.456-.256s.336-.212.416-.312a.17.17 0 0 0 .044-.112m-.208-.284c.184 0 .328.084.328.284a.7.7 0 0 1-.04.228.7.7 0 0 1-.256.376c-.212.144-.452.2-.748.2-.184 0-.332-.084-.332-.284 0-.076.02-.156.044-.228a.7.7 0 0 1 .252-.376c.212-.144.456-.2.752-.2M73.251 18.53a.17.17 0 0 0-.168-.164q-.024-.001-.048.004c-.124.036-.312.16-.46.256s-.336.212-.416.312a.168.168 0 0 0 .128.276q.024.001.048-.004c.124-.036.308-.16.456-.256s.336-.212.416-.312a.17.17 0 0 0 .044-.112m-.208-.284c.184 0 .328.084.328.284a.7.7 0 0 1-.04.228.7.7 0 0 1-.256.376c-.212.144-.452.2-.748.2-.184 0-.332-.084-.332-.284 0-.076.02-.156.044-.228a.7.7 0 0 1 .252-.376c.212-.144.456-.2.752-.2M73.251 20.03a.17.17 0 0 0-.168-.164q-.024-.001-.048.004c-.124.036-.312.16-.46.256s-.336.212-.416.312a.168.168 0 0 0 .128.276q.024.001.048-.004c.124-.036.308-.16.456-.256s.336-.212.416-.312a.17.17 0 0 0 .044-.112m-.208-.284c.184 0 .328.084.328.284a.7.7 0 0 1-.04.228.7.7 0 0 1-.256.376c-.212.144-.452.2-.748.2-.184 0-.332-.084-.332-.284 0-.076.02-.156.044-.228a.7.7 0 0 1 .252-.376c.212-.144.456-.2.752-.2M73.251 8.053a.17.17 0 0 0-.168-.164q-.024-.001-.048.004c-.124.036-.312.16-.46.256s-.336.212-.416.312a.168.168 0 0 0 .128.276q.024.001.048-.004c.124-.036.308-.16.456-.256s.336-.212.416-.312a.17.17 0 0 0 .044-.112m-.208-.284c.184 0 .328.084.328.284a.7.7 0 0 1-.04.228.7.7 0 0 1-.256.376c-.212.144-.452.2-.748.2-.184 0-.332-.084-.332-.284 0-.076.02-.156.044-.228a.7.7 0 0 1 .252-.376c.212-.144.456-.2.752-.2M73.251 9.553a.17.17 0 0 0-.168-.164q-.024-.001-.048.004c-.124.036-.312.16-.46.256s-.336.212-.416.312a.168.168 0 0 0 .128.276q.024.001.048-.004c.124-.036.308-.16.456-.256s.336-.212.416-.312a.17.17 0 0 0 .044-.112m-.208-.284c.184 0 .328.084.328.284a.7.7 0 0 1-.04.228.7.7 0 0 1-.256.376c-.212.144-.452.2-.748.2-.184 0-.332-.084-.332-.284 0-.076.02-.156.044-.228a.7.7 0 0 1 .252-.376c.212-.144.456-.2.752-.2"/><path fill="currentColor" d="M73.251 10.553a.17.17 0 0 0-.168-.164q-.024-.001-.048.004c-.124.036-.312.16-.46.256s-.336.212-.416.312a.168.168 0 0 0 .128.276q.024.001.048-.004c.124-.036.308-.16.456-.256s.336-.212.416-.312a.17.17 0 0 0 .044-.112m-.208-.284c.184 0 .328.084.328.284a.7.7 0 0 1-.04.228.7.7 0 0 1-.256.376c-.212.144-.452.2-.748.2-.184 0-.332-.084-.332-.284 0-.076.02-.156.044-.228a.7.7 0 0 1 .252-.376c.212-.144.456-.2.752-.2M73.251.553a.17.17 0 0 0-.168-.164q-.024-.001-.048.004c-.124.036-.312.16-.46.256s-.336.212-.416.312a.168.168 0 0 0 .128.276q.024.001.048-.004c.124-.036.308-.16.456-.256s.336-.212.416-.312a.17.17 0 0 0 .044-.112m-.208-.284c.184 0 .328.084.328.284a.7.7 0 0 1-.04.228.7.7 0 0 1-.256.376c-.212.144-.452.2-.748.2-.184 0-.332-.084-.332-.284 0-.076.02-.156.044-.228a.7.7 0 0 1 .252-.376c.212-.144.456-.2.752-.2"/><path fill="currentColor" d="M73.251 1.553a.17.17 0 0 0-.168-.164q-.024-.001-.048.004c-.124.036-.312.16-.46.256s-.336.212-.416.312a.168.168 0 0 0 .128.276q.024.001.048-.004c.124-.036.308-.16.456-.256s.336-.212.416-.312a.17.17 0 0 0 .044-.112m-.208-.284c.184 0 .328.084.328.284a.7.7 0 0 1-.04.228.7.7 0 0 1-.256.376c-.212.144-.452.2-.748.2-.184 0-.332-.084-.332-.284 0-.076.02-.156.044-.228a.7.7 0 0 1 .252-.376c.212-.144.456-.2.752-.2"/><path fill="currentColor" d="M73.251 2.553a.17.17 0 0 0-.168-.164q-.024-.001-.048.004c-.124.036-.312.16-.46.256s-.336.212-.416.312a.168.168 0 0 0 .128.276q.024.001.048-.004c.124-.036.308-.16.456-.256s.336-.212.416-.312a.17.17 0 0 0 .044-.112m-.208-.284c.184 0 .328.084.328.284a.7.7 0 0 1-.04.228.7.7 0 0 1-.256.376c-.212.144-.452.2-.748.2-.184 0-.332-.084-.332-.284 0-.076.02-.156.044-.228a.7.7 0 0 1 .252-.376c.212-.144.456-.2.752-.2"/><text fill="currentColor" font-family="sans-serif" font-size="2.616" transform="translate(71.995 -2.843)">
<tspan>A</tspan>
</text><path fill="currentColor" d="M67.134 20.538c0 .04-.032.076-.072.076s-.076-.036-.076-.076v-.58l-.332.124v.632c0 .04-.036.076-.076.076s-.072-.036-.072-.076v-.58l-.128.048c-.008.004-.02.004-.028.004a.08.08 0 0 1-.08-.08v-.24c0-.032.02-.064.052-.076l.184-.064v-.64l-.128.044c-.008.004-.02.004-.028.004a.08.08 0 0 1-.08-.08v-.24c0-.032.02-.06.052-.072l.184-.068v-.632c0-.04.032-.076.072-.076s.076.036.076.076v.58l.332-.124v-.632c0-.04.036-.076.076-.076s.072.036.072.076v.58l.128-.048c.008-.004.02-.004.028-.004a.08.08 0 0 1 .08.08v.24c0 .032-.02.064-.052.076l-.184.064v.64l.128-.044c.008-.004.02-.004.028-.004a.08.08 0 0 1 .08.08v.24c0 .032-.02.06-.052.072l-.184.068zm-.48-1.508v.64l.332-.12v-.64z"/><rect width=".13" height="5.241" x="-.065" y="-3.241" fill="currentColor" ry=".04" transform="translate(67.785 21.79)"/><path fill="currentColor" d="M67.134 10.061c0 .04-.032.076-.072.076s-.076-.036-.076-.076v-.58l-.332.124v.632c0 .04-.036.076-.076.076s-.072-.036-.072-.076v-.58l-.128.048c-.008.004-.02.004-.028.004a.08.08 0 0 1-.08-.08v-.24c0-.032.02-.064.052-.076l.184-.064v-.64l-.128.044c-.008.004-.02.004-.028.004a.08.08 0 0 1-.08-.08v-.24c0-.032.02-.06.052-.072l.184-.068v-.632c0-.04.032-.076.072-.076s.076.036.076.076v.58l.332-.124v-.632c0-.04.036-.076.076-.076s.072.036.072.076v.58l.128-.048c.008-.004.02-.004.028-.004a.08.08 0 0 1 .08.08v.24c0 .032-.02.064-.052.076l-.184.064v.64l.128-.044c.008-.004.02-.004.028-.004a.08.08 0 0 1 .08.08v.24c0 .032-.02.06-.052.072l-.184.068zm-.48-1.508v.64l.332-.12v-.64zM55.414 5.061c0 .04-.032.076-.072.076s-.076-.036-.076-.076v-.58l-.332.124v.632c0 .04-.036.076-.076.076s-.072-.036-.072-.076v-.58l-.128.048q-.014.005-.028.004a.08.08 0 0 1-.08-.08v-.24c0-.032.02-.064.052-.076l.184-.064v-.64l-.128.044q-.014.005-.028.004a.08.08 0 0 1-.08-.08v-.24c0-.032.02-.06.052-.072l.184-.068v-.632c0-.04.032-.076.072-.076s.076.036.076.076v.58l.332-.124v-.632c0-.04.036-.076.076-.076s.072.036.072.076v.58l.128-.048q.014-.005.028-.004a.08.08 0 0 1 .08.08v.24c0 .032-.02.064-.052.076l-.184.064v.64l.128-.044q.014-.005.028-.004a.08.08 0 0 1 .08.08v.24c0 .032-.02.06-.052.072l-.184.068zm-.48-1.508v.64l.332-.12v-.64zM54.114 4.061c0 .04-.032.076-.072.076s-.076-.036-.076-.076v-.58l-.332.124v.632c0 .04-.036.076-.076.076s-.072-.036-.072-.076v-.58l-.128.048c-.008.004-.02.004-.028.004a.08.08 0 0 1-.08-.08v-.24c0-.032.02-.064.052-.076l.184-.064v-.64l-.128.044c-.008.004-.02.004-.028.004a.08.08 0 0 1-.08-.08v-.24c0-.032.02-.06.052-.072l.184-.068v-.632c0-.04.032-.076.072-.076s.076.036.076.076v.58l.332-.124v-.632c0-.04.036-.076.076-.076s.072.036.072.076v.58l.128-.048c.008-.004.02-.004.028-.004a.08.08 0 0 1 .08.08v.24c0 .032-.02.064-.052.076l-.184.064v.64l.128-.044c.008-.004.02-.004.028-.004a.08.08 0 0 1 .08.08v.24c0 .032-.02.06-.052.072l-.184.068zm-.48-1.508v.64l.332-.12v-.64zM56.478 3.061c0 .04-.032.076-.072.076s-.076-.036-.076-.076v-.58l-.332.124v.632c0 .04-.036.076-.076.076s-.072-.036-.072-.076v-.58l-.128.048c-.008.004-.02.004-.028.004a.08.08 0 0 1-.08-.08v-.24c0-.032.02-.064.052-.076l.184-.064v-.64l-.128.044c-.008.004-.02.004-.028.004a.08.08 0 0 1-.08-.08v-.24c0-.032.02-.06.052-.072l.184-.068V.565c0-.04.032-.076.072-.076s.076.036.076.076v.58l.332-.124V.389c0-.04.036-.076.076-.076s.072.036.072.076v.58l.128-.048c.008-.004.02-.004.028-.004a.08.08 0 0 1 .08.08v.24c0 .032-.02.064-.052.076l-.184.064v.64l.128-.044c.008-.004.02-.004.028-.004a.08.08 0 0 1 .08.08v.24c0 .032-.02.06-.052.072l-.184.068zm-.48-1.508v.64l.332-.12v-.64z"/><rect width=".13" height="5.481" x="-.065" y="-1.814" fill="currentColor" ry=".04" transform="translate(57.13 11.313)"/><rect width=".13" height="4.981" x="-.065" y="-3.667" fill="currentColor" ry=".04" transform="translate(58.303 2.313)"/><path fill="currentColor" d="M55.51 13.061c0 .04-.033.076-.073.076s-.076-.036-.076-.076v-.58l-.332.124v.632c0 .04-.036.076-.076.076s-.072-.036-.072-.076v-.58l-.128.048q-.014.005-.028.004a.08.08 0 0 1-.08-.08v-.24c0-.032.02-.064.052-.076l.184-.064v-.64l-.128.044q-.014.005-.028.004a.08.08 0 0 1-.08-.08v-.24c0-.032.02-.06.052-.072l.184-.068v-.632c0-.04.032-.076.072-.076s.076.036.076.076v.58l.332-.124v-.632c0-.04.036-.076.076-.076s.072.036.072.076v.58l.128-.048q.014-.005.028-.004a.08.08 0 0 1 .08.08v.24c0 .032-.02.064-.052.076l-.184.064v.64l.128-.044q.014-.005.028-.004a.08.08 0 0 1 .08.08v.24c0 .032-.02.06-.052.072l-.184.068zm-.48-1.508v.64l.331-.12v-.64zM54.21 12.061c0 .04-.033.076-.073.076s-.076-.036-.076-.076v-.58l-.332.124v.632c0 .04-.036.076-.076.076s-.072-.036-.072-.076v-.58l-.128.048c-.008.004-.02.004-.028.004a.08.08 0 0 1-.08-.08v-.24c0-.032.02-.064.052-.076l.184-.064v-.64l-.128.044c-.008.004-.02.004-.028.004a.08.08 0 0 1-.08-.08v-.24c0-.032.02-.06.052-.072l.184-.068v-.632c0-.04.032-.076.072-.076s.076.036.076.076v.58l.332-.124v-.632c0-.04.036-.076.076-.076s.072.036.072.076v.58l.128-.048c.008-.004.02-.004.028-.004a.08.08 0 0 1 .08.08v.24c0 .032-.02.064-.052.076l-.184.064v.64l.128-.044c.008-.004.02-.004.028-.004a.08.08 0 0 1 .08.08v.24c0 .032-.02.06-.052.072l-.184.068zm-.48-1.508v.64l.331-.12v-.64zM56.478 10.561c0 .04-.032.076-.072.076s-.076-.036-.076-.076v-.58l-.332.124v.632c0 .04-.036.076-.076.076s-.072-.036-.072-.076v-.58l-.128.048c-.008.004-.02.004-.028.004a.08.08 0 0 1-.08-.08v-.24c0-.032.02-.064.052-.076l.184-.064v-.64l-.128.044c-.008.004-.02.004-.028.004a.08.08 0 0 1-.08-.08v-.24c0-.032.02-.06.052-.072l.184-.068v-.632c0-.04.032-.076.072-.076s.076.036.076.076v.58l.332-.124v-.632c0-.04.036-.076.076-.076s.072.036.072.076v.58l.128-.048c.008-.004.02-.004.028-.004a.08.08 0 0 1 .08.08v.24c0 .032-.02.064-.052.076l-.184.064v.64l.128-.044c.008-.004.02-.004.028-.004a.08.08 0 0 1 .08.08v.24c0 .032-.02.06-.052.072l-.184.068zm-.48-1.508v.64l.332-.12v-.64z"/><rect width=".13" height="5.814" x="-.065" y="-2.814" fill="currentColor" ry=".04" transform="translate(57.13 21.79)"/><path fill="currentColor" d="M57.936 2.269c.22 0 .432.112.432.356 0 .284-.22.484-.408.596a.9.9 0 0 1-.464.136c-.22 0-.432-.112-.432-.356 0-.284.22-.484.408-.596.14-.084.3-.136.464-.136"/><path fill="currentColor" stroke="currentColor" stroke-linecap="round" stroke-linejoin="round" stroke-width=".08" d="M52.198 4.813c.516.598 1.637.598 2.152 0h0c-.515.478-1.636.478-2.152 0"/><text fill="currentColor" font-family="sans-serif" font-size="2.616" transform="translate(57.064 -2.843)">
<tspan>F</tspan>
</text><path fill="currentColor" d="M59.474-2.132c0 .042-.034.08-.076.08s-.08-.038-.08-.08v-.61l-.348.13v.664c0 .042-.038.08-.08.08s-.076-.038-.076-.08v-.609l-.134.05c-.008.005-.021.005-.03.005a.084.084 0 0 1-.083-.084v-.252c0-.034.02-.067.054-.08l.193-.067v-.672l-.134.046c-.008.004-.021.004-.03.004a.084.084 0 0 1-.083-.084v-.252a.08.08 0 0 1 .054-.075l.193-.072v-.663c0-.042.034-.08.076-.08s.08.038.08.08v.609l.348-.13v-.664c0-.042.038-.08.08-.08s.076.038.076.08v.609l.134-.05q.015-.006.03-.005c.046 0 .084.038.084.084v.252a.09.09 0 0 1-.055.08l-.193.067v.672l.134-.046q.015-.005.03-.004c.046 0 .084.038.084.084v.252a.08.08 0 0 1-.055.075l-.193.072zm-.504-1.584v.672l.348-.126v-.672zM57.936 3.269c.22 0 .432.112.432.356 0 .284-.22.484-.408.596a.9.9 0 0 1-.464.136c-.22 0-.432-.112-.432-.356 0-.284.22-.484.408-.596.14-.084.3-.136.464-.136M57.936 1.269c.22 0 .432.112.432.356 0 .284-.22.484-.408.596a.9.9 0 0 1-.464.136c-.22 0-.432-.112-.432-.356 0-.284.22-.484.408-.596.14-.084.3-.136.464-.136M57.936 11.269c.22 0 .432.112.432.356 0 .284-.22.484-.408.596a.9.9 0 0 1-.464.136c-.22 0-.432-.112-.432-.356 0-.284.22-.484.408-.596.14-.084.3-.136.464-.136"/><path fill="currentColor" d="M57.936 10.269c.22 0 .432.112.432.356 0 .284-.22.484-.408.596a.9.9 0 0 1-.464.136c-.22 0-.432-.112-.432-.356 0-.284.22-.484.408-.596.14-.084.3-.136.464-.136M57.936 8.769c.22 0 .432.112.432.356 0 .284-.22.484-.408.596a.9.9 0 0 1-.464.136c-.22 0-.432-.112-.432-.356 0-.284.22-.484.408-.596.14-.084.3-.136.464-.136M57.936 20.746c.22 0 .432.112.432.356 0 .284-.22.484-.408.596a.9.9 0 0 1-.464.136c-.22 0-.432-.112-.432-.356 0-.284.22-.484.408-.596.14-.084.3-.136.464-.136M57.936 19.246c.22 0 .432.112.432.356 0 .284-.22.484-.408.596a.9.9 0 0 1-.464.136c-.22 0-.432-.112-.432-.356 0-.284.22-.484.408-.596.14-.084.3-.136.464-.136"/><path fill="currentColor" d="M57.936 18.246c.22 0 .432.112.432.356 0 .284-.22.484-.408.596a.9.9 0 0 1-.464.136c-.22 0-.432-.112-.432-.356 0-.284.22-.484.408-.596.14-.084.3-.136.464-.136M58.937.813c.032-.016.068-.028.104-.028s.064.012.096.028l-.009.732.424-.08h.012c.04 0 .072.028.072.068l.028 2.28q-.047.026-.1.028c-.053.002-.068-.012-.1-.028l.012-.732-.424.08h-.012c-.04 0-.072-.028-.072-.068zm.556 1.052-.369.068-.012.828.368-.068zM60.708 2.561c0 .04-.032.076-.072.076s-.076-.036-.076-.076v-.58l-.332.124v.632c0 .04-.036.076-.076.076s-.072-.036-.072-.076v-.58l-.128.048c-.008.004-.02.004-.028.004a.08.08 0 0 1-.08-.08v-.24c0-.032.02-.064.052-.076l.184-.064v-.64l-.128.044c-.008.004-.02.004-.028.004a.08.08 0 0 1-.08-.08v-.24c0-.032.02-.06.052-.072l.184-.068V.065c0-.04.032-.076.072-.076s.076.036.076.076v.58l.332-.124v-.632c0-.04.036-.076.076-.076s.072.036.072.076v.58l.128-.048c.008-.004.02-.004.028-.004a.08.08 0 0 1 .08.08v.24c0 .032-.02.064-.052.076l-.184.064v.64l.128-.044c.008-.004.02-.004.028-.004a.08.08 0 0 1 .08.08v.24c0 .032-.02.06-.052.072l-.184.068zm-.48-1.508v.64l.332-.12v-.64z"/><rect width=".13" height="5.074" x="-.065" y="-1.741" fill="currentColor" ry=".04" transform="translate(61.359 11.313)"/><path fill="currentColor" d="M58.937 9.813c.032-.016.068-.028.104-.028s.064.012.096.028l-.009.732.424-.08h.012c.04 0 .072.028.072.068l.028 2.28q-.047.026-.1.028c-.053.002-.068-.012-.1-.028l.012-.732-.424.08h-.012c-.04 0-.072-.028-.072-.068zm.556 1.052-.369.068-.012.828.368-.068zM60.708 11.561c0 .04-.032.076-.072.076s-.076-.036-.076-.076v-.58l-.332.124v.632c0 .04-.036.076-.076.076s-.072-.036-.072-.076v-.58l-.128.048c-.008.004-.02.004-.028.004a.08.08 0 0 1-.08-.08v-.24c0-.032.02-.064.052-.076l.184-.064v-.64l-.128.044c-.008.004-.02.004-.028.004a.08.08 0 0 1-.08-.08v-.24c0-.032.02-.06.052-.072l.184-.068v-.632c0-.04.032-.076.072-.076s.076.036.076.076v.58l.332-.124v-.632c0-.04.036-.076.076-.076s.072.036.072.076v.58l.128-.048c.008-.004.02-.004.028-.004a.08.08 0 0 1 .08.08v.24c0 .032-.02.064-.052.076l-.184.064v.64l.128-.044c.008-.004.02-.004.028-.004a.08.08 0 0 1 .08.08v.24c0 .032-.02.06-.052.072l-.184.068zm-.48-1.508v.64l.332-.12v-.64z"/><rect width=".13" height="5.741" x="-.065" y="-3.241" fill="currentColor" ry=".04" transform="translate(61.359 21.79)"/><path fill="currentColor" d="M62.55 1.053a.17.17 0 0 0-.168-.164q-.024-.001-.048.004c-.124.036-.312.16-.46.256s-.336.212-.416.312a.168.168 0 0 0 .128.276q.024.001.048-.004c.124-.036.308-.16.456-.256s.336-.212.416-.312a.17.17 0 0 0 .044-.112m-.208-.284c.184 0 .328.084.328.284a.7.7 0 0 1-.04.228.7.7 0 0 1-.256.376c-.212.144-.452.2-.748.2-.184 0-.332-.084-.332-.284 0-.076.02-.156.044-.228a.7.7 0 0 1 .252-.376c.212-.144.456-.2.752-.2M55.51 22.538c0 .04-.033.076-.073.076s-.076-.036-.076-.076v-.58l-.332.124v.632c0 .04-.036.076-.076.076s-.072-.036-.072-.076v-.58l-.128.048q-.014.005-.028.004a.08.08 0 0 1-.08-.08v-.24c0-.032.02-.064.052-.076l.184-.064v-.64l-.128.044q-.014.005-.028.004a.08.08 0 0 1-.08-.08v-.24c0-.032.02-.06.052-.072l.184-.068v-.632c0-.04.032-.076.072-.076s.076.036.076.076v.58l.332-.124v-.632c0-.04.036-.076.076-.076s.072.036.072.076v.58l.128-.048q.014-.005.028-.004a.08.08 0 0 1 .08.08v.24c0 .032-.02.064-.052.076l-.184.064v.64l.128-.044q.014-.005.028-.004a.08.08 0 0 1 .08.08v.24c0 .032-.02.06-.052.072l-.184.068zm-.48-1.508v.64l.331-.12v-.64zM54.445 21.038c0 .04-.032.076-.072.076s-.076-.036-.076-.076v-.58l-.332.124v.632c0 .04-.036.076-.076.076s-.072-.036-.072-.076v-.58l-.128.048q-.014.005-.028.004a.08.08 0 0 1-.08-.08v-.24c0-.032.02-.064.052-.076l.184-.064v-.64l-.128.044q-.014.005-.028.004a.08.08 0 0 1-.08-.08v-.24c0-.032.02-.06.052-.072l.184-.068v-.632c0-.04.032-.076.072-.076s.076.036.076.076v.58l.332-.124v-.632c0-.04.036-.076.076-.076s.072.036.072.076v.58l.128-.048q.014-.005.028-.004a.08.08 0 0 1 .08.08v.24c0 .032-.02.064-.052.076l-.184.064v.64l.128-.044q.014-.005.028-.004a.08.08 0 0 1 .08.08v.24c0 .032-.02.06-.052.072l-.184.068zm-.48-1.508v.64l.332-.12v-.64zM56.478 20.038c0 .04-.032.076-.072.076s-.076-.036-.076-.076v-.58l-.332.124v.632c0 .04-.036.076-.076.076s-.072-.036-.072-.076v-.58l-.128.048c-.008.004-.02.004-.028.004a.08.08 0 0 1-.08-.08v-.24c0-.032.02-.064.052-.076l.184-.064v-.64l-.128.044c-.008.004-.02.004-.028.004a.08.08 0 0 1-.08-.08v-.24c0-.032.02-.06.052-.072l.184-.068v-.632c0-.04.032-.076.072-.076s.076.036.076.076v.58l.332-.124v-.632c0-.04.036-.076.076-.076s.072.036.072.076v.58l.128-.048c.008-.004.02-.004.028-.004a.08.08 0 0 1 .08.08v.24c0 .032-.02.064-.052.076l-.184.064v.64l.128-.044c.008-.004.02-.004.028-.004a.08.08 0 0 1 .08.08v.24c0 .032-.02.06-.052.072l-.184.068zm-.48-1.508v.64l.332-.12v-.64z"/><text fill="currentColor" font-family="sans-serif" font-size="2.616" transform="translate(61.294 -2.843)">
<tspan>B</tspan>
</text><path fill="currentColor" d="M62.55 3.553a.17.17 0 0 0-.168-.164q-.024-.001-.048.004c-.124.036-.312.16-.46.256s-.336.212-.416.312a.168.168 0 0 0 .128.276q.024.001.048-.004c.124-.036.308-.16.456-.256s.336-.212.416-.312a.17.17 0 0 0 .044-.112m-.208-.284c.184 0 .328.084.328.284a.7.7 0 0 1-.04.228.7.7 0 0 1-.256.376c-.212.144-.452.2-.748.2-.184 0-.332-.084-.332-.284 0-.076.02-.156.044-.228a.7.7 0 0 1 .252-.376c.212-.144.456-.2.752-.2M62.55 2.053a.17.17 0 0 0-.168-.164q-.024-.001-.048.004c-.124.036-.312.16-.46.256s-.336.212-.416.312a.168.168 0 0 0 .128.276q.024.001.048-.004c.124-.036.308-.16.456-.256s.336-.212.416-.312a.17.17 0 0 0 .044-.112m-.208-.284c.184 0 .328.084.328.284a.7.7 0 0 1-.04.228.7.7 0 0 1-.256.376c-.212.144-.452.2-.748.2-.184 0-.332-.084-.332-.284 0-.076.02-.156.044-.228a.7.7 0 0 1 .252-.376c.212-.144.456-.2.752-.2M60.184 22.038c0 .04-.032.076-.072.076s-.076-.036-.076-.076v-.58l-.332.124v.632c0 .04-.036.076-.076.076s-.072-.036-.072-.076v-.58l-.128.048c-.008.004-.02.004-.028.004a.08.08 0 0 1-.08-.08v-.24c0-.032.02-.064.052-.076l.184-.064v-.64l-.128.044c-.008.004-.02.004-.028.004a.08.08 0 0 1-.08-.08v-.24c0-.032.02-.06.052-.072l.184-.068v-.632c0-.04.032-.076.072-.076s.076.036.076.076v.58l.332-.124v-.632c0-.04.036-.076.076-.076s.072.036.072.076v.58l.128-.048c.008-.004.02-.004.028-.004a.08.08 0 0 1 .08.08v.24c0 .032-.02.064-.052.076l-.184.064v.64l.128-.044c.008-.004.02-.004.028-.004a.08.08 0 0 1 .08.08v.24c0 .032-.02.06-.052.072l-.184.068zm-.48-1.508v.64l.332-.12v-.64zM62.55 11.053a.17.17 0 0 0-.168-.164q-.024-.001-.048.004c-.124.036-.312.16-.46.256s-.336.212-.416.312a.168.168 0 0 0 .128.276q.024.001.048-.004c.124-.036.308-.16.456-.256s.336-.212.416-.312a.17.17 0 0 0 .044-.112m-.208-.284c.184 0 .328.084.328.284a.7.7 0 0 1-.04.228.7.7 0 0 1-.256.376c-.212.144-.452.2-.748.2-.184 0-.332-.084-.332-.284 0-.076.02-.156.044-.228a.7.7 0 0 1 .252-.376c.212-.144.456-.2.752-.2"/><path fill="currentColor" d="M62.55 10.053a.17.17 0 0 0-.168-.164q-.024-.001-.048.004c-.124.036-.312.16-.46.256s-.336.212-.416.312a.168.168 0 0 0 .128.276q.024.001.048-.004c.124-.036.308-.16.456-.256s.336-.212.416-.312a.17.17 0 0 0 .044-.112m-.208-.284c.184 0 .328.084.328.284a.7.7 0 0 1-.04.228.7.7 0 0 1-.256.376c-.212.144-.452.2-.748.2-.184 0-.332-.084-.332-.284 0-.076.02-.156.044-.228a.7.7 0 0 1 .252-.376c.212-.144.456-.2.752-.2"/><path fill="currentColor" d="M62.55 9.053a.17.17 0 0 0-.168-.164q-.024-.001-.048.004c-.124.036-.312.16-.46.256s-.336.212-.416.312a.168.168 0 0 0 .128.276q.024.001.048-.004c.124-.036.308-.16.456-.256s.336-.212.416-.312a.17.17 0 0 0 .044-.112m-.208-.284c.184 0 .328.084.328.284a.7.7 0 0 1-.04.228.7.7 0 0 1-.256.376c-.212.144-.452.2-.748.2-.184 0-.332-.084-.332-.284 0-.076.02-.156.044-.228a.7.7 0 0 1 .252-.376c.212-.144.456-.2.752-.2M62.55 20.53a.17.17 0 0 0-.168-.164q-.024-.001-.048.004c-.124.036-.312.16-.46.256s-.336.212-.416.312a.168.168 0 0 0 .128.276q.024.001.048-.004c.124-.036.308-.16.456-.256s.336-.212.416-.312a.17.17 0 0 0 .044-.112m-.208-.284c.184 0 .328.084.328.284a.7.7 0 0 1-.04.228.7.7 0 0 1-.256.376c-.212.144-.452.2-.748.2-.184 0-.332-.084-.332-.284 0-.076.02-.156.044-.228a.7.7 0 0 1 .252-.376c.212-.144.456-.2.752-.2"/><path fill="currentColor" d="M62.55 19.53a.17.17 0 0 0-.168-.164q-.024-.001-.048.004c-.124.036-.312.16-.46.256s-.336.212-.416.312a.168.168 0 0 0 .128.276q.024.001.048-.004c.124-.036.308-.16.456-.256s.336-.212.416-.312a.17.17 0 0 0 .044-.112m-.208-.284c.184 0 .328.084.328.284a.7.7 0 0 1-.04.228.7.7 0 0 1-.256.376c-.212.144-.452.2-.748.2-.184 0-.332-.084-.332-.284 0-.076.02-.156.044-.228a.7.7 0 0 1 .252-.376c.212-.144.456-.2.752-.2M62.55 18.03a.17.17 0 0 0-.168-.164q-.024-.001-.048.004c-.124.036-.312.16-.46.256s-.336.212-.416.312a.168.168 0 0 0 .128.276q.024.001.048-.004c.124-.036.308-.16.456-.256s.336-.212.416-.312a.17.17 0 0 0 .044-.112m-.208-.284c.184 0 .328.084.328.284a.7.7 0 0 1-.04.228.7.7 0 0 1-.256.376c-.212.144-.452.2-.748.2-.184 0-.332-.084-.332-.284 0-.076.02-.156.044-.228a.7.7 0 0 1 .252-.376c.212-.144.456-.2.752-.2"/><rect width=".13" height="5.241" x="-.065" y="-4" fill="currentColor" ry=".04" transform="translate(62.606 2.313)"/><path fill="currentColor" d="M89.154 16.53a.17.17 0 0 0-.168-.164q-.024-.001-.048.004c-.124.036-.312.16-.46.256s-.336.212-.416.312a.168.168 0 0 0 .128.276q.024.001.048-.004c.124-.036.308-.16.456-.256s.336-.212.416-.312a.17.17 0 0 0 .044-.112m-.208-.284c.184 0 .328.084.328.284a.7.7 0 0 1-.04.228.7.7 0 0 1-.256.376c-.212.144-.452.2-.748.2-.184 0-.332-.084-.332-.284 0-.076.02-.156.044-.228a.7.7 0 0 1 .252-.376c.212-.144.456-.2.752-.2M89.154 1.553a.17.17 0 0 0-.168-.164q-.024-.001-.048.004c-.124.036-.312.16-.46.256s-.336.212-.416.312a.168.168 0 0 0 .128.276q.024.001.048-.004c.124-.036.308-.16.456-.256s.336-.212.416-.312a.17.17 0 0 0 .044-.112m-.208-.284c.184 0 .328.084.328.284a.7.7 0 0 1-.04.228.7.7 0 0 1-.256.376c-.212.144-.452.2-.748.2-.184 0-.332-.084-.332-.284 0-.076.02-.156.044-.228a.7.7 0 0 1 .252-.376c.212-.144.456-.2.752-.2"/><path fill="currentColor" d="M89.154.553a.17.17 0 0 0-.168-.164q-.024-.001-.048.004c-.124.036-.312.16-.46.256s-.336.212-.416.312a.168.168 0 0 0 .128.276q.024.001.048-.004c.124-.036.308-.16.456-.256s.336-.212.416-.312a.17.17 0 0 0 .044-.112m-.208-.284c.184 0 .328.084.328.284a.7.7 0 0 1-.04.228.7.7 0 0 1-.256.376c-.212.144-.452.2-.748.2-.184 0-.332-.084-.332-.284 0-.076.02-.156.044-.228a.7.7 0 0 1 .252-.376c.212-.144.456-.2.752-.2"/><path fill="currentColor" d="M89.154-.447a.17.17 0 0 0-.168-.164q-.024-.001-.048.004c-.124.036-.312.16-.46.256s-.336.212-.416.312a.168.168 0 0 0 .128.276q.024.001.048-.004c.124-.036.308-.16.456-.256s.336-.212.416-.312a.17.17 0 0 0 .044-.112m-.208-.284c.184 0 .328.084.328.284a.7.7 0 0 1-.04.228.7.7 0 0 1-.256.376c-.212.144-.452.2-.748.2-.184 0-.332-.084-.332-.284 0-.076.02-.156.044-.228a.7.7 0 0 1 .252-.376c.212-.144.456-.2.752-.2M89.154 9.553a.17.17 0 0 0-.168-.164q-.024-.001-.048.004c-.124.036-.312.16-.46.256s-.336.212-.416.312a.168.168 0 0 0 .128.276q.024.001.048-.004c.124-.036.308-.16.456-.256s.336-.212.416-.312a.17.17 0 0 0 .044-.112m-.208-.284c.184 0 .328.084.328.284a.7.7 0 0 1-.04.228.7.7 0 0 1-.256.376c-.212.144-.452.2-.748.2-.184 0-.332-.084-.332-.284 0-.076.02-.156.044-.228a.7.7 0 0 1 .252-.376c.212-.144.456-.2.752-.2"/><path fill="currentColor" d="M89.154 8.553a.17.17 0 0 0-.168-.164q-.024-.001-.048.004c-.124.036-.312.16-.46.256s-.336.212-.416.312a.168.168 0 0 0 .128.276q.024.001.048-.004c.124-.036.308-.16.456-.256s.336-.212.416-.312a.17.17 0 0 0 .044-.112m-.208-.284c.184 0 .328.084.328.284a.7.7 0 0 1-.04.228.7.7 0 0 1-.256.376c-.212.144-.452.2-.748.2-.184 0-.332-.084-.332-.284 0-.076.02-.156.044-.228a.7.7 0 0 1 .252-.376c.212-.144.456-.2.752-.2M89.154 7.053a.17.17 0 0 0-.168-.164q-.024-.001-.048.004c-.124.036-.312.16-.46.256s-.336.212-.416.312a.168.168 0 0 0 .128.276q.024.001.048-.004c.124-.036.308-.16.456-.256s.336-.212.416-.312a.17.17 0 0 0 .044-.112m-.208-.284c.184 0 .328.084.328.284a.7.7 0 0 1-.04.228.7.7 0 0 1-.256.376c-.212.144-.452.2-.748.2-.184 0-.332-.084-.332-.284 0-.076.02-.156.044-.228a.7.7 0 0 1 .252-.376c.212-.144.456-.2.752-.2M89.154 19.03a.17.17 0 0 0-.168-.164q-.024-.001-.048.004c-.124.036-.312.16-.46.256s-.336.212-.416.312a.168.168 0 0 0 .128.276q.024.001.048-.004c.124-.036.308-.16.456-.256s.336-.212.416-.312a.17.17 0 0 0 .044-.112m-.208-.284c.184 0 .328.084.328.284a.7.7 0 0 1-.04.228.7.7 0 0 1-.256.376c-.212.144-.452.2-.748.2-.184 0-.332-.084-.332-.284 0-.076.02-.156.044-.228a.7.7 0 0 1 .252-.376c.212-.144.456-.2.752-.2M89.154 17.53a.17.17 0 0 0-.168-.164q-.024-.001-.048.004c-.124.036-.312.16-.46.256s-.336.212-.416.312a.168.168 0 0 0 .128.276q.024.001.048-.004c.124-.036.308-.16.456-.256s.336-.212.416-.312a.17.17 0 0 0 .044-.112m-.208-.284c.184 0 .328.084.328.284a.7.7 0 0 1-.04.228.7.7 0 0 1-.256.376c-.212.144-.452.2-.748.2-.184 0-.332-.084-.332-.284 0-.076.02-.156.044-.228a.7.7 0 0 1 .252-.376c.212-.144.456-.2.752-.2"/><text fill="currentColor" font-family="sans-serif" font-size="2.616" transform="translate(87.898 -2.843)">
<tspan>C</tspan>
</text><rect width=".13" height="5.241" x="-.065" y="-2.241" fill="currentColor" ry=".04" transform="translate(87.963 2.313)"/><rect width=".13" height="5.741" x="-.065" y="-3.241" fill="currentColor" ry=".04" transform="translate(82.607 11.313)"/><path fill="currentColor" d="M83.798 7.553a.17.17 0 0 0-.168-.164q-.024-.001-.048.004c-.124.036-.312.16-.46.256s-.336.212-.416.312a.168.168 0 0 0 .128.276q.024.001.048-.004c.124-.036.308-.16.456-.256s.336-.212.416-.312a.17.17 0 0 0 .044-.112m-.208-.284c.184 0 .328.084.328.284a.7.7 0 0 1-.04.228.7.7 0 0 1-.256.376c-.212.144-.452.2-.748.2-.184 0-.332-.084-.332-.284 0-.076.02-.156.044-.228a.7.7 0 0 1 .252-.376c.212-.144.456-.2.752-.2M83.798 19.03a.17.17 0 0 0-.168-.164q-.024-.001-.048.004c-.124.036-.312.16-.46.256s-.336.212-.416.312a.168.168 0 0 0 .128.276q.024.001.048-.004c.124-.036.308-.16.456-.256s.336-.212.416-.312a.17.17 0 0 0 .044-.112m-.208-.284c.184 0 .328.084.328.284a.7.7 0 0 1-.04.228.7.7 0 0 1-.256.376c-.212.144-.452.2-.748.2-.184 0-.332-.084-.332-.284 0-.076.02-.156.044-.228a.7.7 0 0 1 .252-.376c.212-.144.456-.2.752-.2"/><path fill="currentColor" d="M83.798 18.03a.17.17 0 0 0-.168-.164q-.024-.001-.048.004c-.124.036-.312.16-.46.256s-.336.212-.416.312a.168.168 0 0 0 .128.276q.024.001.048-.004c.124-.036.308-.16.456-.256s.336-.212.416-.312a.17.17 0 0 0 .044-.112m-.208-.284c.184 0 .328.084.328.284a.7.7 0 0 1-.04.228.7.7 0 0 1-.256.376c-.212.144-.452.2-.748.2-.184 0-.332-.084-.332-.284 0-.076.02-.156.044-.228a.7.7 0 0 1 .252-.376c.212-.144.456-.2.752-.2"/><path fill="currentColor" d="M83.798 17.03a.17.17 0 0 0-.168-.164q-.024-.001-.048.004c-.124.036-.312.16-.46.256s-.336.212-.416.312a.168.168 0 0 0 .128.276q.024.001.048-.004c.124-.036.308-.16.456-.256s.336-.212.416-.312a.17.17 0 0 0 .044-.112m-.208-.284c.184 0 .328.084.328.284a.7.7 0 0 1-.04.228.7.7 0 0 1-.256.376c-.212.144-.452.2-.748.2-.184 0-.332-.084-.332-.284 0-.076.02-.156.044-.228a.7.7 0 0 1 .252-.376c.212-.144.456-.2.752-.2"/><rect width=".13" height="5.574" x="-.065" y="-2.241" fill="currentColor" ry=".04" transform="translate(82.607 2.313)"/><rect width=".13" height="5.241" x="-.065" y="-4.241" fill="currentColor" ry=".04" transform="translate(82.607 21.79)"/><path fill="currentColor" stroke="currentColor" stroke-linecap="round" stroke-linejoin="round" stroke-width=".08" d="M52.85 18.565c.158-.232.373-.232.531 0h0a.46.46 0 0 0-.53 0M52.198 16.29c.924-.84 4.395-.84 5.318 0h0c-.923-.72-4.394-.72-5.318 0M52.198 23.015c.845.806 3.687.806 4.531 0h0c-.844.686-3.686.686-4.53 0M52.85 8.313c.585-.652 1.98-.652 2.564 0h0c-.585-.532-1.979-.532-2.564 0M52.85 9.896c.091-.157.204-.157.295 0h0a.4.4 0 0 0-.295 0M52.198 12.538c.532.611 1.715.611 2.247 0h0c-.532.491-1.715.491-2.247 0M52.85 1.051c.585-.652 1.98-.652 2.564 0h0c-.585-.532-1.979-.532-2.564 0M52.85 2.74c.063.127.138.127.2 0h0a1 1 0 0 1-.2 0"/><path fill="currentColor" d="M83.798 8.553a.17.17 0 0 0-.168-.164q-.024-.001-.048.004c-.124.036-.312.16-.46.256s-.336.212-.416.312a.168.168 0 0 0 .128.276q.024.001.048-.004c.124-.036.308-.16.456-.256s.336-.212.416-.312a.17.17 0 0 0 .044-.112m-.208-.284c.184 0 .328.084.328.284a.7.7 0 0 1-.04.228.7.7 0 0 1-.256.376c-.212.144-.452.2-.748.2-.184 0-.332-.084-.332-.284 0-.076.02-.156.044-.228a.7.7 0 0 1 .252-.376c.212-.144.456-.2.752-.2"/><rect width=".13" height="5.741" x="-.065" y="-4.741" fill="currentColor" ry=".04" transform="translate(87.963 21.79)"/><rect width=".13" height="5.741" x="-.065" y="-3.741" fill="currentColor" ry=".04" transform="translate(87.963 11.313)"/><path fill="currentColor" d="M79.523 18.53a.17.17 0 0 0-.168-.164q-.024-.001-.048.004c-.124.036-.312.16-.46.256s-.336.212-.416.312a.168.168 0 0 0 .128.276q.024.001.048-.004c.124-.036.308-.16.456-.256s.336-.212.416-.312a.17.17 0 0 0 .044-.112m-.208-.284c.184 0 .328.084.328.284a.7.7 0 0 1-.04.228.7.7 0 0 1-.256.376c-.212.144-.452.2-.748.2-.184 0-.332-.084-.332-.284 0-.076.02-.156.044-.228a.7.7 0 0 1 .252-.376c.212-.144.456-.2.752-.2"/><text fill="currentColor" font-family="sans-serif" font-size="2.616" transform="translate(78.267 -2.843)">
<tspan>G</tspan>
</text><path fill="currentColor" d="M79.523 2.553a.17.17 0 0 0-.168-.164q-.024-.001-.048.004c-.124.036-.312.16-.46.256s-.336.212-.416.312a.168.168 0 0 0 .128.276q.024.001.048-.004c.124-.036.308-.16.456-.256s.336-.212.416-.312a.17.17 0 0 0 .044-.112m-.208-.284c.184 0 .328.084.328.284a.7.7 0 0 1-.04.228.7.7 0 0 1-.256.376c-.212.144-.452.2-.748.2-.184 0-.332-.084-.332-.284 0-.076.02-.156.044-.228a.7.7 0 0 1 .252-.376c.212-.144.456-.2.752-.2M79.523 1.053a.17.17 0 0 0-.168-.164q-.024-.001-.048.004c-.124.036-.312.16-.46.256s-.336.212-.416.312a.168.168 0 0 0 .128.276q.024.001.048-.004c.124-.036.308-.16.456-.256s.336-.212.416-.312a.17.17 0 0 0 .044-.112m-.208-.284c.184 0 .328.084.328.284a.7.7 0 0 1-.04.228.7.7 0 0 1-.256.376c-.212.144-.452.2-.748.2-.184 0-.332-.084-.332-.284 0-.076.02-.156.044-.228a.7.7 0 0 1 .252-.376c.212-.144.456-.2.752-.2"/><path fill="currentColor" d="M79.523.053a.17.17 0 0 0-.168-.164q-.024-.001-.048.004c-.124.036-.312.16-.46.256s-.336.212-.416.312a.168.168 0 0 0 .128.276q.024.001.048-.004c.124-.036.308-.16.456-.256s.336-.212.416-.312a.17.17 0 0 0 .044-.112m-.208-.284c.184 0 .328.084.328.284a.7.7 0 0 1-.04.228.7.7 0 0 1-.256.376c-.212.144-.452.2-.748.2-.184 0-.332-.084-.332-.284 0-.076.02-.156.044-.228a.7.7 0 0 1 .252-.376c.212-.144.456-.2.752-.2M79.523 10.053a.17.17 0 0 0-.168-.164q-.024-.001-.048.004c-.124.036-.312.16-.46.256s-.336.212-.416.312a.168.168 0 0 0 .128.276q.024.001.048-.004c.124-.036.308-.16.456-.256s.336-.212.416-.312a.17.17 0 0 0 .044-.112m-.208-.284c.184 0 .328.084.328.284a.7.7 0 0 1-.04.228.7.7 0 0 1-.256.376c-.212.144-.452.2-.748.2-.184 0-.332-.084-.332-.284 0-.076.02-.156.044-.228a.7.7 0 0 1 .252-.376c.212-.144.456-.2.752-.2"/><path fill="currentColor" d="M79.523 9.053a.17.17 0 0 0-.168-.164q-.024-.001-.048.004c-.124.036-.312.16-.46.256s-.336.212-.416.312a.168.168 0 0 0 .128.276q.024.001.048-.004c.124-.036.308-.16.456-.256s.336-.212.416-.312a.17.17 0 0 0 .044-.112m-.208-.284c.184 0 .328.084.328.284a.7.7 0 0 1-.04.228.7.7 0 0 1-.256.376c-.212.144-.452.2-.748.2-.184 0-.332-.084-.332-.284 0-.076.02-.156.044-.228a.7.7 0 0 1 .252-.376c.212-.144.456-.2.752-.2"/><path fill="currentColor" d="M79.523 8.053a.17.17 0 0 0-.168-.164q-.024-.001-.048.004c-.124.036-.312.16-.46.256s-.336.212-.416.312a.168.168 0 0 0 .128.276q.024.001.048-.004c.124-.036.308-.16.456-.256s.336-.212.416-.312a.17.17 0 0 0 .044-.112m-.208-.284c.184 0 .328.084.328.284a.7.7 0 0 1-.04.228.7.7 0 0 1-.256.376c-.212.144-.452.2-.748.2-.184 0-.332-.084-.332-.284 0-.076.02-.156.044-.228a.7.7 0 0 1 .252-.376c.212-.144.456-.2.752-.2M79.523 19.53a.17.17 0 0 0-.168-.164q-.024-.001-.048.004c-.124.036-.312.16-.46.256s-.336.212-.416.312a.168.168 0 0 0 .128.276q.024.001.048-.004c.124-.036.308-.16.456-.256s.336-.212.416-.312a.17.17 0 0 0 .044-.112m-.208-.284c.184 0 .328.084.328.284a.7.7 0 0 1-.04.228.7.7 0 0 1-.256.376c-.212.144-.452.2-.748.2-.184 0-.332-.084-.332-.284 0-.076.02-.156.044-.228a.7.7 0 0 1 .252-.376c.212-.144.456-.2.752-.2M79.523 17.03a.17.17 0 0 0-.168-.164q-.024-.001-.048.004c-.124.036-.312.16-.46.256s-.336.212-.416.312a.168.168 0 0 0 .128.276q.024.001.048-.004c.124-.036.308-.16.456-.256s.336-.212.416-.312a.17.17 0 0 0 .044-.112m-.208-.284c.184 0 .328.084.328.284a.7.7 0 0 1-.04.228.7.7 0 0 1-.256.376c-.212.144-.452.2-.748.2-.184 0-.332-.084-.332-.284 0-.076.02-.156.044-.228a.7.7 0 0 1 .252-.376c.212-.144.456-.2.752-.2"/><rect width=".13" height="5.408" x="-.065" y="-1.741" fill="currentColor" ry=".04" transform="translate(78.332 2.313)"/><path fill="currentColor" d="M71.41 3.061c0 .04-.033.076-.073.076s-.076-.036-.076-.076v-.58l-.332.124v.632c0 .04-.036.076-.076.076s-.072-.036-.072-.076v-.58l-.128.048c-.008.004-.02.004-.028.004a.08.08 0 0 1-.08-.08v-.24c0-.032.02-.064.052-.076l.184-.064v-.64l-.128.044c-.008.004-.02.004-.028.004a.08.08 0 0 1-.08-.08v-.24c0-.032.02-.06.052-.072l.184-.068V.565c0-.04.032-.076.072-.076s.076.036.076.076v.58l.332-.124V.389c0-.04.036-.076.076-.076s.072.036.072.076v.58l.128-.048q.014-.005.028-.004a.08.08 0 0 1 .08.08v.24c0 .032-.02.064-.052.076l-.184.064v.64l.128-.044q.014-.005.028-.004a.08.08 0 0 1 .08.08v.24c0 .032-.02.06-.052.072l-.184.068zm-.48-1.508v.64l.331-.12v-.64z"/><rect width=".13" height="5.741" x="-.065" y="-2.741" fill="currentColor" ry=".04" transform="translate(72.06 11.313)"/><path fill="currentColor" d="M71.41 12.061c0 .04-.033.076-.073.076s-.076-.036-.076-.076v-.58l-.332.124v.632c0 .04-.036.076-.076.076s-.072-.036-.072-.076v-.58l-.128.048c-.008.004-.02.004-.028.004a.08.08 0 0 1-.08-.08v-.24c0-.032.02-.064.052-.076l.184-.064v-.64l-.128.044c-.008.004-.02.004-.028.004a.08.08 0 0 1-.08-.08v-.24c0-.032.02-.06.052-.072l.184-.068v-.632c0-.04.032-.076.072-.076s.076.036.076.076v.58l.332-.124v-.632c0-.04.036-.076.076-.076s.072.036.072.076v.58l.128-.048q.014-.005.028-.004a.08.08 0 0 1 .08.08v.24c0 .032-.02.064-.052.076l-.184.064v.64l.128-.044q.014-.005.028-.004a.08.08 0 0 1 .08.08v.24c0 .032-.02.06-.052.072l-.184.068zm-.48-1.508v.64l.331-.12v-.64z"/><rect width=".13" height="5.741" x="-.065" y="-3.741" fill="currentColor" ry=".04" transform="translate(72.06 21.79)"/><path fill="currentColor" d="M71.41 19.038c0 .04-.033.076-.073.076s-.076-.036-.076-.076v-.58l-.332.124v.632c0 .04-.036.076-.076.076s-.072-.036-.072-.076v-.58l-.128.048c-.008.004-.02.004-.028.004a.08.08 0 0 1-.08-.08v-.24c0-.032.02-.064.052-.076l.184-.064v-.64l-.128.044c-.008.004-.02.004-.028.004a.08.08 0 0 1-.08-.08v-.24c0-.032.02-.06.052-.072l.184-.068v-.632c0-.04.032-.076.072-.076s.076.036.076.076v.58l.332-.124v-.632c0-.04.036-.076.076-.076s.072.036.072.076v.58l.128-.048q.014-.005.028-.004a.08.08 0 0 1 .08.08v.24c0 .032-.02.064-.052.076l-.184.064v.64l.128-.044q.014-.005.028-.004a.08.08 0 0 1 .08.08v.24c0 .032-.02.06-.052.072l-.184.068zm-.48-1.508v.64l.331-.12v-.64zM77.68 21.038c0 .04-.031.076-.071.076s-.076-.036-.076-.076v-.58l-.332.124v.632c0 .04-.036.076-.076.076s-.072-.036-.072-.076v-.58l-.128.048c-.008.004-.02.004-.028.004a.08.08 0 0 1-.08-.08v-.24c0-.032.02-.064.052-.076l.184-.064v-.64l-.128.044c-.008.004-.02.004-.028.004a.08.08 0 0 1-.08-.08v-.24c0-.032.02-.06.052-.072l.184-.068v-.632c0-.04.032-.076.072-.076s.076.036.076.076v.58l.332-.124v-.632c0-.04.036-.076.076-.076s.072.036.072.076v.58l.128-.048c.008-.004.02-.004.028-.004a.08.08 0 0 1 .08.08v.24c0 .032-.02.064-.052.076l-.184.064v.64l.128-.044c.008-.004.02-.004.028-.004a.08.08 0 0 1 .08.08v.24c0 .032-.02.06-.052.072l-.184.068zm-.48-1.508v.64l.333-.12v-.64z"/><text fill="currentColor" font-family="sans-serif" font-size="2.616" transform="translate(82.542 -2.843)">
<tspan>D</tspan>
</text><path fill="currentColor" d="M83.798 2.053a.17.17 0 0 0-.168-.164q-.024-.001-.048.004c-.124.036-.312.16-.46.256s-.336.212-.416.312a.168.168 0 0 0 .128.276q.024.001.048-.004c.124-.036.308-.16.456-.256s.336-.212.416-.312a.17.17 0 0 0 .044-.112m-.208-.284c.184 0 .328.084.328.284a.7.7 0 0 1-.04.228.7.7 0 0 1-.256.376c-.212.144-.452.2-.748.2-.184 0-.332-.084-.332-.284 0-.076.02-.156.044-.228a.7.7 0 0 1 .252-.376c.212-.144.456-.2.752-.2"/><path fill="currentColor" d="M83.798 1.053a.17.17 0 0 0-.168-.164q-.024-.001-.048.004c-.124.036-.312.16-.46.256s-.336.212-.416.312a.168.168 0 0 0 .128.276q.024.001.048-.004c.124-.036.308-.16.456-.256s.336-.212.416-.312a.17.17 0 0 0 .044-.112M83.59.769c.184 0 .328.084.328.284a.7.7 0 0 1-.04.228.7.7 0 0 1-.256.376c-.212.144-.452.2-.748.2-.184 0-.332-.084-.332-.284 0-.076.02-.156.044-.228a.7.7 0 0 1 .252-.376c.212-.144.456-.2.752-.2M83.798-.447a.17.17 0 0 0-.168-.164q-.024-.001-.048.004c-.124.036-.312.16-.46.256s-.336.212-.416.312a.168.168 0 0 0 .128.276q.024.001.048-.004c.124-.036.308-.16.456-.256s.336-.212.416-.312a.17.17 0 0 0 .044-.112m-.208-.284c.184 0 .328.084.328.284a.7.7 0 0 1-.04.228.7.7 0 0 1-.256.376c-.212.144-.452.2-.748.2-.184 0-.332-.084-.332-.284 0-.076.02-.156.044-.228a.7.7 0 0 1 .252-.376c.212-.144.456-.2.752-.2M83.798 10.053a.17.17 0 0 0-.168-.164q-.024-.001-.048.004c-.124.036-.312.16-.46.256s-.336.212-.416.312a.168.168 0 0 0 .128.276q.024.001.048-.004c.124-.036.308-.16.456-.256s.336-.212.416-.312a.17.17 0 0 0 .044-.112m-.208-.284c.184 0 .328.084.328.284a.7.7 0 0 1-.04.228.7.7 0 0 1-.256.376c-.212.144-.452.2-.748.2-.184 0-.332-.084-.332-.284 0-.076.02-.156.044-.228a.7.7 0 0 1 .252-.376c.212-.144.456-.2.752-.2"/><rect width=".13" height="4.908" x="-.065" y="-1.241" fill="currentColor" ry=".04" transform="translate(72.06 2.313)"/><rect width=".13" height="5.741" x="-.065" y="-4.241" fill="currentColor" ry=".04" transform="translate(78.332 21.79)"/><path fill="currentColor" d="M77.68 10.561c0 .04-.031.076-.071.076s-.076-.036-.076-.076v-.58l-.332.124v.632c0 .04-.036.076-.076.076s-.072-.036-.072-.076v-.58l-.128.048c-.008.004-.02.004-.028.004a.08.08 0 0 1-.08-.08v-.24c0-.032.02-.064.052-.076l.184-.064v-.64l-.128.044c-.008.004-.02.004-.028.004a.08.08 0 0 1-.08-.08v-.24c0-.032.02-.06.052-.072l.184-.068v-.632c0-.04.032-.076.072-.076s.076.036.076.076v.58l.332-.124v-.632c0-.04.036-.076.076-.076s.072.036.072.076v.58l.128-.048c.008-.004.02-.004.028-.004a.08.08 0 0 1 .08.08v.24c0 .032-.02.064-.052.076l-.184.064v.64l.128-.044c.008-.004.02-.004.028-.004a.08.08 0 0 1 .08.08v.24c0 .032-.02.06-.052.072l-.184.068zm-.48-1.508v.64l.333-.12v-.64z"/><rect width=".13" height="5.241" x="-.065" y="-2.741" fill="currentColor" ry=".04" transform="translate(78.332 11.313)"/><path fill="currentColor" d="M77.68 1.561c0 .04-.031.076-.071.076s-.076-.036-.076-.076v-.58l-.332.124v.632c0 .04-.036.076-.076.076s-.072-.036-.072-.076v-.58l-.128.048c-.008.004-.02.004-.028.004a.08.08 0 0 1-.08-.08v-.24c0-.032.02-.064.052-.076l.184-.064v-.64l-.128.044c-.008.004-.02.004-.028.004a.08.08 0 0 1-.08-.08v-.24c0-.032.02-.06.052-.072l.184-.068v-.632c0-.04.032-.076.072-.076s.076.036.076.076v.58l.332-.124v-.632c0-.04.036-.076.076-.076s.072.036.072.076v.58l.128-.048c.008-.004.02-.004.028-.004a.08.08 0 0 1 .08.08v.24c0 .032-.02.064-.052.076l-.184.064v.64l.128-.044c.008-.004.02-.004.028-.004a.08.08 0 0 1 .08.08v.24c0 .032-.02.06-.052.072l-.184.068zM77.2.053v.64l.333-.12v-.64zM26.882 2.149l-.004.264v.044q-.001.132.016.264c.18-.152.372-.32.372-.556 0-.132-.056-.268-.172-.268-.124 0-.208.12-.212.252m-.168.716-.048-2.38c.032-.02.072-.032.108-.032s.076.012.108.032l-.028 1.38a.58.58 0 0 1 .364-.136c.208 0 .356.192.356.408 0 .32-.344.468-.588.676-.06.052-.096.152-.18.152-.052 0-.092-.044-.092-.1"/><rect width=".13" height="5.241" x="-.065" y="-4" fill="currentColor" ry=".04" transform="translate(29.236 11.313)"/><path fill="currentColor" d="m26.882 11.149-.004.264v.044q-.001.132.016.264c.18-.152.372-.32.372-.556 0-.132-.056-.268-.172-.268-.124 0-.208.12-.212.252m-.168.716-.048-2.38c.032-.02.072-.032.108-.032s.076.012.108.032l-.028 1.38a.58.58 0 0 1 .364-.136c.208 0 .356.192.356.408 0 .32-.344.468-.588.676-.06.052-.096.152-.18.152-.052 0-.092-.044-.092-.1"/><rect width=".13" height="5.074" x="-.065" y="-1.741" fill="currentColor" ry=".04" transform="translate(27.989 21.79)"/><path fill="currentColor" d="M29.18 20.53a.17.17 0 0 0-.168-.164q-.024-.001-.048.004c-.124.036-.312.16-.46.256s-.336.212-.416.312a.168.168 0 0 0 .128.276q.024.001.048-.004c.124-.036.308-.16.456-.256s.336-.212.416-.312a.17.17 0 0 0 .044-.112m-.208-.284c.184 0 .328.084.328.284a.7.7 0 0 1-.04.228.7.7 0 0 1-.256.376c-.212.144-.452.2-.748.2-.184 0-.332-.084-.332-.284 0-.076.02-.156.044-.228a.7.7 0 0 1 .252-.376c.212-.144.456-.2.752-.2"/><text fill="currentColor" font-family="sans-serif" font-size="2.616" transform="translate(27.924 -2.843)">
<tspan>B</tspan>
</text><path fill="currentColor" d="m30.069-3.315-.005.277v.046q0 .14.017.277c.19-.16.39-.336.39-.583 0-.139-.058-.282-.18-.282-.13 0-.218.126-.222.265m-.177.752-.05-2.5c.033-.02.075-.033.113-.033s.08.013.114.034l-.03 1.449a.6.6 0 0 1 .382-.143c.219 0 .374.202.374.428 0 .336-.361.492-.617.71-.063.055-.101.16-.19.16-.054 0-.096-.046-.096-.105M29.18 4.553a.17.17 0 0 0-.168-.164q-.024-.001-.048.004c-.124.036-.312.16-.46.256s-.336.212-.416.312a.168.168 0 0 0 .128.276q.024.001.048-.004c.124-.036.308-.16.456-.256s.336-.212.416-.312a.17.17 0 0 0 .044-.112m-.208-.284c.184 0 .328.084.328.284a.7.7 0 0 1-.04.228.7.7 0 0 1-.256.376c-.212.144-.452.2-.748.2-.184 0-.332-.084-.332-.284 0-.076.02-.156.044-.228a.7.7 0 0 1 .252-.376c.212-.144.456-.2.752-.2"/><path fill="currentColor" d="M29.18 3.553a.17.17 0 0 0-.168-.164q-.024-.001-.048.004c-.124.036-.312.16-.46.256s-.336.212-.416.312a.168.168 0 0 0 .128.276q.024.001.048-.004c.124-.036.308-.16.456-.256s.336-.212.416-.312a.17.17 0 0 0 .044-.112m-.208-.284c.184 0 .328.084.328.284a.7.7 0 0 1-.04.228.7.7 0 0 1-.256.376c-.212.144-.452.2-.748.2-.184 0-.332-.084-.332-.284 0-.076.02-.156.044-.228a.7.7 0 0 1 .252-.376c.212-.144.456-.2.752-.2M29.18 2.053a.17.17 0 0 0-.168-.164q-.024-.001-.048.004c-.124.036-.312.16-.46.256s-.336.212-.416.312a.168.168 0 0 0 .128.276q.024.001.048-.004c.124-.036.308-.16.456-.256s.336-.212.416-.312a.17.17 0 0 0 .044-.112m-.208-.284c.184 0 .328.084.328.284a.7.7 0 0 1-.04.228.7.7 0 0 1-.256.376c-.212.144-.452.2-.748.2-.184 0-.332-.084-.332-.284 0-.076.02-.156.044-.228a.7.7 0 0 1 .252-.376c.212-.144.456-.2.752-.2M29.18 12.553a.17.17 0 0 0-.168-.164q-.024-.001-.048.004c-.124.036-.312.16-.46.256s-.336.212-.416.312a.168.168 0 0 0 .128.276q.024.001.048-.004c.124-.036.308-.16.456-.256s.336-.212.416-.312a.17.17 0 0 0 .044-.112m-.208-.284c.184 0 .328.084.328.284a.7.7 0 0 1-.04.228.7.7 0 0 1-.256.376c-.212.144-.452.2-.748.2-.184 0-.332-.084-.332-.284 0-.076.02-.156.044-.228a.7.7 0 0 1 .252-.376c.212-.144.456-.2.752-.2M29.18 11.053a.17.17 0 0 0-.168-.164q-.024-.001-.048.004c-.124.036-.312.16-.46.256s-.336.212-.416.312a.168.168 0 0 0 .128.276q.024.001.048-.004c.124-.036.308-.16.456-.256s.336-.212.416-.312a.17.17 0 0 0 .044-.112m-.208-.284c.184 0 .328.084.328.284a.7.7 0 0 1-.04.228.7.7 0 0 1-.256.376c-.212.144-.452.2-.748.2-.184 0-.332-.084-.332-.284 0-.076.02-.156.044-.228a.7.7 0 0 1 .252-.376c.212-.144.456-.2.752-.2"/><path fill="currentColor" d="M29.18 10.053a.17.17 0 0 0-.168-.164q-.024-.001-.048.004c-.124.036-.312.16-.46.256s-.336.212-.416.312a.168.168 0 0 0 .128.276q.024.001.048-.004c.124-.036.308-.16.456-.256s.336-.212.416-.312a.17.17 0 0 0 .044-.112m-.208-.284c.184 0 .328.084.328.284a.7.7 0 0 1-.04.228.7.7 0 0 1-.256.376c-.212.144-.452.2-.748.2-.184 0-.332-.084-.332-.284 0-.076.02-.156.044-.228a.7.7 0 0 1 .252-.376c.212-.144.456-.2.752-.2M29.18 21.53a.17.17 0 0 0-.168-.164q-.024-.001-.048.004c-.124.036-.312.16-.46.256s-.336.212-.416.312a.168.168 0 0 0 .128.276q.024.001.048-.004c.124-.036.308-.16.456-.256s.336-.212.416-.312a.17.17 0 0 0 .044-.112m-.208-.284c.184 0 .328.084.328.284a.7.7 0 0 1-.04.228.7.7 0 0 1-.256.376c-.212.144-.452.2-.748.2-.184 0-.332-.084-.332-.284 0-.076.02-.156.044-.228a.7.7 0 0 1 .252-.376c.212-.144.456-.2.752-.2M29.18 19.53a.17.17 0 0 0-.168-.164q-.024-.001-.048.004c-.124.036-.312.16-.46.256s-.336.212-.416.312a.168.168 0 0 0 .128.276q.024.001.048-.004c.124-.036.308-.16.456-.256s.336-.212.416-.312a.17.17 0 0 0 .044-.112m-.208-.284c.184 0 .328.084.328.284a.7.7 0 0 1-.04.228.7.7 0 0 1-.256.376c-.212.144-.452.2-.748.2-.184 0-.332-.084-.332-.284 0-.076.02-.156.044-.228a.7.7 0 0 1 .252-.376c.212-.144.456-.2.752-.2"/><rect width=".13" height="5.574" x="-.065" y="-3.333" fill="currentColor" ry=".04" transform="translate(29.236 2.313)"/><path fill="currentColor" d="m31.275 4.149-.004.264v.044q-.001.132.016.264c.18-.152.372-.32.372-.556 0-.132-.056-.268-.172-.268-.124 0-.208.12-.212.252m-.168.716-.048-2.38c.032-.02.072-.032.108-.032s.076.012.108.032l-.028 1.38a.58.58 0 0 1 .364-.136c.208 0 .356.192.356.408 0 .32-.344.468-.588.676-.06.052-.096.152-.18.152-.052 0-.092-.044-.092-.1M33.573 9.553a.17.17 0 0 0-.168-.164q-.024-.001-.048.004c-.124.036-.312.16-.46.256s-.336.212-.416.312a.168.168 0 0 0 .128.276q.024.001.048-.004c.124-.036.308-.16.456-.256s.336-.212.416-.312a.17.17 0 0 0 .044-.112m-.208-.284c.184 0 .328.084.328.284a.7.7 0 0 1-.04.228.7.7 0 0 1-.256.376c-.212.144-.452.2-.748.2-.184 0-.332-.084-.332-.284 0-.076.02-.156.044-.228a.7.7 0 0 1 .252-.376c.212-.144.456-.2.752-.2M33.573 21.53a.17.17 0 0 0-.168-.164q-.024-.001-.048.004c-.124.036-.312.16-.46.256s-.336.212-.416.312a.168.168 0 0 0 .128.276q.024.001.048-.004c.124-.036.308-.16.456-.256s.336-.212.416-.312a.17.17 0 0 0 .044-.112m-.208-.284c.184 0 .328.084.328.284a.7.7 0 0 1-.04.228.7.7 0 0 1-.256.376c-.212.144-.452.2-.748.2-.184 0-.332-.084-.332-.284 0-.076.02-.156.044-.228a.7.7 0 0 1 .252-.376c.212-.144.456-.2.752-.2M33.573 20.03a.17.17 0 0 0-.168-.164q-.024-.001-.048.004c-.124.036-.312.16-.46.256s-.336.212-.416.312a.168.168 0 0 0 .128.276q.024.001.048-.004c.124-.036.308-.16.456-.256s.336-.212.416-.312a.17.17 0 0 0 .044-.112m-.208-.284c.184 0 .328.084.328.284a.7.7 0 0 1-.04.228.7.7 0 0 1-.256.376c-.212.144-.452.2-.748.2-.184 0-.332-.084-.332-.284 0-.076.02-.156.044-.228a.7.7 0 0 1 .252-.376c.212-.144.456-.2.752-.2"/><path fill="currentColor" d="M33.573 19.03a.17.17 0 0 0-.168-.164q-.024-.001-.048.004c-.124.036-.312.16-.46.256s-.336.212-.416.312a.168.168 0 0 0 .128.276q.024.001.048-.004c.124-.036.308-.16.456-.256s.336-.212.416-.312a.17.17 0 0 0 .044-.112m-.208-.284c.184 0 .328.084.328.284a.7.7 0 0 1-.04.228.7.7 0 0 1-.256.376c-.212.144-.452.2-.748.2-.184 0-.332-.084-.332-.284 0-.076.02-.156.044-.228a.7.7 0 0 1 .252-.376c.212-.144.456-.2.752-.2"/><rect width=".13" height="5.074" x="-.065" y="-3.333" fill="currentColor" ry=".04" transform="translate(33.63 2.313)"/><path fill="currentColor" d="M33.573 11.053a.17.17 0 0 0-.168-.164q-.024-.001-.048.004c-.124.036-.312.16-.46.256s-.336.212-.416.312a.168.168 0 0 0 .128.276q.024.001.048-.004c.124-.036.308-.16.456-.256s.336-.212.416-.312a.17.17 0 0 0 .044-.112m-.208-.284c.184 0 .328.084.328.284a.7.7 0 0 1-.04.228.7.7 0 0 1-.256.376c-.212.144-.452.2-.748.2-.184 0-.332-.084-.332-.284 0-.076.02-.156.044-.228a.7.7 0 0 1 .252-.376c.212-.144.456-.2.752-.2M50.304 18.126l-.004.264v.044q-.001.132.016.264c.18-.152.372-.32.372-.556 0-.132-.056-.268-.172-.268-.124 0-.208.12-.212.252m-.168.716-.048-2.38c.032-.02.072-.032.108-.032s.076.012.108.032l-.028 1.38a.58.58 0 0 1 .364-.136c.208 0 .356.192.356.408 0 .32-.344.468-.588.676-.06.052-.096.152-.18.152-.052 0-.092-.044-.092-.1M31.275 9.649l-.004.264v.044q-.001.132.016.264c.18-.152.372-.32.372-.556 0-.132-.056-.268-.172-.268-.124 0-.208.12-.212.252m-.168.716-.048-2.38c.032-.02.072-.032.108-.032s.076.012.108.032l-.028 1.38a.58.58 0 0 1 .364-.136c.208 0 .356.192.356.408 0 .32-.344.468-.588.676-.06.052-.096.152-.18.152-.052 0-.092-.044-.092-.1"/><path fill="currentColor" d="M33.573 12.053a.17.17 0 0 0-.168-.164q-.024-.001-.048.004c-.124.036-.312.16-.46.256s-.336.212-.416.312a.168.168 0 0 0 .128.276q.024.001.048-.004c.124-.036.308-.16.456-.256s.336-.212.416-.312a.17.17 0 0 0 .044-.112m-.208-.284c.184 0 .328.084.328.284a.7.7 0 0 1-.04.228.7.7 0 0 1-.256.376c-.212.144-.452.2-.748.2-.184 0-.332-.084-.332-.284 0-.076.02-.156.044-.228a.7.7 0 0 1 .252-.376c.212-.144.456-.2.752-.2M33.573 2.053a.17.17 0 0 0-.168-.164q-.024-.001-.048.004c-.124.036-.312.16-.46.256s-.336.212-.416.312a.168.168 0 0 0 .128.276q.024.001.048-.004c.124-.036.308-.16.456-.256s.336-.212.416-.312a.17.17 0 0 0 .044-.112m-.208-.284c.184 0 .328.084.328.284a.7.7 0 0 1-.04.228.7.7 0 0 1-.256.376c-.212.144-.452.2-.748.2-.184 0-.332-.084-.332-.284 0-.076.02-.156.044-.228a.7.7 0 0 1 .252-.376c.212-.144.456-.2.752-.2"/><path fill="currentColor" d="M33.573 3.053a.17.17 0 0 0-.168-.164q-.024-.001-.048.004c-.124.036-.312.16-.46.256s-.336.212-.416.312a.168.168 0 0 0 .128.276q.024.001.048-.004c.124-.036.308-.16.456-.256s.336-.212.416-.312a.17.17 0 0 0 .044-.112m-.208-.284c.184 0 .328.084.328.284a.7.7 0 0 1-.04.228.7.7 0 0 1-.256.376c-.212.144-.452.2-.748.2-.184 0-.332-.084-.332-.284 0-.076.02-.156.044-.228a.7.7 0 0 1 .252-.376c.212-.144.456-.2.752-.2"/><path fill="currentColor" d="M33.573 4.053a.17.17 0 0 0-.168-.164q-.024-.001-.048.004c-.124.036-.312.16-.46.256s-.336.212-.416.312a.168.168 0 0 0 .128.276q.024.001.048-.004c.124-.036.308-.16.456-.256s.336-.212.416-.312a.17.17 0 0 0 .044-.112m-.208-.284c.184 0 .328.084.328.284a.7.7 0 0 1-.04.228.7.7 0 0 1-.256.376c-.212.144-.452.2-.748.2-.184 0-.332-.084-.332-.284 0-.076.02-.156.044-.228a.7.7 0 0 1 .252-.376c.212-.144.456-.2.752-.2"/><text fill="currentColor" font-family="sans-serif" font-size="2.616" transform="translate(32.317 -2.843)">
<tspan>E</tspan>
</text><path fill="currentColor" d="m34.292-3.315-.005.277v.046q0 .14.017.277c.19-.16.39-.336.39-.583 0-.139-.058-.282-.18-.282-.13 0-.218.126-.222.265m-.177.752-.05-2.5c.033-.02.075-.033.113-.033s.08.013.113.034l-.029 1.449a.6.6 0 0 1 .382-.143c.219 0 .374.202.374.428 0 .336-.361.492-.617.71-.063.055-.101.16-.19.16-.054 0-.096-.046-.096-.105M26.882 21.626l-.004.264v.044q-.001.132.016.264c.18-.152.372-.32.372-.556 0-.132-.056-.268-.172-.268-.124 0-.208.12-.212.252m-.168.716-.048-2.38c.032-.02.072-.032.108-.032s.076.012.108.032l-.028 1.38a.58.58 0 0 1 .364-.136c.208 0 .356.192.356.408 0 .32-.344.468-.588.676-.06.052-.096.152-.18.152-.052 0-.092-.044-.092-.1"/><rect width=".13" height="5.241" x="-.065" y="-2.5" fill="currentColor" ry=".04" transform="translate(18.548 2.313)"/><path fill="currentColor" d="M18.492 10.553a.17.17 0 0 0-.168-.164q-.024-.001-.048.004c-.124.036-.312.16-.46.256s-.336.212-.416.312a.168.168 0 0 0 .128.276q.024.001.048-.004c.124-.036.308-.16.456-.256s.336-.212.416-.312a.17.17 0 0 0 .044-.112m-.208-.284c.184 0 .328.084.328.284a.7.7 0 0 1-.04.228.7.7 0 0 1-.256.376c-.212.144-.452.2-.748.2-.184 0-.332-.084-.332-.284 0-.076.02-.156.044-.228a.7.7 0 0 1 .252-.376c.212-.144.456-.2.752-.2M10.4 14.853h-.024a.783.783 0 0 1-.78-.788c0-.232.212-.412.448-.412.216 0 .38.188.38.412 0 .208-.172.38-.38.38a.3.3 0 0 1-.124-.024c.104.156.272.26.468.26h.016zm.78-1.728a.71.71 0 0 0 .452-.656.764.764 0 0 0-.692-.76c.096.464.184.924.24 1.416m-1.548-.924c0 .54.516.988 1.056.988q.167 0 .328-.024c-.056-.508-.148-.98-.252-1.456-.316.032-.496.244-.496.476 0 .176.1.364.324.492q.029.03.028.06c0 .044-.04.088-.088.088q-.018-.001-.036-.008c-.32-.172-.468-.46-.468-.74 0-.352.232-.696.64-.788a15 15 0 0 0-.184-.7c-.428.484-.852.972-.852 1.612m1.044 1.16c-.752 0-1.332-.688-1.332-1.496 0-.708.524-1.224.992-1.764a4.5 4.5 0 0 1-.18-.76 5 5 0 0 1-.028-.624c0-.46.22-.896.596-1.168a.06.06 0 0 1 .08 0c.284.336.532.98.532 1.432 0 .572-.344 1.02-.72 1.456.084.272.156.552.224.828.016 0 .036-.004.052-.004.62 0 1.024.512 1.024 1.044 0 .304-.132.616-.428.84a.9.9 0 0 1-.292.144q.019.21.02.42-.001.116-.008.232c-.028.476-.352.9-.808.912l.004-.172c.372-.008.612-.368.636-.764q.007-.11.008-.22.001-.184-.016-.368c-.116.02-.232.032-.356.032m.372-4.712c0-.22-.016-.316-.08-.516a1.15 1.15 0 0 0-.648 1.036c0 .296.072.532.144.776.32-.388.584-.792.584-1.296M14.972 11.205a.3.3 0 0 1-.3-.3c0-.152.108-.308.288-.308q.025-.001.056.004a.6.6 0 0 0-.48-.236c-.424 0-.452.292-.452.744v.408c0 .452.028.748.452.748.32 0 .556-.28.632-.604.008-.028.028-.04.048-.04.024 0 .052.016.052.048 0 .376-.42.696-.732.696-.272 0-.548-.084-.736-.28-.196-.204-.264-.488-.264-.772s.068-.568.264-.772c.188-.196.464-.276.736-.276.348 0 .64.252.7.596q.005.031.004.056c0 .16-.12.288-.268.288M18.492 22.53a.17.17 0 0 0-.168-.164q-.024-.001-.048.004c-.124.036-.312.16-.46.256s-.336.212-.416.312a.168.168 0 0 0 .128.276q.024.001.048-.004c.124-.036.308-.16.456-.256s.336-.212.416-.312a.17.17 0 0 0 .044-.112m-.208-.284c.184 0 .328.084.328.284a.7.7 0 0 1-.04.228.7.7 0 0 1-.256.376c-.212.144-.452.2-.748.2-.184 0-.332-.084-.332-.284 0-.076.02-.156.044-.228a.7.7 0 0 1 .252-.376c.212-.144.456-.2.752-.2M18.492 21.03a.17.17 0 0 0-.168-.164q-.024-.001-.048.004c-.124.036-.312.16-.46.256s-.336.212-.416.312a.168.168 0 0 0 .128.276q.024.001.048-.004c.124-.036.308-.16.456-.256s.336-.212.416-.312a.17.17 0 0 0 .044-.112m-.208-.284c.184 0 .328.084.328.284a.7.7 0 0 1-.04.228.7.7 0 0 1-.256.376c-.212.144-.452.2-.748.2-.184 0-.332-.084-.332-.284 0-.076.02-.156.044-.228a.7.7 0 0 1 .252-.376c.212-.144.456-.2.752-.2"/><path fill="currentColor" d="M18.492 20.03a.17.17 0 0 0-.168-.164q-.024-.001-.048.004c-.124.036-.312.16-.46.256s-.336.212-.416.312a.168.168 0 0 0 .128.276q.024.001.048-.004c.124-.036.308-.16.456-.256s.336-.212.416-.312a.17.17 0 0 0 .044-.112m-.208-.284c.184 0 .328.084.328.284a.7.7 0 0 1-.04.228.7.7 0 0 1-.256.376c-.212.144-.452.2-.748.2-.184 0-.332-.084-.332-.284 0-.076.02-.156.044-.228a.7.7 0 0 1 .252-.376c.212-.144.456-.2.752-.2M10.4 25.33h-.024a.783.783 0 0 1-.78-.788c0-.232.212-.412.448-.412.216 0 .38.188.38.412 0 .208-.172.38-.38.38a.3.3 0 0 1-.124-.024c.104.156.272.26.468.26h.016zm.78-1.728a.71.71 0 0 0 .452-.656.764.764 0 0 0-.692-.76c.096.464.184.924.24 1.416m-1.548-.924c0 .54.516.988 1.056.988q.167 0 .328-.024c-.056-.508-.148-.98-.252-1.456-.316.032-.496.244-.496.476 0 .176.1.364.324.492q.029.03.028.06c0 .044-.04.088-.088.088q-.018-.001-.036-.008c-.32-.172-.468-.46-.468-.74 0-.352.232-.696.64-.788a15 15 0 0 0-.184-.7c-.428.484-.852.972-.852 1.612m1.044 1.16c-.752 0-1.332-.688-1.332-1.496 0-.708.524-1.224.992-1.764a4.5 4.5 0 0 1-.18-.76 5 5 0 0 1-.028-.624c0-.46.22-.896.596-1.168a.06.06 0 0 1 .08 0c.284.336.532.98.532 1.432 0 .572-.344 1.02-.72 1.456.084.272.156.552.224.828.016 0 .036-.004.052-.004.62 0 1.024.512 1.024 1.044 0 .304-.132.616-.428.84a.9.9 0 0 1-.292.144q.019.21.02.42-.001.116-.008.232c-.028.476-.352.9-.808.912l.004-.172c.372-.008.612-.368.636-.764q.007-.11.008-.22c0-.124-.004-.244-.016-.368-.116.02-.232.032-.356.032m.372-4.712c0-.22-.016-.316-.08-.516a1.15 1.15 0 0 0-.648 1.036c0 .296.072.532.144.776.32-.388.584-.792.584-1.296M14.972 21.682a.3.3 0 0 1-.3-.3c0-.152.108-.308.288-.308q.025-.001.056.004a.6.6 0 0 0-.48-.236c-.424 0-.452.292-.452.744v.408c0 .452.028.748.452.748.32 0 .556-.28.632-.604.008-.028.028-.04.048-.04.024 0 .052.016.052.048 0 .376-.42.696-.732.696-.272 0-.548-.084-.736-.28-.196-.204-.264-.488-.264-.772s.068-.568.264-.772c.188-.196.464-.276.736-.276.348 0 .64.252.7.596q.005.031.004.056c0 .16-.12.288-.268.288M18.492 12.053a.17.17 0 0 0-.168-.164q-.024-.001-.048.004c-.124.036-.312.16-.46.256s-.336.212-.416.312a.168.168 0 0 0 .128.276q.024.001.048-.004c.124-.036.308-.16.456-.256s.336-.212.416-.312a.17.17 0 0 0 .044-.112m-.208-.284c.184 0 .328.084.328.284a.7.7 0 0 1-.04.228.7.7 0 0 1-.256.376c-.212.144-.452.2-.748.2-.184 0-.332-.084-.332-.284 0-.076.02-.156.044-.228a.7.7 0 0 1 .252-.376c.212-.144.456-.2.752-.2"/><rect width=".13" height="5.408" x="-.065" y="-3.667" fill="currentColor" ry=".04" transform="translate(18.548 11.313)"/><text fill="currentColor" font-family="serif" font-size="2.2" transform="translate(-7.77 2.904)">
<tspan>Grundstellung</tspan>
</text><text fill="currentColor" font-family="serif" font-size="2.2" transform="translate(-11.388 11.904)">
<tspan>erste Umkehrung</tspan>
</text><text fill="currentColor" font-family="serif" font-size="2.2" transform="translate(-12.959 22.382)">
<tspan>zweite Umkehrung</tspan>
</text><rect width=".16" height="23.577" y="-11.789" fill="currentColor" ry=".05" transform="translate(8.476 12.052)"/><text fill="currentColor" font-family="sans-serif" font-size="2.616" transform="translate(17.236 -2.843)">
<tspan>C</tspan>
</text><path fill="currentColor" d="M18.492 5.053a.17.17 0 0 0-.168-.164q-.024-.001-.048.004c-.124.036-.312.16-.46.256s-.336.212-.416.312a.168.168 0 0 0 .128.276q.024.001.048-.004c.124-.036.308-.16.456-.256s.336-.212.416-.312a.17.17 0 0 0 .044-.112m-.208-.284c.184 0 .328.084.328.284a.7.7 0 0 1-.04.228.7.7 0 0 1-.256.376c-.212.144-.452.2-.748.2-.184 0-.332-.084-.332-.284 0-.076.02-.156.044-.228a.7.7 0 0 1 .252-.376c.212-.144.456-.2.752-.2"/><path fill="currentColor" d="M18.492 4.053a.17.17 0 0 0-.168-.164q-.024-.001-.048.004c-.124.036-.312.16-.46.256s-.336.212-.416.312a.168.168 0 0 0 .128.276q.024.001.048-.004c.124-.036.308-.16.456-.256s.336-.212.416-.312a.17.17 0 0 0 .044-.112m-.208-.284c.184 0 .328.084.328.284a.7.7 0 0 1-.04.228.7.7 0 0 1-.256.376c-.212.144-.452.2-.748.2-.184 0-.332-.084-.332-.284 0-.076.02-.156.044-.228a.7.7 0 0 1 .252-.376c.212-.144.456-.2.752-.2"/><path fill="currentColor" d="M18.492 3.053a.17.17 0 0 0-.168-.164q-.024-.001-.048.004c-.124.036-.312.16-.46.256s-.336.212-.416.312a.168.168 0 0 0 .128.276q.024.001.048-.004c.124-.036.308-.16.456-.256s.336-.212.416-.312a.17.17 0 0 0 .044-.112m-.208-.284c.184 0 .328.084.328.284a.7.7 0 0 1-.04.228.7.7 0 0 1-.256.376c-.212.144-.452.2-.748.2-.184 0-.332-.084-.332-.284 0-.076.02-.156.044-.228a.7.7 0 0 1 .252-.376c.212-.144.456-.2.752-.2M10.4 5.853h-.024a.783.783 0 0 1-.78-.788c0-.232.212-.412.448-.412.216 0 .38.188.38.412 0 .208-.172.38-.38.38a.3.3 0 0 1-.124-.024c.104.156.272.26.468.26h.016zm.78-1.728a.71.71 0 0 0 .452-.656.764.764 0 0 0-.692-.76c.096.464.184.924.24 1.416m-1.548-.924c0 .54.516.988 1.056.988q.167 0 .328-.024c-.056-.508-.148-.98-.252-1.456-.316.032-.496.244-.496.476 0 .176.1.364.324.492q.029.03.028.06c0 .044-.04.088-.088.088q-.018-.001-.036-.008c-.32-.172-.468-.46-.468-.74 0-.352.232-.696.64-.788a15 15 0 0 0-.184-.7c-.428.484-.852.972-.852 1.612m1.044 1.16c-.752 0-1.332-.688-1.332-1.496 0-.708.524-1.224.992-1.764a4.5 4.5 0 0 1-.18-.76 5 5 0 0 1-.028-.624c0-.46.22-.896.596-1.168a.06.06 0 0 1 .08 0c.284.336.532.98.532 1.432 0 .572-.344 1.02-.72 1.456.084.272.156.552.224.828.016 0 .036-.004.052-.004.62 0 1.024.512 1.024 1.044 0 .304-.132.616-.428.84a.9.9 0 0 1-.292.144q.019.21.02.42-.001.116-.008.232c-.028.476-.352.9-.808.912l.004-.172c.372-.008.612-.368.636-.764a3.775 3.775 0 0 0-.008-.588c-.116.02-.232.032-.356.032m.372-4.712c0-.22-.016-.316-.08-.516A1.15 1.15 0 0 0 10.32.169c0 .296.072.532.144.776.32-.388.584-.792.584-1.296M14.972 2.205a.3.3 0 0 1-.3-.3c0-.152.108-.308.288-.308q.025-.001.056.004a.6.6 0 0 0-.48-.236c-.424 0-.452.292-.452.744v.408c0 .452.028.748.452.748.32 0 .556-.28.632-.604.008-.028.028-.04.048-.04.024 0 .052.016.052.048 0 .376-.42.696-.732.696-.272 0-.548-.084-.736-.28-.196-.204-.264-.488-.264-.772s.068-.568.264-.772c.188-.196.464-.276.736-.276.348 0 .64.252.7.596q.005.031.004.056c0 .16-.12.288-.268.288M18.492 13.053a.17.17 0 0 0-.168-.164q-.024-.001-.048.004c-.124.036-.312.16-.46.256s-.336.212-.416.312a.168.168 0 0 0 .128.276q.024.001.048-.004c.124-.036.308-.16.456-.256s.336-.212.416-.312a.17.17 0 0 0 .044-.112m-.208-.284c.184 0 .328.084.328.284a.7.7 0 0 1-.04.228.7.7 0 0 1-.256.376c-.212.144-.452.2-.748.2-.184 0-.332-.084-.332-.284 0-.076.02-.156.044-.228a.7.7 0 0 1 .252-.376c.212-.144.456-.2.752-.2M22.767 11.553a.17.17 0 0 0-.168-.164q-.024-.001-.048.004c-.124.036-.312.16-.46.256s-.336.212-.416.312a.168.168 0 0 0 .128.276q.024.001.048-.004c.124-.036.308-.16.456-.256s.336-.212.416-.312a.17.17 0 0 0 .044-.112m-.208-.284c.184 0 .328.084.328.284a.7.7 0 0 1-.04.228.7.7 0 0 1-.256.376c-.212.144-.452.2-.748.2-.184 0-.332-.084-.332-.284 0-.076.02-.156.044-.228a.7.7 0 0 1 .252-.376c.212-.144.456-.2.752-.2"/><path fill="currentColor" d="M22.767 10.553a.17.17 0 0 0-.168-.164q-.024-.001-.048.004c-.124.036-.312.16-.46.256s-.336.212-.416.312a.168.168 0 0 0 .128.276q.024.001.048-.004c.124-.036.308-.16.456-.256s.336-.212.416-.312a.17.17 0 0 0 .044-.112m-.208-.284c.184 0 .328.084.328.284a.7.7 0 0 1-.04.228.7.7 0 0 1-.256.376c-.212.144-.452.2-.748.2-.184 0-.332-.084-.332-.284 0-.076.02-.156.044-.228a.7.7 0 0 1 .252-.376c.212-.144.456-.2.752-.2M22.767 22.03a.17.17 0 0 0-.168-.164q-.024-.001-.048.004c-.124.036-.312.16-.46.256s-.336.212-.416.312a.168.168 0 0 0 .128.276q.024.001.048-.004c.124-.036.308-.16.456-.256s.336-.212.416-.312a.17.17 0 0 0 .044-.112m-.208-.284c.184 0 .328.084.328.284a.7.7 0 0 1-.04.228.7.7 0 0 1-.256.376c-.212.144-.452.2-.748.2-.184 0-.332-.084-.332-.284 0-.076.02-.156.044-.228a.7.7 0 0 1 .252-.376c.212-.144.456-.2.752-.2"/><path fill="currentColor" d="M22.767 21.03a.17.17 0 0 0-.168-.164q-.024-.001-.048.004c-.124.036-.312.16-.46.256s-.336.212-.416.312a.168.168 0 0 0 .128.276q.024.001.048-.004c.124-.036.308-.16.456-.256s.336-.212.416-.312a.17.17 0 0 0 .044-.112m-.208-.284c.184 0 .328.084.328.284a.7.7 0 0 1-.04.228.7.7 0 0 1-.256.376c-.212.144-.452.2-.748.2-.184 0-.332-.084-.332-.284 0-.076.02-.156.044-.228a.7.7 0 0 1 .252-.376c.212-.144.456-.2.752-.2M22.767 19.53a.17.17 0 0 0-.168-.164q-.024-.001-.048.004c-.124.036-.312.16-.46.256s-.336.212-.416.312a.168.168 0 0 0 .128.276q.024.001.048-.004c.124-.036.308-.16.456-.256s.336-.212.416-.312a.17.17 0 0 0 .044-.112m-.208-.284c.184 0 .328.084.328.284a.7.7 0 0 1-.04.228.7.7 0 0 1-.256.376c-.212.144-.452.2-.748.2-.184 0-.332-.084-.332-.284 0-.076.02-.156.044-.228a.7.7 0 0 1 .252-.376c.212-.144.456-.2.752-.2"/><rect width=".13" height="5.741" x="-.065" y="-3" fill="currentColor" ry=".04" transform="translate(22.824 2.313)"/><path fill="currentColor" d="M22.767 12.553a.17.17 0 0 0-.168-.164q-.024-.001-.048.004c-.124.036-.312.16-.46.256s-.336.212-.416.312a.168.168 0 0 0 .128.276q.024.001.048-.004c.124-.036.308-.16.456-.256s.336-.212.416-.312a.17.17 0 0 0 .044-.112m-.208-.284c.184 0 .328.084.328.284a.7.7 0 0 1-.04.228.7.7 0 0 1-.256.376c-.212.144-.452.2-.748.2-.184 0-.332-.084-.332-.284 0-.076.02-.156.044-.228a.7.7 0 0 1 .252-.376c.212-.144.456-.2.752-.2"/><rect width=".13" height="4.908" x="-.065" y="-3.667" fill="currentColor" ry=".04" transform="translate(22.824 11.313)"/><rect width=".13" height="5.408" x="-.065" y="-1.741" fill="currentColor" ry=".04" transform="translate(21.576 21.79)"/><rect width=".13" height="5.241" x="-.065" y="-1.241" fill="currentColor" ry=".04" transform="translate(32.382 11.313)"/><path fill="currentColor" d="M22.767 2.553a.17.17 0 0 0-.168-.164q-.024-.001-.048.004c-.124.036-.312.16-.46.256s-.336.212-.416.312a.168.168 0 0 0 .128.276q.024.001.048-.004c.124-.036.308-.16.456-.256s.336-.212.416-.312a.17.17 0 0 0 .044-.112m-.208-.284c.184 0 .328.084.328.284a.7.7 0 0 1-.04.228.7.7 0 0 1-.256.376c-.212.144-.452.2-.748.2-.184 0-.332-.084-.332-.284 0-.076.02-.156.044-.228a.7.7 0 0 1 .252-.376c.212-.144.456-.2.752-.2"/><path fill="currentColor" d="M22.767 3.553a.17.17 0 0 0-.168-.164q-.024-.001-.048.004c-.124.036-.312.16-.46.256s-.336.212-.416.312a.168.168 0 0 0 .128.276q.024.001.048-.004c.124-.036.308-.16.456-.256s.336-.212.416-.312a.17.17 0 0 0 .044-.112m-.208-.284c.184 0 .328.084.328.284a.7.7 0 0 1-.04.228.7.7 0 0 1-.256.376c-.212.144-.452.2-.748.2-.184 0-.332-.084-.332-.284 0-.076.02-.156.044-.228a.7.7 0 0 1 .252-.376c.212-.144.456-.2.752-.2M22.767 5.053a.17.17 0 0 0-.168-.164q-.024-.001-.048.004c-.124.036-.312.16-.46.256s-.336.212-.416.312a.168.168 0 0 0 .128.276q.024.001.048-.004c.124-.036.308-.16.456-.256s.336-.212.416-.312a.17.17 0 0 0 .044-.112m-.208-.284c.184 0 .328.084.328.284a.7.7 0 0 1-.04.228.7.7 0 0 1-.256.376c-.212.144-.452.2-.748.2-.184 0-.332-.084-.332-.284 0-.076.02-.156.044-.228a.7.7 0 0 1 .252-.376c.212-.144.456-.2.752-.2"/><text fill="currentColor" font-family="sans-serif" font-size="2.616" transform="translate(21.511 -2.843)">
<tspan>F</tspan>
</text><rect width=".13" height="5.241" x="-.065" y="-1.241" fill="currentColor" ry=".04" transform="translate(17.3 21.79)"/><path fill="currentColor" d="M52.218 1.769c.22 0 .432.112.432.356 0 .284-.22.484-.408.596a.9.9 0 0 1-.464.136c-.22 0-.432-.112-.432-.356 0-.284.22-.484.408-.596.14-.084.3-.136.464-.136"/><rect width=".13" height="5.241" x="-.065" y="-2.741" fill="currentColor" ry=".04" transform="translate(43.497 21.79)"/><path fill="currentColor" d="m42.39 20.626-.004.264v.044q-.001.132.016.264c.18-.152.372-.32.372-.556 0-.132-.056-.268-.172-.268-.124 0-.208.12-.212.252m-.168.716-.048-2.38c.032-.02.072-.032.108-.032s.076.012.108.032l-.028 1.38a.58.58 0 0 1 .364-.136c.208 0 .356.192.356.408 0 .32-.344.468-.588.676-.06.052-.096.152-.18.152-.052 0-.092-.044-.092-.1"/><text fill="currentColor" font-family="sans-serif" font-size="2.616" transform="translate(51.346 -2.843)">
<tspan>G</tspan>
</text><path fill="currentColor" d="M54.268-2.132c0 .042-.034.08-.076.08s-.08-.038-.08-.08v-.61l-.348.13v.664c0 .042-.038.08-.08.08s-.076-.038-.076-.08v-.609l-.134.05c-.008.005-.021.005-.03.005a.084.084 0 0 1-.083-.084v-.252c0-.034.02-.067.054-.08l.193-.067v-.672l-.134.046c-.008.004-.021.004-.03.004a.084.084 0 0 1-.083-.084v-.252a.08.08 0 0 1 .054-.075l.193-.072v-.663c0-.042.034-.08.076-.08s.08.038.08.08v.609l.348-.13v-.664c0-.042.038-.08.08-.08s.076.038.076.08v.609l.134-.05q.015-.006.03-.005c.046 0 .084.038.084.084v.252a.09.09 0 0 1-.055.08l-.193.067v.672l.134-.046q.015-.005.03-.004c.046 0 .084.038.084.084v.252a.08.08 0 0 1-.055.075l-.193.072zm-.504-1.584v.672l.348-.126v-.672zM52.218 2.769c.22 0 .432.112.432.356 0 .284-.22.484-.408.596a.9.9 0 0 1-.464.136c-.22 0-.432-.112-.432-.356 0-.284.22-.484.408-.596.14-.084.3-.136.464-.136M52.218.769c.22 0 .432.112.432.356 0 .284-.22.484-.408.596a.9.9 0 0 1-.464.136c-.22 0-.432-.112-.432-.356 0-.284.22-.484.408-.596.14-.084.3-.136.464-.136M52.218 10.769c.22 0 .432.112.432.356 0 .284-.22.484-.408.596a.9.9 0 0 1-.464.136c-.22 0-.432-.112-.432-.356 0-.284.22-.484.408-.596.14-.084.3-.136.464-.136"/><path fill="currentColor" d="M52.218 9.769c.22 0 .432.112.432.356 0 .284-.22.484-.408.596a.9.9 0 0 1-.464.136c-.22 0-.432-.112-.432-.356 0-.284.22-.484.408-.596.14-.084.3-.136.464-.136M52.218 8.269c.22 0 .432.112.432.356 0 .284-.22.484-.408.596a.9.9 0 0 1-.464.136c-.22 0-.432-.112-.432-.356 0-.284.22-.484.408-.596.14-.084.3-.136.464-.136M52.218 20.246c.22 0 .432.112.432.356 0 .284-.22.484-.408.596a.9.9 0 0 1-.464.136c-.22 0-.432-.112-.432-.356 0-.284.22-.484.408-.596.14-.084.3-.136.464-.136M52.218 18.746c.22 0 .432.112.432.356 0 .284-.22.484-.408.596a.9.9 0 0 1-.464.136c-.22 0-.432-.112-.432-.356 0-.284.22-.484.408-.596.14-.084.3-.136.464-.136"/><path fill="currentColor" d="M52.218 17.746c.22 0 .432.112.432.356 0 .284-.22.484-.408.596a.9.9 0 0 1-.464.136c-.22 0-.432-.112-.432-.356 0-.284.22-.484.408-.596.14-.084.3-.136.464-.136M44.688 10.053a.17.17 0 0 0-.168-.164q-.024-.001-.048.004c-.124.036-.312.16-.46.256s-.336.212-.416.312a.168.168 0 0 0 .128.276q.024.001.048-.004c.124-.036.308-.16.456-.256s.336-.212.416-.312a.17.17 0 0 0 .044-.112m-.208-.284c.184 0 .328.084.328.284a.7.7 0 0 1-.04.228.7.7 0 0 1-.256.376c-.212.144-.452.2-.748.2-.184 0-.332-.084-.332-.284 0-.076.02-.156.044-.228a.7.7 0 0 1 .252-.376c.212-.144.456-.2.752-.2"/><path fill="currentColor" d="M44.688 9.053a.17.17 0 0 0-.168-.164q-.024-.001-.048.004c-.124.036-.312.16-.46.256s-.336.212-.416.312a.168.168 0 0 0 .128.276q.024.001.048-.004c.124-.036.308-.16.456-.256s.336-.212.416-.312a.17.17 0 0 0 .044-.112m-.208-.284c.184 0 .328.084.328.284a.7.7 0 0 1-.04.228.7.7 0 0 1-.256.376c-.212.144-.452.2-.748.2-.184 0-.332-.084-.332-.284 0-.076.02-.156.044-.228a.7.7 0 0 1 .252-.376c.212-.144.456-.2.752-.2M44.688 20.53a.17.17 0 0 0-.168-.164q-.024-.001-.048.004c-.124.036-.312.16-.46.256s-.336.212-.416.312a.168.168 0 0 0 .128.276q.024.001.048-.004c.124-.036.308-.16.456-.256s.336-.212.416-.312a.17.17 0 0 0 .044-.112m-.208-.284c.184 0 .328.084.328.284a.7.7 0 0 1-.04.228.7.7 0 0 1-.256.376c-.212.144-.452.2-.748.2-.184 0-.332-.084-.332-.284 0-.076.02-.156.044-.228a.7.7 0 0 1 .252-.376c.212-.144.456-.2.752-.2"/><rect width=".13" height="5.574" x="-.065" y="-2.241" fill="currentColor" ry=".04" transform="translate(32.382 21.79)"/><path fill="currentColor" d="M44.688 18.53a.17.17 0 0 0-.168-.164q-.024-.001-.048.004c-.124.036-.312.16-.46.256s-.336.212-.416.312a.168.168 0 0 0 .128.276q.024.001.048-.004c.124-.036.308-.16.456-.256s.336-.212.416-.312a.17.17 0 0 0 .044-.112m-.208-.284c.184 0 .328.084.328.284a.7.7 0 0 1-.04.228.7.7 0 0 1-.256.376c-.212.144-.452.2-.748.2-.184 0-.332-.084-.332-.284 0-.076.02-.156.044-.228a.7.7 0 0 1 .252-.376c.212-.144.456-.2.752-.2"/><rect width=".13" height="5.241" x="-.065" y="-4" fill="currentColor" ry=".04" transform="translate(44.745 2.313)"/><path fill="currentColor" d="m42.39 1.149-.004.264v.044q-.001.132.016.264c.18-.152.372-.32.372-.556 0-.132-.056-.268-.172-.268-.124 0-.208.12-.212.252m-.168.716-.048-2.38c.032-.02.072-.032.108-.032s.076.012.108.032l-.028 1.38a.58.58 0 0 1 .364-.136c.208 0 .356.192.356.408 0 .32-.344.468-.588.676-.06.052-.096.152-.18.152-.052 0-.092-.044-.092-.1"/><rect width=".13" height="5.408" x="-.065" y="-1.741" fill="currentColor" ry=".04" transform="translate(43.497 11.313)"/><path fill="currentColor" d="m42.39 10.149-.004.264v.044q-.001.132.016.264c.18-.152.372-.32.372-.556 0-.132-.056-.268-.172-.268-.124 0-.208.12-.212.252m-.168.716-.048-2.38c.032-.02.072-.032.108-.032s.076.012.108.032l-.028 1.38a.58.58 0 0 1 .364-.136c.208 0 .356.192.356.408 0 .32-.344.468-.588.676-.06.052-.096.152-.18.152-.052 0-.092-.044-.092-.1M49.743 11.149l-.004.264v.044q-.001.132.016.264c.18-.152.372-.32.372-.556 0-.132-.056-.268-.172-.268-.124 0-.208.12-.212.252m-.168.716-.048-2.38c.032-.02.072-.032.108-.032s.076.012.108.032l-.028 1.38a.58.58 0 0 1 .364-.136c.208 0 .356.192.356.408 0 .32-.344.468-.588.676-.06.052-.096.152-.18.152-.052 0-.092-.044-.092-.1M48.646 10.149l-.004.264v.044q-.001.132.016.264c.18-.152.372-.32.372-.556 0-.132-.056-.268-.172-.268-.124 0-.208.12-.212.252m-.168.716-.048-2.38c.032-.02.072-.032.108-.032s.076.012.108.032l-.028 1.38a.58.58 0 0 1 .364-.136c.208 0 .356.192.356.408 0 .32-.344.468-.588.676-.06.052-.096.152-.18.152-.052 0-.092-.044-.092-.1M50.304 8.649l-.004.264v.044q-.001.132.016.264c.18-.152.372-.32.372-.556 0-.132-.056-.268-.172-.268-.124 0-.208.12-.212.252m-.168.716-.048-2.38c.032-.02.072-.032.108-.032s.076.012.108.032l-.028 1.38a.58.58 0 0 1 .364-.136c.208 0 .356.192.356.408 0 .32-.344.468-.588.676-.06.052-.096.152-.18.152-.052 0-.092-.044-.092-.1"/><rect width=".13" height="5.814" x="-.065" y="-3.314" fill="currentColor" ry=".04" transform="translate(51.411 21.79)"/><path fill="currentColor" d="m49.743 20.626-.004.264v.044q-.001.132.016.264c.18-.152.372-.32.372-.556 0-.132-.056-.268-.172-.268-.124 0-.208.12-.212.252m-.168.716-.048-2.38c.032-.02.072-.032.108-.032s.076.012.108.032l-.028 1.38a.58.58 0 0 1 .364-.136c.208 0 .356.192.356.408 0 .32-.344.468-.588.676-.06.052-.096.152-.18.152-.052 0-.092-.044-.092-.1M48.636 19.126l-.004.264v.044q-.001.132.016.264c.18-.152.372-.32.372-.556 0-.132-.056-.268-.172-.268-.124 0-.208.12-.212.252m-.168.716-.048-2.38c.032-.02.072-.032.108-.032s.076.012.108.032l-.028 1.38a.58.58 0 0 1 .364-.136c.208 0 .356.192.356.408 0 .32-.344.468-.588.676-.06.052-.096.152-.18.152-.052 0-.092-.044-.092-.1M44.688 19.53a.17.17 0 0 0-.168-.164q-.024-.001-.048.004c-.124.036-.312.16-.46.256s-.336.212-.416.312a.168.168 0 0 0 .128.276q.024.001.048-.004c.124-.036.308-.16.456-.256s.336-.212.416-.312a.17.17 0 0 0 .044-.112m-.208-.284c.184 0 .328.084.328.284a.7.7 0 0 1-.04.228.7.7 0 0 1-.256.376c-.212.144-.452.2-.748.2-.184 0-.332-.084-.332-.284 0-.076.02-.156.044-.228a.7.7 0 0 1 .252-.376c.212-.144.456-.2.752-.2"/><rect width=".13" height="5.647" x="-.065" y="-2.314" fill="currentColor" ry=".04" transform="translate(51.411 11.313)"/><path fill="currentColor" d="m50.304 1.149-.004.264v.044q-.001.132.016.264c.18-.152.372-.32.372-.556 0-.132-.056-.268-.172-.268-.124 0-.208.12-.212.252m-.168.716-.048-2.38c.032-.02.072-.032.108-.032s.076.012.108.032l-.028 1.38a.58.58 0 0 1 .364-.136c.208 0 .356.192.356.408 0 .32-.344.468-.588.676-.06.052-.096.152-.18.152-.052 0-.092-.044-.092-.1M48.636 2.149l-.004.264v.044q-.001.132.016.264c.18-.152.372-.32.372-.556 0-.132-.056-.268-.172-.268-.124 0-.208.12-.212.252m-.168.716L48.42.485c.032-.02.072-.032.108-.032s.076.012.108.032l-.028 1.38a.58.58 0 0 1 .364-.136c.208 0 .356.192.356.408 0 .32-.344.468-.588.676-.06.052-.096.152-.18.152-.052 0-.092-.044-.092-.1M49.733 3.149l-.004.264v.044q-.001.132.016.264c.18-.152.372-.32.372-.556 0-.132-.056-.268-.172-.268-.124 0-.208.12-.212.252m-.168.716-.048-2.38c.032-.02.072-.032.108-.032s.076.012.108.032l-.028 1.38a.58.58 0 0 1 .364-.136c.208 0 .356.192.356.408 0 .32-.344.468-.588.676-.06.052-.096.152-.18.152-.052 0-.092-.044-.092-.1"/><rect width=".13" height="4.814" x="-.065" y="-.814" fill="currentColor" ry=".04" transform="translate(51.411 2.313)"/><path fill="currentColor" d="m38.115 2.649-.004.264v.044q-.001.132.016.264c.18-.152.372-.32.372-.556 0-.132-.056-.268-.172-.268-.124 0-.208.12-.212.252m-.168.716-.048-2.38c.032-.02.072-.032.108-.032s.076.012.108.032l-.028 1.38a.58.58 0 0 1 .364-.136c.208 0 .356.192.356.408 0 .32-.344.468-.588.676-.06.052-.096.152-.18.152-.052 0-.092-.044-.092-.1"/><path fill="currentColor" d="m37.534 4.149-.004.264v.044q-.001.132.016.264c.18-.152.372-.32.372-.556 0-.132-.056-.268-.172-.268-.124 0-.208.12-.212.252m-.168.716-.048-2.38c.032-.02.072-.032.108-.032s.076.012.108.032l-.028 1.38a.58.58 0 0 1 .364-.136c.208 0 .356.192.356.408 0 .32-.344.468-.588.676-.06.052-.096.152-.18.152-.052 0-.092-.044-.092-.1"/><rect width=".13" height="5.408" x="-.065" y="-3.667" fill="currentColor" ry=".04" transform="translate(40.47 2.313)"/><rect width=".13" height="4.908" x="-.065" y="-1.241" fill="currentColor" ry=".04" transform="translate(39.222 11.313)"/><path fill="currentColor" d="m37.544 11.649-.004.264v.044q-.001.132.016.264c.18-.152.372-.32.372-.556 0-.132-.056-.268-.172-.268-.124 0-.208.12-.212.252m-.168.716-.048-2.38c.032-.02.072-.032.108-.032s.076.012.108.032l-.028 1.38a.58.58 0 0 1 .364-.136c.208 0 .356.192.356.408 0 .32-.344.468-.588.676-.06.052-.096.152-.18.152-.052 0-.092-.044-.092-.1M40.413 1.553a.17.17 0 0 0-.168-.164q-.024-.001-.048.004c-.124.036-.312.16-.46.256s-.336.212-.416.312a.168.168 0 0 0 .128.276q.024.001.048-.004c.124-.036.308-.16.456-.256s.336-.212.416-.312a.17.17 0 0 0 .044-.112m-.208-.284c.184 0 .328.084.328.284a.7.7 0 0 1-.04.228.7.7 0 0 1-.256.376c-.212.144-.452.2-.748.2-.184 0-.332-.084-.332-.284 0-.076.02-.156.044-.228a.7.7 0 0 1 .252-.376c.212-.144.456-.2.752-.2M31.275 20.126l-.004.264v.044q-.001.132.016.264c.18-.152.372-.32.372-.556 0-.132-.056-.268-.172-.268-.124 0-.208.12-.212.252m-.168.716-.048-2.38c.032-.02.072-.032.108-.032s.076.012.108.032l-.028 1.38a.58.58 0 0 1 .364-.136c.208 0 .356.192.356.408 0 .32-.344.468-.588.676-.06.052-.096.152-.18.152-.052 0-.092-.044-.092-.1"/><text fill="currentColor" font-family="sans-serif" font-size="2.616" transform="translate(39.157 -2.843)">
<tspan>A</tspan>
</text><path fill="currentColor" d="m41.268-3.315-.005.277v.046q0 .14.017.277c.19-.16.39-.336.39-.583 0-.139-.058-.282-.18-.282-.13 0-.218.126-.222.265m-.177.752-.05-2.5c.033-.02.075-.033.113-.033s.08.013.113.034l-.029 1.449a.6.6 0 0 1 .382-.143c.219 0 .374.202.374.428 0 .336-.361.492-.617.71-.063.055-.101.16-.19.16-.054 0-.096-.046-.096-.105M40.413 4.053a.17.17 0 0 0-.168-.164q-.024-.001-.048.004c-.124.036-.312.16-.46.256s-.336.212-.416.312a.168.168 0 0 0 .128.276q.024.001.048-.004c.124-.036.308-.16.456-.256s.336-.212.416-.312a.17.17 0 0 0 .044-.112m-.208-.284c.184 0 .328.084.328.284a.7.7 0 0 1-.04.228.7.7 0 0 1-.256.376c-.212.144-.452.2-.748.2-.184 0-.332-.084-.332-.284 0-.076.02-.156.044-.228a.7.7 0 0 1 .252-.376c.212-.144.456-.2.752-.2M40.413 2.553a.17.17 0 0 0-.168-.164q-.024-.001-.048.004c-.124.036-.312.16-.46.256s-.336.212-.416.312a.168.168 0 0 0 .128.276q.024.001.048-.004c.124-.036.308-.16.456-.256s.336-.212.416-.312a.17.17 0 0 0 .044-.112m-.208-.284c.184 0 .328.084.328.284a.7.7 0 0 1-.04.228.7.7 0 0 1-.256.376c-.212.144-.452.2-.748.2-.184 0-.332-.084-.332-.284 0-.076.02-.156.044-.228a.7.7 0 0 1 .252-.376c.212-.144.456-.2.752-.2M40.413 11.553a.17.17 0 0 0-.168-.164q-.024-.001-.048.004c-.124.036-.312.16-.46.256s-.336.212-.416.312a.168.168 0 0 0 .128.276q.024.001.048-.004c.124-.036.308-.16.456-.256s.336-.212.416-.312a.17.17 0 0 0 .044-.112m-.208-.284c.184 0 .328.084.328.284a.7.7 0 0 1-.04.228.7.7 0 0 1-.256.376c-.212.144-.452.2-.748.2-.184 0-.332-.084-.332-.284 0-.076.02-.156.044-.228a.7.7 0 0 1 .252-.376c.212-.144.456-.2.752-.2"/><path fill="currentColor" d="M40.413 10.553a.17.17 0 0 0-.168-.164q-.024-.001-.048.004c-.124.036-.312.16-.46.256s-.336.212-.416.312a.168.168 0 0 0 .128.276q.024.001.048-.004c.124-.036.308-.16.456-.256s.336-.212.416-.312a.17.17 0 0 0 .044-.112m-.208-.284c.184 0 .328.084.328.284a.7.7 0 0 1-.04.228.7.7 0 0 1-.256.376c-.212.144-.452.2-.748.2-.184 0-.332-.084-.332-.284 0-.076.02-.156.044-.228a.7.7 0 0 1 .252-.376c.212-.144.456-.2.752-.2"/><path fill="currentColor" d="M40.413 9.553a.17.17 0 0 0-.168-.164q-.024-.001-.048.004c-.124.036-.312.16-.46.256s-.336.212-.416.312a.168.168 0 0 0 .128.276q.024.001.048-.004c.124-.036.308-.16.456-.256s.336-.212.416-.312a.17.17 0 0 0 .044-.112m-.208-.284c.184 0 .328.084.328.284a.7.7 0 0 1-.04.228.7.7 0 0 1-.256.376c-.212.144-.452.2-.748.2-.184 0-.332-.084-.332-.284 0-.076.02-.156.044-.228a.7.7 0 0 1 .252-.376c.212-.144.456-.2.752-.2M40.413 21.03a.17.17 0 0 0-.168-.164q-.024-.001-.048.004c-.124.036-.312.16-.46.256s-.336.212-.416.312a.168.168 0 0 0 .128.276q.024.001.048-.004c.124-.036.308-.16.456-.256s.336-.212.416-.312a.17.17 0 0 0 .044-.112m-.208-.284c.184 0 .328.084.328.284a.7.7 0 0 1-.04.228.7.7 0 0 1-.256.376c-.212.144-.452.2-.748.2-.184 0-.332-.084-.332-.284 0-.076.02-.156.044-.228a.7.7 0 0 1 .252-.376c.212-.144.456-.2.752-.2"/><path fill="currentColor" d="M40.413 20.03a.17.17 0 0 0-.168-.164q-.024-.001-.048.004c-.124.036-.312.16-.46.256s-.336.212-.416.312a.168.168 0 0 0 .128.276q.024.001.048-.004c.124-.036.308-.16.456-.256s.336-.212.416-.312a.17.17 0 0 0 .044-.112m-.208-.284c.184 0 .328.084.328.284a.7.7 0 0 1-.04.228.7.7 0 0 1-.256.376c-.212.144-.452.2-.748.2-.184 0-.332-.084-.332-.284 0-.076.02-.156.044-.228a.7.7 0 0 1 .252-.376c.212-.144.456-.2.752-.2M40.413 18.53a.17.17 0 0 0-.168-.164q-.024-.001-.048.004c-.124.036-.312.16-.46.256s-.336.212-.416.312a.168.168 0 0 0 .128.276q.024.001.048-.004c.124-.036.308-.16.456-.256s.336-.212.416-.312a.17.17 0 0 0 .044-.112m-.208-.284c.184 0 .328.084.328.284a.7.7 0 0 1-.04.228.7.7 0 0 1-.256.376c-.212.144-.452.2-.748.2-.184 0-.332-.084-.332-.284 0-.076.02-.156.044-.228a.7.7 0 0 1 .252-.376c.212-.144.456-.2.752-.2M44.688 11.553a.17.17 0 0 0-.168-.164q-.024-.001-.048.004c-.124.036-.312.16-.46.256s-.336.212-.416.312a.168.168 0 0 0 .128.276q.024.001.048-.004c.124-.036.308-.16.456-.256s.336-.212.416-.312a.17.17 0 0 0 .044-.112m-.208-.284c.184 0 .328.084.328.284a.7.7 0 0 1-.04.228.7.7 0 0 1-.256.376c-.212.144-.452.2-.748.2-.184 0-.332-.084-.332-.284 0-.076.02-.156.044-.228a.7.7 0 0 1 .252-.376c.212-.144.456-.2.752-.2M44.688 1.053a.17.17 0 0 0-.168-.164q-.024-.001-.048.004c-.124.036-.312.16-.46.256s-.336.212-.416.312a.168.168 0 0 0 .128.276q.024.001.048-.004c.124-.036.308-.16.456-.256s.336-.212.416-.312a.17.17 0 0 0 .044-.112M44.48.769c.184 0 .328.084.328.284a.7.7 0 0 1-.04.228.7.7 0 0 1-.256.376c-.212.144-.452.2-.748.2-.184 0-.332-.084-.332-.284 0-.076.02-.156.044-.228a.7.7 0 0 1 .252-.376c.212-.144.456-.2.752-.2M44.688 2.553a.17.17 0 0 0-.168-.164q-.024-.001-.048.004c-.124.036-.312.16-.46.256s-.336.212-.416.312a.168.168 0 0 0 .128.276q.024.001.048-.004c.124-.036.308-.16.456-.256s.336-.212.416-.312a.17.17 0 0 0 .044-.112m-.208-.284c.184 0 .328.084.328.284a.7.7 0 0 1-.04.228.7.7 0 0 1-.256.376c-.212.144-.452.2-.748.2-.184 0-.332-.084-.332-.284 0-.076.02-.156.044-.228a.7.7 0 0 1 .252-.376c.212-.144.456-.2.752-.2"/><path fill="currentColor" d="M44.688 3.553a.17.17 0 0 0-.168-.164q-.024-.001-.048.004c-.124.036-.312.16-.46.256s-.336.212-.416.312a.168.168 0 0 0 .128.276q.024.001.048-.004c.124-.036.308-.16.456-.256s.336-.212.416-.312a.17.17 0 0 0 .044-.112m-.208-.284c.184 0 .328.084.328.284a.7.7 0 0 1-.04.228.7.7 0 0 1-.256.376c-.212.144-.452.2-.748.2-.184 0-.332-.084-.332-.284 0-.076.02-.156.044-.228a.7.7 0 0 1 .252-.376c.212-.144.456-.2.752-.2"/><text fill="currentColor" font-family="sans-serif" font-size="2.616" transform="translate(43.432 -2.843)">
<tspan>D</tspan>
</text><path fill="currentColor" d="m45.782-3.315-.004.277v.046q-.001.14.017.277c.189-.16.39-.336.39-.583 0-.139-.059-.282-.18-.282-.13 0-.219.126-.223.265m-.176.752-.05-2.5c.033-.02.075-.033.112-.033s.08.013.114.034l-.03 1.449a.6.6 0 0 1 .383-.143c.218 0 .373.202.373.428 0 .336-.36.492-.617.71-.063.055-.1.16-.189.16-.055 0-.097-.046-.097-.105M38.115 18.626l-.004.264v.044q-.001.132.016.264c.18-.152.372-.32.372-.556 0-.132-.056-.268-.172-.268-.124 0-.208.12-.212.252m-.168.716-.048-2.38c.032-.02.072-.032.108-.032s.076.012.108.032l-.028 1.38a.58.58 0 0 1 .364-.136c.208 0 .356.192.356.408 0 .32-.344.468-.588.676-.06.052-.096.152-.18.152-.052 0-.092-.044-.092-.1"/><path fill="currentColor" d="m37.534 20.126-.004.264v.044q-.001.132.016.264c.18-.152.372-.32.372-.556 0-.132-.056-.268-.172-.268-.124 0-.208.12-.212.252m-.168.716-.048-2.38c.032-.02.072-.032.108-.032s.076.012.108.032l-.028 1.38a.58.58 0 0 1 .364-.136c.208 0 .356.192.356.408 0 .32-.344.468-.588.676-.06.052-.096.152-.18.152-.052 0-.092-.044-.092-.1M38.115 9.649l-.004.264v.044q-.001.132.016.264c.18-.152.372-.32.372-.556 0-.132-.056-.268-.172-.268-.124 0-.208.12-.212.252m-.168.716-.048-2.38c.032-.02.072-.032.108-.032s.076.012.108.032l-.028 1.38a.58.58 0 0 1 .364-.136c.208 0 .356.192.356.408 0 .32-.344.468-.588.676-.06.052-.096.152-.18.152-.052 0-.092-.044-.092-.1"/><rect width=".13" height="5.741" x="-.065" y="-2.741" fill="currentColor" ry=".04" transform="translate(39.222 21.79)"/></svg>