<svg xmlns="http://www.w3.org/2000/svg" width="48.5mm" height="63.45mm" viewBox="-4.423 -3.037 27.598 36.105"><style>tspan{white-space:pre}</style><rect width="1.956" height=".2" x="18.444" y="-.1" fill="currentColor" ry=".1" transform="translate(0 4.942)"/><path stroke="currentColor" stroke-linecap="round" stroke-linejoin="round" stroke-width=".1" d="M8.586 31.518h14.539M8.586 30.518h14.539M8.586 29.518h14.539M8.586 28.518h14.539M8.586 27.518h14.539"/><rect width="1.956" height=".2" x="18.444" y="-.1" fill="currentColor" ry=".1" transform="translate(0 32.518)"/><path stroke="currentColor" stroke-linecap="round" stroke-linejoin="round" stroke-width=".1" d="M8.586 22.494h14.539M8.586 21.494h14.539M8.586 20.494h14.539M8.586 19.494h14.539M8.586 18.494h14.539"/><rect width="1.956" height=".2" x="18.444" y="-.1" fill="currentColor" ry=".1" transform="translate(0 23.494)"/><path stroke="currentColor" stroke-linecap="round" stroke-linejoin="round" stroke-width=".1" d="M8.586 12.966h14.539M8.586 11.966h14.539M8.586 10.966h14.539M8.586 9.966h14.539M8.586 8.966h14.539"/><rect width="1.956" height=".2" x="18.444" y="-.1" fill="currentColor" ry=".1" transform="translate(0 13.966)"/><path stroke="currentColor" stroke-linecap="round" stroke-linejoin="round" stroke-width=".1" d="M8.586 3.942h14.539M8.586 2.942h14.539M8.586 1.942h14.539M8.586.942h14.539M8.586-.058h14.539"/><path fill="currentColor" d="m17.728 12.802-.004.264v.044q-.001.132.016.264c.18-.152.372-.32.372-.556 0-.132-.056-.268-.172-.268-.124 0-.208.12-.212.252m-.168.716-.048-2.38c.032-.02.072-.032.108-.032s.076.012.108.032l-.028 1.38a.58.58 0 0 1 .364-.136c.208 0 .356.192.356.408 0 .32-.344.468-.588.676-.06.052-.096.152-.18.152-.052 0-.092-.044-.092-.1"/><rect width=".13" height="5.314" x="-.065" y="-2.5" fill="currentColor" ry=".04" transform="translate(20.01 20.494)"/><path fill="currentColor" d="M19.642 30.974c.22 0 .432.112.432.356 0 .284-.22.484-.408.596a.9.9 0 0 1-.464.136c-.22 0-.432-.112-.432-.356 0-.284.22-.484.408-.596.14-.084.3-.136.464-.136"/><rect width=".13" height="5.314" x="-.065" y="-2.5" fill="currentColor" ry=".04" transform="translate(20.01 10.966)"/><rect width=".13" height="5.314" x="-.065" y="-2.5" fill="currentColor" ry=".04" transform="translate(20.01 1.942)"/><path fill="currentColor" d="M14.972 29.41a.3.3 0 0 1-.3-.3c0-.152.108-.308.288-.308q.025-.001.056.004a.6.6 0 0 0-.48-.236c-.424 0-.452.292-.452.744v.408c0 .452.028.748.452.748.32 0 .556-.28.632-.604.008-.028.028-.04.048-.04.024 0 .052.016.052.048 0 .376-.42.696-.732.696-.272 0-.548-.084-.736-.28-.196-.204-.264-.488-.264-.772s.068-.568.264-.772c.188-.196.464-.276.736-.276.348 0 .64.252.7.596q.005.031.004.056c0 .16-.12.288-.268.288M10.4 33.058h-.024a.783.783 0 0 1-.78-.788c0-.232.212-.412.448-.412.216 0 .38.188.38.412 0 .208-.172.38-.38.38a.3.3 0 0 1-.124-.024c.104.156.272.26.468.26h.016zm.78-1.728a.71.71 0 0 0 .452-.656.764.764 0 0 0-.692-.76c.096.464.184.924.24 1.416m-1.548-.924c0 .54.516.988 1.056.988q.167 0 .328-.024c-.056-.508-.148-.98-.252-1.456-.316.032-.496.244-.496.476 0 .176.1.364.324.492q.029.03.028.06c0 .044-.04.088-.088.088q-.018-.001-.036-.008c-.32-.172-.468-.46-.468-.74 0-.352.232-.696.64-.788a15 15 0 0 0-.184-.7c-.428.484-.852.972-.852 1.612m1.044 1.16c-.752 0-1.332-.688-1.332-1.496 0-.708.524-1.224.992-1.764a4.5 4.5 0 0 1-.18-.76 5 5 0 0 1-.028-.624c0-.46.22-.896.596-1.168a.06.06 0 0 1 .08 0c.284.336.532.98.532 1.432 0 .572-.344 1.02-.72 1.456.084.272.156.552.224.828.016 0 .036-.004.052-.004.62 0 1.024.512 1.024 1.044 0 .304-.132.616-.428.84a.9.9 0 0 1-.292.144q.019.21.02.42-.001.116-.008.232c-.028.476-.352.9-.808.912l.004-.172c.372-.008.612-.368.636-.764q.007-.11.008-.22.001-.184-.016-.368c-.116.02-.232.032-.356.032m.372-4.712c0-.22-.016-.316-.08-.516a1.15 1.15 0 0 0-.648 1.036c0 .296.072.532.144.776.32-.388.584-.792.584-1.296M19.642 29.974c.22 0 .432.112.432.356 0 .284-.22.484-.408.596a.9.9 0 0 1-.464.136c-.22 0-.432-.112-.432-.356 0-.284.22-.484.408-.596.14-.084.3-.136.464-.136M10.4 24.034h-.024a.783.783 0 0 1-.78-.788c0-.232.212-.412.448-.412.216 0 .38.188.38.412 0 .208-.172.38-.38.38a.3.3 0 0 1-.124-.024c.104.156.272.26.468.26h.016zm.78-1.728a.71.71 0 0 0 .452-.656.764.764 0 0 0-.692-.76c.096.464.184.924.24 1.416m-1.548-.924c0 .54.516.988 1.056.988q.167 0 .328-.024c-.056-.508-.148-.98-.252-1.456-.316.032-.496.244-.496.476 0 .176.1.364.324.492q.029.03.028.06c0 .044-.04.088-.088.088q-.018-.001-.036-.008c-.32-.172-.468-.46-.468-.74 0-.352.232-.696.64-.788a15 15 0 0 0-.184-.7c-.428.484-.852.972-.852 1.612m1.044 1.16c-.752 0-1.332-.688-1.332-1.496 0-.708.524-1.224.992-1.764a4.5 4.5 0 0 1-.18-.76 5 5 0 0 1-.028-.624c0-.46.22-.896.596-1.168a.06.06 0 0 1 .08 0c.284.336.532.98.532 1.432 0 .572-.344 1.02-.72 1.456.084.272.156.552.224.828.016 0 .036-.004.052-.004.62 0 1.024.512 1.024 1.044 0 .304-.132.616-.428.84a.9.9 0 0 1-.292.144q.019.21.02.42-.001.116-.008.232c-.028.476-.352.9-.808.912l.004-.172c.372-.008.612-.368.636-.764a3.775 3.775 0 0 0-.008-.588c-.116.02-.232.032-.356.032m.372-4.712c0-.22-.016-.316-.08-.516a1.15 1.15 0 0 0-.648 1.036c0 .296.072.532.144.776.32-.388.584-.792.584-1.296M18.184 31.766c0 .04-.032.076-.072.076s-.076-.036-.076-.076v-.58l-.332.124v.632c0 .04-.036.076-.076.076s-.072-.036-.072-.076v-.58l-.128.048c-.008.004-.02.004-.028.004a.08.08 0 0 1-.08-.08v-.24c0-.032.02-.064.052-.076l.184-.064v-.64l-.128.044c-.008.004-.02.004-.028.004a.08.08 0 0 1-.08-.08v-.24c0-.032.02-.06.052-.072l.184-.068v-.632c0-.04.032-.076.072-.076s.076.036.076.076v.58l.332-.124v-.632c0-.04.036-.076.076-.076s.072.036.072.076v.58l.128-.048c.008-.004.02-.004.028-.004a.08.08 0 0 1 .08.08v.24c0 .032-.02.064-.052.076l-.184.064v.64l.128-.044c.008-.004.02-.004.028-.004a.08.08 0 0 1 .08.08v.24c0 .032-.02.06-.052.072l-.184.068zm-.48-1.508v.64l.332-.12v-.64z"/><rect width=".13" height="5.314" x="-.065" y="-2.5" fill="currentColor" ry=".04" transform="translate(20.01 29.518)"/><path fill="currentColor" d="m17.728 21.33-.004.264v.044q-.001.132.016.264c.18-.152.372-.32.372-.556 0-.132-.056-.268-.172-.268-.124 0-.208.12-.212.252m-.168.716-.048-2.38c.032-.02.072-.032.108-.032s.076.012.108.032l-.028 1.38a.58.58 0 0 1 .364-.136c.208 0 .356.192.356.408 0 .32-.344.468-.588.676-.06.052-.096.152-.18.152-.052 0-.092-.044-.092-.1M16.764 22.33l-.004.264v.044q-.001.132.016.264c.18-.152.372-.32.372-.556 0-.132-.056-.268-.172-.268-.124 0-.208.12-.212.252m-.168.716-.048-2.38c.032-.02.072-.032.108-.032s.076.012.108.032l-.028 1.38a.58.58 0 0 1 .364-.136c.208 0 .356.192.356.408 0 .32-.344.468-.588.676-.06.052-.096.152-.18.152-.052 0-.092-.044-.092-.1M19.642 4.398c.22 0 .432.112.432.356 0 .284-.22.484-.408.596a.9.9 0 0 1-.464.136c-.22 0-.432-.112-.432-.356 0-.284.22-.484.408-.596.14-.084.3-.136.464-.136"/><text fill="currentColor" font-family="sans-serif" font-size="2.616" transform="translate(18.77 -1.095)">
<tspan>C</tspan>
</text><rect width=".16" height="31.677" y="-15.838" fill="currentColor" ry=".05" transform="translate(8.476 15.73)"/><text fill="currentColor" font-family="serif" font-size="2.2" transform="translate(-4.389 30.286)">
<tspan>Übermäßig</tspan>
</text><text fill="currentColor" font-family="sans-serif" font-size="2.616" transform="translate(18.77 26.481)">
<tspan>C</tspan>
</text><text fill="currentColor" font-family="sans-serif" font-size="2.616" transform="translate(20.614 26.481)">
<tspan>+</tspan>
</text><text fill="currentColor" font-family="serif" font-size="2.2" transform="translate(-4.423 21.315)">
<tspan>Vermindert</tspan>
</text><text fill="currentColor" font-family="serif" font-size="2.2" transform="translate(1.398 11.786)">
<tspan>Moll</tspan>
</text><text fill="currentColor" font-family="serif" font-size="2.2" transform="translate(1.791 2.728)">
<tspan>Dur</tspan>
</text><path fill="currentColor" d="M19.642 2.398c.22 0 .432.112.432.356 0 .284-.22.484-.408.596a.9.9 0 0 1-.464.136c-.22 0-.432-.112-.432-.356 0-.284.22-.484.408-.596.14-.084.3-.136.464-.136M19.642 31.974c.22 0 .432.112.432.356 0 .284-.22.484-.408.596a.9.9 0 0 1-.464.136c-.22 0-.432-.112-.432-.356 0-.284.22-.484.408-.596.14-.084.3-.136.464-.136M14.972 20.386a.3.3 0 0 1-.3-.3c0-.152.108-.308.288-.308q.025-.001.056.004a.6.6 0 0 0-.48-.236c-.424 0-.452.292-.452.744v.408c0 .452.028.748.452.748.32 0 .556-.28.632-.604.008-.028.028-.04.048-.04.024 0 .052.016.052.048 0 .376-.42.696-.732.696-.272 0-.548-.084-.736-.28-.196-.204-.264-.488-.264-.772s.068-.568.264-.772c.188-.196.464-.276.736-.276.348 0 .64.252.7.596q.005.031.004.056c0 .16-.12.288-.268.288M19.642 20.95c.22 0 .432.112.432.356 0 .284-.22.484-.408.596a.9.9 0 0 1-.464.136c-.22 0-.432-.112-.432-.356 0-.284.22-.484.408-.596.14-.084.3-.136.464-.136"/><path fill="currentColor" d="M19.642 21.95c.22 0 .432.112.432.356 0 .284-.22.484-.408.596a.9.9 0 0 1-.464.136c-.22 0-.432-.112-.432-.356 0-.284.22-.484.408-.596.14-.084.3-.136.464-.136"/><path fill="currentColor" d="M19.642 22.95c.22 0 .432.112.432.356 0 .284-.22.484-.408.596a.9.9 0 0 1-.464.136c-.22 0-.432-.112-.432-.356 0-.284.22-.484.408-.596.14-.084.3-.136.464-.136"/><text fill="currentColor" font-family="sans-serif" font-size="2.616" transform="translate(18.77 17.457)">
<tspan>C</tspan>
</text><text fill="currentColor" font-family="sans-serif" font-size="3.296" transform="translate(20.614 17.457)">
<tspan>°</tspan>
</text><path fill="currentColor" d="M14.972 10.858a.3.3 0 0 1-.3-.3c0-.152.108-.308.288-.308q.025-.001.056.004a.6.6 0 0 0-.48-.236c-.424 0-.452.292-.452.744v.408c0 .452.028.748.452.748.32 0 .556-.28.632-.604.008-.028.028-.04.048-.04.024 0 .052.016.052.048 0 .376-.42.696-.732.696-.272 0-.548-.084-.736-.28-.196-.204-.264-.488-.264-.772s.068-.568.264-.772c.188-.196.464-.276.736-.276.348 0 .64.252.7.596q.005.031.004.056c0 .16-.12.288-.268.288M10.4 14.506h-.024a.783.783 0 0 1-.78-.788c0-.232.212-.412.448-.412.216 0 .38.188.38.412 0 .208-.172.38-.38.38a.3.3 0 0 1-.124-.024c.104.156.272.26.468.26h.016zm.78-1.728a.71.71 0 0 0 .452-.656.764.764 0 0 0-.692-.76c.096.464.184.924.24 1.416m-1.548-.924c0 .54.516.988 1.056.988q.167 0 .328-.024c-.056-.508-.148-.98-.252-1.456-.316.032-.496.244-.496.476 0 .176.1.364.324.492q.029.03.028.06c0 .044-.04.088-.088.088q-.018-.001-.036-.008c-.32-.172-.468-.46-.468-.74 0-.352.232-.696.64-.788a15 15 0 0 0-.184-.7c-.428.484-.852.972-.852 1.612m1.044 1.16c-.752 0-1.332-.688-1.332-1.496 0-.708.524-1.224.992-1.764a4.5 4.5 0 0 1-.18-.76 5 5 0 0 1-.028-.624c0-.46.22-.896.596-1.168a.06.06 0 0 1 .08 0c.284.336.532.98.532 1.432 0 .572-.344 1.02-.72 1.456.084.272.156.552.224.828.016 0 .036-.004.052-.004.62 0 1.024.512 1.024 1.044 0 .304-.132.616-.428.84a.9.9 0 0 1-.292.144q.019.21.02.42c0 .076-.004.156-.008.232-.028.476-.352.9-.808.912l.004-.172c.372-.008.612-.368.636-.764a3.775 3.775 0 0 0-.008-.588c-.116.02-.232.032-.356.032m.372-4.712c0-.22-.016-.316-.08-.516a1.15 1.15 0 0 0-.648 1.036c0 .296.072.532.144.776.32-.388.584-.792.584-1.296M19.642 11.422c.22 0 .432.112.432.356 0 .284-.22.484-.408.596a.9.9 0 0 1-.464.136c-.22 0-.432-.112-.432-.356 0-.284.22-.484.408-.596.14-.084.3-.136.464-.136"/><path fill="currentColor" d="M19.642 12.422c.22 0 .432.112.432.356 0 .284-.22.484-.408.596a.9.9 0 0 1-.464.136c-.22 0-.432-.112-.432-.356 0-.284.22-.484.408-.596.14-.084.3-.136.464-.136"/><path fill="currentColor" d="M19.642 13.422c.22 0 .432.112.432.356 0 .284-.22.484-.408.596a.9.9 0 0 1-.464.136c-.22 0-.432-.112-.432-.356 0-.284.22-.484.408-.596.14-.084.3-.136.464-.136"/><text fill="currentColor" font-family="sans-serif" font-size="2.616" transform="translate(18.77 7.929)">
<tspan>C</tspan>
</text><text fill="currentColor" font-family="sans-serif" font-size="2.616" transform="translate(20.614 7.929)">
<tspan>m</tspan>
</text><path fill="currentColor" d="M14.972 1.834a.3.3 0 0 1-.3-.3c0-.152.108-.308.288-.308q.025-.001.056.004a.6.6 0 0 0-.48-.236c-.424 0-.452.292-.452.744v.408c0 .452.028.748.452.748.32 0 .556-.28.632-.604.008-.028.028-.04.048-.04.024 0 .052.016.052.048 0 .376-.42.696-.732.696-.272 0-.548-.084-.736-.28-.196-.204-.264-.488-.264-.772s.068-.568.264-.772c.188-.196.464-.276.736-.276.348 0 .64.252.7.596q.005.031.004.056c0 .16-.12.288-.268.288M10.4 5.482h-.024a.783.783 0 0 1-.78-.788c0-.232.212-.412.448-.412.216 0 .38.188.38.412 0 .208-.172.38-.38.38a.3.3 0 0 1-.124-.024c.104.156.272.26.468.26h.016zm.78-1.728a.71.71 0 0 0 .452-.656.764.764 0 0 0-.692-.76c.096.464.184.924.24 1.416M9.632 2.83c0 .54.516.988 1.056.988q.167 0 .328-.024c-.056-.508-.148-.98-.252-1.456-.316.032-.496.244-.496.476 0 .176.1.364.324.492q.029.03.028.06c0 .044-.04.088-.088.088q-.018-.001-.036-.008c-.32-.172-.468-.46-.468-.74 0-.352.232-.696.64-.788a15 15 0 0 0-.184-.7c-.428.484-.852.972-.852 1.612m1.044 1.16c-.752 0-1.332-.688-1.332-1.496 0-.708.524-1.224.992-1.764a4.5 4.5 0 0 1-.18-.76 5 5 0 0 1-.028-.624c0-.46.22-.896.596-1.168a.06.06 0 0 1 .08 0c.284.336.532.98.532 1.432 0 .572-.344 1.02-.72 1.456.084.272.156.552.224.828.016 0 .036-.004.052-.004.62 0 1.024.512 1.024 1.044 0 .304-.132.616-.428.84a.9.9 0 0 1-.292.144q.019.21.02.42-.001.116-.008.232c-.028.476-.352.9-.808.912l.004-.172c.372-.008.612-.368.636-.764q.007-.11.008-.22c0-.124-.004-.244-.016-.368-.116.02-.232.032-.356.032m.372-4.712c0-.22-.016-.316-.08-.516a1.15 1.15 0 0 0-.648 1.036c0 .296.072.532.144.776.32-.388.584-.792.584-1.296M19.642 3.398c.22 0 .432.112.432.356 0 .284-.22.484-.408.596a.9.9 0 0 1-.464.136c-.22 0-.432-.112-.432-.356 0-.284.22-.484.408-.596.14-.084.3-.136.464-.136"/></svg>