<svg xmlns="http://www.w3.org/2000/svg" width="97.99mm" height="28.42mm" viewBox="8.476 -2.587 55.76 16.175"><style>tspan{white-space:pre}</style><rect width="2.943" height=".2" x="57.496" y="-.1" fill="currentColor" ry=".1" transform="translate(0 5.538)"/><rect width="2.943" height=".2" x="49.346" y="-.1" fill="currentColor" ry=".1" transform="translate(0 5.538)"/><rect width="2.943" height=".2" x="41.196" y="-.1" fill="currentColor" ry=".1" transform="translate(0 5.538)"/><rect width=".19" height="4" y="-2" fill="currentColor" ry="0" transform="translate(23.296 11.538)"/><rect width=".19" height="4" y="-2" fill="currentColor" ry="0" transform="translate(47.746 11.538)"/><rect width=".19" height="4" y="-2" fill="currentColor" ry="0" transform="translate(23.296 2.538)"/><rect width=".19" height="4" y="-2" fill="currentColor" ry="0" transform="translate(47.746 2.538)"/><rect width=".19" height="4" y="-2" fill="currentColor" ry="0" transform="translate(55.896 2.538)"/><rect width=".19" height="4" y="-2" fill="currentColor" ry="0" transform="translate(31.446 2.538)"/><rect width=".19" height="4" y="-2" fill="currentColor" ry="0" transform="translate(55.896 11.538)"/><rect width=".19" height="4" y="-2" fill="currentColor" ry="0" transform="translate(31.446 11.538)"/><rect width=".19" height="4" y="-2" fill="currentColor" ry="0" transform="translate(39.596 11.538)"/><rect width=".19" height="4" y="-2" fill="currentColor" ry="0" transform="translate(64.046 2.538)"/><rect width=".19" height="4" y="-2" fill="currentColor" ry="0" transform="translate(64.046 11.538)"/><path stroke="currentColor" stroke-linecap="round" stroke-linejoin="round" stroke-width=".1" d="M8.586 13.538h55.6M8.586 12.538h55.6M8.586 11.538h55.6M8.586 10.538h55.6M8.586 9.538h55.6M8.586 4.538h55.6M8.586 3.538h55.6M8.586 2.538h55.6M8.586 1.538h55.6M8.586.538h55.6"/><rect width=".19" height="4" y="-2" fill="currentColor" ry="0" transform="translate(39.596 2.538)"/><path fill="currentColor" d="M50.688 9.59c-.2 0-.276.172-.276.352 0 .308.228.544.536.544.2 0 .276-.172.276-.352a.53.53 0 0 0-.536-.544m1.112.448c0 .172-.136.3-.288.384-.212.116-.456.16-.696.16s-.48-.044-.692-.16c-.152-.084-.288-.212-.288-.384s.136-.3.288-.384c.212-.116.452-.16.692-.16s.484.044.696.16c.152.084.288.212.288.384M50.688 5.59c-.2 0-.276.172-.276.352 0 .308.228.544.536.544.2 0 .276-.172.276-.352a.53.53 0 0 0-.536-.544m1.112.448c0 .172-.136.3-.288.384-.212.116-.456.16-.696.16s-.48-.044-.692-.16c-.152-.084-.288-.212-.288-.384s.136-.3.288-.384c.212-.116.452-.16.692-.16s.484.044.696.16c.152.084.288.212.288.384M50.688 3.59c-.2 0-.276.172-.276.352 0 .308.228.544.536.544.2 0 .276-.172.276-.352a.53.53 0 0 0-.536-.544m1.112.448c0 .172-.136.3-.288.384-.212.116-.456.16-.696.16s-.48-.044-.692-.16c-.152-.084-.288-.212-.288-.384s.136-.3.288-.384c.212-.116.452-.16.692-.16s.484.044.696.16c.152.084.288.212.288.384"/><text fill="currentColor" font-family="sans-serif" font-size="2.616" transform="translate(49.836 -.05)">
<tspan>G</tspan>
</text><text fill="currentColor" font-family="sans-serif" font-size="1.85" transform="translate(51.85 -1.238)">
<tspan>7</tspan>
</text><text fill="currentColor" font-family="sans-serif" font-size="2.616" transform="translate(57.986 -.05)">
<tspan>C</tspan>
</text><path fill="none" stroke="currentColor" stroke-linecap="round" stroke-linejoin="round" stroke-width=".1" d="M59.83-1.238h1.07l-.535-.92z"/><path fill="currentColor" d="M58.838 5.59c-.2 0-.276.172-.276.352 0 .308.228.544.536.544.2 0 .276-.172.276-.352a.53.53 0 0 0-.536-.544m1.112.448c0 .172-.136.3-.288.384-.212.116-.456.16-.696.16s-.48-.044-.692-.16c-.152-.084-.288-.212-.288-.384s.136-.3.288-.384c.212-.116.452-.16.692-.16s.484.044.696.16c.152.084.288.212.288.384M58.838 4.09c-.2 0-.276.172-.276.352 0 .308.228.544.536.544.2 0 .276-.172.276-.352a.53.53 0 0 0-.536-.544m1.112.448c0 .172-.136.3-.288.384-.212.116-.456.16-.696.16s-.48-.044-.692-.16c-.152-.084-.288-.212-.288-.384s.136-.3.288-.384c.212-.116.452-.16.692-.16s.484.044.696.16c.152.084.288.212.288.384M58.838 11.59c-.2 0-.276.172-.276.352 0 .308.228.544.536.544.2 0 .276-.172.276-.352a.53.53 0 0 0-.536-.544m1.112.448c0 .172-.136.3-.288.384-.212.116-.456.16-.696.16s-.48-.044-.692-.16c-.152-.084-.288-.212-.288-.384s.136-.3.288-.384c.212-.116.452-.16.692-.16s.484.044.696.16c.152.084.288.212.288.384"/><text fill="currentColor" font-family="sans-serif" font-size="2.616" transform="translate(25.386 -.05)">
<tspan>G</tspan>
</text><text fill="currentColor" font-family="sans-serif" font-size="1.85" transform="translate(27.4 -1.238)">
<tspan>7</tspan>
</text><path fill="currentColor" d="M26.238 3.59c-.2 0-.276.172-.276.352 0 .308.228.544.536.544.2 0 .276-.172.276-.352a.53.53 0 0 0-.536-.544m1.112.448c0 .172-.136.3-.288.384-.212.116-.456.16-.696.16s-.48-.044-.692-.16c-.152-.084-.288-.212-.288-.384s.136-.3.288-.384c.212-.116.452-.16.692-.16s.484.044.696.16c.152.084.288.212.288.384M26.238 2.09c-.2 0-.276.172-.276.352 0 .308.228.544.536.544.2 0 .276-.172.276-.352a.53.53 0 0 0-.536-.544m1.112.448c0 .172-.136.3-.288.384-.212.116-.456.16-.696.16s-.48-.044-.692-.16c-.152-.084-.288-.212-.288-.384s.136-.3.288-.384c.212-.116.452-.16.692-.16s.484.044.696.16c.152.084.288.212.288.384M26.238 9.59c-.2 0-.276.172-.276.352 0 .308.228.544.536.544.2 0 .276-.172.276-.352a.53.53 0 0 0-.536-.544m1.112.448c0 .172-.136.3-.288.384-.212.116-.456.16-.696.16s-.48-.044-.692-.16c-.152-.084-.288-.212-.288-.384s.136-.3.288-.384c.212-.116.452-.16.692-.16s.484.044.696.16c.152.084.288.212.288.384M18.088 11.09c-.2 0-.276.172-.276.352 0 .308.228.544.536.544.2 0 .276-.172.276-.352a.53.53 0 0 0-.536-.544m1.112.448c0 .172-.136.3-.288.384-.212.116-.456.16-.696.16s-.48-.044-.692-.16c-.152-.084-.288-.212-.288-.384s.136-.3.288-.384c.212-.116.452-.16.692-.16s.484.044.696.16c.152.084.288.212.288.384"/><rect width=".16" height="13.1" y="-6.55" fill="currentColor" ry=".05" transform="translate(8.476 7.038)"/><text fill="currentColor" font-family="sans-serif" font-size="2.616" transform="translate(17.236 -.05)">
<tspan>D</tspan>
</text><text fill="currentColor" font-family="sans-serif" font-size="2.616" transform="translate(19.25 -.05)">
<tspan>m</tspan>
</text><text fill="currentColor" font-family="sans-serif" font-size="1.85" transform="translate(21.811 -1.238)">
<tspan>7</tspan>
</text><path fill="currentColor" d="M18.088 3.59c-.2 0-.276.172-.276.352 0 .308.228.544.536.544.2 0 .276-.172.276-.352a.53.53 0 0 0-.536-.544m1.112.448c0 .172-.136.3-.288.384-.212.116-.456.16-.696.16s-.48-.044-.692-.16c-.152-.084-.288-.212-.288-.384s.136-.3.288-.384c.212-.116.452-.16.692-.16s.484.044.696.16c.152.084.288.212.288.384M18.088 1.59c-.2 0-.276.172-.276.352 0 .308.228.544.536.544.2 0 .276-.172.276-.352a.53.53 0 0 0-.536-.544m1.112.448c0 .172-.136.3-.288.384-.212.116-.456.16-.696.16s-.48-.044-.692-.16c-.152-.084-.288-.212-.288-.384s.136-.3.288-.384c.212-.116.452-.16.692-.16s.484.044.696.16c.152.084.288.212.288.384M10.4 6.078h-.024a.783.783 0 0 1-.78-.788c0-.232.212-.412.448-.412.216 0 .38.188.38.412 0 .208-.172.38-.38.38a.3.3 0 0 1-.124-.024c.104.156.272.26.468.26h.016zm.78-1.728a.71.71 0 0 0 .452-.656.764.764 0 0 0-.692-.76c.096.464.184.924.24 1.416m-1.548-.924c0 .54.516.988 1.056.988q.167 0 .328-.024c-.056-.508-.148-.98-.252-1.456-.316.032-.496.244-.496.476 0 .176.1.364.324.492q.029.03.028.06c0 .044-.04.088-.088.088q-.018-.001-.036-.008c-.32-.172-.468-.46-.468-.74 0-.352.232-.696.64-.788a15 15 0 0 0-.184-.7c-.428.484-.852.972-.852 1.612m1.044 1.16c-.752 0-1.332-.688-1.332-1.496 0-.708.524-1.224.992-1.764a4.5 4.5 0 0 1-.18-.76 5 5 0 0 1-.028-.624c0-.46.22-.896.596-1.168a.06.06 0 0 1 .08 0c.284.336.532.98.532 1.432 0 .572-.344 1.02-.72 1.456.084.272.156.552.224.828.016 0 .036-.004.052-.004.62 0 1.024.512 1.024 1.044 0 .304-.132.616-.428.84a.9.9 0 0 1-.292.144q.019.21.02.42-.001.116-.008.232c-.028.476-.352.9-.808.912l.004-.172c.372-.008.612-.368.636-.764q.007-.11.008-.22.001-.184-.016-.368c-.116.02-.232.032-.356.032m.372-4.712c0-.22-.016-.316-.08-.516A1.15 1.15 0 0 0 10.32.394c0 .296.072.532.144.776.32-.388.584-.792.584-1.296M14.972 2.43a.3.3 0 0 1-.3-.3c0-.152.108-.308.288-.308q.025-.001.056.004a.6.6 0 0 0-.48-.236c-.424 0-.452.292-.452.744v.408c0 .452.028.748.452.748.32 0 .556-.28.632-.604.008-.028.028-.04.048-.04.024 0 .052.016.052.048 0 .376-.42.696-.732.696-.272 0-.548-.084-.736-.28-.196-.204-.264-.488-.264-.772s.068-.568.264-.772c.188-.196.464-.276.736-.276.348 0 .64.252.7.596q.005.031.004.056c0 .16-.12.288-.268.288M11.564 11.038c0-.112.092-.204.204-.204s.204.092.204.204-.092.204-.204.204-.204-.092-.204-.204m0-1c0-.112.092-.204.204-.204s.204.092.204.204-.092.204-.204.204-.204-.092-.204-.204m-1.3-.552c.688 0 1.172.352 1.172 1.004 0 1.052-1.052 1.656-2.064 2.084a.05.05 0 0 1-.036.016.053.053 0 0 1-.052-.052q-.001-.018.016-.036c.808-.472 1.648-1.06 1.648-1.972 0-.48-.252-.94-.684-.94-.296 0-.516.216-.616.504a.3.3 0 0 1 .136-.032c.22 0 .4.18.4.4 0 .232-.176.424-.4.424-.24 0-.448-.188-.448-.424 0-.532.408-.976.928-.976M14.972 11.43a.3.3 0 0 1-.3-.3c0-.152.108-.308.288-.308q.025-.001.056.004a.6.6 0 0 0-.48-.236c-.424 0-.452.292-.452.744v.408c0 .452.028.748.452.748.32 0 .556-.28.632-.604.008-.028.028-.04.048-.04.024 0 .052.016.052.048 0 .376-.42.696-.732.696-.272 0-.548-.084-.736-.28-.196-.204-.264-.488-.264-.772s.068-.568.264-.772c.188-.196.464-.276.736-.276.348 0 .64.252.7.596q.005.031.004.056c0 .16-.12.288-.268.288"/><text fill="currentColor" font-family="sans-serif" font-size="2.616" transform="translate(41.686 -.05)">
<tspan>D</tspan>
</text><text fill="currentColor" font-family="sans-serif" font-size="2.616" transform="translate(43.7 -.05)">
<tspan>m</tspan>
</text><text fill="currentColor" font-family="sans-serif" font-size="1.85" transform="translate(46.261 -1.238)">
<tspan>7</tspan>
</text><path fill="currentColor" d="M42.538 5.09c-.2 0-.276.172-.276.352 0 .308.228.544.536.544.2 0 .276-.172.276-.352a.53.53 0 0 0-.536-.544m1.112.448c0 .172-.136.3-.288.384-.212.116-.456.16-.696.16s-.48-.044-.692-.16c-.152-.084-.288-.212-.288-.384s.136-.3.288-.384c.212-.116.452-.16.692-.16s.484.044.696.16c.152.084.288.212.288.384M42.538 3.59c-.2 0-.276.172-.276.352 0 .308.228.544.536.544.2 0 .276-.172.276-.352a.53.53 0 0 0-.536-.544m1.112.448c0 .172-.136.3-.288.384-.212.116-.456.16-.696.16s-.48-.044-.692-.16c-.152-.084-.288-.212-.288-.384s.136-.3.288-.384c.212-.116.452-.16.692-.16s.484.044.696.16c.152.084.288.212.288.384M42.538 11.09c-.2 0-.276.172-.276.352 0 .308.228.544.536.544.2 0 .276-.172.276-.352a.53.53 0 0 0-.536-.544m1.112.448c0 .172-.136.3-.288.384-.212.116-.456.16-.696.16s-.48-.044-.692-.16c-.152-.084-.288-.212-.288-.384s.136-.3.288-.384c.212-.116.452-.16.692-.16s.484.044.696.16c.152.084.288.212.288.384"/><text fill="currentColor" font-family="sans-serif" font-size="2.616" transform="translate(33.536 -.05)">
<tspan>C</tspan>
</text><path fill="none" stroke="currentColor" stroke-linecap="round" stroke-linejoin="round" stroke-width=".1" d="M35.38-1.238h1.07l-.535-.92z"/><path fill="currentColor" d="M34.388 2.09c-.2 0-.276.172-.276.352 0 .308.228.544.536.544.2 0 .276-.172.276-.352a.53.53 0 0 0-.536-.544m1.112.448c0 .172-.136.3-.288.384-.212.116-.456.16-.696.16s-.48-.044-.692-.16c-.152-.084-.288-.212-.288-.384s.136-.3.288-.384c.212-.116.452-.16.692-.16s.484.044.696.16c.152.084.288.212.288.384M34.388 11.59c-.2 0-.276.172-.276.352 0 .308.228.544.536.544.2 0 .276-.172.276-.352a.53.53 0 0 0-.536-.544m1.112.448c0 .172-.136.3-.288.384-.212.116-.456.16-.696.16s-.48-.044-.692-.16c-.152-.084-.288-.212-.288-.384s.136-.3.288-.384c.212-.116.452-.16.692-.16s.484.044.696.16c.152.084.288.212.288.384M34.388 4.09c-.2 0-.276.172-.276.352 0 .308.228.544.536.544.2 0 .276-.172.276-.352a.53.53 0 0 0-.536-.544m1.112.448c0 .172-.136.3-.288.384-.212.116-.456.16-.696.16s-.48-.044-.692-.16c-.152-.084-.288-.212-.288-.384s.136-.3.288-.384c.212-.116.452-.16.692-.16s.484.044.696.16c.152.084.288.212.288.384"/></svg>