<svg xmlns="http://www.w3.org/2000/svg" width="390.917" height="694.866" viewBox="-5.345 -0.021 58.856 104.621"><style>tspan{white-space:pre}</style><rect width=".19" height="4" y="-2" fill="currentColor" ry="0" transform="translate(26.957 34.081)"/><rect width=".19" height="4" y="-2" fill="currentColor" ry="0" transform="translate(43.034 14.16)"/><rect width=".19" height="4" y="-2" fill="currentColor" ry="0" transform="translate(43.034 3.779)"/><rect width=".19" height="4" y="-2" fill="currentColor" ry="0" transform="translate(26.957 98.19)"/><rect width=".19" height="4" y="-2" fill="currentColor" ry="0" transform="translate(26.957 86.459)"/><rect width=".19" height="4" y="-2" fill="currentColor" ry="0" transform="translate(26.957 75.096)"/><rect width=".19" height="4" y="-2" fill="currentColor" ry="0" transform="translate(26.957 65.135)"/><rect width=".19" height="4" y="-2" fill="currentColor" ry="0" transform="translate(26.957 54.405)"/><rect width=".19" height="4" y="-2" fill="currentColor" ry="0" transform="translate(26.957 44.042)"/><rect width=".19" height="4" y="-2" fill="currentColor" ry="0" transform="translate(43.034 24.12)"/><rect width=".19" height="4" y="-2" fill="currentColor" ry="0" transform="translate(26.957 24.12)"/><rect width=".19" height="4" y="-2" fill="currentColor" ry="0" transform="translate(26.957 14.16)"/><rect width=".19" height="4" y="-2" fill="currentColor" ry="0" transform="translate(26.957 3.779)"/><path stroke="currentColor" stroke-linecap="round" stroke-linejoin="round" stroke-width=".1" d="M8.586 100.19H53.46M8.586 99.19H53.46M8.586 98.19H53.46M8.586 97.19H53.46M8.586 96.19H53.46"/><rect width="2.943" height=".2" x="45.211" y="-.1" fill="currentColor" ry=".1" transform="translate(0 101.19)"/><rect width="2.066" height=".2" x="35.417" y="-.1" fill="currentColor" ry=".1" transform="translate(0 101.19)"/><rect width="2.066" height=".2" x="28.941" y="-.1" fill="currentColor" ry=".1" transform="translate(0 101.19)"/><rect width="2.943" height=".2" x="17.963" y="-.1" fill="currentColor" ry=".1" transform="translate(0 101.19)"/><path stroke="currentColor" stroke-linecap="round" stroke-linejoin="round" stroke-width=".1" d="M8.586 88.459H53.46M8.586 87.459H53.46M8.586 86.459H53.46M8.586 85.459H53.46M8.586 84.459H53.46"/><rect width="2.943" height=".2" x="45.211" y="-.1" fill="currentColor" ry=".1" transform="translate(0 89.459)"/><rect width="2.066" height=".2" x="35.417" y="-.1" fill="currentColor" ry=".1" transform="translate(0 89.459)"/><rect width="2.066" height=".2" x="28.941" y="-.1" fill="currentColor" ry=".1" transform="translate(0 89.459)"/><rect width="2.943" height=".2" x="17.963" y="-.1" fill="currentColor" ry=".1" transform="translate(0 89.459)"/><path stroke="currentColor" stroke-linecap="round" stroke-linejoin="round" stroke-width=".1" d="M8.586 77.096H53.46M8.586 76.096H53.46M8.586 75.096H53.46M8.586 74.096H53.46M8.586 73.096H53.46"/><rect width=".19" height="4" y="-2" fill="currentColor" ry="0" transform="translate(53.321 14.16)"/><rect width=".19" height="4" y="-2" fill="currentColor" ry="0" transform="translate(53.321 98.19)"/><rect width=".19" height="4" y="-2" fill="currentColor" ry="0" transform="translate(53.321 86.459)"/><rect width=".19" height="4" y="-2" fill="currentColor" ry="0" transform="translate(53.321 75.096)"/><rect width=".19" height="4" y="-2" fill="currentColor" ry="0" transform="translate(53.321 65.135)"/><rect width=".19" height="4" y="-2" fill="currentColor" ry="0" transform="translate(53.321 54.405)"/><rect width=".19" height="4" y="-2" fill="currentColor" ry="0" transform="translate(53.321 44.042)"/><rect width=".19" height="4" y="-2" fill="currentColor" ry="0" transform="translate(53.321 34.081)"/><rect width=".19" height="4" y="-2" fill="currentColor" ry="0" transform="translate(53.321 24.12)"/><path stroke="currentColor" stroke-linecap="round" stroke-linejoin="round" stroke-width=".1" d="M8.586 5.779H53.46M8.586 4.779H53.46M8.586 3.779H53.46M8.586 2.779H53.46M8.586 1.779H53.46"/><rect width=".19" height="4" y="-2" fill="currentColor" ry="0" transform="translate(53.321 3.779)"/><rect width=".19" height="4" y="-2" fill="currentColor" ry="0" transform="translate(43.034 98.19)"/><rect width=".19" height="4" y="-2" fill="currentColor" ry="0" transform="translate(43.034 86.459)"/><rect width=".19" height="4" y="-2" fill="currentColor" ry="0" transform="translate(43.034 75.096)"/><rect width=".19" height="4" y="-2" fill="currentColor" ry="0" transform="translate(43.034 65.135)"/><rect width=".19" height="4" y="-2" fill="currentColor" ry="0" transform="translate(43.034 54.405)"/><rect width=".19" height="4" y="-2" fill="currentColor" ry="0" transform="translate(43.034 44.042)"/><rect width=".19" height="4" y="-2" fill="currentColor" ry="0" transform="translate(43.034 34.081)"/><rect width="2.943" height=".2" x="45.211" y="-.1" fill="currentColor" ry=".1" transform="translate(0 57.405)"/><rect width="2.066" height=".2" x="35.417" y="-.1" fill="currentColor" ry=".1" transform="translate(0 57.405)"/><rect width="2.066" height=".2" x="28.941" y="-.1" fill="currentColor" ry=".1" transform="translate(0 57.405)"/><rect width="2.943" height=".2" x="17.963" y="-.1" fill="currentColor" ry=".1" transform="translate(0 57.405)"/><rect width="2.943" height=".2" x="45.211" y="-.1" fill="currentColor" ry=".1" transform="translate(0 78.096)"/><rect width="2.943" height=".2" x="28.795" y="-.1" fill="currentColor" ry=".1" transform="translate(0 78.096)"/><rect width="2.943" height=".2" x="17.963" y="-.1" fill="currentColor" ry=".1" transform="translate(0 78.096)"/><rect width="2.943" height=".2" x="45.211" y="-.1" fill="currentColor" ry=".1" transform="translate(0 27.12)"/><rect width="2.066" height=".2" x="35.417" y="-.1" fill="currentColor" ry=".1" transform="translate(0 27.12)"/><rect width="2.066" height=".2" x="28.941" y="-.1" fill="currentColor" ry=".1" transform="translate(0 27.12)"/><rect width="2.943" height=".2" x="17.963" y="-.1" fill="currentColor" ry=".1" transform="translate(0 27.12)"/><rect width="2.943" height=".2" x="45.211" y="-.1" fill="currentColor" ry=".1" transform="translate(0 47.042)"/><rect width="2.943" height=".2" x="28.795" y="-.1" fill="currentColor" ry=".1" transform="translate(0 47.042)"/><rect width="2.943" height=".2" x="17.963" y="-.1" fill="currentColor" ry=".1" transform="translate(0 47.042)"/><path stroke="currentColor" stroke-linecap="round" stroke-linejoin="round" stroke-width=".1" d="M8.586 16.16H53.46M8.586 15.16H53.46M8.586 14.16H53.46M8.586 13.16H53.46M8.586 12.16H53.46M8.586 36.082H53.46M8.586 35.082H53.46M8.586 34.082H53.46M8.586 33.082H53.46M8.586 32.082H53.46"/><rect width="4.645" height=".2" x="45.211" y="-.1" fill="currentColor" ry=".1" transform="translate(0 6.779)"/><rect width="4.645" height=".2" x="28.795" y="-.1" fill="currentColor" ry=".1" transform="translate(0 6.779)"/><rect width="4.645" height=".2" x="17.963" y="-.1" fill="currentColor" ry=".1" transform="translate(0 6.779)"/><rect width="2.943" height=".2" x="45.211" y="-.1" fill="currentColor" ry=".1" transform="translate(0 17.16)"/><rect width="2.066" height=".2" x="35.417" y="-.1" fill="currentColor" ry=".1" transform="translate(0 17.16)"/><rect width="2.066" height=".2" x="28.941" y="-.1" fill="currentColor" ry=".1" transform="translate(0 17.16)"/><rect width="2.943" height=".2" x="17.963" y="-.1" fill="currentColor" ry=".1" transform="translate(0 17.16)"/><path stroke="currentColor" stroke-linecap="round" stroke-linejoin="round" stroke-width=".1" d="M8.586 26.12H53.46M8.586 25.12H53.46M8.586 24.12H53.46M8.586 23.12H53.46M8.586 22.12H53.46M8.586 67.135H53.46M8.586 66.135H53.46M8.586 65.135H53.46M8.586 64.135H53.46M8.586 63.135H53.46M8.586 46.042H53.46M8.586 45.042H53.46M8.586 44.042H53.46M8.586 43.042H53.46M8.586 42.042H53.46M8.586 56.405H53.46M8.586 55.405H53.46M8.586 54.405H53.46M8.586 53.405H53.46M8.586 52.405H53.46"/><rect width="2.943" height=".2" x="45.211" y="-.1" fill="currentColor" ry=".1" transform="translate(0 68.135)"/><rect width="2.066" height=".2" x="35.417" y="-.1" fill="currentColor" ry=".1" transform="translate(0 68.135)"/><rect width="2.066" height=".2" x="28.941" y="-.1" fill="currentColor" ry=".1" transform="translate(0 68.135)"/><rect width="2.943" height=".2" x="17.963" y="-.1" fill="currentColor" ry=".1" transform="translate(0 68.135)"/><rect width="2.943" height=".2" x="45.211" y="-.1" fill="currentColor" ry=".1" transform="translate(0 37.081)"/><rect width="2.943" height=".2" x="28.795" y="-.1" fill="currentColor" ry=".1" transform="translate(0 37.081)"/><rect width="2.943" height=".2" x="17.963" y="-.1" fill="currentColor" ry=".1" transform="translate(0 37.081)"/><path fill="currentColor" d="M46.554 100.741c-.2 0-.277.172-.277.352 0 .308.228.544.536.544.2 0 .276-.172.276-.352a.53.53 0 0 0-.535-.544m1.111.448c0 .172-.135.3-.287.384-.212.116-.456.16-.696.16s-.48-.044-.692-.16c-.152-.084-.288-.212-.288-.384s.136-.3.288-.384c.212-.116.452-.16.692-.16s.484.044.696.16c.152.084.288.212.288.384M46.554 96.241c-.2 0-.277.172-.277.352 0 .308.228.544.536.544.2 0 .276-.172.276-.352a.53.53 0 0 0-.535-.544m1.111.448c0 .172-.135.3-.287.384-.212.116-.456.16-.696.16s-.48-.044-.692-.16c-.152-.084-.288-.212-.288-.384s.136-.3.288-.384c.212-.116.452-.16.692-.16s.484.044.696.16c.152.084.288.212.288.384"/><text fill="currentColor" font-family="serif" font-size="2.47" transform="translate(39.854 92.32)">
<tspan>übermäßig</tspan>
</text><text fill="currentColor" font-family="serif" font-size="2.47" transform="translate(39.854 104.051)">
<tspan>übermäßig</tspan>
</text><path fill="currentColor" d="M46.554 35.134c-.2 0-.277.171-.277.351 0 .308.228.544.536.544.2 0 .276-.172.276-.352a.53.53 0 0 0-.535-.544m1.111.447c0 .172-.135.3-.287.384-.212.116-.456.16-.696.16s-.48-.044-.692-.16c-.152-.084-.288-.212-.288-.384s.136-.3.288-.384c.212-.116.452-.16.692-.16s.484.045.696.16c.152.084.288.212.288.384M46.554 85.01c-.2 0-.277.173-.277.353 0 .308.228.544.536.544.2 0 .276-.172.276-.352a.53.53 0 0 0-.535-.545m1.111.448c0 .173-.135.3-.287.385-.212.115-.456.16-.696.16s-.48-.045-.692-.16c-.152-.085-.288-.213-.288-.385s.136-.3.288-.383c.212-.117.452-.16.692-.16s.484.043.696.16c.152.083.288.211.288.383M46.554 89.01c-.2 0-.277.173-.277.353 0 .308.228.544.536.544.2 0 .276-.172.276-.352a.53.53 0 0 0-.535-.545m1.111.448c0 .173-.135.3-.287.385-.212.115-.456.16-.696.16s-.48-.045-.692-.16c-.152-.085-.288-.213-.288-.385s.136-.3.288-.383c.212-.117.452-.16.692-.16s.484.043.696.16c.152.083.288.211.288.383"/><text fill="currentColor" font-family="serif" font-size="2.47" transform="translate(39.854 80.959)">
<tspan>übermäßig</tspan>
</text><path fill="currentColor" d="M46.554 74.148c-.2 0-.277.172-.277.352 0 .308.228.544.536.544.2 0 .276-.172.276-.352a.53.53 0 0 0-.535-.544m1.111.448c0 .172-.135.3-.287.384-.212.116-.456.16-.696.16s-.48-.044-.692-.16c-.152-.084-.288-.212-.288-.384s.136-.3.288-.384c.212-.116.452-.16.692-.16s.484.044.696.16c.152.084.288.212.288.384M46.554 77.648c-.2 0-.277.172-.277.352 0 .308.228.544.536.544.2 0 .276-.172.276-.352a.53.53 0 0 0-.535-.544m1.111.448c0 .172-.135.3-.287.384-.212.116-.456.16-.696.16s-.48-.044-.692-.16c-.152-.084-.288-.212-.288-.384s.136-.3.288-.384c.212-.116.452-.16.692-.16s.484.044.696.16c.152.084.288.212.288.384"/><text fill="currentColor" font-family="serif" font-size="2.47" transform="translate(39.854 70.998)">
<tspan>übermäßig</tspan>
</text><path fill="currentColor" d="M46.554 64.687c-.2 0-.277.172-.277.352 0 .308.228.544.536.544.2 0 .276-.172.276-.352a.53.53 0 0 0-.535-.544m1.111.448c0 .172-.135.3-.287.384-.212.116-.456.16-.696.16s-.48-.044-.692-.16c-.152-.084-.288-.212-.288-.384s.136-.3.288-.384c.212-.116.452-.16.692-.16s.484.044.696.16c.152.084.288.212.288.384M46.554 67.687c-.2 0-.277.172-.277.352 0 .308.228.544.536.544.2 0 .276-.172.276-.352a.53.53 0 0 0-.535-.544m1.111.448c0 .172-.135.3-.287.384-.212.116-.456.16-.696.16s-.48-.044-.692-.16c-.152-.084-.288-.212-.288-.384s.136-.3.288-.384c.212-.116.452-.16.692-.16s.484.044.696.16c.152.084.288.212.288.384"/><text fill="currentColor" font-family="serif" font-size="2.47" transform="translate(39.854 60.267)">
<tspan>übermäßig</tspan>
</text><path fill="currentColor" d="M46.554 54.457c-.2 0-.277.172-.277.352 0 .308.228.544.536.544.2 0 .276-.172.276-.352a.53.53 0 0 0-.535-.544m1.111.448c0 .172-.135.3-.287.384-.212.116-.456.16-.696.16s-.48-.044-.692-.16c-.152-.084-.288-.212-.288-.384s.136-.3.288-.384c.212-.116.452-.16.692-.16s.484.044.696.16c.152.084.288.212.288.384M46.554 56.957c-.2 0-.277.172-.277.352 0 .308.228.544.536.544.2 0 .276-.172.276-.352a.53.53 0 0 0-.535-.544m1.111.448c0 .172-.135.3-.287.384-.212.116-.456.16-.696.16s-.48-.044-.692-.16c-.152-.084-.288-.212-.288-.384s.136-.3.288-.384c.212-.116.452-.16.692-.16s.484.044.696.16c.152.084.288.212.288.384"/><text fill="currentColor" font-family="serif" font-size="2.47" transform="translate(39.854 49.905)">
<tspan>übermäßig</tspan>
</text><path fill="currentColor" d="M46.554 44.594c-.2 0-.277.172-.277.352 0 .308.228.544.536.544.2 0 .276-.172.276-.352a.53.53 0 0 0-.535-.544m1.111.448c0 .172-.135.3-.287.384-.212.116-.456.16-.696.16s-.48-.044-.692-.16c-.152-.084-.288-.212-.288-.384s.136-.3.288-.384c.212-.116.452-.16.692-.16s.484.044.696.16c.152.084.288.212.288.384M46.554 46.594c-.2 0-.277.172-.277.352 0 .308.228.544.536.544.2 0 .276-.172.276-.352a.53.53 0 0 0-.535-.544m1.111.448c0 .172-.135.3-.287.384-.212.116-.456.16-.696.16s-.48-.044-.692-.16c-.152-.084-.288-.212-.288-.384s.136-.3.288-.384c.212-.116.452-.16.692-.16s.484.044.696.16c.152.084.288.212.288.384"/><text fill="currentColor" font-family="serif" font-size="2.47" transform="translate(39.854 39.944)">
<tspan>übermäßig</tspan>
</text><text fill="currentColor" font-family="serif" font-size="2.47" transform="translate(39.854 20.022)">
<tspan>übermäßig</tspan>
</text><path fill="currentColor" d="M45.116 27.369c0 .04-.033.076-.073.076s-.076-.036-.076-.076v-.58l-.332.124v.632c0 .04-.036.076-.076.076s-.072-.036-.072-.076v-.58l-.128.048q-.014.005-.028.004a.08.08 0 0 1-.08-.08v-.24c0-.032.02-.064.052-.076l.184-.064v-.64l-.128.044q-.014.005-.028.004a.08.08 0 0 1-.08-.08v-.24c0-.032.02-.06.052-.072l.184-.068v-.632c0-.04.032-.076.072-.076s.076.036.076.076v.58l.332-.124v-.632c0-.04.036-.076.076-.076s.072.036.072.076v.58l.128-.048q.014-.005.028-.004a.08.08 0 0 1 .08.08v.24c0 .032-.02.064-.052.076l-.184.064v.64l.128-.044q.014-.005.028-.004a.08.08 0 0 1 .08.08v.24c0 .031-.02.06-.052.071l-.184.068zm-.48-1.509v.64l.331-.12v-.64z"/><text fill="currentColor" font-family="serif" font-size="2.2" transform="translate(-3.365 34.741)">
<tspan>4 (Quarte)</tspan>
</text><path fill="currentColor" d="M45.116 36.83c0 .04-.033.075-.073.075s-.076-.036-.076-.076v-.58l-.332.124v.633c0 .04-.036.075-.076.075s-.072-.036-.072-.076v-.58l-.128.049q-.014.005-.028.004a.08.08 0 0 1-.08-.08v-.24c0-.033.02-.065.052-.077l.184-.064v-.64l-.128.044q-.014.005-.028.004a.08.08 0 0 1-.08-.08v-.24c0-.032.02-.06.052-.072l.184-.068v-.632c0-.04.032-.076.072-.076s.076.036.076.076v.58l.332-.124v-.632c0-.04.036-.076.076-.076s.072.036.072.076v.58l.128-.048q.014-.005.028-.004a.08.08 0 0 1 .08.08v.24c0 .032-.02.064-.052.076l-.184.064v.64l.128-.044q.014-.005.028-.004a.08.08 0 0 1 .08.08v.24c0 .032-.02.06-.052.072l-.184.069zm-.48-1.508v.64l.331-.12v-.64zM45.116 8.027c0 .04-.033.076-.073.076s-.076-.036-.076-.076v-.58l-.332.124v.632c0 .04-.036.076-.076.076s-.072-.036-.072-.076v-.58l-.128.048q-.014.005-.028.004a.08.08 0 0 1-.08-.08v-.24c0-.032.02-.064.052-.076l.184-.064v-.64l-.128.044q-.014.005-.028.004a.08.08 0 0 1-.08-.08v-.24c0-.032.02-.06.052-.072l.184-.068v-.632c0-.04.032-.076.072-.076s.076.036.076.076v.58l.332-.124v-.632c0-.04.036-.076.076-.076s.072.036.072.076v.58l.128-.048q.014-.005.028-.004a.08.08 0 0 1 .08.08v.24c0 .032-.02.064-.052.076l-.184.064v.64l.128-.044q.014-.005.028-.004a.08.08 0 0 1 .08.08v.24c0 .032-.02.06-.052.072l-.184.068zm-.48-1.508v.64l.331-.12v-.64zM45.116 17.908c0 .04-.033.076-.073.076s-.076-.036-.076-.076v-.58l-.332.124v.632c0 .04-.036.076-.076.076s-.072-.036-.072-.076v-.58l-.128.048q-.014.005-.028.004a.08.08 0 0 1-.08-.08v-.24c0-.032.02-.064.052-.076l.184-.064v-.64l-.128.044q-.014.005-.028.004a.08.08 0 0 1-.08-.08v-.24c0-.032.02-.06.052-.072l.184-.068v-.632c0-.04.032-.076.072-.076s.076.036.076.076v.58l.332-.124v-.632c0-.04.036-.076.076-.076s.072.036.072.076v.58l.128-.048q.014-.005.028-.004a.08.08 0 0 1 .08.08v.24c0 .032-.02.064-.052.076l-.184.064v.64l.128-.044q.014-.005.028-.004a.08.08 0 0 1 .08.08v.24c0 .032-.02.06-.052.072l-.184.068zm-.48-1.509v.64l.331-.12v-.64zM34.69 15.16c.031-.016.067-.028.103-.028s.064.012.096.028l-.008.732.424-.08h.012c.04 0 .072.028.072.068l.028 2.28c-.032.016-.064.028-.1.028s-.068-.012-.1-.028l.012-.732-.424.08h-.012c-.04 0-.072-.028-.072-.068zm.555 1.052-.368.068-.012.828.368-.068z"/><text fill="currentColor" font-family="serif" font-size="2.47" transform="translate(33.497 92.32)">
<tspan>groß</tspan>
</text><path fill="currentColor" d="M37.018 100.93a.17.17 0 0 0-.168-.165q-.024-.001-.048.004c-.124.036-.312.16-.46.256s-.336.212-.416.312a.168.168 0 0 0 .128.276q.024.001.048-.004c.124-.036.308-.16.456-.256s.336-.212.416-.312a.17.17 0 0 0 .044-.112m-.208-.285c.184 0 .328.084.328.284a.7.7 0 0 1-.04.228.7.7 0 0 1-.256.376c-.212.144-.452.2-.748.2-.184 0-.332-.084-.332-.284 0-.076.02-.156.044-.228a.7.7 0 0 1 .252-.376c.212-.144.456-.2.752-.2M37.018 96.43a.17.17 0 0 0-.168-.165q-.024-.001-.048.004c-.124.036-.312.16-.46.256s-.336.212-.416.312a.168.168 0 0 0 .128.276q.024.001.048-.004c.124-.036.308-.16.456-.256s.336-.212.416-.312a.17.17 0 0 0 .044-.112m-.208-.285c.184 0 .328.084.328.284a.7.7 0 0 1-.04.228.7.7 0 0 1-.256.376c-.212.144-.452.2-.748.2-.184 0-.332-.084-.332-.284 0-.076.02-.156.044-.228a.7.7 0 0 1 .252-.376c.212-.144.456-.2.752-.2"/><text fill="currentColor" font-family="serif" font-size="2.47" transform="translate(33.497 104.051)">
<tspan>groß</tspan>
</text><rect width=".13" height="3.741" x="-.065" y="-1" fill="currentColor" ry=".04" transform="translate(37.074 14.16)"/><path fill="currentColor" d="M37.018 85.199a.17.17 0 0 0-.168-.165q-.024-.001-.048.004c-.124.037-.312.16-.46.257s-.336.211-.416.311a.168.168 0 0 0 .128.276q.024 0 .048-.003c.124-.037.308-.16.456-.257s.336-.212.416-.312a.17.17 0 0 0 .044-.112m-.208-.284c.184 0 .328.083.328.283a.7.7 0 0 1-.04.229.7.7 0 0 1-.256.375c-.212.145-.452.2-.748.2-.184 0-.332-.083-.332-.283 0-.076.02-.156.044-.228a.7.7 0 0 1 .252-.376c.212-.144.456-.2.752-.2"/><rect width=".13" height="4.241" x="-.065" y="-1.5" fill="currentColor" ry=".04" transform="translate(37.074 24.12)"/><path fill="currentColor" d="M34.684 24.62c.032-.016.068-.028.104-.028s.064.013.096.029l-.008.732.424-.08h.012c.04 0 .072.028.072.068l.028 2.28c-.032.016-.064.028-.1.028s-.068-.012-.1-.028l.012-.732-.424.08h-.012c-.04 0-.072-.028-.072-.068zm.556 1.052-.368.068-.012.829.368-.068z"/><rect width=".13" height="5.741" x="-.065" y="-3" fill="currentColor" ry=".04" transform="translate(37.074 54.405)"/><path fill="currentColor" d="M37.018 89.199a.17.17 0 0 0-.168-.165q-.024-.001-.048.004c-.124.037-.312.16-.46.257s-.336.211-.416.311a.168.168 0 0 0 .128.276q.024 0 .048-.003c.124-.037.308-.16.456-.257s.336-.212.416-.312a.17.17 0 0 0 .044-.112m-.208-.284c.184 0 .328.083.328.283a.7.7 0 0 1-.04.229.7.7 0 0 1-.256.375c-.212.145-.452.2-.748.2-.184 0-.332-.083-.332-.283 0-.076.02-.156.044-.228a.7.7 0 0 1 .252-.376c.212-.144.456-.2.752-.2"/><text fill="currentColor" font-family="serif" font-size="2.47" transform="translate(33.497 70.998)">
<tspan>groß</tspan>
</text><path fill="currentColor" d="M37.018 64.875a.17.17 0 0 0-.168-.164q-.024-.001-.048.004c-.124.036-.312.16-.46.256s-.336.212-.416.312a.168.168 0 0 0 .128.276q.024.001.048-.004c.124-.036.308-.16.456-.256s.336-.212.416-.312a.17.17 0 0 0 .044-.112m-.208-.284c.184 0 .328.084.328.284a.7.7 0 0 1-.04.228.7.7 0 0 1-.256.376c-.212.144-.452.2-.748.2-.184 0-.332-.084-.332-.284 0-.076.02-.156.044-.228a.7.7 0 0 1 .252-.376c.212-.144.456-.2.752-.2M37.018 67.875a.17.17 0 0 0-.168-.164q-.024-.001-.048.004c-.124.036-.312.16-.46.256s-.336.212-.416.312a.168.168 0 0 0 .128.276q.024.001.048-.004c.124-.036.308-.16.456-.256s.336-.212.416-.312a.17.17 0 0 0 .044-.112m-.208-.284c.184 0 .328.084.328.284a.7.7 0 0 1-.04.228.7.7 0 0 1-.256.376c-.212.144-.452.2-.748.2-.184 0-.332-.084-.332-.284 0-.076.02-.156.044-.228a.7.7 0 0 1 .252-.376c.212-.144.456-.2.752-.2"/><text fill="currentColor" font-family="serif" font-size="2.47" transform="translate(33.497 60.267)">
<tspan>groß</tspan>
</text><path fill="currentColor" d="M37.018 54.645a.17.17 0 0 0-.168-.164q-.024-.001-.048.004c-.124.036-.312.16-.46.256s-.336.212-.416.312a.168.168 0 0 0 .128.276q.024.001.048-.004c.124-.036.308-.16.456-.256s.336-.212.416-.312a.17.17 0 0 0 .044-.112m-.208-.284c.184 0 .328.084.328.284a.7.7 0 0 1-.04.228.7.7 0 0 1-.256.376c-.212.144-.452.2-.748.2-.184 0-.332-.084-.332-.284 0-.076.02-.156.044-.228a.7.7 0 0 1 .252-.376c.212-.144.456-.2.752-.2M37.018 57.145a.17.17 0 0 0-.168-.164q-.024-.001-.048.004c-.124.036-.312.16-.46.256s-.336.212-.416.312a.168.168 0 0 0 .128.276q.024.001.048-.004c.124-.036.308-.16.456-.256s.336-.212.416-.312a.17.17 0 0 0 .044-.112m-.208-.284c.184 0 .328.084.328.284a.7.7 0 0 1-.04.228.7.7 0 0 1-.256.376c-.212.144-.452.2-.748.2-.184 0-.332-.084-.332-.284 0-.076.02-.156.044-.228a.7.7 0 0 1 .252-.376c.212-.144.456-.2.752-.2"/><text fill="currentColor" font-family="serif" font-size="2.47" transform="translate(33.497 29.983)">
<tspan>groß</tspan>
</text><path fill="currentColor" d="M37.018 25.86a.17.17 0 0 0-.168-.164q-.024-.001-.048.004c-.124.036-.312.16-.46.256s-.336.212-.416.312a.168.168 0 0 0 .128.276q.024.001.048-.004c.124-.036.308-.16.456-.256s.336-.212.416-.312a.17.17 0 0 0 .044-.112m-.208-.284c.184 0 .328.084.328.284a.7.7 0 0 1-.04.228.7.7 0 0 1-.256.376c-.212.145-.452.2-.748.2-.184 0-.332-.084-.332-.284 0-.075.02-.155.044-.227a.7.7 0 0 1 .252-.376c.212-.145.456-.2.752-.2"/><path fill="currentColor" d="M37.018 26.86a.17.17 0 0 0-.168-.164q-.024-.001-.048.004c-.124.036-.312.16-.46.256s-.336.212-.416.312a.168.168 0 0 0 .128.276q.024.001.048-.004c.124-.036.308-.16.456-.256s.336-.212.416-.312a.17.17 0 0 0 .044-.112m-.208-.284c.184 0 .328.084.328.284a.7.7 0 0 1-.04.228.7.7 0 0 1-.256.376c-.212.145-.452.2-.748.2-.184 0-.332-.084-.332-.284 0-.075.02-.155.044-.227a.7.7 0 0 1 .252-.376c.212-.145.456-.2.752-.2"/><text fill="currentColor" font-family="serif" font-size="2.47" transform="translate(33.497 20.022)">
<tspan>groß</tspan>
</text><path fill="currentColor" d="M38.33 16.4a.17.17 0 0 0-.168-.164q-.024 0-.048.003c-.124.036-.312.16-.46.256s-.336.212-.416.312a.168.168 0 0 0 .128.276q.024.001.048-.004c.124-.036.308-.16.456-.256s.336-.212.416-.312a.17.17 0 0 0 .044-.112m-.208-.284c.184 0 .328.084.328.284a.7.7 0 0 1-.04.228.7.7 0 0 1-.256.376c-.212.144-.452.2-.748.2-.184 0-.332-.084-.332-.284 0-.076.02-.156.044-.228a.7.7 0 0 1 .252-.376c.212-.144.456-.2.752-.2"/><path fill="currentColor" d="M37.018 16.9a.17.17 0 0 0-.168-.164q-.024 0-.048.003c-.124.036-.312.16-.46.256s-.336.212-.416.312a.168.168 0 0 0 .128.276q.024.001.048-.004c.124-.036.308-.16.456-.256s.336-.212.416-.312a.17.17 0 0 0 .044-.112m-.208-.284c.184 0 .328.084.328.284a.7.7 0 0 1-.04.228.7.7 0 0 1-.256.376c-.212.144-.452.2-.748.2-.184 0-.332-.084-.332-.284 0-.076.02-.156.044-.228a.7.7 0 0 1 .252-.376c.212-.144.456-.2.752-.2M48.256 6.331c-.2 0-.277.172-.277.352 0 .308.228.544.536.544.2 0 .276-.172.276-.352a.53.53 0 0 0-.535-.544m1.111.448c0 .172-.135.3-.287.384-.212.116-.456.16-.696.16s-.48-.044-.692-.16c-.152-.084-.288-.212-.288-.384s.136-.3.288-.384c.212-.116.452-.16.692-.16s.484.044.696.16c.152.084.288.212.288.384"/><rect width=".13" height="7.074" x="-.065" y="-4.333" fill="currentColor" ry=".04" transform="translate(37.074 98.19)"/><path fill="currentColor" d="M34.696 95.19q.049-.027.104-.029c.055-.002.064.012.096.028l-.009.732.424-.08h.012c.04 0 .072.028.072.068l.028 2.28q-.047.026-.1.028c-.053.002-.068-.012-.1-.028l.012-.732-.424.08H34.8c-.04 0-.072-.028-.072-.068zm.556 1.051-.369.068-.012.828.368-.068zM46.554 6.331c-.2 0-.277.172-.277.352 0 .308.228.544.536.544.2 0 .276-.172.276-.352a.53.53 0 0 0-.535-.544m1.111.448c0 .172-.135.3-.287.384-.212.116-.456.16-.696.16s-.48-.044-.692-.16c-.152-.084-.288-.212-.288-.384s.136-.3.288-.384c.212-.116.452-.16.692-.16s.484.044.696.16c.152.084.288.212.288.384M34.696 83.959q.049-.027.104-.029c.055-.002.064.012.096.028l-.009.733.424-.08h.012c.04 0 .072.027.072.067l.028 2.28q-.047.027-.1.029c-.053.002-.068-.012-.1-.028l.012-.733-.424.08H34.8c-.04 0-.072-.027-.072-.067zm.556 1.052-.369.068-.012.828.368-.068z"/><text fill="currentColor" font-family="serif" font-size="2.47" transform="translate(39.854 10.06)">
<tspan>übermäßig</tspan>
</text><path fill="currentColor" d="M46.554 16.712c-.2 0-.277.172-.277.352 0 .308.228.544.536.544.2 0 .276-.172.276-.352a.53.53 0 0 0-.535-.544m1.111.448c0 .172-.135.3-.287.384-.212.116-.456.16-.696.16s-.48-.044-.692-.16c-.152-.084-.288-.212-.288-.384s.136-.3.288-.384c.212-.116.452-.16.692-.16s.484.044.696.16c.152.084.288.212.288.384"/><path fill="currentColor" d="M48.256 16.212c-.2 0-.277.172-.277.352 0 .308.228.544.536.544.2 0 .276-.172.276-.352a.53.53 0 0 0-.535-.544m1.111.448c0 .172-.135.3-.287.384-.212.116-.456.16-.696.16s-.48-.044-.692-.16c-.152-.084-.288-.212-.288-.384s.136-.3.288-.384c.212-.116.452-.16.692-.16s.484.044.696.16c.152.084.288.212.288.384M46.554 26.673c-.2 0-.277.172-.277.352 0 .308.228.544.536.544.2 0 .276-.172.276-.352a.53.53 0 0 0-.535-.544m1.111.448c0 .172-.135.3-.287.384-.212.116-.456.16-.696.16s-.48-.044-.692-.16c-.152-.084-.288-.212-.288-.384s.136-.3.288-.384c.212-.116.452-.16.692-.16s.484.043.696.16c.152.084.288.212.288.384"/><path fill="currentColor" d="M46.554 25.673c-.2 0-.277.172-.277.352 0 .308.228.544.536.544.2 0 .276-.172.276-.352a.53.53 0 0 0-.535-.544m1.111.448c0 .172-.135.3-.287.384-.212.116-.456.16-.696.16s-.48-.044-.692-.16c-.152-.084-.288-.212-.288-.384s.136-.3.288-.384c.212-.116.452-.16.692-.16s.484.043.696.16c.152.084.288.212.288.384"/><text fill="currentColor" font-family="serif" font-size="2.47" transform="translate(39.854 29.983)">
<tspan>übermäßig</tspan>
</text><path fill="currentColor" d="M46.554 36.634c-.2 0-.277.171-.277.351 0 .308.228.544.536.544.2 0 .276-.172.276-.352a.53.53 0 0 0-.535-.544m1.111.447c0 .172-.135.3-.287.384-.212.116-.456.16-.696.16s-.48-.044-.692-.16c-.152-.084-.288-.212-.288-.384s.136-.3.288-.384c.212-.116.452-.16.692-.16s.484.045.696.16c.152.084.288.212.288.384"/><rect width=".13" height="6.741" x="-.065" y="-4" fill="currentColor" ry=".04" transform="translate(37.074 86.459)"/><path fill="currentColor" d="M34.696 63.635c.032-.016.068-.028.104-.028s.064.012.096.028l-.009.732.424-.08h.012c.04 0 .072.028.072.068l.028 2.28c-.032.016-.064.028-.1.028s-.068-.012-.1-.028l.012-.732-.424.08H34.8c-.04 0-.072-.028-.072-.068zm.556 1.052-.369.068-.012.828.368-.068z"/><rect width=".13" height="6.074" x="-.065" y="-3.333" fill="currentColor" ry=".04" transform="translate(37.074 65.135)"/><path fill="currentColor" d="M34.696 53.405c.032-.016.068-.028.104-.028s.064.012.096.028l-.009.732.424-.08h.012c.04 0 .072.028.072.068l.028 2.28q-.047.026-.1.028c-.053.002-.068-.012-.1-.028l.012-.732-.424.08H34.8c-.04 0-.072-.028-.072-.068zm.556 1.052-.369.068-.012.828.368-.068z"/><text fill="currentColor" font-family="serif" font-size="2.2" transform="translate(-2.238 4.443)">
<tspan>1 (Prime)</tspan>
</text><text fill="currentColor" font-family="serif" font-size="2.2" transform="translate(-5.242 14.824)">
<tspan>2 (Sekunde)</tspan>
</text><path fill="currentColor" d="M45.116 56.153c0 .04-.033.076-.073.076s-.076-.036-.076-.076v-.58l-.332.124v.632c0 .04-.036.076-.076.076s-.072-.036-.072-.076v-.58l-.128.048q-.014.005-.028.004a.08.08 0 0 1-.08-.08v-.24c0-.032.02-.064.052-.076l.184-.064v-.64l-.128.044q-.014.005-.028.004a.08.08 0 0 1-.08-.08v-.24c0-.032.02-.06.052-.072l.184-.068v-.632c0-.04.032-.076.072-.076s.076.036.076.076v.58l.332-.124v-.632c0-.04.036-.076.076-.076s.072.036.072.076v.58l.128-.048q.014-.005.028-.004a.08.08 0 0 1 .08.08v.24c0 .032-.02.064-.052.076l-.184.064v.64l.128-.044q.014-.005.028-.004a.08.08 0 0 1 .08.08v.24c0 .032-.02.06-.052.072l-.184.068zm-.48-1.508v.64l.331-.12v-.64zM45.116 66.383c0 .04-.033.076-.073.076s-.076-.036-.076-.076v-.58l-.332.124v.632c0 .04-.036.076-.076.076s-.072-.036-.072-.076v-.58l-.128.048q-.014.005-.028.004a.08.08 0 0 1-.08-.08v-.24c0-.032.02-.064.052-.076l.184-.064v-.64l-.128.044q-.014.005-.028.004a.08.08 0 0 1-.08-.08v-.24c0-.032.02-.06.052-.072l.184-.068v-.632c0-.04.032-.076.072-.076s.076.036.076.076v.58l.332-.124v-.632c0-.04.036-.076.076-.076s.072.036.072.076v.58l.128-.048q.014-.005.028-.004a.08.08 0 0 1 .08.08v.24c0 .032-.02.064-.052.076l-.184.064v.64l.128-.044q.014-.005.028-.004a.08.08 0 0 1 .08.08v.24c0 .032-.02.06-.052.072l-.184.068zm-.48-1.508v.64l.331-.12v-.64zM45.116 46.29c0 .04-.033.076-.073.076s-.076-.036-.076-.076v-.58l-.332.124v.632c0 .04-.036.076-.076.076s-.072-.036-.072-.076v-.58l-.128.048q-.014.005-.028.004a.08.08 0 0 1-.08-.08v-.24c0-.032.02-.064.052-.076l.184-.064v-.64l-.128.044q-.014.005-.028.004a.08.08 0 0 1-.08-.08v-.24c0-.032.02-.06.052-.072l.184-.068v-.632c0-.04.032-.076.072-.076s.076.036.076.076v.58l.332-.124v-.632c0-.04.036-.076.076-.076s.072.036.072.076v.58l.128-.048q.014-.005.028-.004a.08.08 0 0 1 .08.08v.24c0 .032-.02.064-.052.076l-.184.064v.64l.128-.044q.014-.005.028-.004a.08.08 0 0 1 .08.08v.24c0 .032-.02.06-.052.072l-.184.068zm-.48-1.508v.64l.331-.12v-.64zM45.116 97.937c0 .04-.033.076-.073.076s-.076-.036-.076-.076v-.58l-.332.124v.632c0 .04-.036.076-.076.076s-.072-.036-.072-.076v-.58l-.128.048q-.014.005-.028.004a.08.08 0 0 1-.08-.08v-.24c0-.032.02-.064.052-.076l.184-.064v-.64l-.128.044q-.014.005-.028.004a.08.08 0 0 1-.08-.08v-.24c0-.032.02-.06.052-.072l.184-.068v-.632c0-.04.032-.076.072-.076s.076.036.076.076v.58l.332-.124v-.632c0-.04.036-.076.076-.076s.072.036.072.076v.58l.128-.048q.014-.005.028-.004a.08.08 0 0 1 .08.08v.24c0 .032-.02.064-.052.076l-.184.064v.64l.128-.044q.014-.005.028-.004a.08.08 0 0 1 .08.08v.24c0 .032-.02.06-.052.072l-.184.068zm-.48-1.508v.64l.331-.12v-.64zM45.116 86.707c0 .04-.033.076-.073.076s-.076-.037-.076-.077v-.58l-.332.125v.631c0 .04-.036.077-.076.077s-.072-.037-.072-.077v-.58l-.128.049q-.014.005-.028.004a.08.08 0 0 1-.08-.08v-.24c0-.032.02-.064.052-.076l.184-.064v-.64l-.128.044q-.014.005-.028.004a.08.08 0 0 1-.08-.08v-.24c0-.032.02-.06.052-.072l.184-.068v-.632c0-.04.032-.076.072-.076s.076.036.076.076v.58l.332-.124v-.632c0-.04.036-.076.076-.076s.072.036.072.076v.58l.128-.048q.014-.005.028-.004a.08.08 0 0 1 .08.08v.24c0 .032-.02.064-.052.076l-.184.064v.64l.128-.044q.014-.005.028-.004a.08.08 0 0 1 .08.08v.24c0 .031-.02.06-.052.071l-.184.069zm-.48-1.508v.64l.331-.12v-.64z"/><text fill="currentColor" font-family="serif" font-size="2.2" transform="translate(-.428 24.785)">
<tspan>3 (Terz)</tspan>
</text><path fill="currentColor" d="M45.116 75.844c0 .04-.033.076-.073.076s-.076-.036-.076-.076v-.58l-.332.124v.632c0 .04-.036.076-.076.076s-.072-.036-.072-.076v-.58l-.128.048q-.014.005-.028.004a.08.08 0 0 1-.08-.08v-.24c0-.032.02-.064.052-.076l.184-.064v-.64l-.128.044q-.014.005-.028.004a.08.08 0 0 1-.08-.08v-.24c0-.032.02-.06.052-.072l.184-.068v-.632c0-.04.032-.076.072-.076s.076.036.076.076v.58l.332-.124v-.632c0-.04.036-.076.076-.076s.072.036.072.076v.58l.128-.048q.014-.005.028-.004a.08.08 0 0 1 .08.08v.24c0 .032-.02.064-.052.076l-.184.064v.64l.128-.044q.014-.005.028-.004a.08.08 0 0 1 .08.08v.24c0 .032-.02.06-.052.072l-.184.068zm-.48-1.508v.64l.331-.12v-.64zM17.416 25.957l-.004.263q-.002.022-.004.044-.001.132.016.264c.176-.148.348-.328.348-.556 0-.132-.044-.268-.16-.268-.12 0-.192.12-.196.252m-.004-1.665-.024 1.38a.54.54 0 0 1 .348-.136c.212 0 .368.188.368.404 0 .32-.344.472-.588.68-.06.052-.092.152-.176.152a.1.1 0 0 1-.096-.1l-.008-.424c-.108.136-.264.248-.392.372-.052.052-.076.152-.156.152-.052 0-.092-.047-.092-.103l-.048-2.376c.032-.02.072-.032.108-.032s.076.012.108.032l-.028 1.38a.37.37 0 0 1 .28-.136c.08 0 .152.032.208.084l-.028-1.328c.032-.02.072-.032.108-.032s.076.012.108.032m-.688 1.932v.04c0 .092.004.18.016.272.156-.152.284-.344.284-.564 0-.128-.024-.268-.132-.268s-.156.124-.16.248zM17.412 35.418l-.004.263v.045q-.001.13.016.263c.18-.151.372-.32.372-.555 0-.132-.056-.268-.172-.268-.124 0-.208.12-.212.252m-.168.715-.048-2.38c.032-.02.072-.032.108-.032s.076.013.108.033l-.028 1.38a.58.58 0 0 1 .364-.137c.208 0 .356.192.356.408 0 .32-.344.468-.588.676-.06.052-.096.152-.18.152-.052 0-.092-.043-.092-.1M17.412 44.878l-.004.264v.044q-.001.132.016.264c.18-.152.372-.32.372-.556 0-.132-.056-.268-.172-.268-.124 0-.208.12-.212.252m-.168.716-.048-2.38c.032-.02.072-.032.108-.032s.076.012.108.032l-.028 1.38a.58.58 0 0 1 .364-.136c.208 0 .356.192.356.408 0 .32-.344.468-.588.676-.06.052-.096.152-.18.152-.052 0-.092-.044-.092-.1M17.412 6.615l-.004.264v.044q-.001.132.016.264c.18-.152.372-.32.372-.556 0-.132-.056-.268-.172-.268-.124 0-.208.12-.212.252m-.168.716-.048-2.38c.032-.02.072-.032.108-.032s.076.012.108.032l-.028 1.38a.58.58 0 0 1 .364-.136c.208 0 .356.192.356.408 0 .32-.344.468-.588.676-.06.052-.096.152-.18.152-.052 0-.092-.044-.092-.1M17.45 16.496l-.003.264c0 .015-.004.027-.004.043q-.001.132.016.264c.176-.148.348-.328.348-.556 0-.132-.044-.268-.16-.268-.12 0-.192.12-.196.252m-.003-1.664-.024 1.38a.54.54 0 0 1 .348-.136c.212 0 .368.188.368.404 0 .32-.344.472-.588.68-.06.052-.092.152-.176.152a.1.1 0 0 1-.096-.1l-.008-.424c-.108.136-.264.248-.392.372-.052.052-.076.152-.156.152-.052 0-.092-.048-.092-.104l-.048-2.376c.032-.02.072-.032.108-.032s.076.012.108.032l-.028 1.38a.37.37 0 0 1 .28-.136c.08 0 .152.032.208.084l-.028-1.328c.032-.02.072-.032.108-.032s.076.012.108.032m-.688 1.931v.04q-.001.136.016.272c.156-.152.284-.344.284-.564 0-.128-.024-.268-.132-.268s-.156.124-.16.248zM17.412 74.432l-.004.264v.044q-.001.132.016.264c.18-.152.372-.32.372-.556 0-.132-.056-.268-.172-.268-.124 0-.208.12-.212.252m-.168.716-.048-2.38c.032-.02.072-.032.108-.032s.076.012.108.032l-.028 1.38a.58.58 0 0 1 .364-.136c.208 0 .356.192.356.408 0 .32-.344.468-.588.676-.06.052-.096.152-.18.152-.052 0-.092-.044-.092-.1M17.416 85.295l-.004.263c0 .016-.004.028-.004.044q-.001.132.016.264c.176-.148.348-.328.348-.556 0-.132-.044-.268-.16-.268-.12 0-.192.12-.196.252m-.004-1.665-.024 1.38a.54.54 0 0 1 .348-.136c.212 0 .368.189.368.405 0 .32-.344.471-.588.68-.06.051-.092.151-.176.151a.1.1 0 0 1-.096-.1l-.008-.423c-.108.135-.264.247-.392.371-.052.053-.076.153-.156.153-.052 0-.092-.049-.092-.105l-.048-2.375c.032-.02.072-.033.108-.033s.076.013.108.033l-.028 1.38a.37.37 0 0 1 .28-.137c.08 0 .152.033.208.085l-.028-1.329c.032-.02.072-.031.108-.031s.076.011.108.031m-.688 1.933v.04q-.001.136.016.272c.156-.152.284-.344.284-.564 0-.128-.024-.268-.132-.268s-.156.124-.16.248zM17.416 64.971l-.004.264q-.002.022-.004.044-.001.132.016.264c.176-.148.348-.328.348-.556 0-.132-.044-.268-.16-.268-.12 0-.192.12-.196.252m-.004-1.664-.024 1.38a.54.54 0 0 1 .348-.136c.212 0 .368.188.368.404 0 .32-.344.472-.588.68-.06.052-.092.152-.176.152a.1.1 0 0 1-.096-.1l-.008-.424c-.108.136-.264.248-.392.372-.052.052-.076.152-.156.152-.052 0-.092-.048-.092-.104l-.048-2.376c.032-.02.072-.032.108-.032s.076.012.108.032l-.028 1.38a.37.37 0 0 1 .28-.136c.08 0 .152.032.208.084l-.028-1.328c.032-.02.072-.032.108-.032s.076.012.108.032m-.688 1.932v.04q-.001.136.016.272c.156-.152.284-.344.284-.564 0-.128-.024-.268-.132-.268s-.156.124-.16.248zM17.416 54.74l-.004.265q-.002.022-.004.044-.001.132.016.264c.176-.148.348-.328.348-.556 0-.132-.044-.268-.16-.268-.12 0-.192.12-.196.252m-.004-1.663-.024 1.38a.54.54 0 0 1 .348-.136c.212 0 .368.188.368.404 0 .32-.344.472-.588.68-.06.052-.092.152-.176.152a.1.1 0 0 1-.096-.1l-.008-.424c-.108.136-.264.248-.392.372-.052.052-.076.152-.156.152-.052 0-.092-.048-.092-.104l-.048-2.376c.032-.02.072-.032.108-.032s.076.012.108.032l-.028 1.38a.37.37 0 0 1 .28-.136c.08 0 .152.032.208.084l-.028-1.328c.032-.02.072-.032.108-.032s.076.012.108.032m-.688 1.932v.04c0 .092.004.18.016.272.156-.152.284-.344.284-.564 0-.128-.024-.268-.132-.268s-.156.124-.16.248zM19.306 26.673c-.2 0-.276.172-.276.352 0 .308.228.544.536.544.2 0 .276-.172.276-.352a.53.53 0 0 0-.536-.544m1.112.448c0 .172-.136.3-.288.384-.212.116-.456.16-.696.16s-.48-.044-.692-.16c-.152-.084-.288-.212-.288-.384s.136-.3.288-.384c.212-.116.452-.16.692-.16s.484.043.696.16c.152.084.288.212.288.384M10.4 7.319h-.024a.783.783 0 0 1-.78-.788c0-.232.212-.412.448-.412.216 0 .38.188.38.412 0 .208-.172.38-.38.38a.3.3 0 0 1-.124-.024c.104.156.272.26.468.26h.016zm.78-1.728a.71.71 0 0 0 .452-.656.764.764 0 0 0-.692-.76c.096.464.184.924.24 1.416m-1.548-.924c0 .54.516.988 1.056.988q.167 0 .328-.024c-.056-.508-.148-.98-.252-1.456-.316.032-.496.244-.496.476 0 .176.1.364.324.492q.029.03.028.06c0 .044-.04.088-.088.088q-.018-.001-.036-.008c-.32-.172-.468-.46-.468-.74 0-.352.232-.696.64-.788a15 15 0 0 0-.184-.7c-.428.484-.852.972-.852 1.612m1.044 1.16c-.752 0-1.332-.688-1.332-1.496 0-.708.524-1.224.992-1.764a4.5 4.5 0 0 1-.18-.76 5 5 0 0 1-.028-.624c0-.46.22-.896.596-1.168a.06.06 0 0 1 .08 0c.284.336.532.98.532 1.432 0 .572-.344 1.02-.72 1.456.084.272.156.552.224.828.016 0 .036-.004.052-.004.62 0 1.024.512 1.024 1.044 0 .304-.132.616-.428.84a.9.9 0 0 1-.292.144q.019.21.02.42-.001.116-.008.232c-.028.476-.352.9-.808.912l.004-.172c.372-.008.612-.368.636-.764q.007-.11.008-.22c0-.124-.004-.244-.016-.368-.116.02-.232.032-.356.032m.372-4.712c0-.22-.016-.316-.08-.516a1.15 1.15 0 0 0-.648 1.036c0 .296.072.532.144.776.32-.388.584-.792.584-1.296M14.972 3.671a.3.3 0 0 1-.3-.3c0-.152.108-.308.288-.308q.025-.001.056.004a.6.6 0 0 0-.48-.236c-.424 0-.452.292-.452.744v.408c0 .452.028.748.452.748.32 0 .556-.28.632-.604.008-.028.028-.04.048-.04.024 0 .052.016.052.048 0 .376-.42.696-.732.696-.272 0-.548-.084-.736-.28-.196-.204-.264-.488-.264-.772s.068-.568.264-.772c.188-.196.464-.276.736-.276.348 0 .64.252.7.596q.005.031.004.056c0 .16-.12.288-.268.288"/><text fill="currentColor" font-family="serif" font-size="2.47" transform="translate(12.418 10.06)">
<tspan>vermindert</tspan>
</text><path fill="currentColor" d="M19.306 16.712c-.2 0-.276.172-.276.352 0 .308.228.544.536.544.2 0 .276-.172.276-.352a.53.53 0 0 0-.536-.544m1.112.448c0 .172-.136.3-.288.384-.212.116-.456.16-.696.16s-.48-.044-.692-.16c-.152-.084-.288-.212-.288-.384s.136-.3.288-.384c.212-.116.452-.16.692-.16s.484.044.696.16c.152.084.288.212.288.384"/><path fill="currentColor" d="M21.008 16.212c-.2 0-.276.172-.276.352 0 .308.228.544.536.544.2 0 .276-.172.276-.352a.53.53 0 0 0-.536-.544m1.112.448c0 .172-.136.3-.288.384-.212.116-.456.16-.696.16s-.48-.044-.692-.16c-.152-.084-.288-.212-.288-.384s.136-.3.288-.384c.212-.116.452-.16.692-.16s.484.044.696.16c.152.084.288.212.288.384M10.4 17.7h-.024a.783.783 0 0 1-.78-.788c0-.232.212-.412.448-.412.216 0 .38.188.38.412 0 .208-.172.38-.38.38a.3.3 0 0 1-.124-.025c.104.156.272.26.468.26h.016zm.78-1.729a.71.71 0 0 0 .452-.656.764.764 0 0 0-.692-.76c.096.464.184.924.24 1.416m-1.548-.924c0 .54.516.988 1.056.988q.167 0 .328-.024c-.056-.508-.148-.98-.252-1.456-.316.032-.496.244-.496.476 0 .176.1.364.324.492q.029.03.028.06c0 .044-.04.088-.088.088q-.018-.001-.036-.008c-.32-.172-.468-.46-.468-.74 0-.352.232-.696.64-.788a15 15 0 0 0-.184-.7c-.428.484-.852.972-.852 1.612m1.044 1.16c-.752 0-1.332-.688-1.332-1.496 0-.708.524-1.224.992-1.764a4.5 4.5 0 0 1-.18-.76 5 5 0 0 1-.028-.623c0-.46.22-.897.596-1.169a.06.06 0 0 1 .08 0c.284.337.532.98.532 1.433 0 .572-.344 1.02-.72 1.456.084.271.156.551.224.827.016 0 .036-.004.052-.004.62 0 1.024.513 1.024 1.045 0 .304-.132.616-.428.84a.9.9 0 0 1-.292.143q.019.21.02.42-.001.117-.008.233c-.028.476-.352.9-.808.912l.004-.172c.372-.008.612-.368.636-.764q.007-.11.008-.22.001-.184-.016-.368c-.116.02-.232.032-.356.032m.372-4.712c0-.22-.016-.315-.08-.515a1.15 1.15 0 0 0-.648 1.035c0 .296.072.532.144.776.32-.388.584-.792.584-1.296M14.972 14.051a.3.3 0 0 1-.3-.3c0-.152.108-.308.288-.308q.025-.001.056.004a.6.6 0 0 0-.48-.236c-.424 0-.452.292-.452.744v.408c0 .452.028.748.452.748.32 0 .556-.28.632-.604.008-.028.028-.04.048-.04.024 0 .052.016.052.048 0 .376-.42.696-.732.696-.272 0-.548-.084-.736-.28-.196-.203-.264-.487-.264-.771s.068-.569.264-.773c.188-.196.464-.276.736-.276.348 0 .64.252.7.596q.005.031.004.056c0 .16-.12.288-.268.288"/><text fill="currentColor" font-family="serif" font-size="2.47" transform="translate(12.418 20.022)">
<tspan>vermindert</tspan>
</text><path fill="currentColor" d="M21.008 6.331c-.2 0-.276.172-.276.352 0 .308.228.544.536.544.2 0 .276-.172.276-.352a.53.53 0 0 0-.536-.544m1.112.448c0 .172-.136.3-.288.384-.212.116-.456.16-.696.16s-.48-.044-.692-.16c-.152-.084-.288-.212-.288-.384s.136-.3.288-.384c.212-.116.452-.16.692-.16s.484.044.696.16c.152.084.288.212.288.384M19.306 25.673c-.2 0-.276.172-.276.352 0 .308.228.544.536.544.2 0 .276-.172.276-.352a.53.53 0 0 0-.536-.544m1.112.448c0 .172-.136.3-.288.384-.212.116-.456.16-.696.16s-.48-.044-.692-.16c-.152-.084-.288-.212-.288-.384s.136-.3.288-.384c.212-.116.452-.16.692-.16s.484.043.696.16c.152.084.288.212.288.384M10.4 27.66h-.024a.783.783 0 0 1-.78-.788c0-.232.212-.412.448-.412.216 0 .38.188.38.412 0 .208-.172.38-.38.38a.3.3 0 0 1-.124-.024c.104.156.272.26.468.26h.016zm.78-1.727a.71.71 0 0 0 .452-.656.764.764 0 0 0-.692-.76c.096.464.184.924.24 1.416m-1.548-.924c0 .54.516.988 1.056.988q.167 0 .328-.024c-.056-.508-.148-.98-.252-1.456-.316.032-.496.244-.496.476 0 .176.1.364.324.492q.029.03.028.06c0 .043-.04.087-.088.087q-.018-.001-.036-.008c-.32-.171-.468-.46-.468-.74 0-.351.232-.695.64-.787a15 15 0 0 0-.184-.7c-.428.484-.852.972-.852 1.612m1.044 1.16c-.752 0-1.332-.688-1.332-1.496 0-.708.524-1.224.992-1.764a4.5 4.5 0 0 1-.18-.76 5 5 0 0 1-.028-.624c0-.46.22-.896.596-1.168a.06.06 0 0 1 .08 0c.284.336.532.98.532 1.432 0 .572-.344 1.02-.72 1.456.084.272.156.552.224.828.016 0 .036-.004.052-.004.62 0 1.024.512 1.024 1.044 0 .304-.132.616-.428.84a.9.9 0 0 1-.292.144q.019.21.02.42-.001.116-.008.232c-.028.476-.352.9-.808.912l.004-.173c.372-.008.612-.368.636-.764q.007-.11.008-.22.001-.184-.016-.368c-.116.02-.232.033-.356.033m.372-4.713c0-.22-.016-.316-.08-.516a1.15 1.15 0 0 0-.648 1.036c0 .297.072.533.144.777.32-.388.584-.792.584-1.296M14.972 24.013a.3.3 0 0 1-.3-.3c0-.153.108-.309.288-.309q.025-.001.056.004a.6.6 0 0 0-.48-.236c-.424 0-.452.292-.452.744v.408c0 .452.028.748.452.748.32 0 .556-.28.632-.603.008-.028.028-.04.048-.04.024 0 .052.016.052.048 0 .376-.42.696-.732.696-.272 0-.548-.084-.736-.28-.196-.204-.264-.488-.264-.772s.068-.568.264-.772c.188-.196.464-.276.736-.276.348 0 .64.252.7.596q.005.031.004.056c0 .16-.12.288-.268.288"/><text fill="currentColor" font-family="serif" font-size="2.47" transform="translate(12.418 29.983)">
<tspan>vermindert</tspan>
</text><path fill="currentColor" d="M19.306 36.634c-.2 0-.276.171-.276.351 0 .308.228.544.536.544.2 0 .276-.172.276-.352a.53.53 0 0 0-.536-.544m1.112.447c0 .172-.136.3-.288.384-.212.116-.456.16-.696.16s-.48-.044-.692-.16c-.152-.084-.288-.212-.288-.384s.136-.3.288-.384c.212-.116.452-.16.692-.16s.484.045.696.16c.152.084.288.212.288.384M19.306 35.134c-.2 0-.276.171-.276.351 0 .308.228.544.536.544.2 0 .276-.172.276-.352a.53.53 0 0 0-.536-.544m1.112.447c0 .172-.136.3-.288.384-.212.116-.456.16-.696.16s-.48-.044-.692-.16c-.152-.084-.288-.212-.288-.384s.136-.3.288-.384c.212-.116.452-.16.692-.16s.484.045.696.16c.152.084.288.212.288.384M10.4 37.622h-.024a.783.783 0 0 1-.78-.789c0-.231.212-.411.448-.411.216 0 .38.188.38.412 0 .207-.172.38-.38.38a.3.3 0 0 1-.124-.024c.104.156.272.26.468.26h.016zm.78-1.729a.71.71 0 0 0 .452-.656.764.764 0 0 0-.692-.76c.096.465.184.925.24 1.417m-1.548-.924c0 .54.516.988 1.056.988q.167 0 .328-.024c-.056-.508-.148-.98-.252-1.456-.316.032-.496.244-.496.476 0 .176.1.364.324.492q.029.03.028.06c0 .044-.04.088-.088.088q-.018-.001-.036-.008c-.32-.172-.468-.46-.468-.74 0-.352.232-.696.64-.788a15 15 0 0 0-.184-.7c-.428.484-.852.972-.852 1.612m1.044 1.16c-.752 0-1.332-.687-1.332-1.495 0-.709.524-1.225.992-1.765a4.5 4.5 0 0 1-.18-.76 5 5 0 0 1-.028-.624c0-.46.22-.896.596-1.168a.06.06 0 0 1 .08 0c.284.336.532.98.532 1.432 0 .572-.344 1.02-.72 1.456.084.273.156.553.224.829.016 0 .036-.004.052-.004.62 0 1.024.512 1.024 1.044 0 .304-.132.616-.428.84a.9.9 0 0 1-.292.144q.019.21.02.42c0 .076-.004.156-.008.232-.028.476-.352.9-.808.912l.004-.172c.372-.008.612-.368.636-.764q.007-.11.008-.22.001-.184-.016-.368c-.116.02-.232.032-.356.032m.372-4.712c0-.22-.016-.316-.08-.516a1.15 1.15 0 0 0-.648 1.036c0 .296.072.532.144.776.32-.387.584-.791.584-1.295"/><text fill="currentColor" font-family="serif" font-size="2.2" transform="translate(-4.799 65.742)">
<tspan>7 (Septime)</tspan>
</text><text fill="currentColor" font-family="serif" font-size="2.2" transform="translate(-3.467 75.76)">
<tspan>8 (Oktave)</tspan>
</text><text fill="currentColor" font-family="serif" font-size="2.2" transform="translate(-1.555 87.123)">
<tspan>9 (None)</tspan>
</text><path fill="currentColor" d="M14.972 33.974a.3.3 0 0 1-.3-.3c0-.152.108-.308.288-.308q.025-.001.056.004a.6.6 0 0 0-.48-.236c-.424 0-.452.292-.452.744v.408c0 .452.028.748.452.748.32 0 .556-.28.632-.604.008-.028.028-.04.048-.04.024 0 .052.016.052.048 0 .376-.42.696-.732.696-.272 0-.548-.084-.736-.28-.196-.204-.264-.488-.264-.772s.068-.568.264-.772c.188-.196.464-.276.736-.276.348 0 .64.252.7.596q.005.031.004.055c0 .16-.12.288-.268.288"/><text fill="currentColor" font-family="serif" font-size="2.2" transform="translate(-5.345 98.853)">
<tspan>10 (Dezime)</tspan>
</text><rect width=".16" height="98.51" y="-49.255" fill="currentColor" ry=".05" transform="translate(8.476 50.984)"/><path fill="currentColor" d="M19.306 6.331c-.2 0-.276.172-.276.352 0 .308.228.544.536.544.2 0 .276-.172.276-.352a.53.53 0 0 0-.536-.544m1.112.448c0 .172-.136.3-.288.384-.212.116-.456.16-.696.16s-.48-.044-.692-.16c-.152-.084-.288-.212-.288-.384s.136-.3.288-.384c.212-.116.452-.16.692-.16s.484.044.696.16c.152.084.288.212.288.384M14.972 86.35a.3.3 0 0 1-.3-.3c0-.151.108-.307.288-.307q.025 0 .056.003a.6.6 0 0 0-.48-.235c-.424 0-.452.291-.452.743v.408c0 .452.028.748.452.748.32 0 .556-.28.632-.604.008-.028.028-.04.048-.04.024 0 .052.016.052.048 0 .376-.42.696-.732.696-.272 0-.548-.084-.736-.28-.196-.204-.264-.488-.264-.772s.068-.568.264-.772c.188-.196.464-.276.736-.276.348 0 .64.252.7.596q.005.031.004.056c0 .16-.12.288-.268.288M19.306 77.648c-.2 0-.276.172-.276.352 0 .308.228.544.536.544.2 0 .276-.172.276-.352a.53.53 0 0 0-.536-.544m1.112.448c0 .172-.136.3-.288.384-.212.116-.456.16-.696.16s-.48-.044-.692-.16c-.152-.084-.288-.212-.288-.384s.136-.3.288-.384c.212-.116.452-.16.692-.16s.484.044.696.16c.152.084.288.212.288.384M19.306 74.148c-.2 0-.276.172-.276.352 0 .308.228.544.536.544.2 0 .276-.172.276-.352a.53.53 0 0 0-.536-.544m1.112.448c0 .172-.136.3-.288.384-.212.116-.456.16-.696.16s-.48-.044-.692-.16c-.152-.084-.288-.212-.288-.384s.136-.3.288-.384c.212-.116.452-.16.692-.16s.484.044.696.16c.152.084.288.212.288.384M10.4 78.636h-.024a.783.783 0 0 1-.78-.788c0-.232.212-.412.448-.412.216 0 .38.188.38.412 0 .208-.172.38-.38.38a.3.3 0 0 1-.124-.024c.104.156.272.26.468.26h.016zm.78-1.728a.71.71 0 0 0 .452-.656.764.764 0 0 0-.692-.76c.096.464.184.924.24 1.416m-1.548-.924c0 .54.516.988 1.056.988q.167 0 .328-.024c-.056-.508-.148-.98-.252-1.456-.316.032-.496.244-.496.476 0 .176.1.364.324.492q.029.03.028.06c0 .044-.04.088-.088.088q-.018-.001-.036-.008c-.32-.172-.468-.46-.468-.74 0-.352.232-.696.64-.788a15 15 0 0 0-.184-.7c-.428.484-.852.972-.852 1.612m1.044 1.16c-.752 0-1.332-.688-1.332-1.496 0-.708.524-1.224.992-1.764a4.5 4.5 0 0 1-.18-.76 5 5 0 0 1-.028-.624c0-.46.22-.896.596-1.168a.06.06 0 0 1 .08 0c.284.336.532.98.532 1.432 0 .572-.344 1.02-.72 1.456.084.272.156.552.224.828.016 0 .036-.004.052-.004.62 0 1.024.512 1.024 1.044 0 .304-.132.616-.428.84a.9.9 0 0 1-.292.144q.019.21.02.42c0 .076-.004.156-.008.232-.028.476-.352.9-.808.912l.004-.172c.372-.008.612-.368.636-.764q.007-.11.008-.22.001-.184-.016-.368c-.116.02-.232.032-.356.032m.372-4.712c0-.22-.016-.316-.08-.516a1.15 1.15 0 0 0-.648 1.036c0 .296.072.532.144.776.32-.388.584-.792.584-1.296M14.972 74.988a.3.3 0 0 1-.3-.3c0-.152.108-.308.288-.308q.025-.001.056.004a.6.6 0 0 0-.48-.236c-.424 0-.452.292-.452.744v.408c0 .452.028.748.452.748.32 0 .556-.28.632-.604.008-.028.028-.04.048-.04.024 0 .052.016.052.048 0 .376-.42.696-.732.696-.272 0-.548-.084-.736-.28-.196-.204-.264-.488-.264-.772s.068-.568.264-.772c.188-.196.464-.276.736-.276.348 0 .64.252.7.596q.005.031.004.056c0 .16-.12.288-.268.288"/><text fill="currentColor" font-family="serif" font-size="2.47" transform="translate(12.418 80.959)">
<tspan>vermindert</tspan>
</text><path fill="currentColor" d="M19.306 89.01c-.2 0-.276.173-.276.353 0 .308.228.544.536.544.2 0 .276-.172.276-.352a.53.53 0 0 0-.536-.545m1.112.448c0 .173-.136.3-.288.385-.212.115-.456.16-.696.16s-.48-.045-.692-.16c-.152-.085-.288-.213-.288-.385s.136-.3.288-.383c.212-.117.452-.16.692-.16s.484.043.696.16c.152.083.288.211.288.383M19.306 85.01c-.2 0-.276.173-.276.353 0 .308.228.544.536.544.2 0 .276-.172.276-.352a.53.53 0 0 0-.536-.545m1.112.448c0 .173-.136.3-.288.385-.212.115-.456.16-.696.16s-.48-.045-.692-.16c-.152-.085-.288-.213-.288-.385s.136-.3.288-.383c.212-.117.452-.16.692-.16s.484.043.696.16c.152.083.288.211.288.383M10.4 89.999h-.024a.783.783 0 0 1-.78-.788c0-.232.212-.412.448-.412.216 0 .38.187.38.411 0 .209-.172.38-.38.38a.3.3 0 0 1-.124-.023c.104.156.272.26.468.26h.016zm.78-1.728a.71.71 0 0 0 .452-.657.764.764 0 0 0-.692-.76c.096.464.184.924.24 1.416m-1.548-.924c0 .54.516.988 1.056.988q.167 0 .328-.024c-.056-.509-.148-.98-.252-1.457-.316.033-.496.245-.496.477 0 .175.1.363.324.491q.029.03.028.06c0 .045-.04.089-.088.089q-.018-.002-.036-.009c-.32-.171-.468-.46-.468-.74 0-.351.232-.695.64-.787a15 15 0 0 0-.184-.7c-.428.484-.852.972-.852 1.612m1.044 1.16c-.752 0-1.332-.689-1.332-1.497 0-.707.524-1.223.992-1.763a4.5 4.5 0 0 1-.18-.76 5 5 0 0 1-.028-.624c0-.46.22-.896.596-1.168a.06.06 0 0 1 .08 0c.284.336.532.98.532 1.432 0 .572-.344 1.02-.72 1.456.084.272.156.552.224.828.016 0 .036-.004.052-.004.62 0 1.024.512 1.024 1.044 0 .304-.132.616-.428.84a.9.9 0 0 1-.292.144q.019.21.02.42c0 .076-.004.156-.008.232-.028.476-.352.9-.808.912l.004-.172c.372-.008.612-.368.636-.764a3.775 3.775 0 0 0-.008-.588c-.116.02-.232.032-.356.032m.372-4.713c0-.22-.016-.315-.08-.515a1.15 1.15 0 0 0-.648 1.035c0 .297.072.533.144.777.32-.389.584-.793.584-1.297"/><text fill="currentColor" font-family="serif" font-size="2.47" transform="translate(12.418 70.998)">
<tspan>vermindert</tspan>
</text><text fill="currentColor" font-family="serif" font-size="2.47" transform="translate(12.418 92.32)">
<tspan>vermindert</tspan>
</text><path fill="currentColor" d="M19.306 100.741c-.2 0-.276.172-.276.352 0 .308.228.544.536.544.2 0 .276-.172.276-.352a.53.53 0 0 0-.536-.544m1.112.448c0 .172-.136.3-.288.384-.212.116-.456.16-.696.16s-.48-.044-.692-.16c-.152-.084-.288-.212-.288-.384s.136-.3.288-.384c.212-.116.452-.16.692-.16s.484.044.696.16c.152.084.288.212.288.384M19.306 96.241c-.2 0-.276.172-.276.352 0 .308.228.544.536.544.2 0 .276-.172.276-.352a.53.53 0 0 0-.536-.544m1.112.448c0 .172-.136.3-.288.384-.212.116-.456.16-.696.16s-.48-.044-.692-.16c-.152-.084-.288-.212-.288-.384s.136-.3.288-.384c.212-.116.452-.16.692-.16s.484.044.696.16c.152.084.288.212.288.384M10.4 101.73h-.024a.783.783 0 0 1-.78-.789c0-.232.212-.412.448-.412.216 0 .38.188.38.412 0 .208-.172.38-.38.38a.3.3 0 0 1-.124-.024c.104.156.272.26.468.26h.016zm.78-1.729a.71.71 0 0 0 .452-.656.764.764 0 0 0-.692-.76c.096.464.184.924.24 1.416m-1.548-.924c0 .54.516.988 1.056.988q.167 0 .328-.024c-.056-.508-.148-.98-.252-1.456-.316.032-.496.244-.496.476 0 .176.1.364.324.492q.029.03.028.06c0 .044-.04.088-.088.088q-.018-.001-.036-.008c-.32-.172-.468-.46-.468-.74 0-.352.232-.696.64-.788a15 15 0 0 0-.184-.7c-.428.484-.852.972-.852 1.612m1.044 1.16c-.752 0-1.332-.688-1.332-1.496 0-.708.524-1.224.992-1.764a4.5 4.5 0 0 1-.18-.76 5 5 0 0 1-.028-.624c0-.46.22-.896.596-1.168a.06.06 0 0 1 .08 0c.284.336.532.98.532 1.432 0 .572-.344 1.02-.72 1.456.084.272.156.552.224.828.016 0 .036-.004.052-.004.62 0 1.024.512 1.024 1.044 0 .304-.132.616-.428.84a.9.9 0 0 1-.292.144q.019.21.02.42c0 .076-.004.156-.008.232-.028.476-.352.9-.808.912l.004-.172c.372-.008.612-.368.636-.764q.007-.11.008-.22.001-.184-.016-.368c-.116.02-.232.032-.356.032m.372-4.712c0-.22-.016-.316-.08-.516a1.15 1.15 0 0 0-.648 1.036c0 .296.072.532.144.776.32-.388.584-.792.584-1.296M14.972 98.081a.3.3 0 0 1-.3-.3c0-.152.108-.308.288-.308q.025-.001.056.004a.6.6 0 0 0-.48-.236c-.424 0-.452.292-.452.744v.408c0 .452.028.748.452.748.32 0 .556-.28.632-.604.008-.028.028-.04.048-.04.024 0 .052.016.052.048 0 .376-.42.696-.732.696-.272 0-.548-.084-.736-.28-.196-.204-.264-.488-.264-.772s.068-.568.264-.772c.188-.196.464-.276.736-.276.348 0 .64.252.7.596q.005.031.004.056c0 .16-.12.288-.268.288"/><text fill="currentColor" font-family="serif" font-size="2.47" transform="translate(12.418 104.051)">
<tspan>vermindert</tspan>
</text><path fill="currentColor" d="M14.972 65.027a.3.3 0 0 1-.3-.3c0-.152.108-.308.288-.308q.025-.001.056.004a.6.6 0 0 0-.48-.236c-.424 0-.452.292-.452.744v.408c0 .452.028.748.452.748.32 0 .556-.28.632-.604.008-.028.028-.04.048-.04.024 0 .052.016.052.048 0 .376-.42.696-.732.696-.272 0-.548-.084-.736-.28-.196-.204-.264-.488-.264-.772s.068-.568.264-.772c.188-.196.464-.276.736-.276.348 0 .64.252.7.596q.005.031.004.056c0 .16-.12.288-.268.288M10.4 68.675h-.024a.783.783 0 0 1-.78-.788c0-.232.212-.412.448-.412.216 0 .38.188.38.412 0 .208-.172.38-.38.38a.3.3 0 0 1-.124-.024c.104.156.272.26.468.26h.016zm.78-1.728a.71.71 0 0 0 .452-.656.764.764 0 0 0-.692-.76c.096.464.184.924.24 1.416m-1.548-.924c0 .54.516.988 1.056.988q.167 0 .328-.024c-.056-.508-.148-.98-.252-1.456-.316.032-.496.244-.496.476 0 .176.1.364.324.492q.029.03.028.06c0 .044-.04.088-.088.088q-.018-.001-.036-.008c-.32-.172-.468-.46-.468-.74 0-.352.232-.696.64-.788a15 15 0 0 0-.184-.7c-.428.484-.852.972-.852 1.612m1.044 1.16c-.752 0-1.332-.688-1.332-1.496 0-.708.524-1.224.992-1.764a4.5 4.5 0 0 1-.18-.76 5 5 0 0 1-.028-.624c0-.46.22-.896.596-1.168a.06.06 0 0 1 .08 0c.284.336.532.98.532 1.432 0 .572-.344 1.02-.72 1.456.084.272.156.552.224.828.016 0 .036-.004.052-.004.62 0 1.024.512 1.024 1.044 0 .304-.132.616-.428.84a.9.9 0 0 1-.292.144q.019.21.02.42c0 .076-.004.156-.008.232-.028.476-.352.9-.808.912l.004-.172c.372-.008.612-.368.636-.764a3.775 3.775 0 0 0-.008-.588c-.116.02-.232.032-.356.032m.372-4.712c0-.22-.016-.316-.08-.516a1.15 1.15 0 0 0-.648 1.036c0 .296.072.532.144.776.32-.388.584-.792.584-1.296M19.306 64.687c-.2 0-.276.172-.276.352 0 .308.228.544.536.544.2 0 .276-.172.276-.352a.53.53 0 0 0-.536-.544m1.112.448c0 .172-.136.3-.288.384-.212.116-.456.16-.696.16s-.48-.044-.692-.16c-.152-.084-.288-.212-.288-.384s.136-.3.288-.384c.212-.116.452-.16.692-.16s.484.044.696.16c.152.084.288.212.288.384M19.306 67.687c-.2 0-.276.172-.276.352 0 .308.228.544.536.544.2 0 .276-.172.276-.352a.53.53 0 0 0-.536-.544m1.112.448c0 .172-.136.3-.288.384-.212.116-.456.16-.696.16s-.48-.044-.692-.16c-.152-.084-.288-.212-.288-.384s.136-.3.288-.384c.212-.116.452-.16.692-.16s.484.044.696.16c.152.084.288.212.288.384"/><text fill="currentColor" font-family="serif" font-size="2.47" transform="translate(12.418 60.267)">
<tspan>vermindert</tspan>
</text><path fill="currentColor" d="M14.972 54.297a.3.3 0 0 1-.3-.3c0-.152.108-.308.288-.308q.025-.001.056.004a.6.6 0 0 0-.48-.236c-.424 0-.452.292-.452.744v.408c0 .452.028.748.452.748.32 0 .556-.28.632-.604.008-.028.028-.04.048-.04.024 0 .052.016.052.048 0 .376-.42.696-.732.696-.272 0-.548-.084-.736-.28-.196-.204-.264-.488-.264-.772s.068-.568.264-.772c.188-.196.464-.276.736-.276.348 0 .64.252.7.596q.005.031.004.056c0 .16-.12.288-.268.288M10.4 57.945h-.024a.783.783 0 0 1-.78-.788c0-.232.212-.412.448-.412.216 0 .38.188.38.412 0 .208-.172.38-.38.38a.3.3 0 0 1-.124-.024c.104.156.272.26.468.26h.016zm.78-1.728a.71.71 0 0 0 .452-.656.764.764 0 0 0-.692-.76c.096.464.184.924.24 1.416m-1.548-.924c0 .54.516.988 1.056.988q.167 0 .328-.024c-.056-.508-.148-.98-.252-1.456-.316.032-.496.244-.496.476 0 .176.1.364.324.492q.029.03.028.06c0 .044-.04.088-.088.088q-.018-.001-.036-.008c-.32-.172-.468-.46-.468-.74 0-.352.232-.696.64-.788a15 15 0 0 0-.184-.7c-.428.484-.852.972-.852 1.612m1.044 1.16c-.752 0-1.332-.688-1.332-1.496 0-.708.524-1.224.992-1.764a4.5 4.5 0 0 1-.18-.76 5 5 0 0 1-.028-.624c0-.46.22-.896.596-1.168a.06.06 0 0 1 .08 0c.284.336.532.98.532 1.432 0 .572-.344 1.02-.72 1.456.084.272.156.552.224.828.016 0 .036-.004.052-.004.62 0 1.024.512 1.024 1.044 0 .304-.132.616-.428.84a.9.9 0 0 1-.292.144q.019.21.02.42-.001.116-.008.232c-.028.476-.352.9-.808.912l.004-.172c.372-.008.612-.368.636-.764a3.775 3.775 0 0 0-.008-.588c-.116.02-.232.032-.356.032m.372-4.712c0-.22-.016-.316-.08-.516a1.15 1.15 0 0 0-.648 1.036c0 .296.072.532.144.776.32-.388.584-.792.584-1.296M19.306 54.457c-.2 0-.276.172-.276.352 0 .308.228.544.536.544.2 0 .276-.172.276-.352a.53.53 0 0 0-.536-.544m1.112.448c0 .172-.136.3-.288.384-.212.116-.456.16-.696.16s-.48-.044-.692-.16c-.152-.084-.288-.212-.288-.384s.136-.3.288-.384c.212-.116.452-.16.692-.16s.484.044.696.16c.152.084.288.212.288.384M19.306 56.957c-.2 0-.276.172-.276.352 0 .308.228.544.536.544.2 0 .276-.172.276-.352a.53.53 0 0 0-.536-.544m1.112.448c0 .172-.136.3-.288.384-.212.116-.456.16-.696.16s-.48-.044-.692-.16c-.152-.084-.288-.212-.288-.384s.136-.3.288-.384c.212-.116.452-.16.692-.16s.484.044.696.16c.152.084.288.212.288.384"/><text fill="currentColor" font-family="serif" font-size="2.47" transform="translate(12.418 49.905)">
<tspan>vermindert</tspan>
</text><path fill="currentColor" d="M14.972 43.934a.3.3 0 0 1-.3-.3c0-.152.108-.308.288-.308q.025-.001.056.004a.6.6 0 0 0-.48-.236c-.424 0-.452.292-.452.744v.408c0 .452.028.748.452.748.32 0 .556-.28.632-.604.008-.028.028-.04.048-.04.024 0 .052.016.052.048 0 .376-.42.696-.732.696-.272 0-.548-.084-.736-.28-.196-.204-.264-.488-.264-.772s.068-.568.264-.772c.188-.196.464-.276.736-.276.348 0 .64.252.7.596q.005.031.004.056c0 .16-.12.288-.268.288M10.4 47.582h-.024a.783.783 0 0 1-.78-.788c0-.232.212-.412.448-.412.216 0 .38.188.38.412 0 .208-.172.38-.38.38a.3.3 0 0 1-.124-.024c.104.156.272.26.468.26h.016zm.78-1.728a.71.71 0 0 0 .452-.656.764.764 0 0 0-.692-.76c.096.464.184.924.24 1.416m-1.548-.924c0 .54.516.988 1.056.988q.167 0 .328-.024c-.056-.508-.148-.98-.252-1.456-.316.032-.496.244-.496.476 0 .176.1.364.324.492q.029.03.028.06c0 .044-.04.088-.088.088q-.018-.001-.036-.008c-.32-.172-.468-.46-.468-.74 0-.352.232-.696.64-.788a15 15 0 0 0-.184-.7c-.428.484-.852.972-.852 1.612m1.044 1.16c-.752 0-1.332-.688-1.332-1.496 0-.708.524-1.224.992-1.764a4.5 4.5 0 0 1-.18-.76 5 5 0 0 1-.028-.624c0-.46.22-.896.596-1.168a.06.06 0 0 1 .08 0c.284.336.532.98.532 1.432 0 .572-.344 1.02-.72 1.456.084.272.156.552.224.828.016 0 .036-.004.052-.004.62 0 1.024.512 1.024 1.044 0 .304-.132.616-.428.84a.9.9 0 0 1-.292.144q.019.21.02.42c0 .076-.004.156-.008.232-.028.476-.352.9-.808.912l.004-.172c.372-.008.612-.368.636-.764a3.775 3.775 0 0 0-.008-.588c-.116.02-.232.032-.356.032m.372-4.712c0-.22-.016-.316-.08-.516a1.15 1.15 0 0 0-.648 1.036c0 .296.072.532.144.776.32-.388.584-.792.584-1.296M19.306 44.594c-.2 0-.276.172-.276.352 0 .308.228.544.536.544.2 0 .276-.172.276-.352a.53.53 0 0 0-.536-.544m1.112.448c0 .172-.136.3-.288.384-.212.116-.456.16-.696.16s-.48-.044-.692-.16c-.152-.084-.288-.212-.288-.384s.136-.3.288-.384c.212-.116.452-.16.692-.16s.484.044.696.16c.152.084.288.212.288.384M19.306 46.594c-.2 0-.276.172-.276.352 0 .308.228.544.536.544.2 0 .276-.172.276-.352a.53.53 0 0 0-.536-.544m1.112.448c0 .172-.136.3-.288.384-.212.116-.456.16-.696.16s-.48-.044-.692-.16c-.152-.084-.288-.212-.288-.384s.136-.3.288-.384c.212-.116.452-.16.692-.16s.484.044.696.16c.152.084.288.212.288.384"/><text fill="currentColor" font-family="serif" font-size="2.47" transform="translate(12.418 39.944)">
<tspan>vermindert</tspan>
</text><path fill="currentColor" d="m28.244 54.74-.004.265v.044q-.001.132.016.264c.18-.152.371-.32.371-.556 0-.132-.056-.268-.172-.268-.124 0-.208.12-.212.252m-.168.717-.048-2.38c.032-.02.072-.032.108-.032s.076.012.108.032l-.028 1.38a.58.58 0 0 1 .364-.136c.208 0 .356.192.356.408 0 .32-.344.468-.588.676-.06.052-.096.152-.18.152-.052 0-.092-.044-.092-.1"/><rect width=".13" height="5.741" x="-.065" y="-3" fill="currentColor" ry=".04" transform="translate(30.598 54.405)"/><rect width=".13" height="6.074" x="-.065" y="-3.333" fill="currentColor" ry=".04" transform="translate(30.598 65.135)"/><text fill="currentColor" font-family="serif" font-size="2.2" transform="translate(-1.828 55.07)">
<tspan>6 (Sexte)</tspan>
</text><path fill="currentColor" d="m17.416 96.525-.004.264c0 .016-.004.028-.004.044q-.001.132.016.264c.176-.148.348-.328.348-.556 0-.132-.044-.268-.16-.268-.12 0-.192.12-.196.252m-.004-1.664-.024 1.38a.54.54 0 0 1 .348-.136c.212 0 .368.188.368.404 0 .32-.344.472-.588.68-.06.052-.092.152-.176.152a.1.1 0 0 1-.096-.1l-.008-.424c-.108.136-.264.248-.392.372-.052.052-.076.152-.156.152-.052 0-.092-.048-.092-.104l-.048-2.376c.032-.02.072-.032.108-.032s.076.012.108.032l-.028 1.38a.37.37 0 0 1 .28-.136c.08 0 .152.032.208.084l-.028-1.328c.032-.02.072-.032.108-.032s.076.012.108.032m-.688 1.932v.04q-.001.136.016.272c.156-.152.284-.344.284-.564 0-.128-.024-.268-.132-.268s-.156.124-.16.248zM28.244 25.957l-.004.263v.044q-.001.132.016.264c.18-.152.371-.32.371-.556 0-.132-.056-.268-.172-.268-.124 0-.208.12-.212.252m-.168.715-.048-2.38c.032-.02.072-.032.108-.032s.076.012.108.032l-.028 1.38a.58.58 0 0 1 .364-.136c.208 0 .356.192.356.408 0 .32-.344.469-.588.677-.06.052-.096.152-.18.152-.052 0-.092-.044-.092-.1M28.244 85.295l-.004.263v.044q-.001.132.016.264c.18-.152.371-.32.371-.556 0-.132-.056-.268-.172-.268-.124 0-.208.12-.212.252m-.168.716-.048-2.38c.032-.02.072-.032.108-.032s.076.012.108.032l-.028 1.38a.58.58 0 0 1 .364-.136c.208 0 .356.192.356.408 0 .32-.344.468-.588.676-.06.052-.096.152-.18.152-.052 0-.092-.044-.092-.1"/><rect width=".13" height="7.074" x="-.065" y="-4.333" fill="currentColor" ry=".04" transform="translate(30.598 98.19)"/><text fill="currentColor" font-family="serif" font-size="2.2" transform="translate(-3.126 44.702)">
<tspan>5 (Quinte)</tspan>
</text><path fill="currentColor" d="m28.244 96.525-.004.264v.044q-.001.132.016.264c.18-.152.371-.32.371-.556 0-.132-.056-.268-.172-.268-.124 0-.208.12-.212.252m-.168.716-.048-2.38c.032-.02.072-.032.108-.032s.076.012.108.032l-.028 1.38a.58.58 0 0 1 .364-.136c.208 0 .356.192.356.408 0 .32-.344.468-.588.676-.06.052-.096.152-.18.152-.052 0-.092-.044-.092-.1"/><rect width=".13" height="6.741" x="-.065" y="-4" fill="currentColor" ry=".04" transform="translate(30.598 86.459)"/><path fill="currentColor" d="m28.244 64.971-.004.264v.044q-.001.132.016.264c.18-.152.371-.32.371-.556 0-.132-.056-.268-.172-.268-.124 0-.208.12-.212.252m-.168.716-.048-2.38c.032-.02.072-.032.108-.032s.076.012.108.032l-.028 1.38a.58.58 0 0 1 .364-.136c.208 0 .356.192.356.408 0 .32-.344.468-.588.676-.06.052-.096.152-.18.152-.052 0-.092-.044-.092-.1M30.542 67.875a.17.17 0 0 0-.169-.164q-.024-.001-.048.004c-.123.036-.311.16-.46.256s-.335.212-.415.312a.168.168 0 0 0 .128.276q.024.001.048-.004c.123-.036.307-.16.455-.256s.336-.212.416-.312a.17.17 0 0 0 .044-.112m-.209-.284c.185 0 .329.084.329.284a.7.7 0 0 1-.04.228.7.7 0 0 1-.256.376c-.212.144-.452.2-.748.2-.184 0-.332-.084-.332-.284 0-.076.02-.156.043-.228a.7.7 0 0 1 .252-.376c.212-.144.456-.2.752-.2M30.138 35.134c-.2 0-.277.171-.277.351 0 .308.228.544.536.544.2 0 .277-.172.277-.352a.53.53 0 0 0-.536-.544m1.111.447c0 .172-.136.3-.288.384-.212.116-.456.16-.696.16s-.48-.044-.692-.16c-.152-.084-.288-.212-.288-.384s.136-.3.288-.384c.212-.116.452-.16.692-.16s.484.045.696.16c.152.084.288.212.288.384"/><text fill="currentColor" font-family="serif" font-size="2.47" transform="translate(27.74 39.944)">
<tspan>rein</tspan>
</text><path fill="currentColor" d="M30.138 46.594c-.2 0-.277.172-.277.352 0 .308.228.544.536.544.2 0 .277-.172.277-.352a.53.53 0 0 0-.536-.544m1.111.448c0 .172-.136.3-.288.384-.212.116-.456.16-.696.16s-.48-.044-.692-.16c-.152-.084-.288-.212-.288-.384s.136-.3.288-.384c.212-.116.452-.16.692-.16s.484.044.696.16c.152.084.288.212.288.384M30.138 44.594c-.2 0-.277.172-.277.352 0 .308.228.544.536.544.2 0 .277-.172.277-.352a.53.53 0 0 0-.536-.544m1.111.448c0 .172-.136.3-.288.384-.212.116-.456.16-.696.16s-.48-.044-.692-.16c-.152-.084-.288-.212-.288-.384s.136-.3.288-.384c.212-.116.452-.16.692-.16s.484.044.696.16c.152.084.288.212.288.384"/><text fill="currentColor" font-family="serif" font-size="2.47" transform="translate(27.74 49.905)">
<tspan>rein</tspan>
</text><path fill="currentColor" d="M30.542 57.145a.17.17 0 0 0-.169-.164q-.024-.001-.048.004c-.123.036-.311.16-.46.256s-.335.212-.415.312a.168.168 0 0 0 .128.276q.024.001.048-.004c.123-.036.307-.16.455-.256s.336-.212.416-.312a.17.17 0 0 0 .044-.112m-.209-.284c.185 0 .329.084.329.284a.7.7 0 0 1-.04.228.7.7 0 0 1-.256.376c-.212.144-.452.2-.748.2-.184 0-.332-.084-.332-.284 0-.076.02-.156.043-.228a.7.7 0 0 1 .252-.376c.212-.144.456-.2.752-.2M30.542 54.645a.17.17 0 0 0-.169-.164q-.024-.001-.048.004c-.123.036-.311.16-.46.256s-.335.212-.415.312a.168.168 0 0 0 .128.276q.024.001.048-.004c.123-.036.307-.16.455-.256s.336-.212.416-.312a.17.17 0 0 0 .044-.112m-.209-.284c.185 0 .329.084.329.284a.7.7 0 0 1-.04.228.7.7 0 0 1-.256.376c-.212.144-.452.2-.748.2-.184 0-.332-.084-.332-.284 0-.076.02-.156.043-.228a.7.7 0 0 1 .252-.376c.212-.144.456-.2.752-.2"/><text fill="currentColor" font-family="serif" font-size="2.47" transform="translate(26.901 60.267)">
<tspan>klein</tspan>
</text><path fill="currentColor" d="M30.138 36.634c-.2 0-.277.171-.277.351 0 .308.228.544.536.544.2 0 .277-.172.277-.352a.53.53 0 0 0-.536-.544m1.111.447c0 .172-.136.3-.288.384-.212.116-.456.16-.696.16s-.48-.044-.692-.16c-.152-.084-.288-.212-.288-.384s.136-.3.288-.384c.212-.116.452-.16.692-.16s.484.045.696.16c.152.084.288.212.288.384M30.542 64.875a.17.17 0 0 0-.169-.164q-.024-.001-.048.004c-.123.036-.311.16-.46.256s-.335.212-.415.312a.168.168 0 0 0 .128.276q.024.001.048-.004c.123-.036.307-.16.455-.256s.336-.212.416-.312a.17.17 0 0 0 .044-.112m-.209-.284c.185 0 .329.084.329.284a.7.7 0 0 1-.04.228.7.7 0 0 1-.256.376c-.212.144-.452.2-.748.2-.184 0-.332-.084-.332-.284 0-.076.02-.156.043-.228a.7.7 0 0 1 .252-.376c.212-.144.456-.2.752-.2"/><text fill="currentColor" font-family="serif" font-size="2.47" transform="translate(26.901 70.998)">
<tspan>klein</tspan>
</text><path fill="currentColor" d="M30.138 77.648c-.2 0-.277.172-.277.352 0 .308.228.544.536.544.2 0 .277-.172.277-.352a.53.53 0 0 0-.536-.544m1.111.448c0 .172-.136.3-.288.384-.212.116-.456.16-.696.16s-.48-.044-.692-.16c-.152-.084-.288-.212-.288-.384s.136-.3.288-.384c.212-.116.452-.16.692-.16s.484.044.696.16c.152.084.288.212.288.384M30.138 74.148c-.2 0-.277.172-.277.352 0 .308.228.544.536.544.2 0 .277-.172.277-.352a.53.53 0 0 0-.536-.544m1.111.448c0 .172-.136.3-.288.384-.212.116-.456.16-.696.16s-.48-.044-.692-.16c-.152-.084-.288-.212-.288-.384s.136-.3.288-.384c.212-.116.452-.16.692-.16s.484.044.696.16c.152.084.288.212.288.384M30.542 89.199a.17.17 0 0 0-.169-.165q-.024-.001-.048.004c-.123.037-.311.16-.46.257s-.335.211-.415.311a.168.168 0 0 0 .128.276q.024 0 .048-.003c.123-.037.307-.16.455-.257s.336-.212.416-.312a.17.17 0 0 0 .044-.112m-.209-.284c.185 0 .329.083.329.283a.7.7 0 0 1-.04.229.7.7 0 0 1-.256.375c-.212.145-.452.2-.748.2-.184 0-.332-.083-.332-.283 0-.076.02-.156.043-.228a.7.7 0 0 1 .252-.376c.212-.144.456-.2.752-.2M30.542 85.199a.17.17 0 0 0-.169-.165q-.024-.001-.048.004c-.123.037-.311.16-.46.257s-.335.211-.415.311a.168.168 0 0 0 .128.276q.024 0 .048-.003c.123-.037.307-.16.455-.257s.336-.212.416-.312a.17.17 0 0 0 .044-.112m-.209-.284c.185 0 .329.083.329.283a.7.7 0 0 1-.04.229.7.7 0 0 1-.256.375c-.212.145-.452.2-.748.2-.184 0-.332-.083-.332-.283 0-.076.02-.156.043-.228a.7.7 0 0 1 .252-.376c.212-.144.456-.2.752-.2"/><text fill="currentColor" font-family="serif" font-size="2.47" transform="translate(27.74 80.959)">
<tspan>rein</tspan>
</text><text fill="currentColor" font-family="serif" font-size="2.47" transform="translate(26.901 29.983)">
<tspan>klein</tspan>
</text><path fill="currentColor" d="M30.542 25.86a.17.17 0 0 0-.169-.164q-.024-.001-.048.004c-.123.036-.311.16-.46.256s-.335.212-.415.312a.168.168 0 0 0 .128.276q.024.001.048-.004c.123-.036.307-.16.455-.256s.336-.212.416-.312a.17.17 0 0 0 .044-.112m-.209-.284c.185 0 .329.084.329.284a.7.7 0 0 1-.04.228.7.7 0 0 1-.256.376c-.212.145-.452.2-.748.2-.184 0-.332-.084-.332-.284 0-.075.02-.155.043-.227a.7.7 0 0 1 .252-.376c.212-.145.456-.2.752-.2"/><path fill="currentColor" d="M30.542 26.86a.17.17 0 0 0-.169-.164q-.024-.001-.048.004c-.123.036-.311.16-.46.256s-.335.212-.415.312a.168.168 0 0 0 .128.276q.024.001.048-.004c.123-.036.307-.16.455-.256s.336-.212.416-.312a.17.17 0 0 0 .044-.112m-.209-.284c.185 0 .329.084.329.284a.7.7 0 0 1-.04.228.7.7 0 0 1-.256.376c-.212.145-.452.2-.748.2-.184 0-.332-.084-.332-.284 0-.075.02-.155.043-.227a.7.7 0 0 1 .252-.376c.212-.145.456-.2.752-.2"/><text fill="currentColor" font-family="serif" font-size="2.47" transform="translate(26.901 20.022)">
<tspan>klein</tspan>
</text><path fill="currentColor" d="M31.854 16.4a.17.17 0 0 0-.168-.164q-.024 0-.048.003c-.124.036-.312.16-.46.256s-.336.212-.416.312a.168.168 0 0 0 .128.276q.024.001.048-.004c.124-.036.308-.16.456-.256s.336-.212.416-.312a.17.17 0 0 0 .044-.112m-.208-.284c.184 0 .328.084.328.284a.7.7 0 0 1-.04.228.7.7 0 0 1-.256.376c-.212.144-.452.2-.748.2-.184 0-.332-.084-.332-.284 0-.076.02-.156.044-.228a.7.7 0 0 1 .252-.376c.212-.144.456-.2.752-.2"/><path fill="currentColor" d="M30.542 16.9a.17.17 0 0 0-.169-.164q-.024 0-.048.003c-.123.036-.311.16-.46.256s-.335.212-.415.312a.168.168 0 0 0 .128.276q.024.001.048-.004c.123-.036.307-.16.455-.256s.336-.212.416-.312a.17.17 0 0 0 .044-.112m-.209-.284c.185 0 .329.084.329.284a.7.7 0 0 1-.04.228.7.7 0 0 1-.256.376c-.212.144-.452.2-.748.2-.184 0-.332-.084-.332-.284 0-.076.02-.156.043-.228a.7.7 0 0 1 .252-.376c.212-.144.456-.2.752-.2"/><text fill="currentColor" font-family="serif" font-size="2.47" transform="translate(27.74 10.06)">
<tspan>rein</tspan>
</text><path fill="currentColor" d="M31.84 6.331c-.2 0-.276.172-.276.352 0 .308.228.544.536.544.2 0 .275-.172.275-.352a.53.53 0 0 0-.535-.544m1.112.448c0 .172-.136.3-.288.384-.212.116-.456.16-.696.16s-.48-.044-.692-.16c-.152-.084-.288-.212-.288-.384s.136-.3.288-.384c.212-.116.452-.16.692-.16s.484.044.696.16c.152.084.288.212.288.384"/><path fill="currentColor" d="M30.138 6.331c-.2 0-.277.172-.277.352 0 .308.228.544.536.544.2 0 .277-.172.277-.352a.53.53 0 0 0-.536-.544m1.111.448c0 .172-.136.3-.288.384-.212.116-.456.16-.696.16s-.48-.044-.692-.16c-.152-.084-.288-.212-.288-.384s.136-.3.288-.384c.212-.116.452-.16.692-.16s.484.044.696.16c.152.084.288.212.288.384"/><rect width=".13" height="4.241" x="-.065" y="-1.5" fill="currentColor" ry=".04" transform="translate(30.598 24.12)"/><path fill="currentColor" d="m28.275 16.496-.004.264v.043q-.002.132.015.264c.18-.152.372-.32.372-.556 0-.132-.056-.268-.172-.268-.124 0-.208.12-.212.252m-.168.716-.048-2.38c.032-.02.072-.032.108-.032s.076.012.108.032l-.028 1.38a.58.58 0 0 1 .364-.136c.208 0 .356.192.356.408 0 .32-.344.468-.588.676-.06.052-.096.152-.18.152-.052 0-.092-.044-.092-.1"/><text fill="currentColor" font-family="serif" font-size="2.47" transform="translate(26.901 92.32)">
<tspan>klein</tspan>
</text><path fill="currentColor" d="M30.542 100.93a.17.17 0 0 0-.169-.165q-.024-.001-.048.004c-.123.036-.311.16-.46.256s-.335.212-.415.312a.168.168 0 0 0 .128.276q.024.001.048-.004c.123-.036.307-.16.455-.256s.336-.212.416-.312a.17.17 0 0 0 .044-.112m-.209-.285c.185 0 .329.084.329.284a.7.7 0 0 1-.04.228.7.7 0 0 1-.256.376c-.212.144-.452.2-.748.2-.184 0-.332-.084-.332-.284 0-.076.02-.156.043-.228a.7.7 0 0 1 .252-.376c.212-.144.456-.2.752-.2M30.542 96.43a.17.17 0 0 0-.169-.165q-.024-.001-.048.004c-.123.036-.311.16-.46.256s-.335.212-.415.312a.168.168 0 0 0 .128.276q.024.001.048-.004c.123-.036.307-.16.455-.256s.336-.212.416-.312a.17.17 0 0 0 .044-.112m-.209-.285c.185 0 .329.084.329.284a.7.7 0 0 1-.04.228.7.7 0 0 1-.256.376c-.212.144-.452.2-.748.2-.184 0-.332-.084-.332-.284 0-.076.02-.156.043-.228a.7.7 0 0 1 .252-.376c.212-.144.456-.2.752-.2"/><text fill="currentColor" font-family="serif" font-size="2.47" transform="translate(26.901 104.051)">
<tspan>klein</tspan>
</text><rect width=".13" height="3.741" x="-.065" y="-1" fill="currentColor" ry=".04" transform="translate(30.598 14.16)"/></svg>