<svg xmlns="http://www.w3.org/2000/svg" width="643.2" height="709.569" viewBox="-5.345 -0.021 96.843 106.837"><style>tspan{white-space:pre}</style><rect width=".19" height="4" y="-2" fill="currentColor" ry="0" transform="translate(39.92 35.28)"/><rect width=".19" height="4" y="-2" fill="currentColor" ry="0" transform="translate(74.912 14.77)"/><rect width=".19" height="4" y="-2" fill="currentColor" ry="0" transform="translate(74.912 3.779)"/><rect width=".19" height="4" y="-2" fill="currentColor" ry="0" transform="translate(39.92 100.346)"/><rect width=".19" height="4" y="-2" fill="currentColor" ry="0" transform="translate(39.92 88.591)"/><rect width=".19" height="4" y="-2" fill="currentColor" ry="0" transform="translate(39.92 77.17)"/><rect width=".19" height="4" y="-2" fill="currentColor" ry="0" transform="translate(39.92 67.15)"/><rect width=".19" height="4" y="-2" fill="currentColor" ry="0" transform="translate(39.92 56.01)"/><rect width=".19" height="4" y="-2" fill="currentColor" ry="0" transform="translate(39.92 45.3)"/><rect width=".19" height="4" y="-2" fill="currentColor" ry="0" transform="translate(74.912 25.26)"/><rect width=".19" height="4" y="-2" fill="currentColor" ry="0" transform="translate(39.92 25.26)"/><rect width=".19" height="4" y="-2" fill="currentColor" ry="0" transform="translate(39.92 14.77)"/><rect width=".19" height="4" y="-2" fill="currentColor" ry="0" transform="translate(39.92 3.779)"/><path stroke="currentColor" stroke-linecap="round" stroke-linejoin="round" stroke-width=".1" d="M8.586 102.346h82.862M8.586 101.346h82.862M8.586 100.346h82.862M8.586 99.346h82.862M8.586 98.346h82.862"/><rect width="2.943" height=".2" x="78.383" y="-.1" fill="currentColor" ry=".1" transform="translate(0 103.346)"/><rect width="2.066" height=".2" x="58.961" y="-.1" fill="currentColor" ry=".1" transform="translate(0 103.346)"/><rect width="2.066" height=".2" x="42.857" y="-.1" fill="currentColor" ry=".1" transform="translate(0 103.346)"/><rect width="2.943" height=".2" x="22.25" y="-.1" fill="currentColor" ry=".1" transform="translate(0 103.346)"/><path stroke="currentColor" stroke-linecap="round" stroke-linejoin="round" stroke-width=".1" d="M8.586 90.591h82.862M8.586 89.591h82.862M8.586 88.591h82.862M8.586 87.591h82.862M8.586 86.591h82.862"/><rect width="2.943" height=".2" x="78.383" y="-.1" fill="currentColor" ry=".1" transform="translate(0 91.591)"/><rect width="2.066" height=".2" x="58.961" y="-.1" fill="currentColor" ry=".1" transform="translate(0 91.591)"/><rect width="2.066" height=".2" x="42.857" y="-.1" fill="currentColor" ry=".1" transform="translate(0 91.591)"/><rect width="2.943" height=".2" x="22.25" y="-.1" fill="currentColor" ry=".1" transform="translate(0 91.591)"/><path stroke="currentColor" stroke-linecap="round" stroke-linejoin="round" stroke-width=".1" d="M8.586 79.17h82.862M8.586 78.17h82.862M8.586 77.17h82.862M8.586 76.17h82.862M8.586 75.17h82.862"/><rect width=".19" height="4" y="-2" fill="currentColor" ry="0" transform="translate(91.308 14.77)"/><rect width=".19" height="4" y="-2" fill="currentColor" ry="0" transform="translate(91.308 100.346)"/><rect width=".19" height="4" y="-2" fill="currentColor" ry="0" transform="translate(91.308 88.591)"/><rect width=".19" height="4" y="-2" fill="currentColor" ry="0" transform="translate(91.308 77.17)"/><rect width=".19" height="4" y="-2" fill="currentColor" ry="0" transform="translate(91.308 67.15)"/><rect width=".19" height="4" y="-2" fill="currentColor" ry="0" transform="translate(91.308 56.01)"/><rect width=".19" height="4" y="-2" fill="currentColor" ry="0" transform="translate(91.308 45.3)"/><rect width=".19" height="4" y="-2" fill="currentColor" ry="0" transform="translate(91.308 35.28)"/><rect width=".19" height="4" y="-2" fill="currentColor" ry="0" transform="translate(91.308 25.26)"/><path stroke="currentColor" stroke-linecap="round" stroke-linejoin="round" stroke-width=".1" d="M8.586 5.779h82.862M8.586 4.779h82.862M8.586 3.779h82.862M8.586 2.779h82.862M8.586 1.779h82.862"/><rect width=".19" height="4" y="-2" fill="currentColor" ry="0" transform="translate(91.308 3.779)"/><rect width=".19" height="4" y="-2" fill="currentColor" ry="0" transform="translate(74.912 100.346)"/><rect width=".19" height="4" y="-2" fill="currentColor" ry="0" transform="translate(74.912 88.591)"/><rect width=".19" height="4" y="-2" fill="currentColor" ry="0" transform="translate(74.912 77.17)"/><rect width=".19" height="4" y="-2" fill="currentColor" ry="0" transform="translate(74.912 67.15)"/><rect width=".19" height="4" y="-2" fill="currentColor" ry="0" transform="translate(74.912 56.01)"/><rect width=".19" height="4" y="-2" fill="currentColor" ry="0" transform="translate(74.912 45.3)"/><rect width=".19" height="4" y="-2" fill="currentColor" ry="0" transform="translate(74.912 35.28)"/><rect width="2.943" height=".2" x="78.383" y="-.1" fill="currentColor" ry=".1" transform="translate(0 59.01)"/><rect width="2.066" height=".2" x="58.961" y="-.1" fill="currentColor" ry=".1" transform="translate(0 59.01)"/><rect width="2.066" height=".2" x="42.857" y="-.1" fill="currentColor" ry=".1" transform="translate(0 59.01)"/><rect width="2.943" height=".2" x="22.25" y="-.1" fill="currentColor" ry=".1" transform="translate(0 59.01)"/><rect width="2.943" height=".2" x="78.383" y="-.1" fill="currentColor" ry=".1" transform="translate(0 80.17)"/><rect width="2.943" height=".2" x="42.711" y="-.1" fill="currentColor" ry=".1" transform="translate(0 80.17)"/><rect width="2.943" height=".2" x="22.25" y="-.1" fill="currentColor" ry=".1" transform="translate(0 80.17)"/><rect width="2.943" height=".2" x="78.383" y="-.1" fill="currentColor" ry=".1" transform="translate(0 28.26)"/><rect width="2.066" height=".2" x="58.961" y="-.1" fill="currentColor" ry=".1" transform="translate(0 28.26)"/><rect width="2.066" height=".2" x="42.857" y="-.1" fill="currentColor" ry=".1" transform="translate(0 28.26)"/><rect width="2.943" height=".2" x="22.25" y="-.1" fill="currentColor" ry=".1" transform="translate(0 28.26)"/><rect width="2.943" height=".2" x="78.383" y="-.1" fill="currentColor" ry=".1" transform="translate(0 48.3)"/><rect width="2.943" height=".2" x="42.711" y="-.1" fill="currentColor" ry=".1" transform="translate(0 48.3)"/><rect width="2.943" height=".2" x="22.25" y="-.1" fill="currentColor" ry=".1" transform="translate(0 48.3)"/><path stroke="currentColor" stroke-linecap="round" stroke-linejoin="round" stroke-width=".1" d="M8.586 16.77h82.862M8.586 15.77h82.862M8.586 14.77h82.862M8.586 13.77h82.862M8.586 12.77h82.862M8.586 37.28h82.862M8.586 36.28h82.862M8.586 35.28h82.862M8.586 34.28h82.862M8.586 33.28h82.862"/><rect width="4.645" height=".2" x="78.383" y="-.1" fill="currentColor" ry=".1" transform="translate(0 6.779)"/><rect width="4.645" height=".2" x="42.711" y="-.1" fill="currentColor" ry=".1" transform="translate(0 6.779)"/><rect width="4.645" height=".2" x="22.25" y="-.1" fill="currentColor" ry=".1" transform="translate(0 6.779)"/><rect width="2.943" height=".2" x="78.383" y="-.1" fill="currentColor" ry=".1" transform="translate(0 17.77)"/><rect width="2.066" height=".2" x="58.961" y="-.1" fill="currentColor" ry=".1" transform="translate(0 17.77)"/><rect width="2.066" height=".2" x="42.857" y="-.1" fill="currentColor" ry=".1" transform="translate(0 17.77)"/><rect width="2.943" height=".2" x="22.25" y="-.1" fill="currentColor" ry=".1" transform="translate(0 17.77)"/><path stroke="currentColor" stroke-linecap="round" stroke-linejoin="round" stroke-width=".1" d="M8.586 27.26h82.862M8.586 26.26h82.862M8.586 25.26h82.862M8.586 24.26h82.862M8.586 23.26h82.862M8.586 69.15h82.862M8.586 68.15h82.862M8.586 67.15h82.862M8.586 66.15h82.862M8.586 65.15h82.862M8.586 47.3h82.862M8.586 46.3h82.862M8.586 45.3h82.862M8.586 44.3h82.862M8.586 43.3h82.862M8.586 58.01h82.862M8.586 57.01h82.862M8.586 56.01h82.862M8.586 55.01h82.862M8.586 54.01h82.862"/><rect width="2.943" height=".2" x="78.383" y="-.1" fill="currentColor" ry=".1" transform="translate(0 70.15)"/><rect width="2.066" height=".2" x="58.961" y="-.1" fill="currentColor" ry=".1" transform="translate(0 70.15)"/><rect width="2.066" height=".2" x="42.857" y="-.1" fill="currentColor" ry=".1" transform="translate(0 70.15)"/><rect width="2.943" height=".2" x="22.25" y="-.1" fill="currentColor" ry=".1" transform="translate(0 70.15)"/><rect width="2.943" height=".2" x="78.383" y="-.1" fill="currentColor" ry=".1" transform="translate(0 38.28)"/><rect width="2.943" height=".2" x="42.711" y="-.1" fill="currentColor" ry=".1" transform="translate(0 38.28)"/><rect width="2.943" height=".2" x="22.25" y="-.1" fill="currentColor" ry=".1" transform="translate(0 38.28)"/><path fill="currentColor" d="M79.726 102.898c-.2 0-.276.172-.276.352 0 .308.228.544.536.544.2 0 .276-.172.276-.352a.53.53 0 0 0-.536-.544m1.112.448c0 .172-.136.3-.288.384-.212.116-.456.16-.696.16s-.48-.044-.692-.16c-.152-.084-.288-.212-.288-.384s.136-.3.288-.384c.212-.116.452-.16.692-.16s.484.044.696.16c.152.084.288.212.288.384M79.726 98.398c-.2 0-.276.172-.276.352 0 .308.228.544.536.544.2 0 .276-.172.276-.352a.53.53 0 0 0-.536-.544m1.112.448c0 .172-.136.3-.288.384-.212.116-.456.16-.696.16s-.48-.044-.692-.16c-.152-.084-.288-.212-.288-.384s.136-.3.288-.384c.212-.116.452-.16.692-.16s.484.044.696.16c.152.084.288.212.288.384"/><text fill="currentColor" font-family="serif" font-size="2.47" transform="translate(68.212 94.513)">
<tspan>übermäßig (15HT)</tspan>
</text><text fill="currentColor" font-family="serif" font-size="2.47" transform="translate(68.212 106.267)">
<tspan>übermäßig (17HT)</tspan>
</text><path fill="currentColor" d="M79.726 36.333c-.2 0-.276.172-.276.352 0 .307.228.543.536.543.2 0 .276-.172.276-.352a.53.53 0 0 0-.536-.543m1.112.448c0 .172-.136.3-.288.384-.212.116-.456.16-.696.16s-.48-.045-.692-.16c-.152-.084-.288-.212-.288-.384s.136-.3.288-.384c.212-.116.452-.16.692-.16s.484.044.696.16c.152.084.288.212.288.384M79.726 87.143c-.2 0-.276.172-.276.352 0 .308.228.544.536.544.2 0 .276-.172.276-.352a.53.53 0 0 0-.536-.544m1.112.448c0 .172-.136.3-.288.384-.212.116-.456.16-.696.16s-.48-.044-.692-.16c-.152-.084-.288-.212-.288-.384s.136-.3.288-.384c.212-.116.452-.16.692-.16s.484.044.696.16c.152.084.288.212.288.384M79.726 91.143c-.2 0-.276.172-.276.352 0 .308.228.544.536.544.2 0 .276-.172.276-.352a.53.53 0 0 0-.536-.544m1.112.448c0 .172-.136.3-.288.384-.212.116-.456.16-.696.16s-.48-.044-.692-.16c-.152-.084-.288-.212-.288-.384s.136-.3.288-.384c.212-.116.452-.16.692-.16s.484.044.696.16c.152.084.288.212.288.384"/><text fill="currentColor" font-family="serif" font-size="2.47" transform="translate(68.212 83.091)">
<tspan>übermäßig (13HT)</tspan>
</text><path fill="currentColor" d="M79.726 76.222c-.2 0-.276.172-.276.352 0 .308.228.544.536.544.2 0 .276-.172.276-.352a.53.53 0 0 0-.536-.544m1.112.448c0 .172-.136.3-.288.384-.212.116-.456.16-.696.16s-.48-.044-.692-.16c-.152-.084-.288-.212-.288-.384s.136-.3.288-.384c.212-.116.452-.16.692-.16s.484.044.696.16c.152.084.288.212.288.384M79.726 79.722c-.2 0-.276.172-.276.352 0 .308.228.544.536.544.2 0 .276-.172.276-.352a.53.53 0 0 0-.536-.544m1.112.448c0 .172-.136.3-.288.384-.212.116-.456.16-.696.16s-.48-.044-.692-.16c-.152-.084-.288-.212-.288-.384s.136-.3.288-.384c.212-.116.452-.16.692-.16s.484.044.696.16c.152.084.288.212.288.384"/><text fill="currentColor" font-family="serif" font-size="2.47" transform="translate(68.212 73.071)">
<tspan>übermäßig (12HT)</tspan>
</text><path fill="currentColor" d="M79.726 66.702c-.2 0-.276.172-.276.352 0 .308.228.544.536.544.2 0 .276-.172.276-.352a.53.53 0 0 0-.536-.544m1.112.448c0 .172-.136.3-.288.384-.212.116-.456.16-.696.16s-.48-.044-.692-.16c-.152-.084-.288-.212-.288-.384s.136-.3.288-.384c.212-.116.452-.16.692-.16s.484.044.696.16c.152.084.288.212.288.384M79.726 69.702c-.2 0-.276.172-.276.352 0 .308.228.544.536.544.2 0 .276-.172.276-.352a.53.53 0 0 0-.536-.544m1.112.448c0 .172-.136.3-.288.384-.212.116-.456.16-.696.16s-.48-.044-.692-.16c-.152-.084-.288-.212-.288-.384s.136-.3.288-.384c.212-.116.452-.16.692-.16s.484.044.696.16c.152.084.288.212.288.384"/><text fill="currentColor" font-family="serif" font-size="2.47" transform="translate(68.212 61.932)">
<tspan>übermäßig (10HT)</tspan>
</text><path fill="currentColor" d="M79.726 56.063c-.2 0-.276.172-.276.352 0 .308.228.544.536.544.2 0 .276-.172.276-.352a.53.53 0 0 0-.536-.544m1.112.448c0 .172-.136.3-.288.384-.212.116-.456.16-.696.16s-.48-.044-.692-.16c-.152-.084-.288-.212-.288-.384s.136-.3.288-.384c.212-.116.452-.16.692-.16s.484.044.696.16c.152.084.288.212.288.384M79.726 58.563c-.2 0-.276.172-.276.352 0 .308.228.544.536.544.2 0 .276-.172.276-.352a.53.53 0 0 0-.536-.544m1.112.448c0 .172-.136.3-.288.384-.212.116-.456.16-.696.16s-.48-.044-.692-.16c-.152-.084-.288-.212-.288-.384s.136-.3.288-.384c.212-.116.452-.16.692-.16s.484.044.696.16c.152.084.288.212.288.384"/><text fill="currentColor" font-family="serif" font-size="2.47" transform="translate(68.997 51.222)">
<tspan>übermäßig (8HT)</tspan>
</text><path fill="currentColor" d="M79.726 45.853c-.2 0-.276.171-.276.351 0 .308.228.544.536.544.2 0 .276-.172.276-.352a.53.53 0 0 0-.536-.544m1.112.447c0 .173-.136.3-.288.385-.212.115-.456.16-.696.16s-.48-.045-.692-.16c-.152-.085-.288-.213-.288-.385s.136-.3.288-.383c.212-.117.452-.16.692-.16s.484.044.696.16c.152.083.288.211.288.383M79.726 47.853c-.2 0-.276.171-.276.351 0 .308.228.544.536.544.2 0 .276-.172.276-.352a.53.53 0 0 0-.536-.544m1.112.447c0 .173-.136.3-.288.385-.212.115-.456.16-.696.16s-.48-.045-.692-.16c-.152-.085-.288-.213-.288-.385s.136-.3.288-.383c.212-.117.452-.16.692-.16s.484.044.696.16c.152.083.288.211.288.383"/><text fill="currentColor" font-family="serif" font-size="2.47" transform="translate(68.997 41.202)">
<tspan>übermäßig (6HT)</tspan>
</text><text fill="currentColor" font-family="serif" font-size="2.47" transform="translate(68.997 21.162)">
<tspan>übermäßig (3HT)</tspan>
</text><path fill="currentColor" d="M78.288 28.508c0 .04-.032.076-.072.076s-.076-.036-.076-.076v-.58l-.332.124v.632c0 .04-.036.076-.076.076s-.072-.036-.072-.076v-.58l-.128.048c-.008.004-.02.004-.028.004a.08.08 0 0 1-.08-.08v-.24c0-.032.02-.064.052-.076l.184-.064v-.64l-.128.044c-.008.004-.02.004-.028.004a.08.08 0 0 1-.08-.08v-.24c0-.032.02-.06.052-.072l.184-.068v-.632c0-.04.032-.076.072-.076s.076.036.076.076v.58l.332-.124v-.632c0-.04.036-.076.076-.076s.072.036.072.076v.58l.128-.048c.008-.004.02-.004.028-.004a.08.08 0 0 1 .08.08v.24c0 .032-.02.064-.052.076l-.184.064v.64l.128-.044c.008-.004.02-.004.028-.004a.08.08 0 0 1 .08.08v.24c0 .032-.02.06-.052.072l-.184.068zM77.808 27v.64l.332-.12v-.64z"/><text fill="currentColor" font-family="serif" font-size="2.2" transform="translate(-3.365 35.94)">
<tspan>4 (Quarte)</tspan>
</text><path fill="currentColor" d="M78.288 38.029c0 .04-.032.075-.072.075s-.076-.035-.076-.075v-.58l-.332.124v.632c0 .04-.036.076-.076.076s-.072-.036-.072-.076v-.58l-.128.048c-.008.004-.02.004-.028.004a.08.08 0 0 1-.08-.08v-.24c0-.032.02-.064.052-.076l.184-.064v-.64l-.128.044c-.008.003-.02.003-.028.003a.08.08 0 0 1-.08-.08v-.24c0-.032.02-.06.052-.072l.184-.068v-.632c0-.04.032-.075.072-.075s.076.035.076.075v.58l.332-.124v-.632c0-.04.036-.076.076-.076s.072.036.072.076v.58l.128-.048c.008-.004.02-.004.028-.004a.08.08 0 0 1 .08.08v.24c0 .032-.02.064-.052.076l-.184.064v.64l.128-.044c.008-.003.02-.003.028-.003a.08.08 0 0 1 .08.08v.24c0 .032-.02.06-.052.072l-.184.068zm-.48-1.508v.64l.332-.12v-.64zM78.288 8.027c0 .04-.032.076-.072.076s-.076-.036-.076-.076v-.58l-.332.124v.632c0 .04-.036.076-.076.076s-.072-.036-.072-.076v-.58l-.128.048c-.008.004-.02.004-.028.004a.08.08 0 0 1-.08-.08v-.24c0-.032.02-.064.052-.076l.184-.064v-.64l-.128.044c-.008.004-.02.004-.028.004a.08.08 0 0 1-.08-.08v-.24c0-.032.02-.06.052-.072l.184-.068v-.632c0-.04.032-.076.072-.076s.076.036.076.076v.58l.332-.124v-.632c0-.04.036-.076.076-.076s.072.036.072.076v.58l.128-.048c.008-.004.02-.004.028-.004a.08.08 0 0 1 .08.08v.24c0 .032-.02.064-.052.076l-.184.064v.64l.128-.044c.008-.004.02-.004.028-.004a.08.08 0 0 1 .08.08v.24c0 .032-.02.06-.052.072l-.184.068zm-.48-1.508v.64l.332-.12v-.64zM78.288 18.518c0 .04-.032.076-.072.076s-.076-.036-.076-.076v-.58l-.332.124v.632c0 .04-.036.076-.076.076s-.072-.036-.072-.076v-.58l-.128.048c-.008.004-.02.004-.028.004a.08.08 0 0 1-.08-.08v-.24c0-.032.02-.064.052-.076l.184-.064v-.64l-.128.044c-.008.004-.02.004-.028.004a.08.08 0 0 1-.08-.08v-.24c0-.032.02-.06.052-.072l.184-.068v-.632c0-.04.032-.076.072-.076s.076.036.076.076v.58l.332-.124v-.632c0-.04.036-.076.076-.076s.072.036.072.076v.58l.128-.048c.008-.004.02-.004.028-.004a.08.08 0 0 1 .08.08v.24c0 .032-.02.064-.052.076l-.184.064v.64l.128-.044c.008-.004.02-.004.028-.004a.08.08 0 0 1 .08.08v.24c0 .032-.02.06-.052.072l-.184.068zm-.48-1.508v.64l.332-.12v-.64zM58.233 15.77c.032-.016.068-.028.104-.028s.064.012.096.028l-.008.732.424-.08h.012c.04 0 .072.028.072.068l.028 2.28q-.047.026-.1.028c-.053.002-.068-.012-.1-.028l.012-.732-.424.08h-.012c-.04 0-.072-.028-.072-.068zm.556 1.052-.368.068-.012.828.368-.068z"/><text fill="currentColor" font-family="serif" font-size="2.47" transform="translate(52.227 94.513)">
<tspan>groß (14HT)</tspan>
</text><path fill="currentColor" d="M60.562 103.086a.17.17 0 0 0-.168-.164q-.024-.001-.048.004c-.124.036-.312.16-.46.256s-.336.212-.416.312a.168.168 0 0 0 .128.276q.024.001.048-.004c.124-.036.308-.16.456-.256s.336-.212.416-.312a.17.17 0 0 0 .044-.112m-.208-.284c.184 0 .328.084.328.284a.7.7 0 0 1-.04.228.7.7 0 0 1-.256.376c-.212.144-.452.2-.748.2-.184 0-.332-.084-.332-.284 0-.076.02-.156.044-.228a.7.7 0 0 1 .252-.376c.212-.144.456-.2.752-.2M60.562 98.586a.17.17 0 0 0-.168-.164q-.024-.001-.048.004c-.124.036-.312.16-.46.256s-.336.212-.416.312a.168.168 0 0 0 .128.276q.024.001.048-.004c.124-.036.308-.16.456-.256s.336-.212.416-.312a.17.17 0 0 0 .044-.112m-.208-.284c.184 0 .328.084.328.284a.7.7 0 0 1-.04.228.7.7 0 0 1-.256.376c-.212.144-.452.2-.748.2-.184 0-.332-.084-.332-.284 0-.076.02-.156.044-.228a.7.7 0 0 1 .252-.376c.212-.144.456-.2.752-.2"/><text fill="currentColor" font-family="serif" font-size="2.47" transform="translate(52.227 106.267)">
<tspan>groß (16HT)</tspan>
</text><rect width=".13" height="3.741" x="-.065" y="-1" fill="currentColor" ry=".04" transform="translate(60.618 14.77)"/><path fill="currentColor" d="M60.562 87.331a.17.17 0 0 0-.168-.164q-.024-.001-.048.004c-.124.036-.312.16-.46.256s-.336.212-.416.312a.168.168 0 0 0 .128.276q.024.001.048-.004c.124-.036.308-.16.456-.256s.336-.212.416-.312a.17.17 0 0 0 .044-.112m-.208-.284c.184 0 .328.084.328.284a.7.7 0 0 1-.04.228.7.7 0 0 1-.256.376c-.212.144-.452.2-.748.2-.184 0-.332-.084-.332-.284 0-.076.02-.156.044-.228a.7.7 0 0 1 .252-.376c.212-.144.456-.2.752-.2"/><rect width=".13" height="4.241" x="-.065" y="-1.5" fill="currentColor" ry=".04" transform="translate(60.618 25.26)"/><path fill="currentColor" d="M58.228 25.76q.049-.026.104-.028c.055-.002.064.012.096.028l-.008.732.424-.08h.012c.04 0 .072.028.072.068l.028 2.28c-.032.016-.064.028-.1.028s-.068-.012-.1-.028l.012-.732-.424.08h-.012c-.04 0-.072-.028-.072-.068zm.556 1.052-.368.068-.012.828.368-.068z"/><rect width=".13" height="5.741" x="-.065" y="-3" fill="currentColor" ry=".04" transform="translate(60.618 56.01)"/><path fill="currentColor" d="M60.562 91.331a.17.17 0 0 0-.168-.164q-.024-.001-.048.004c-.124.036-.312.16-.46.256s-.336.212-.416.312a.168.168 0 0 0 .128.276q.024.001.048-.004c.124-.036.308-.16.456-.256s.336-.212.416-.312a.17.17 0 0 0 .044-.112m-.208-.284c.184 0 .328.084.328.284a.7.7 0 0 1-.04.228.7.7 0 0 1-.256.376c-.212.144-.452.2-.748.2-.184 0-.332-.084-.332-.284 0-.076.02-.156.044-.228a.7.7 0 0 1 .252-.376c.212-.144.456-.2.752-.2"/><text fill="currentColor" font-family="serif" font-size="2.47" transform="translate(52.227 73.071)">
<tspan>groß (11HT)</tspan>
</text><path fill="currentColor" d="M60.562 66.89a.17.17 0 0 0-.168-.164q-.024-.001-.048.004c-.124.036-.312.16-.46.256s-.336.212-.416.312a.168.168 0 0 0 .128.276q.024.001.048-.004c.124-.036.308-.16.456-.256s.336-.212.416-.312a.17.17 0 0 0 .044-.112m-.208-.284c.184 0 .328.084.328.284a.7.7 0 0 1-.04.228.7.7 0 0 1-.256.376c-.212.144-.452.2-.748.2-.184 0-.332-.084-.332-.284 0-.076.02-.156.044-.228a.7.7 0 0 1 .252-.376c.212-.144.456-.2.752-.2M60.562 69.89a.17.17 0 0 0-.168-.164q-.024-.001-.048.004c-.124.036-.312.16-.46.256s-.336.212-.416.312a.168.168 0 0 0 .128.276q.024.001.048-.004c.124-.036.308-.16.456-.256s.336-.212.416-.312a.17.17 0 0 0 .044-.112m-.208-.284c.184 0 .328.084.328.284a.7.7 0 0 1-.04.228.7.7 0 0 1-.256.376c-.212.144-.452.2-.748.2-.184 0-.332-.084-.332-.284 0-.076.02-.156.044-.228a.7.7 0 0 1 .252-.376c.212-.144.456-.2.752-.2"/><text fill="currentColor" font-family="serif" font-size="2.47" transform="translate(53.012 61.932)">
<tspan>groß (9HT)</tspan>
</text><path fill="currentColor" d="M60.562 56.25a.17.17 0 0 0-.168-.163q-.024-.001-.048.004c-.124.036-.312.16-.46.256s-.336.212-.416.312a.168.168 0 0 0 .128.276q.024.001.048-.004c.124-.036.308-.16.456-.256s.336-.212.416-.312a.17.17 0 0 0 .044-.112m-.208-.283c.184 0 .328.084.328.284a.7.7 0 0 1-.04.228.7.7 0 0 1-.256.376c-.212.144-.452.2-.748.2-.184 0-.332-.084-.332-.284 0-.076.02-.156.044-.228a.7.7 0 0 1 .252-.376c.212-.144.456-.2.752-.2M60.562 58.75a.17.17 0 0 0-.168-.163q-.024-.001-.048.004c-.124.036-.312.16-.46.256s-.336.212-.416.312a.168.168 0 0 0 .128.276q.024.001.048-.004c.124-.036.308-.16.456-.256s.336-.212.416-.312a.17.17 0 0 0 .044-.112m-.208-.283c.184 0 .328.084.328.284a.7.7 0 0 1-.04.228.7.7 0 0 1-.256.376c-.212.144-.452.2-.748.2-.184 0-.332-.084-.332-.284 0-.076.02-.156.044-.228a.7.7 0 0 1 .252-.376c.212-.144.456-.2.752-.2"/><text fill="currentColor" font-family="serif" font-size="2.47" transform="translate(53.012 31.182)">
<tspan>groß (4HT)</tspan>
</text><path fill="currentColor" d="M60.562 27a.17.17 0 0 0-.168-.164q-.024-.001-.048.004c-.124.036-.312.16-.46.256s-.336.212-.416.312a.168.168 0 0 0 .128.276q.024.001.048-.004c.124-.036.308-.16.456-.256s.336-.212.416-.312a.17.17 0 0 0 .044-.112m-.208-.284c.184 0 .328.084.328.284a.7.7 0 0 1-.04.228.7.7 0 0 1-.256.376c-.212.144-.452.2-.748.2-.184 0-.332-.084-.332-.284 0-.076.02-.156.044-.228a.7.7 0 0 1 .252-.376c.212-.144.456-.2.752-.2"/><path fill="currentColor" d="M60.562 28a.17.17 0 0 0-.168-.164q-.024-.001-.048.004c-.124.036-.312.16-.46.256s-.336.212-.416.312a.168.168 0 0 0 .128.276q.024.001.048-.004c.124-.036.308-.16.456-.256s.336-.212.416-.312a.17.17 0 0 0 .044-.112m-.208-.284c.184 0 .328.084.328.284a.7.7 0 0 1-.04.228.7.7 0 0 1-.256.376c-.212.144-.452.2-.748.2-.184 0-.332-.084-.332-.284 0-.076.02-.156.044-.228a.7.7 0 0 1 .252-.376c.212-.144.456-.2.752-.2"/><text fill="currentColor" font-family="serif" font-size="2.47" transform="translate(53.012 21.162)">
<tspan>groß (2HT)</tspan>
</text><path fill="currentColor" d="M61.874 17.01a.17.17 0 0 0-.168-.164q-.024-.001-.048.004c-.124.036-.312.16-.46.256s-.336.212-.416.312a.168.168 0 0 0 .128.276q.024.001.048-.004c.124-.036.308-.16.456-.256s.336-.212.416-.312a.17.17 0 0 0 .044-.112m-.208-.284c.184 0 .328.084.328.284a.7.7 0 0 1-.04.228.7.7 0 0 1-.256.376c-.212.144-.452.2-.748.2-.184 0-.332-.084-.332-.284 0-.076.02-.156.044-.228a.7.7 0 0 1 .252-.376c.212-.144.456-.2.752-.2"/><path fill="currentColor" d="M60.562 17.51a.17.17 0 0 0-.168-.164q-.024-.001-.048.004c-.124.036-.312.16-.46.256s-.336.212-.416.312a.168.168 0 0 0 .128.276q.024.001.048-.004c.124-.036.308-.16.456-.256s.336-.212.416-.312a.17.17 0 0 0 .044-.112m-.208-.284c.184 0 .328.084.328.284a.7.7 0 0 1-.04.228.7.7 0 0 1-.256.376c-.212.144-.452.2-.748.2-.184 0-.332-.084-.332-.284 0-.076.02-.156.044-.228a.7.7 0 0 1 .252-.376c.212-.144.456-.2.752-.2M81.428 6.331c-.2 0-.276.172-.276.352 0 .308.228.544.536.544.2 0 .276-.172.276-.352a.53.53 0 0 0-.536-.544m1.112.448c0 .172-.136.3-.288.384-.212.116-.456.16-.696.16s-.48-.044-.692-.16c-.152-.084-.288-.212-.288-.384s.136-.3.288-.384c.212-.116.452-.16.692-.16s.484.044.696.16c.152.084.288.212.288.384"/><rect width=".13" height="7.074" x="-.065" y="-4.333" fill="currentColor" ry=".04" transform="translate(60.618 100.346)"/><path fill="currentColor" d="M58.24 97.346c.031-.016.067-.028.103-.028s.064.012.096.028l-.008.732.424-.08h.012c.04 0 .072.028.072.068l.028 2.28c-.032.016-.064.028-.1.028s-.068-.012-.1-.028l.012-.732-.424.08h-.012c-.04 0-.072-.028-.072-.068zm.555 1.052-.368.068-.012.828.368-.068zM79.726 6.331c-.2 0-.276.172-.276.352 0 .308.228.544.536.544.2 0 .276-.172.276-.352a.53.53 0 0 0-.536-.544m1.112.448c0 .172-.136.3-.288.384-.212.116-.456.16-.696.16s-.48-.044-.692-.16c-.152-.084-.288-.212-.288-.384s.136-.3.288-.384c.212-.116.452-.16.692-.16s.484.044.696.16c.152.084.288.212.288.384M58.24 86.091c.031-.016.067-.028.103-.028s.064.012.096.028l-.008.732.424-.08h.012c.04 0 .072.028.072.068l.028 2.28c-.032.016-.064.028-.1.028s-.068-.012-.1-.028l.012-.732-.424.08h-.012c-.04 0-.072-.028-.072-.068zm.555 1.052-.368.068-.012.828.368-.068z"/><text fill="currentColor" font-family="serif" font-size="2.47" transform="translate(68.997 10.671)">
<tspan>übermäßig (1HT)</tspan>
</text><path fill="currentColor" d="M79.726 17.322c-.2 0-.276.172-.276.352 0 .308.228.544.536.544.2 0 .276-.172.276-.352a.53.53 0 0 0-.536-.544m1.112.448c0 .172-.136.3-.288.384-.212.116-.456.16-.696.16s-.48-.044-.692-.16c-.152-.084-.288-.212-.288-.384s.136-.3.288-.384c.212-.116.452-.16.692-.16s.484.044.696.16c.152.084.288.212.288.384"/><path fill="currentColor" d="M81.428 16.822c-.2 0-.276.172-.276.352 0 .308.228.544.536.544.2 0 .276-.172.276-.352a.53.53 0 0 0-.536-.544m1.112.448c0 .172-.136.3-.288.384-.212.116-.456.16-.696.16s-.48-.044-.692-.16c-.152-.084-.288-.212-.288-.384s.136-.3.288-.384c.212-.116.452-.16.692-.16s.484.044.696.16c.152.084.288.212.288.384M79.726 27.812c-.2 0-.276.172-.276.352 0 .308.228.544.536.544.2 0 .276-.172.276-.352a.53.53 0 0 0-.536-.544m1.112.448c0 .172-.136.3-.288.384-.212.116-.456.16-.696.16s-.48-.044-.692-.16c-.152-.084-.288-.212-.288-.384s.136-.3.288-.384c.212-.116.452-.16.692-.16s.484.044.696.16c.152.084.288.212.288.384"/><path fill="currentColor" d="M79.726 26.812c-.2 0-.276.172-.276.352 0 .308.228.544.536.544.2 0 .276-.172.276-.352a.53.53 0 0 0-.536-.544m1.112.448c0 .172-.136.3-.288.384-.212.116-.456.16-.696.16s-.48-.044-.692-.16c-.152-.084-.288-.212-.288-.384s.136-.3.288-.384c.212-.116.452-.16.692-.16s.484.044.696.16c.152.084.288.212.288.384"/><text fill="currentColor" font-family="serif" font-size="2.47" transform="translate(68.997 31.182)">
<tspan>übermäßig (5HT)</tspan>
</text><path fill="currentColor" d="M79.726 37.833c-.2 0-.276.172-.276.352 0 .307.228.543.536.543.2 0 .276-.172.276-.352a.53.53 0 0 0-.536-.543m1.112.448c0 .172-.136.3-.288.384-.212.116-.456.16-.696.16s-.48-.045-.692-.16c-.152-.084-.288-.212-.288-.384s.136-.3.288-.384c.212-.116.452-.16.692-.16s.484.044.696.16c.152.084.288.212.288.384"/><rect width=".13" height="6.741" x="-.065" y="-4" fill="currentColor" ry=".04" transform="translate(60.618 88.591)"/><path fill="currentColor" d="M58.24 65.65c.031-.016.067-.028.103-.028s.064.012.096.028l-.008.732.424-.08h.012c.04 0 .072.028.072.068l.028 2.28c-.032.016-.064.028-.1.028s-.068-.012-.1-.028l.012-.732-.424.08h-.012c-.04 0-.072-.028-.072-.068zm.555 1.052-.368.068-.012.828.368-.068z"/><rect width=".13" height="6.074" x="-.065" y="-3.333" fill="currentColor" ry=".04" transform="translate(60.618 67.15)"/><path fill="currentColor" d="M58.24 55.01c.031-.015.067-.027.103-.027s.064.012.096.028l-.008.732.424-.08h.012c.04 0 .072.028.072.068l.028 2.28q-.047.026-.1.028c-.053.002-.068-.012-.1-.028l.012-.732-.424.08h-.012c-.04 0-.072-.028-.072-.068zm.555 1.053-.368.068-.012.828.368-.068z"/><text fill="currentColor" font-family="serif" font-size="2.2" transform="translate(-2.238 4.443)">
<tspan>1 (Prime)</tspan>
</text><text fill="currentColor" font-family="serif" font-size="2.2" transform="translate(-5.242 15.434)">
<tspan>2 (Sekunde)</tspan>
</text><path fill="currentColor" d="M78.288 57.759c0 .04-.032.076-.072.076s-.076-.036-.076-.076v-.58l-.332.124v.632c0 .04-.036.076-.076.076s-.072-.036-.072-.076v-.58l-.128.048c-.008.004-.02.004-.028.004a.08.08 0 0 1-.08-.08v-.24c0-.032.02-.064.052-.076l.184-.064v-.64l-.128.044c-.008.004-.02.004-.028.004a.08.08 0 0 1-.08-.08v-.24c0-.032.02-.06.052-.072l.184-.068v-.632c0-.04.032-.076.072-.076s.076.036.076.076v.58l.332-.124v-.632c0-.04.036-.076.076-.076s.072.036.072.076v.58l.128-.048c.008-.004.02-.004.028-.004a.08.08 0 0 1 .08.08v.24c0 .032-.02.064-.052.076l-.184.064v.64l.128-.044c.008-.004.02-.004.028-.004a.08.08 0 0 1 .08.08v.24c0 .032-.02.06-.052.072l-.184.068zm-.48-1.508v.64l.332-.12v-.64zM78.288 68.398c0 .04-.032.076-.072.076s-.076-.036-.076-.076v-.58l-.332.124v.632c0 .04-.036.076-.076.076s-.072-.036-.072-.076v-.58l-.128.048c-.008.004-.02.004-.028.004a.08.08 0 0 1-.08-.08v-.24c0-.032.02-.064.052-.076l.184-.064v-.64l-.128.044c-.008.004-.02.004-.028.004a.08.08 0 0 1-.08-.08v-.24c0-.032.02-.06.052-.072l.184-.068v-.632c0-.04.032-.076.072-.076s.076.036.076.076v.58l.332-.124v-.632c0-.04.036-.076.076-.076s.072.036.072.076v.58l.128-.048c.008-.004.02-.004.028-.004a.08.08 0 0 1 .08.08v.24c0 .032-.02.064-.052.076l-.184.064v.64l.128-.044c.008-.004.02-.004.028-.004a.08.08 0 0 1 .08.08v.24c0 .032-.02.06-.052.072l-.184.068zm-.48-1.508v.64l.332-.12v-.64zM78.288 47.549c0 .04-.032.075-.072.075s-.076-.036-.076-.076v-.58l-.332.124v.633c0 .04-.036.075-.076.075s-.072-.035-.072-.075v-.58l-.128.047c-.008.005-.02.005-.028.005a.08.08 0 0 1-.08-.08v-.24c0-.033.02-.065.052-.077l.184-.063v-.64l-.128.043c-.008.004-.02.004-.028.004a.08.08 0 0 1-.08-.08v-.24c0-.032.02-.06.052-.072l.184-.068v-.632c0-.04.032-.076.072-.076s.076.036.076.076v.58l.332-.124v-.632c0-.04.036-.076.076-.076s.072.036.072.076v.58l.128-.048c.008-.004.02-.004.028-.004a.08.08 0 0 1 .08.08v.24c0 .032-.02.064-.052.076l-.184.064v.64l.128-.044c.008-.004.02-.004.028-.004a.08.08 0 0 1 .08.08v.24c0 .032-.02.06-.052.072l-.184.069zm-.48-1.508v.64l.332-.12v-.64zM78.288 100.094c0 .04-.032.076-.072.076s-.076-.036-.076-.076v-.58l-.332.124v.632c0 .04-.036.076-.076.076s-.072-.036-.072-.076v-.58l-.128.048c-.008.004-.02.004-.028.004a.08.08 0 0 1-.08-.08v-.24c0-.032.02-.064.052-.076l.184-.064v-.64l-.128.044c-.008.004-.02.004-.028.004a.08.08 0 0 1-.08-.08v-.24c0-.032.02-.06.052-.072l.184-.068v-.632c0-.04.032-.076.072-.076s.076.036.076.076v.58l.332-.124v-.632c0-.04.036-.076.076-.076s.072.036.072.076v.58l.128-.048c.008-.004.02-.004.028-.004a.08.08 0 0 1 .08.08v.24c0 .032-.02.064-.052.076l-.184.064v.64l.128-.044c.008-.004.02-.004.028-.004a.08.08 0 0 1 .08.08v.24c0 .032-.02.06-.052.072l-.184.068zm-.48-1.508v.64l.332-.12v-.64zM78.288 88.84c0 .04-.032.075-.072.075s-.076-.036-.076-.076v-.58l-.332.124v.632c0 .04-.036.076-.076.076s-.072-.036-.072-.076v-.58l-.128.048c-.008.004-.02.004-.028.004a.08.08 0 0 1-.08-.08v-.24c0-.032.02-.064.052-.076l.184-.064v-.64l-.128.044c-.008.004-.02.004-.028.004a.08.08 0 0 1-.08-.08v-.24c0-.032.02-.06.052-.072l.184-.068v-.632c0-.04.032-.076.072-.076s.076.036.076.076v.58l.332-.124v-.632c0-.04.036-.076.076-.076s.072.036.072.076v.58l.128-.048c.008-.004.02-.004.028-.004a.08.08 0 0 1 .08.08v.24c0 .032-.02.064-.052.076l-.184.064v.64l.128-.044c.008-.004.02-.004.028-.004a.08.08 0 0 1 .08.08v.24c0 .032-.02.06-.052.072l-.184.068zm-.48-1.509v.64l.332-.12v-.64z"/><text fill="currentColor" font-family="serif" font-size="2.2" transform="translate(-.428 25.925)">
<tspan>3 (Terz)</tspan>
</text><path fill="currentColor" d="M78.288 77.918c0 .04-.032.076-.072.076s-.076-.036-.076-.076v-.58l-.332.124v.632c0 .04-.036.076-.076.076s-.072-.036-.072-.076v-.58l-.128.048c-.008.004-.02.004-.028.004a.08.08 0 0 1-.08-.08v-.24c0-.032.02-.064.052-.076l.184-.064v-.64l-.128.044c-.008.004-.02.004-.028.004a.08.08 0 0 1-.08-.08v-.24c0-.032.02-.06.052-.072l.184-.068v-.632c0-.04.032-.076.072-.076s.076.036.076.076v.58l.332-.124v-.632c0-.04.036-.076.076-.076s.072.036.072.076v.58l.128-.048c.008-.004.02-.004.028-.004a.08.08 0 0 1 .08.08v.24c0 .032-.02.064-.052.076l-.184.064v.64l.128-.044c.008-.004.02-.004.028-.004a.08.08 0 0 1 .08.08v.24c0 .032-.02.06-.052.072l-.184.068zm-.48-1.508v.64l.332-.12v-.64zM21.703 27.096l-.004.264c0 .016-.004.028-.004.044q-.001.132.016.264c.176-.148.348-.328.348-.556 0-.132-.044-.268-.16-.268-.12 0-.192.12-.196.252m-.004-1.664-.024 1.38a.54.54 0 0 1 .348-.136c.212 0 .368.188.368.404 0 .32-.344.472-.588.68-.06.052-.092.152-.176.152a.1.1 0 0 1-.096-.1l-.008-.424c-.108.136-.264.248-.392.372-.052.052-.076.152-.156.152-.052 0-.092-.048-.092-.104l-.048-2.376c.032-.02.072-.032.108-.032s.076.012.108.032l-.028 1.38a.37.37 0 0 1 .28-.136c.08 0 .152.032.208.084l-.028-1.328c.032-.02.072-.032.108-.032s.076.012.108.032m-.688 1.932v.04c0 .092.004.18.016.272.156-.152.284-.344.284-.564 0-.128-.024-.268-.132-.268s-.156.124-.16.248zM21.699 36.617l-.004.264v.044q-.001.132.016.264c.18-.152.372-.32.372-.556 0-.132-.056-.268-.172-.268-.124 0-.208.12-.212.252m-.168.716-.048-2.38c.032-.02.072-.033.108-.033s.076.013.108.033l-.028 1.38a.58.58 0 0 1 .364-.136c.208 0 .356.191.356.407 0 .32-.344.469-.588.677-.06.052-.096.152-.18.152-.052 0-.092-.044-.092-.1M21.699 46.137l-.004.263v.045q-.001.13.016.263c.18-.151.372-.32.372-.555 0-.132-.056-.268-.172-.268-.124 0-.208.12-.212.252m-.168.715-.048-2.38c.032-.02.072-.032.108-.032s.076.013.108.033l-.028 1.38a.58.58 0 0 1 .364-.137c.208 0 .356.192.356.408 0 .32-.344.468-.588.676-.06.053-.096.153-.18.153-.052 0-.092-.045-.092-.1M21.699 6.615l-.004.264v.044q-.001.132.016.264c.18-.152.372-.32.372-.556 0-.132-.056-.268-.172-.268-.124 0-.208.12-.212.252m-.168.716-.048-2.38c.032-.02.072-.032.108-.032s.076.012.108.032l-.028 1.38a.58.58 0 0 1 .364-.136c.208 0 .356.192.356.408 0 .32-.344.468-.588.676-.06.052-.096.152-.18.152-.052 0-.092-.044-.092-.1M21.738 17.106l-.004.264c0 .016-.004.028-.004.044q-.001.132.016.264c.176-.148.348-.328.348-.556 0-.132-.044-.268-.16-.268-.12 0-.192.12-.196.252m-.004-1.664-.024 1.38a.54.54 0 0 1 .348-.136c.212 0 .368.188.368.404 0 .32-.344.472-.588.68-.06.052-.092.152-.176.152a.1.1 0 0 1-.096-.1l-.008-.424c-.108.136-.264.248-.392.372-.052.052-.076.152-.156.152-.052 0-.092-.048-.092-.104l-.048-2.376c.032-.02.072-.032.108-.032s.076.012.108.032l-.028 1.38a.37.37 0 0 1 .28-.136c.08 0 .152.032.208.084l-.028-1.328c.032-.02.072-.032.108-.032s.076.012.108.032m-.688 1.932v.04q-.001.136.016.272c.156-.152.284-.344.284-.564 0-.128-.024-.268-.132-.268s-.156.124-.16.248zM21.699 76.506l-.004.264v.044q-.001.132.016.264c.18-.152.372-.32.372-.556 0-.132-.056-.268-.172-.268-.124 0-.208.12-.212.252m-.168.716-.048-2.38c.032-.02.072-.032.108-.032s.076.012.108.032l-.028 1.38a.58.58 0 0 1 .364-.136c.208 0 .356.192.356.408 0 .32-.344.468-.588.676-.06.052-.096.152-.18.152-.052 0-.092-.044-.092-.1M21.703 87.427l-.004.264c0 .016-.004.028-.004.044q-.001.132.016.264c.176-.148.348-.328.348-.556 0-.132-.044-.268-.16-.268-.12 0-.192.12-.196.252m-.004-1.664-.024 1.38a.54.54 0 0 1 .348-.136c.212 0 .368.188.368.404 0 .32-.344.472-.588.68-.06.052-.092.152-.176.152a.1.1 0 0 1-.096-.1l-.008-.424c-.108.136-.264.248-.392.372-.052.052-.076.152-.156.152-.052 0-.092-.048-.092-.104l-.048-2.376c.032-.02.072-.032.108-.032s.076.012.108.032l-.028 1.38a.37.37 0 0 1 .28-.136c.08 0 .152.032.208.084l-.028-1.328c.032-.02.072-.032.108-.032s.076.012.108.032m-.688 1.932v.04q-.001.136.016.272c.156-.152.284-.344.284-.564 0-.128-.024-.268-.132-.268s-.156.124-.16.248zM21.703 66.986l-.004.264c0 .016-.004.028-.004.044q-.001.132.016.264c.176-.148.348-.328.348-.556 0-.132-.044-.268-.16-.268-.12 0-.192.12-.196.252m-.004-1.664-.024 1.38a.54.54 0 0 1 .348-.136c.212 0 .368.188.368.404 0 .32-.344.472-.588.68-.06.052-.092.152-.176.152a.1.1 0 0 1-.096-.1l-.008-.424c-.108.136-.264.248-.392.372-.052.052-.076.152-.156.152-.052 0-.092-.048-.092-.104l-.048-2.376c.032-.02.072-.032.108-.032s.076.012.108.032l-.028 1.38a.37.37 0 0 1 .28-.136c.08 0 .152.032.208.084l-.028-1.328c.032-.02.072-.032.108-.032s.076.012.108.032m-.688 1.932v.04q-.001.136.016.272c.156-.152.284-.344.284-.564 0-.128-.024-.268-.132-.268s-.156.124-.16.248zM21.703 56.347l-.004.264c0 .016-.004.028-.004.044q-.001.132.016.264c.176-.148.348-.328.348-.556 0-.132-.044-.268-.16-.268-.12 0-.192.12-.196.252m-.004-1.664-.024 1.38a.54.54 0 0 1 .348-.136c.212 0 .368.188.368.404 0 .32-.344.472-.588.68-.06.052-.092.152-.176.152a.1.1 0 0 1-.096-.1l-.008-.424c-.108.136-.264.248-.392.372-.052.052-.076.152-.156.152-.052 0-.092-.048-.092-.104l-.048-2.376c.032-.02.072-.032.108-.032s.076.012.108.032l-.028 1.38a.37.37 0 0 1 .28-.136c.08 0 .152.032.208.084l-.028-1.328c.032-.02.072-.032.108-.032s.076.012.108.032m-.688 1.932v.04q-.001.136.016.272c.156-.152.284-.344.284-.564 0-.128-.024-.268-.132-.268s-.156.124-.16.248zM23.593 27.812c-.2 0-.276.172-.276.352 0 .308.228.544.536.544.2 0 .276-.172.276-.352a.53.53 0 0 0-.536-.544m1.112.448c0 .172-.136.3-.288.384-.212.116-.456.16-.696.16s-.48-.044-.692-.16c-.152-.084-.288-.212-.288-.384s.136-.3.288-.384c.212-.116.452-.16.692-.16s.484.044.696.16c.152.084.288.212.288.384M10.4 7.319h-.024a.783.783 0 0 1-.78-.788c0-.232.212-.412.448-.412.216 0 .38.188.38.412 0 .208-.172.38-.38.38a.3.3 0 0 1-.124-.024c.104.156.272.26.468.26h.016zm.78-1.728a.71.71 0 0 0 .452-.656.764.764 0 0 0-.692-.76c.096.464.184.924.24 1.416m-1.548-.924c0 .54.516.988 1.056.988q.167 0 .328-.024c-.056-.508-.148-.98-.252-1.456-.316.032-.496.244-.496.476 0 .176.1.364.324.492q.029.03.028.06c0 .044-.04.088-.088.088q-.018-.001-.036-.008c-.32-.172-.468-.46-.468-.74 0-.352.232-.696.64-.788a15 15 0 0 0-.184-.7c-.428.484-.852.972-.852 1.612m1.044 1.16c-.752 0-1.332-.688-1.332-1.496 0-.708.524-1.224.992-1.764a4.5 4.5 0 0 1-.18-.76 5 5 0 0 1-.028-.624c0-.46.22-.896.596-1.168a.06.06 0 0 1 .08 0c.284.336.532.98.532 1.432 0 .572-.344 1.02-.72 1.456.084.272.156.552.224.828.016 0 .036-.004.052-.004.62 0 1.024.512 1.024 1.044 0 .304-.132.616-.428.84a.9.9 0 0 1-.292.144q.019.21.02.42-.001.116-.008.232c-.028.476-.352.9-.808.912l.004-.172c.372-.008.612-.368.636-.764q.007-.11.008-.22c0-.124-.004-.244-.016-.368-.116.02-.232.032-.356.032m.372-4.712c0-.22-.016-.316-.08-.516a1.15 1.15 0 0 0-.648 1.036c0 .296.072.532.144.776.32-.388.584-.792.584-1.296M14.972 3.671a.3.3 0 0 1-.3-.3c0-.152.108-.308.288-.308q.025-.001.056.004a.6.6 0 0 0-.48-.236c-.424 0-.452.292-.452.744v.408c0 .452.028.748.452.748.32 0 .556-.28.632-.604.008-.028.028-.04.048-.04.024 0 .052.016.052.048 0 .376-.42.696-.732.696-.272 0-.548-.084-.736-.28-.196-.204-.264-.488-.264-.772s.068-.568.264-.772c.188-.196.464-.276.736-.276.348 0 .64.252.7.596q.005.031.004.056c0 .16-.12.288-.268.288"/><text fill="currentColor" font-family="serif" font-size="2.47" transform="translate(12.267 10.671)">
<tspan>vermindert (-1HT)</tspan>
</text><path fill="currentColor" d="M23.593 17.322c-.2 0-.276.172-.276.352 0 .308.228.544.536.544.2 0 .276-.172.276-.352a.53.53 0 0 0-.536-.544m1.112.448c0 .172-.136.3-.288.384-.212.116-.456.16-.696.16s-.48-.044-.692-.16c-.152-.084-.288-.212-.288-.384s.136-.3.288-.384c.212-.116.452-.16.692-.16s.484.044.696.16c.152.084.288.212.288.384"/><path fill="currentColor" d="M25.295 16.822c-.2 0-.276.172-.276.352 0 .308.228.544.536.544.2 0 .276-.172.276-.352a.53.53 0 0 0-.536-.544m1.112.448c0 .172-.136.3-.288.384-.212.116-.456.16-.696.16s-.48-.044-.692-.16c-.152-.084-.288-.212-.288-.384s.136-.3.288-.384c.212-.116.452-.16.692-.16s.484.044.696.16c.152.084.288.212.288.384M10.4 18.31h-.024a.783.783 0 0 1-.78-.788c0-.232.212-.412.448-.412.216 0 .38.188.38.412 0 .208-.172.38-.38.38a.3.3 0 0 1-.124-.024c.104.156.272.26.468.26h.016zm.78-1.728a.71.71 0 0 0 .452-.656.764.764 0 0 0-.692-.76c.096.464.184.924.24 1.416m-1.548-.924c0 .54.516.988 1.056.988q.167 0 .328-.024c-.056-.508-.148-.98-.252-1.456-.316.032-.496.244-.496.476 0 .176.1.364.324.492q.029.03.028.06c0 .044-.04.088-.088.088q-.018-.001-.036-.008c-.32-.172-.468-.46-.468-.74 0-.352.232-.696.64-.788a15 15 0 0 0-.184-.7c-.428.484-.852.972-.852 1.612m1.044 1.16c-.752 0-1.332-.688-1.332-1.496 0-.708.524-1.224.992-1.764a4.5 4.5 0 0 1-.18-.76 5 5 0 0 1-.028-.624c0-.46.22-.896.596-1.168a.06.06 0 0 1 .08 0c.284.336.532.98.532 1.432 0 .572-.344 1.02-.72 1.456.084.272.156.552.224.828.016 0 .036-.004.052-.004.62 0 1.024.512 1.024 1.044 0 .304-.132.616-.428.84a.9.9 0 0 1-.292.144q.019.21.02.42-.001.116-.008.232c-.028.476-.352.9-.808.912l.004-.172c.372-.008.612-.368.636-.764q.007-.11.008-.22.001-.184-.016-.368c-.116.02-.232.032-.356.032m.372-4.712c0-.22-.016-.316-.08-.516a1.15 1.15 0 0 0-.648 1.036c0 .296.072.532.144.776.32-.388.584-.792.584-1.296M14.972 14.662a.3.3 0 0 1-.3-.3c0-.152.108-.308.288-.308q.025-.001.056.004a.6.6 0 0 0-.48-.236c-.424 0-.452.292-.452.744v.408c0 .452.028.748.452.748.32 0 .556-.28.632-.604.008-.028.028-.04.048-.04.024 0 .052.016.052.048 0 .376-.42.696-.732.696-.272 0-.548-.084-.736-.28-.196-.204-.264-.488-.264-.772s.068-.568.264-.772c.188-.196.464-.276.736-.276.348 0 .64.252.7.596q.005.031.004.056c0 .16-.12.288-.268.288"/><text fill="currentColor" font-family="serif" font-size="2.47" transform="translate(12.677 21.162)">
<tspan>vermindert (0HT)</tspan>
</text><path fill="currentColor" d="M25.295 6.331c-.2 0-.276.172-.276.352 0 .308.228.544.536.544.2 0 .276-.172.276-.352a.53.53 0 0 0-.536-.544m1.112.448c0 .172-.136.3-.288.384-.212.116-.456.16-.696.16s-.48-.044-.692-.16c-.152-.084-.288-.212-.288-.384s.136-.3.288-.384c.212-.116.452-.16.692-.16s.484.044.696.16c.152.084.288.212.288.384M23.593 26.812c-.2 0-.276.172-.276.352 0 .308.228.544.536.544.2 0 .276-.172.276-.352a.53.53 0 0 0-.536-.544m1.112.448c0 .172-.136.3-.288.384-.212.116-.456.16-.696.16s-.48-.044-.692-.16c-.152-.084-.288-.212-.288-.384s.136-.3.288-.384c.212-.116.452-.16.692-.16s.484.044.696.16c.152.084.288.212.288.384M10.4 28.8h-.024a.783.783 0 0 1-.78-.788c0-.232.212-.412.448-.412.216 0 .38.188.38.412 0 .208-.172.38-.38.38a.3.3 0 0 1-.124-.024c.104.156.272.26.468.26h.016zm.78-1.728a.71.71 0 0 0 .452-.656.764.764 0 0 0-.692-.76c.096.464.184.924.24 1.416m-1.548-.924c0 .54.516.988 1.056.988q.167 0 .328-.024c-.056-.508-.148-.98-.252-1.456-.316.032-.496.244-.496.476 0 .176.1.364.324.492q.029.03.028.06c0 .044-.04.088-.088.088q-.018-.001-.036-.008c-.32-.172-.468-.46-.468-.74 0-.352.232-.696.64-.788a15 15 0 0 0-.184-.7c-.428.484-.852.972-.852 1.612m1.044 1.16c-.752 0-1.332-.688-1.332-1.496 0-.708.524-1.224.992-1.764a4.5 4.5 0 0 1-.18-.76 5 5 0 0 1-.028-.624c0-.46.22-.896.596-1.168a.06.06 0 0 1 .08 0c.284.336.532.98.532 1.432 0 .572-.344 1.02-.72 1.456.084.272.156.552.224.828.016 0 .036-.004.052-.004.62 0 1.024.512 1.024 1.044 0 .304-.132.616-.428.84a.9.9 0 0 1-.292.144q.019.21.02.42-.001.116-.008.232c-.028.476-.352.9-.808.912l.004-.172c.372-.008.612-.368.636-.764q.007-.11.008-.22c0-.124-.004-.244-.016-.368-.116.02-.232.032-.356.032m.372-4.712c0-.22-.016-.316-.08-.516a1.15 1.15 0 0 0-.648 1.036c0 .296.072.532.144.776.32-.388.584-.792.584-1.296M14.972 25.152a.3.3 0 0 1-.3-.3c0-.152.108-.308.288-.308q.025-.001.056.004a.6.6 0 0 0-.48-.236c-.424 0-.452.292-.452.744v.408c0 .452.028.748.452.748.32 0 .556-.28.632-.604.008-.028.028-.04.048-.04.024 0 .052.016.052.048 0 .376-.42.696-.732.696-.272 0-.548-.084-.736-.28-.196-.204-.264-.488-.264-.772s.068-.568.264-.772c.188-.196.464-.276.736-.276.348 0 .64.252.7.596q.005.031.004.056c0 .16-.12.288-.268.288"/><text fill="currentColor" font-family="serif" font-size="2.47" transform="translate(12.677 31.182)">
<tspan>vermindert (2HT)</tspan>
</text><path fill="currentColor" d="M23.593 37.833c-.2 0-.276.172-.276.352 0 .307.228.543.536.543.2 0 .276-.172.276-.352a.53.53 0 0 0-.536-.543m1.112.448c0 .172-.136.3-.288.384-.212.116-.456.16-.696.16s-.48-.045-.692-.16c-.152-.084-.288-.212-.288-.384s.136-.3.288-.384c.212-.116.452-.16.692-.16s.484.044.696.16c.152.084.288.212.288.384M23.593 36.333c-.2 0-.276.172-.276.352 0 .307.228.543.536.543.2 0 .276-.172.276-.352a.53.53 0 0 0-.536-.543m1.112.448c0 .172-.136.3-.288.384-.212.116-.456.16-.696.16s-.48-.045-.692-.16c-.152-.084-.288-.212-.288-.384s.136-.3.288-.384c.212-.116.452-.16.692-.16s.484.044.696.16c.152.084.288.212.288.384M10.4 38.82h-.024a.783.783 0 0 1-.78-.787c0-.232.212-.412.448-.412.216 0 .38.188.38.412 0 .208-.172.38-.38.38a.3.3 0 0 1-.124-.024c.104.156.272.26.468.26h.016zm.78-1.727a.71.71 0 0 0 .452-.657.764.764 0 0 0-.692-.76c.096.465.184.925.24 1.417m-1.548-.925c0 .54.516.989 1.056.989q.167 0 .328-.024c-.056-.509-.148-.98-.252-1.457-.316.032-.496.244-.496.476 0 .176.1.364.324.492q.029.03.028.06c0 .044-.04.088-.088.088q-.018-.001-.036-.008c-.32-.172-.468-.46-.468-.74 0-.352.232-.696.64-.788a15 15 0 0 0-.184-.7c-.428.484-.852.972-.852 1.612m1.044 1.16c-.752 0-1.332-.687-1.332-1.495 0-.708.524-1.224.992-1.764a4.5 4.5 0 0 1-.18-.76 5 5 0 0 1-.028-.624c0-.46.22-.897.596-1.169a.06.06 0 0 1 .08 0c.284.337.532.98.532 1.433 0 .572-.344 1.02-.72 1.456.084.272.156.552.224.828.016 0 .036-.004.052-.004.62 0 1.024.512 1.024 1.044 0 .304-.132.616-.428.84a.9.9 0 0 1-.292.144q.019.21.02.42c0 .076-.004.156-.008.232-.028.476-.352.9-.808.912l.004-.172c.372-.008.612-.368.636-.764a3.775 3.775 0 0 0-.008-.588c-.116.02-.232.032-.356.032m.372-4.712c0-.22-.016-.315-.08-.515a1.15 1.15 0 0 0-.648 1.036c0 .296.072.532.144.776.32-.388.584-.792.584-1.296"/><text fill="currentColor" font-family="serif" font-size="2.2" transform="translate(-4.799 67.757)">
<tspan>7 (Septime)</tspan>
</text><text fill="currentColor" font-family="serif" font-size="2.2" transform="translate(-3.467 77.834)">
<tspan>8 (Oktave)</tspan>
</text><text fill="currentColor" font-family="serif" font-size="2.2" transform="translate(-1.555 89.256)">
<tspan>9 (None)</tspan>
</text><path fill="currentColor" d="M14.972 35.173a.3.3 0 0 1-.3-.3c0-.152.108-.308.288-.308q.025-.001.056.004a.6.6 0 0 0-.48-.236c-.424 0-.452.292-.452.744v.408c0 .452.028.748.452.748.32 0 .556-.28.632-.604.008-.028.028-.04.048-.04.024 0 .052.016.052.048 0 .376-.42.696-.732.696-.272 0-.548-.084-.736-.28-.196-.204-.264-.488-.264-.772s.068-.568.264-.772c.188-.196.464-.276.736-.276.348 0 .64.252.7.596q.005.031.004.056c0 .16-.12.288-.268.288"/><text fill="currentColor" font-family="serif" font-size="2.2" transform="translate(-5.345 101.01)">
<tspan>10 (Dezime)</tspan>
</text><rect width=".16" height="100.667" y="-50.334" fill="currentColor" ry=".05" transform="translate(8.476 52.063)"/><path fill="currentColor" d="M23.593 6.331c-.2 0-.276.172-.276.352 0 .308.228.544.536.544.2 0 .276-.172.276-.352a.53.53 0 0 0-.536-.544m1.112.448c0 .172-.136.3-.288.384-.212.116-.456.16-.696.16s-.48-.044-.692-.16c-.152-.084-.288-.212-.288-.384s.136-.3.288-.384c.212-.116.452-.16.692-.16s.484.044.696.16c.152.084.288.212.288.384M14.972 88.483a.3.3 0 0 1-.3-.3c0-.152.108-.308.288-.308q.025-.001.056.004a.6.6 0 0 0-.48-.236c-.424 0-.452.292-.452.744v.408c0 .452.028.748.452.748.32 0 .556-.28.632-.604.008-.028.028-.04.048-.04.024 0 .052.016.052.048 0 .376-.42.696-.732.696-.272 0-.548-.084-.736-.28-.196-.204-.264-.488-.264-.772s.068-.568.264-.772c.188-.196.464-.276.736-.276.348 0 .64.252.7.596q.005.031.004.056c0 .16-.12.288-.268.288M23.593 79.722c-.2 0-.276.172-.276.352 0 .308.228.544.536.544.2 0 .276-.172.276-.352a.53.53 0 0 0-.536-.544m1.112.448c0 .172-.136.3-.288.384-.212.116-.456.16-.696.16s-.48-.044-.692-.16c-.152-.084-.288-.212-.288-.384s.136-.3.288-.384c.212-.116.452-.16.692-.16s.484.044.696.16c.152.084.288.212.288.384M23.593 76.222c-.2 0-.276.172-.276.352 0 .308.228.544.536.544.2 0 .276-.172.276-.352a.53.53 0 0 0-.536-.544m1.112.448c0 .172-.136.3-.288.384-.212.116-.456.16-.696.16s-.48-.044-.692-.16c-.152-.084-.288-.212-.288-.384s.136-.3.288-.384c.212-.116.452-.16.692-.16s.484.044.696.16c.152.084.288.212.288.384M10.4 80.71h-.024a.783.783 0 0 1-.78-.788c0-.232.212-.412.448-.412.216 0 .38.188.38.412 0 .208-.172.38-.38.38a.3.3 0 0 1-.124-.024c.104.156.272.26.468.26h.016zm.78-1.728a.71.71 0 0 0 .452-.656.764.764 0 0 0-.692-.76c.096.464.184.924.24 1.416m-1.548-.924c0 .54.516.988 1.056.988q.167 0 .328-.024c-.056-.508-.148-.98-.252-1.456-.316.032-.496.244-.496.476 0 .176.1.364.324.492q.029.03.028.06c0 .044-.04.088-.088.088q-.018-.001-.036-.008c-.32-.172-.468-.46-.468-.74 0-.352.232-.696.64-.788a15 15 0 0 0-.184-.7c-.428.484-.852.972-.852 1.612m1.044 1.16c-.752 0-1.332-.688-1.332-1.496 0-.708.524-1.224.992-1.764a4.5 4.5 0 0 1-.18-.76 5 5 0 0 1-.028-.624c0-.46.22-.896.596-1.168a.06.06 0 0 1 .08 0c.284.336.532.98.532 1.432 0 .572-.344 1.02-.72 1.456.084.272.156.552.224.828.016 0 .036-.004.052-.004.62 0 1.024.512 1.024 1.044 0 .304-.132.616-.428.84a.9.9 0 0 1-.292.144q.019.21.02.42c0 .076-.004.156-.008.232-.028.476-.352.9-.808.912l.004-.172c.372-.008.612-.368.636-.764q.007-.11.008-.22.001-.184-.016-.368c-.116.02-.232.032-.356.032m.372-4.712c0-.22-.016-.316-.08-.516a1.15 1.15 0 0 0-.648 1.036c0 .296.072.532.144.776.32-.388.584-.792.584-1.296M14.972 77.062a.3.3 0 0 1-.3-.3c0-.152.108-.308.288-.308q.025-.001.056.004a.6.6 0 0 0-.48-.236c-.424 0-.452.292-.452.744v.408c0 .452.028.748.452.748.32 0 .556-.28.632-.604.008-.028.028-.04.048-.04.024 0 .052.016.052.048 0 .376-.42.696-.732.696-.272 0-.548-.084-.736-.28-.196-.204-.264-.488-.264-.772s.068-.568.264-.772c.188-.196.464-.276.736-.276.348 0 .64.252.7.596q.005.031.004.056c0 .16-.12.288-.268.288"/><text fill="currentColor" font-family="serif" font-size="2.47" transform="translate(11.891 83.091)">
<tspan>vermindert (11HT)</tspan>
</text><path fill="currentColor" d="M23.593 91.143c-.2 0-.276.172-.276.352 0 .308.228.544.536.544.2 0 .276-.172.276-.352a.53.53 0 0 0-.536-.544m1.112.448c0 .172-.136.3-.288.384-.212.116-.456.16-.696.16s-.48-.044-.692-.16c-.152-.084-.288-.212-.288-.384s.136-.3.288-.384c.212-.116.452-.16.692-.16s.484.044.696.16c.152.084.288.212.288.384M23.593 87.143c-.2 0-.276.172-.276.352 0 .308.228.544.536.544.2 0 .276-.172.276-.352a.53.53 0 0 0-.536-.544m1.112.448c0 .172-.136.3-.288.384-.212.116-.456.16-.696.16s-.48-.044-.692-.16c-.152-.084-.288-.212-.288-.384s.136-.3.288-.384c.212-.116.452-.16.692-.16s.484.044.696.16c.152.084.288.212.288.384M10.4 92.131h-.024a.783.783 0 0 1-.78-.788c0-.232.212-.412.448-.412.216 0 .38.188.38.412 0 .208-.172.38-.38.38a.3.3 0 0 1-.124-.024c.104.156.272.26.468.26h.016zm.78-1.728a.71.71 0 0 0 .452-.656.764.764 0 0 0-.692-.76c.096.464.184.924.24 1.416m-1.548-.924c0 .54.516.988 1.056.988q.167 0 .328-.024c-.056-.508-.148-.98-.252-1.456-.316.032-.496.244-.496.476 0 .176.1.364.324.492q.029.03.028.06c0 .044-.04.088-.088.088q-.018-.001-.036-.008c-.32-.172-.468-.46-.468-.74 0-.352.232-.696.64-.788a15 15 0 0 0-.184-.7c-.428.484-.852.972-.852 1.612m1.044 1.16c-.752 0-1.332-.688-1.332-1.496 0-.708.524-1.224.992-1.764a4.5 4.5 0 0 1-.18-.76 5 5 0 0 1-.028-.624c0-.46.22-.896.596-1.168a.06.06 0 0 1 .08 0c.284.336.532.98.532 1.432 0 .572-.344 1.02-.72 1.456.084.272.156.552.224.828.016 0 .036-.004.052-.004.62 0 1.024.512 1.024 1.044 0 .304-.132.616-.428.84a.9.9 0 0 1-.292.144q.019.21.02.42c0 .076-.004.156-.008.232-.028.476-.352.9-.808.912l.004-.172c.372-.008.612-.368.636-.764a3.775 3.775 0 0 0-.008-.588c-.116.02-.232.032-.356.032m.372-4.712c0-.22-.016-.316-.08-.516a1.15 1.15 0 0 0-.648 1.036c0 .296.072.532.144.776.32-.388.584-.792.584-1.296"/><text fill="currentColor" font-family="serif" font-size="2.47" transform="translate(12.677 73.071)">
<tspan>vermindert (9HT)</tspan>
</text><text fill="currentColor" font-family="serif" font-size="2.47" transform="translate(11.891 94.513)">
<tspan>vermindert (12HT)</tspan>
</text><path fill="currentColor" d="M23.593 102.898c-.2 0-.276.172-.276.352 0 .308.228.544.536.544.2 0 .276-.172.276-.352a.53.53 0 0 0-.536-.544m1.112.448c0 .172-.136.3-.288.384-.212.116-.456.16-.696.16s-.48-.044-.692-.16c-.152-.084-.288-.212-.288-.384s.136-.3.288-.384c.212-.116.452-.16.692-.16s.484.044.696.16c.152.084.288.212.288.384M23.593 98.398c-.2 0-.276.172-.276.352 0 .308.228.544.536.544.2 0 .276-.172.276-.352a.53.53 0 0 0-.536-.544m1.112.448c0 .172-.136.3-.288.384-.212.116-.456.16-.696.16s-.48-.044-.692-.16c-.152-.084-.288-.212-.288-.384s.136-.3.288-.384c.212-.116.452-.16.692-.16s.484.044.696.16c.152.084.288.212.288.384M10.4 103.886h-.024a.783.783 0 0 1-.78-.788c0-.232.212-.412.448-.412.216 0 .38.188.38.412 0 .208-.172.38-.38.38a.3.3 0 0 1-.124-.024c.104.156.272.26.468.26h.016zm.78-1.728a.71.71 0 0 0 .452-.656.764.764 0 0 0-.692-.76c.096.464.184.924.24 1.416m-1.548-.924c0 .54.516.988 1.056.988q.167 0 .328-.024c-.056-.508-.148-.98-.252-1.456-.316.032-.496.244-.496.476 0 .176.1.364.324.492q.029.03.028.06c0 .044-.04.088-.088.088q-.018-.001-.036-.008c-.32-.172-.468-.46-.468-.74 0-.352.232-.696.64-.788a15 15 0 0 0-.184-.7c-.428.484-.852.972-.852 1.612m1.044 1.16c-.752 0-1.332-.688-1.332-1.496 0-.708.524-1.224.992-1.764a4.5 4.5 0 0 1-.18-.76 5 5 0 0 1-.028-.624c0-.46.22-.896.596-1.168a.06.06 0 0 1 .08 0c.284.336.532.98.532 1.432 0 .572-.344 1.02-.72 1.456.084.272.156.552.224.828.016 0 .036-.004.052-.004.62 0 1.024.512 1.024 1.044 0 .304-.132.616-.428.84a.9.9 0 0 1-.292.144q.019.21.02.42c0 .076-.004.156-.008.232-.028.476-.352.9-.808.912l.004-.172c.372-.008.612-.368.636-.764a3.775 3.775 0 0 0-.008-.588c-.116.02-.232.032-.356.032m.372-4.712c0-.22-.016-.316-.08-.516a1.15 1.15 0 0 0-.648 1.036c0 .296.072.532.144.776.32-.388.584-.792.584-1.296M14.972 100.238a.3.3 0 0 1-.3-.3c0-.152.108-.308.288-.308q.025-.001.056.004a.6.6 0 0 0-.48-.236c-.424 0-.452.292-.452.744v.408c0 .452.028.748.452.748.32 0 .556-.28.632-.604.008-.028.028-.04.048-.04.024 0 .052.016.052.048 0 .376-.42.696-.732.696-.272 0-.548-.084-.736-.28-.196-.204-.264-.488-.264-.772s.068-.568.264-.772c.188-.196.464-.276.736-.276.348 0 .64.252.7.596q.005.031.004.056c0 .16-.12.288-.268.288"/><text fill="currentColor" font-family="serif" font-size="2.47" transform="translate(11.891 106.267)">
<tspan>vermindert (14HT)</tspan>
</text><path fill="currentColor" d="M14.972 67.042a.3.3 0 0 1-.3-.3c0-.152.108-.308.288-.308q.025-.001.056.004a.6.6 0 0 0-.48-.236c-.424 0-.452.292-.452.744v.408c0 .452.028.748.452.748.32 0 .556-.28.632-.604.008-.028.028-.04.048-.04.024 0 .052.016.052.048 0 .376-.42.696-.732.696-.272 0-.548-.084-.736-.28-.196-.204-.264-.488-.264-.772s.068-.568.264-.772c.188-.196.464-.276.736-.276.348 0 .64.252.7.596q.005.031.004.056c0 .16-.12.288-.268.288M10.4 70.69h-.024a.783.783 0 0 1-.78-.788c0-.232.212-.412.448-.412.216 0 .38.188.38.412 0 .208-.172.38-.38.38a.3.3 0 0 1-.124-.024c.104.156.272.26.468.26h.016zm.78-1.728a.71.71 0 0 0 .452-.656.764.764 0 0 0-.692-.76c.096.464.184.924.24 1.416m-1.548-.924c0 .54.516.988 1.056.988q.167 0 .328-.024c-.056-.508-.148-.98-.252-1.456-.316.032-.496.244-.496.476 0 .176.1.364.324.492q.029.03.028.06c0 .044-.04.088-.088.088q-.018-.001-.036-.008c-.32-.172-.468-.46-.468-.74 0-.352.232-.696.64-.788a15 15 0 0 0-.184-.7c-.428.484-.852.972-.852 1.612m1.044 1.16c-.752 0-1.332-.688-1.332-1.496 0-.708.524-1.224.992-1.764a4.5 4.5 0 0 1-.18-.76 5 5 0 0 1-.028-.624c0-.46.22-.896.596-1.168a.06.06 0 0 1 .08 0c.284.336.532.98.532 1.432 0 .572-.344 1.02-.72 1.456.084.272.156.552.224.828.016 0 .036-.004.052-.004.62 0 1.024.512 1.024 1.044 0 .304-.132.616-.428.84a.9.9 0 0 1-.292.144q.019.21.02.42c0 .076-.004.156-.008.232-.028.476-.352.9-.808.912l.004-.172c.372-.008.612-.368.636-.764a3.775 3.775 0 0 0-.008-.588c-.116.02-.232.032-.356.032m.372-4.712c0-.22-.016-.316-.08-.516a1.15 1.15 0 0 0-.648 1.036c0 .296.072.532.144.776.32-.388.584-.792.584-1.296M23.593 66.702c-.2 0-.276.172-.276.352 0 .308.228.544.536.544.2 0 .276-.172.276-.352a.53.53 0 0 0-.536-.544m1.112.448c0 .172-.136.3-.288.384-.212.116-.456.16-.696.16s-.48-.044-.692-.16c-.152-.084-.288-.212-.288-.384s.136-.3.288-.384c.212-.116.452-.16.692-.16s.484.044.696.16c.152.084.288.212.288.384M23.593 69.702c-.2 0-.276.172-.276.352 0 .308.228.544.536.544.2 0 .276-.172.276-.352a.53.53 0 0 0-.536-.544m1.112.448c0 .172-.136.3-.288.384-.212.116-.456.16-.696.16s-.48-.044-.692-.16c-.152-.084-.288-.212-.288-.384s.136-.3.288-.384c.212-.116.452-.16.692-.16s.484.044.696.16c.152.084.288.212.288.384"/><text fill="currentColor" font-family="serif" font-size="2.47" transform="translate(12.677 61.932)">
<tspan>vermindert (7HT)</tspan>
</text><path fill="currentColor" d="M14.972 55.903a.3.3 0 0 1-.3-.3c0-.152.108-.308.288-.308q.025-.001.056.004a.6.6 0 0 0-.48-.236c-.424 0-.452.292-.452.744v.408c0 .452.028.748.452.748.32 0 .556-.28.632-.604.008-.028.028-.04.048-.04.024 0 .052.016.052.048 0 .376-.42.696-.732.696-.272 0-.548-.084-.736-.28-.196-.204-.264-.488-.264-.772s.068-.568.264-.772c.188-.196.464-.276.736-.276.348 0 .64.252.7.596q.005.031.004.056c0 .16-.12.288-.268.288M10.4 59.55h-.024a.783.783 0 0 1-.78-.787c0-.232.212-.412.448-.412.216 0 .38.188.38.412 0 .208-.172.38-.38.38a.3.3 0 0 1-.124-.024c.104.156.272.26.468.26h.016zm.78-1.727a.71.71 0 0 0 .452-.656.764.764 0 0 0-.692-.76c.096.464.184.924.24 1.416m-1.548-.924c0 .54.516.988 1.056.988q.167 0 .328-.024c-.056-.508-.148-.98-.252-1.456-.316.032-.496.244-.496.476 0 .176.1.364.324.492q.029.03.028.06c0 .044-.04.088-.088.088q-.018-.001-.036-.008c-.32-.172-.468-.46-.468-.74 0-.352.232-.696.64-.788a15 15 0 0 0-.184-.7c-.428.484-.852.972-.852 1.612m1.044 1.16c-.752 0-1.332-.688-1.332-1.496 0-.708.524-1.224.992-1.764a4.5 4.5 0 0 1-.18-.76 5 5 0 0 1-.028-.624c0-.46.22-.896.596-1.168a.06.06 0 0 1 .08 0c.284.336.532.98.532 1.432 0 .572-.344 1.02-.72 1.456.084.272.156.552.224.828.016 0 .036-.004.052-.004.62 0 1.024.512 1.024 1.044 0 .304-.132.616-.428.84a.9.9 0 0 1-.292.144q.019.21.02.42-.001.116-.008.232c-.028.476-.352.9-.808.912l.004-.172c.372-.008.612-.368.636-.764a3.775 3.775 0 0 0-.008-.588c-.116.02-.232.032-.356.032m.372-4.712c0-.22-.016-.316-.08-.516a1.15 1.15 0 0 0-.648 1.036c0 .296.072.532.144.776.32-.388.584-.792.584-1.296M23.593 56.063c-.2 0-.276.172-.276.352 0 .308.228.544.536.544.2 0 .276-.172.276-.352a.53.53 0 0 0-.536-.544m1.112.448c0 .172-.136.3-.288.384-.212.116-.456.16-.696.16s-.48-.044-.692-.16c-.152-.084-.288-.212-.288-.384s.136-.3.288-.384c.212-.116.452-.16.692-.16s.484.044.696.16c.152.084.288.212.288.384M23.593 58.563c-.2 0-.276.172-.276.352 0 .308.228.544.536.544.2 0 .276-.172.276-.352a.53.53 0 0 0-.536-.544m1.112.448c0 .172-.136.3-.288.384-.212.116-.456.16-.696.16s-.48-.044-.692-.16c-.152-.084-.288-.212-.288-.384s.136-.3.288-.384c.212-.116.452-.16.692-.16s.484.044.696.16c.152.084.288.212.288.384"/><text fill="currentColor" font-family="serif" font-size="2.47" transform="translate(12.677 51.222)">
<tspan>vermindert (6HT)</tspan>
</text><path fill="currentColor" d="M14.972 45.193a.3.3 0 0 1-.3-.3c0-.152.108-.308.288-.308q.025-.001.056.004a.6.6 0 0 0-.48-.236c-.424 0-.452.292-.452.744v.408c0 .452.028.748.452.748.32 0 .556-.28.632-.604.008-.028.028-.04.048-.04.024 0 .052.016.052.048 0 .376-.42.696-.732.696-.272 0-.548-.084-.736-.28-.196-.204-.264-.488-.264-.772s.068-.568.264-.772c.188-.196.464-.276.736-.276.348 0 .64.252.7.596q.005.031.004.056c0 .16-.12.287-.268.287M10.4 48.84h-.024a.783.783 0 0 1-.78-.788c0-.231.212-.411.448-.411.216 0 .38.188.38.412 0 .208-.172.38-.38.38a.3.3 0 0 1-.124-.024c.104.156.272.26.468.26h.016zm.78-1.728a.71.71 0 0 0 .452-.656.764.764 0 0 0-.692-.76c.096.465.184.925.24 1.417m-1.548-.924c0 .54.516.988 1.056.988q.167 0 .328-.024c-.056-.508-.148-.98-.252-1.456-.316.032-.496.244-.496.476 0 .176.1.364.324.492q.029.03.028.06c0 .044-.04.088-.088.088q-.018-.001-.036-.008c-.32-.172-.468-.46-.468-.74 0-.352.232-.696.64-.788a15 15 0 0 0-.184-.7c-.428.484-.852.972-.852 1.612m1.044 1.16c-.752 0-1.332-.687-1.332-1.495 0-.709.524-1.225.992-1.765a4.5 4.5 0 0 1-.18-.76 5 5 0 0 1-.028-.624c0-.46.22-.896.596-1.168a.06.06 0 0 1 .08 0c.284.336.532.98.532 1.432 0 .572-.344 1.02-.72 1.456.084.273.156.553.224.829.016 0 .036-.004.052-.004.62 0 1.024.512 1.024 1.044 0 .304-.132.616-.428.84a.9.9 0 0 1-.292.144q.019.21.02.42-.001.116-.008.232c-.028.476-.352.9-.808.912l.004-.172c.372-.008.612-.368.636-.764a3.775 3.775 0 0 0-.008-.588c-.116.02-.232.032-.356.032m.372-4.712c0-.22-.016-.316-.08-.516a1.15 1.15 0 0 0-.648 1.037c0 .296.072.532.144.776.32-.388.584-.792.584-1.296M23.593 45.853c-.2 0-.276.171-.276.351 0 .308.228.544.536.544.2 0 .276-.172.276-.352a.53.53 0 0 0-.536-.544m1.112.447c0 .173-.136.3-.288.385-.212.115-.456.16-.696.16s-.48-.045-.692-.16c-.152-.085-.288-.213-.288-.385s.136-.3.288-.383c.212-.117.452-.16.692-.16s.484.044.696.16c.152.083.288.211.288.383M23.593 47.853c-.2 0-.276.171-.276.351 0 .308.228.544.536.544.2 0 .276-.172.276-.352a.53.53 0 0 0-.536-.544m1.112.447c0 .173-.136.3-.288.385-.212.115-.456.16-.696.16s-.48-.045-.692-.16c-.152-.085-.288-.213-.288-.385s.136-.3.288-.383c.212-.117.452-.16.692-.16s.484.044.696.16c.152.083.288.211.288.383"/><text fill="currentColor" font-family="serif" font-size="2.47" transform="translate(12.677 41.202)">
<tspan>vermindert (4HT)</tspan>
</text><path fill="currentColor" d="m42.159 56.347-.004.264v.044q-.001.132.016.264c.18-.152.372-.32.372-.556 0-.132-.056-.268-.172-.268-.124 0-.208.12-.212.252m-.168.716-.048-2.38c.032-.02.072-.032.108-.032s.076.012.108.032l-.028 1.38a.58.58 0 0 1 .364-.136c.208 0 .356.192.356.408 0 .32-.344.468-.588.676-.06.052-.096.152-.18.152-.052 0-.092-.044-.092-.1"/><rect width=".13" height="5.741" x="-.065" y="-3" fill="currentColor" ry=".04" transform="translate(44.513 56.01)"/><rect width=".13" height="6.074" x="-.065" y="-3.333" fill="currentColor" ry=".04" transform="translate(44.513 67.15)"/><text fill="currentColor" font-family="serif" font-size="2.2" transform="translate(-1.828 56.675)">
<tspan>6 (Sexte)</tspan>
</text><path fill="currentColor" d="m21.703 98.682-.004.264c0 .016-.004.028-.004.044q-.001.132.016.264c.176-.148.348-.328.348-.556 0-.132-.044-.268-.16-.268-.12 0-.192.12-.196.252m-.004-1.664-.024 1.38a.54.54 0 0 1 .348-.136c.212 0 .368.188.368.404 0 .32-.344.472-.588.68-.06.052-.092.152-.176.152a.1.1 0 0 1-.096-.1l-.008-.424c-.108.136-.264.248-.392.372-.052.052-.076.152-.156.152-.052 0-.092-.048-.092-.104l-.048-2.376c.032-.02.072-.032.108-.032s.076.012.108.032l-.028 1.38a.37.37 0 0 1 .28-.136c.08 0 .152.032.208.084l-.028-1.328c.032-.02.072-.032.108-.032s.076.012.108.032m-.688 1.932v.04c0 .092.004.18.016.272.156-.152.284-.344.284-.564 0-.128-.024-.268-.132-.268s-.156.124-.16.248zM42.159 27.096l-.004.264v.044q-.001.132.016.264c.18-.152.372-.32.372-.556 0-.132-.056-.268-.172-.268-.124 0-.208.12-.212.252m-.168.716-.048-2.38c.032-.02.072-.032.108-.032s.076.012.108.032l-.028 1.38a.58.58 0 0 1 .364-.136c.208 0 .356.192.356.408 0 .32-.344.468-.588.676-.06.052-.096.152-.18.152-.052 0-.092-.044-.092-.1M42.159 87.427l-.004.264v.044q-.001.132.016.264c.18-.152.372-.32.372-.556 0-.132-.056-.268-.172-.268-.124 0-.208.12-.212.252m-.168.716-.048-2.38c.032-.02.072-.032.108-.032s.076.012.108.032l-.028 1.38a.58.58 0 0 1 .364-.136c.208 0 .356.192.356.408 0 .32-.344.468-.588.676-.06.052-.096.152-.18.152-.052 0-.092-.044-.092-.1"/><rect width=".13" height="7.074" x="-.065" y="-4.333" fill="currentColor" ry=".04" transform="translate(44.513 100.346)"/><text fill="currentColor" font-family="serif" font-size="2.2" transform="translate(-3.126 45.96)">
<tspan>5 (Quinte)</tspan>
</text><path fill="currentColor" d="m42.159 98.682-.004.264v.044q-.001.132.016.264c.18-.152.372-.32.372-.556 0-.132-.056-.268-.172-.268-.124 0-.208.12-.212.252m-.168.716-.048-2.38c.032-.02.072-.032.108-.032s.076.012.108.032l-.028 1.38a.58.58 0 0 1 .364-.136c.208 0 .356.192.356.408 0 .32-.344.468-.588.676-.06.052-.096.152-.18.152-.052 0-.092-.044-.092-.1"/><rect width=".13" height="6.741" x="-.065" y="-4" fill="currentColor" ry=".04" transform="translate(44.513 88.591)"/><path fill="currentColor" d="m42.159 66.986-.004.264v.044q-.001.132.016.264c.18-.152.372-.32.372-.556 0-.132-.056-.268-.172-.268-.124 0-.208.12-.212.252m-.168.716-.048-2.38c.032-.02.072-.032.108-.032s.076.012.108.032l-.028 1.38a.58.58 0 0 1 .364-.136c.208 0 .356.192.356.408 0 .32-.344.468-.588.676-.06.052-.096.152-.18.152-.052 0-.092-.044-.092-.1M44.457 69.89a.17.17 0 0 0-.168-.164q-.024-.001-.048.004c-.124.036-.312.16-.46.256s-.336.212-.416.312a.168.168 0 0 0 .128.276q.024.001.048-.004c.124-.036.308-.16.456-.256s.336-.212.416-.312a.17.17 0 0 0 .044-.112m-.208-.284c.184 0 .328.084.328.284a.7.7 0 0 1-.04.228.7.7 0 0 1-.256.376c-.212.144-.452.2-.748.2-.184 0-.332-.084-.332-.284 0-.076.02-.156.044-.228a.7.7 0 0 1 .252-.376c.212-.144.456-.2.752-.2M44.053 36.333c-.2 0-.276.172-.276.352 0 .307.228.543.536.543.2 0 .276-.172.276-.352a.53.53 0 0 0-.536-.543m1.112.448c0 .172-.136.3-.288.384-.212.116-.456.16-.696.16s-.48-.045-.692-.16c-.152-.084-.288-.212-.288-.384s.136-.3.288-.384c.212-.116.452-.16.692-.16s.484.044.696.16c.152.084.288.212.288.384"/><text fill="currentColor" font-family="serif" font-size="2.47" transform="translate(37.627 41.202)">
<tspan>rein (5HT)</tspan>
</text><path fill="currentColor" d="M44.053 47.853c-.2 0-.276.171-.276.351 0 .308.228.544.536.544.2 0 .276-.172.276-.352a.53.53 0 0 0-.536-.544m1.112.447c0 .173-.136.3-.288.385-.212.115-.456.16-.696.16s-.48-.045-.692-.16c-.152-.085-.288-.213-.288-.385s.136-.3.288-.383c.212-.117.452-.16.692-.16s.484.044.696.16c.152.083.288.211.288.383M44.053 45.853c-.2 0-.276.171-.276.351 0 .308.228.544.536.544.2 0 .276-.172.276-.352a.53.53 0 0 0-.536-.544m1.112.447c0 .173-.136.3-.288.385-.212.115-.456.16-.696.16s-.48-.045-.692-.16c-.152-.085-.288-.213-.288-.385s.136-.3.288-.383c.212-.117.452-.16.692-.16s.484.044.696.16c.152.083.288.211.288.383"/><text fill="currentColor" font-family="serif" font-size="2.47" transform="translate(37.627 51.222)">
<tspan>rein (7HT)</tspan>
</text><path fill="currentColor" d="M44.457 58.75a.17.17 0 0 0-.168-.163q-.024-.001-.048.004c-.124.036-.312.16-.46.256s-.336.212-.416.312a.168.168 0 0 0 .128.276q.024.001.048-.004c.124-.036.308-.16.456-.256s.336-.212.416-.312a.17.17 0 0 0 .044-.112m-.208-.283c.184 0 .328.084.328.284a.7.7 0 0 1-.04.228.7.7 0 0 1-.256.376c-.212.144-.452.2-.748.2-.184 0-.332-.084-.332-.284 0-.076.02-.156.044-.228a.7.7 0 0 1 .252-.376c.212-.144.456-.2.752-.2M44.457 56.25a.17.17 0 0 0-.168-.163q-.024-.001-.048.004c-.124.036-.312.16-.46.256s-.336.212-.416.312a.168.168 0 0 0 .128.276q.024.001.048-.004c.124-.036.308-.16.456-.256s.336-.212.416-.312a.17.17 0 0 0 .044-.112m-.208-.283c.184 0 .328.084.328.284a.7.7 0 0 1-.04.228.7.7 0 0 1-.256.376c-.212.144-.452.2-.748.2-.184 0-.332-.084-.332-.284 0-.076.02-.156.044-.228a.7.7 0 0 1 .252-.376c.212-.144.456-.2.752-.2"/><text fill="currentColor" font-family="serif" font-size="2.47" transform="translate(36.788 61.932)">
<tspan>klein (8HT)</tspan>
</text><path fill="currentColor" d="M44.053 37.833c-.2 0-.276.172-.276.352 0 .307.228.543.536.543.2 0 .276-.172.276-.352a.53.53 0 0 0-.536-.543m1.112.448c0 .172-.136.3-.288.384-.212.116-.456.16-.696.16s-.48-.045-.692-.16c-.152-.084-.288-.212-.288-.384s.136-.3.288-.384c.212-.116.452-.16.692-.16s.484.044.696.16c.152.084.288.212.288.384M44.457 66.89a.17.17 0 0 0-.168-.164q-.024-.001-.048.004c-.124.036-.312.16-.46.256s-.336.212-.416.312a.168.168 0 0 0 .128.276q.024.001.048-.004c.124-.036.308-.16.456-.256s.336-.212.416-.312a.17.17 0 0 0 .044-.112m-.208-.284c.184 0 .328.084.328.284a.7.7 0 0 1-.04.228.7.7 0 0 1-.256.376c-.212.144-.452.2-.748.2-.184 0-.332-.084-.332-.284 0-.076.02-.156.044-.228a.7.7 0 0 1 .252-.376c.212-.144.456-.2.752-.2"/><text fill="currentColor" font-family="serif" font-size="2.47" transform="translate(36.003 73.071)">
<tspan>klein (10HT)</tspan>
</text><path fill="currentColor" d="M44.053 79.722c-.2 0-.276.172-.276.352 0 .308.228.544.536.544.2 0 .276-.172.276-.352a.53.53 0 0 0-.536-.544m1.112.448c0 .172-.136.3-.288.384-.212.116-.456.16-.696.16s-.48-.044-.692-.16c-.152-.084-.288-.212-.288-.384s.136-.3.288-.384c.212-.116.452-.16.692-.16s.484.044.696.16c.152.084.288.212.288.384M44.053 76.222c-.2 0-.276.172-.276.352 0 .308.228.544.536.544.2 0 .276-.172.276-.352a.53.53 0 0 0-.536-.544m1.112.448c0 .172-.136.3-.288.384-.212.116-.456.16-.696.16s-.48-.044-.692-.16c-.152-.084-.288-.212-.288-.384s.136-.3.288-.384c.212-.116.452-.16.692-.16s.484.044.696.16c.152.084.288.212.288.384M44.457 91.331a.17.17 0 0 0-.168-.164q-.024-.001-.048.004c-.124.036-.312.16-.46.256s-.336.212-.416.312a.168.168 0 0 0 .128.276q.024.001.048-.004c.124-.036.308-.16.456-.256s.336-.212.416-.312a.17.17 0 0 0 .044-.112m-.208-.284c.184 0 .328.084.328.284a.7.7 0 0 1-.04.228.7.7 0 0 1-.256.376c-.212.144-.452.2-.748.2-.184 0-.332-.084-.332-.284 0-.076.02-.156.044-.228a.7.7 0 0 1 .252-.376c.212-.144.456-.2.752-.2M44.457 87.331a.17.17 0 0 0-.168-.164q-.024-.001-.048.004c-.124.036-.312.16-.46.256s-.336.212-.416.312a.168.168 0 0 0 .128.276q.024.001.048-.004c.124-.036.308-.16.456-.256s.336-.212.416-.312a.17.17 0 0 0 .044-.112m-.208-.284c.184 0 .328.084.328.284a.7.7 0 0 1-.04.228.7.7 0 0 1-.256.376c-.212.144-.452.2-.748.2-.184 0-.332-.084-.332-.284 0-.076.02-.156.044-.228a.7.7 0 0 1 .252-.376c.212-.144.456-.2.752-.2"/><text fill="currentColor" font-family="serif" font-size="2.47" transform="translate(36.841 83.091)">
<tspan>rein (12HT)</tspan>
</text><text fill="currentColor" font-family="serif" font-size="2.47" transform="translate(36.788 31.182)">
<tspan>klein (3HT)</tspan>
</text><path fill="currentColor" d="M44.457 27a.17.17 0 0 0-.168-.164q-.024-.001-.048.004c-.124.036-.312.16-.46.256s-.336.212-.416.312a.168.168 0 0 0 .128.276q.024.001.048-.004c.124-.036.308-.16.456-.256s.336-.212.416-.312a.17.17 0 0 0 .044-.112m-.208-.284c.184 0 .328.084.328.284a.7.7 0 0 1-.04.228.7.7 0 0 1-.256.376c-.212.144-.452.2-.748.2-.184 0-.332-.084-.332-.284 0-.076.02-.156.044-.228a.7.7 0 0 1 .252-.376c.212-.144.456-.2.752-.2"/><path fill="currentColor" d="M44.457 28a.17.17 0 0 0-.168-.164q-.024-.001-.048.004c-.124.036-.312.16-.46.256s-.336.212-.416.312a.168.168 0 0 0 .128.276q.024.001.048-.004c.124-.036.308-.16.456-.256s.336-.212.416-.312a.17.17 0 0 0 .044-.112m-.208-.284c.184 0 .328.084.328.284a.7.7 0 0 1-.04.228.7.7 0 0 1-.256.376c-.212.144-.452.2-.748.2-.184 0-.332-.084-.332-.284 0-.076.02-.156.044-.228a.7.7 0 0 1 .252-.376c.212-.144.456-.2.752-.2"/><text fill="currentColor" font-family="serif" font-size="2.47" transform="translate(36.788 21.162)">
<tspan>klein (1HT)</tspan>
</text><path fill="currentColor" d="M45.77 17.01a.17.17 0 0 0-.169-.164q-.024-.001-.048.004c-.124.036-.312.16-.46.256s-.336.212-.416.312a.168.168 0 0 0 .128.276q.024.001.048-.004c.124-.036.308-.16.456-.256s.336-.212.416-.312a.17.17 0 0 0 .044-.112m-.209-.284c.184 0 .328.084.328.284a.7.7 0 0 1-.04.228.7.7 0 0 1-.256.376c-.212.144-.452.2-.748.2-.184 0-.332-.084-.332-.284 0-.076.02-.156.044-.228a.7.7 0 0 1 .252-.376c.212-.144.456-.2.752-.2"/><path fill="currentColor" d="M44.457 17.51a.17.17 0 0 0-.168-.164q-.024-.001-.048.004c-.124.036-.312.16-.46.256s-.336.212-.416.312a.168.168 0 0 0 .128.276q.024.001.048-.004c.124-.036.308-.16.456-.256s.336-.212.416-.312a.17.17 0 0 0 .044-.112m-.208-.284c.184 0 .328.084.328.284a.7.7 0 0 1-.04.228.7.7 0 0 1-.256.376c-.212.144-.452.2-.748.2-.184 0-.332-.084-.332-.284 0-.076.02-.156.044-.228a.7.7 0 0 1 .252-.376c.212-.144.456-.2.752-.2"/><text fill="currentColor" font-family="serif" font-size="2.47" transform="translate(37.627 10.671)">
<tspan>rein (0HT)</tspan>
</text><path fill="currentColor" d="M45.755 6.331c-.2 0-.276.172-.276.352 0 .308.228.544.536.544.2 0 .276-.172.276-.352a.53.53 0 0 0-.536-.544m1.112.448c0 .172-.136.3-.288.384-.212.116-.456.16-.696.16s-.48-.044-.692-.16c-.152-.084-.288-.212-.288-.384s.136-.3.288-.384c.212-.116.452-.16.692-.16s.484.044.696.16c.152.084.288.212.288.384"/><path fill="currentColor" d="M44.053 6.331c-.2 0-.276.172-.276.352 0 .308.228.544.536.544.2 0 .276-.172.276-.352a.53.53 0 0 0-.536-.544m1.112.448c0 .172-.136.3-.288.384-.212.116-.456.16-.696.16s-.48-.044-.692-.16c-.152-.084-.288-.212-.288-.384s.136-.3.288-.384c.212-.116.452-.16.692-.16s.484.044.696.16c.152.084.288.212.288.384"/><rect width=".13" height="4.241" x="-.065" y="-1.5" fill="currentColor" ry=".04" transform="translate(44.513 25.26)"/><path fill="currentColor" d="m42.19 17.106-.004.264v.044q-.001.132.016.264c.18-.152.372-.32.372-.556 0-.132-.056-.268-.172-.268-.124 0-.208.12-.212.252m-.168.716-.048-2.38c.032-.02.072-.032.108-.032s.076.012.108.032l-.028 1.38a.58.58 0 0 1 .364-.136c.208 0 .356.192.356.408 0 .32-.344.468-.588.676-.06.052-.096.152-.18.152-.052 0-.092-.044-.092-.1"/><text fill="currentColor" font-family="serif" font-size="2.47" transform="translate(36.003 94.513)">
<tspan>klein (13HT)</tspan>
</text><path fill="currentColor" d="M44.457 103.086a.17.17 0 0 0-.168-.164q-.024-.001-.048.004c-.124.036-.312.16-.46.256s-.336.212-.416.312a.168.168 0 0 0 .128.276q.024.001.048-.004c.124-.036.308-.16.456-.256s.336-.212.416-.312a.17.17 0 0 0 .044-.112m-.208-.284c.184 0 .328.084.328.284a.7.7 0 0 1-.04.228.7.7 0 0 1-.256.376c-.212.144-.452.2-.748.2-.184 0-.332-.084-.332-.284 0-.076.02-.156.044-.228a.7.7 0 0 1 .252-.376c.212-.144.456-.2.752-.2M44.457 98.586a.17.17 0 0 0-.168-.164q-.024-.001-.048.004c-.124.036-.312.16-.46.256s-.336.212-.416.312a.168.168 0 0 0 .128.276q.024.001.048-.004c.124-.036.308-.16.456-.256s.336-.212.416-.312a.17.17 0 0 0 .044-.112m-.208-.284c.184 0 .328.084.328.284a.7.7 0 0 1-.04.228.7.7 0 0 1-.256.376c-.212.144-.452.2-.748.2-.184 0-.332-.084-.332-.284 0-.076.02-.156.044-.228a.7.7 0 0 1 .252-.376c.212-.144.456-.2.752-.2"/><text fill="currentColor" font-family="serif" font-size="2.47" transform="translate(36.003 106.267)">
<tspan>klein (15HT)</tspan>
</text><rect width=".13" height="3.741" x="-.065" y="-1" fill="currentColor" ry=".04" transform="translate(44.513 14.77)"/></svg>