<svg xmlns="http://www.w3.org/2000/svg" width="90.84mm" height="407.471" style="color-scheme:light dark" viewBox="-9.169 -0.021 51.69 61.35"><style>tspan{white-space:pre}</style><rect width=".19" height="4" y="-2" fill="currentColor" ry="0" transform="translate(42.331 30.779)"/><rect width=".19" height="4" y="-2" fill="currentColor" ry="0" transform="translate(42.331 57.779)"/><rect width="1.956" height=".2" x="39.2" y="-.1" fill="currentColor" ry=".1" transform="translate(0 45.779)"/><path stroke="currentColor" stroke-linecap="round" stroke-linejoin="round" stroke-width=".1" d="M8.586 50.779H42.47M8.586 49.779H42.47M8.586 48.779H42.47M8.586 47.779H42.47M8.586 46.779H42.47"/><rect width="1.956" height=".2" x="39.2" y="-.1" fill="currentColor" ry=".1" transform="translate(0 54.779)"/><rect width="1.956" height=".2" x="36.197" y="-.1" fill="currentColor" ry=".1" transform="translate(0 54.779)"/><path stroke="currentColor" stroke-linecap="round" stroke-linejoin="round" stroke-width=".1" d="M8.586 59.779H42.47M8.586 58.779H42.47M8.586 57.779H42.47M8.586 56.779H42.47M8.586 55.779H42.47"/><rect width=".19" height="4" y="-2" fill="currentColor" ry="0" transform="translate(29.234 12.779)"/><rect width=".19" height="4" y="-2" fill="currentColor" ry="0" transform="translate(42.331 48.779)"/><rect width=".19" height="4" y="-2" fill="currentColor" ry="0" transform="translate(42.331 39.779)"/><path stroke="currentColor" stroke-linecap="round" stroke-linejoin="round" stroke-width=".1" d="M8.586 5.779H42.47M8.586 4.779H42.47M8.586 3.779H42.47M8.586 2.779H42.47M8.586 1.779H42.47"/><rect width=".19" height="4" y="-2" fill="currentColor" ry="0" transform="translate(29.234 21.779)"/><rect width=".19" height="4" y="-2" fill="currentColor" ry="0" transform="translate(42.331 21.779)"/><rect width=".19" height="4" y="-2" fill="currentColor" ry="0" transform="translate(42.331 12.779)"/><rect width=".19" height="4" y="-2" fill="currentColor" ry="0" transform="translate(42.331 3.779)"/><rect width=".19" height="4" y="-2" fill="currentColor" ry="0" transform="translate(29.234 30.779)"/><rect width=".19" height="4" y="-2" fill="currentColor" ry="0" transform="translate(29.234 39.779)"/><rect width=".19" height="4" y="-2" fill="currentColor" ry="0" transform="translate(29.234 48.779)"/><rect width=".19" height="4" y="-2" fill="currentColor" ry="0" transform="translate(29.234 57.779)"/><path stroke="currentColor" stroke-linecap="round" stroke-linejoin="round" stroke-width=".1" d="M8.586 41.779H42.47M8.586 40.779H42.47M8.586 39.779H42.47M8.586 38.779H42.47M8.586 37.779H42.47M8.586 23.779H42.47M8.586 22.779H42.47M8.586 21.779H42.47M8.586 20.779H42.47M8.586 19.779H42.47"/><rect width=".19" height="4" y="-2" fill="currentColor" ry="0" transform="translate(29.234 3.779)"/><rect width="1.956" height=".2" x="16.91" y="-.1" fill="currentColor" ry=".1" transform="translate(0 6.779)"/><path stroke="currentColor" stroke-linecap="round" stroke-linejoin="round" stroke-width=".1" d="M8.586 32.779H42.47M8.586 31.779H42.47M8.586 30.779H42.47M8.586 29.779H42.47M8.586 28.779H42.47M8.586 14.779H42.47M8.586 13.779H42.47M8.586 12.779H42.47M8.586 11.779H42.47M8.586 10.779H42.47"/><rect width=".13" height="3.314" x="-.065" y="-3" fill="currentColor" ry=".04" transform="translate(34.758 3.779)"/><path fill="currentColor" d="M34.39 54.735c.22 0 .432.112.432.356 0 .284-.22.484-.408.596a.9.9 0 0 1-.464.136c-.22 0-.432-.112-.432-.356 0-.284.22-.484.408-.596.14-.084.3-.136.464-.136M34.39 46.235c.22 0 .432.112.432.356 0 .284-.22.484-.408.596a.9.9 0 0 1-.464.136c-.22 0-.432-.112-.432-.356 0-.284.22-.484.408-.596.14-.084.3-.136.464-.136M34.39 37.735c.22 0 .432.112.432.356 0 .284-.22.484-.408.596a.9.9 0 0 1-.464.136c-.22 0-.432-.112-.432-.356 0-.284.22-.484.408-.596.14-.084.3-.136.464-.136M37.395 3.235c.22 0 .432.112.432.356 0 .284-.22.484-.408.596a.9.9 0 0 1-.464.136c-.22 0-.432-.112-.432-.356 0-.284.22-.484.408-.596.14-.084.3-.136.464-.136M34.39 29.235c.22 0 .432.112.432.356 0 .284-.22.484-.408.596a.9.9 0 0 1-.464.136c-.22 0-.432-.112-.432-.356 0-.284.22-.484.408-.596.14-.084.3-.136.464-.136M34.39 20.735c.22 0 .432.112.432.356 0 .284-.22.484-.408.596a.9.9 0 0 1-.464.136c-.22 0-.432-.112-.432-.356 0-.284.22-.484.408-.596.14-.084.3-.136.464-.136M34.39 12.235c.22 0 .432.112.432.356 0 .284-.22.484-.408.596a.9.9 0 0 1-.464.136c-.22 0-.432-.112-.432-.356 0-.284.22-.484.408-.596.14-.084.3-.136.464-.136M34.39 3.735c.22 0 .432.112.432.356 0 .284-.22.484-.408.596a.9.9 0 0 1-.464.136c-.22 0-.432-.112-.432-.356 0-.284.22-.484.408-.596.14-.084.3-.136.464-.136"/><rect width=".13" height="3.314" x="-.065" y="-1.814" fill="currentColor" ry=".04" transform="translate(33.583 48.779)"/><rect width=".13" height="3.314" x="-.065" y="-2.314" fill="currentColor" ry=".04" transform="translate(33.583 57.779)"/><rect width=".13" height="3.314" x="-.065" y="-1.314" fill="currentColor" ry=".04" transform="translate(33.583 39.779)"/><rect width=".13" height="3.147" x="-.065" y=".186" fill="currentColor" ry=".04" transform="translate(33.583 12.779)"/><rect width=".13" height="3.314" x="-.065" y="-.814" fill="currentColor" ry=".04" transform="translate(33.583 30.779)"/><rect width=".13" height="3.314" x="-.065" y="-.314" fill="currentColor" ry=".04" transform="translate(33.583 21.779)"/><rect width=".13" height="3.314" x="-.065" y="-.314" fill="currentColor" ry=".04" transform="translate(30.578 30.779)"/><rect width=".13" height="3.147" x="-.065" y=".186" fill="currentColor" ry=".04" transform="translate(30.578 21.779)"/><rect width=".13" height="3.314" x="-.065" y="-3" fill="currentColor" ry=".04" transform="translate(31.753 12.779)"/><rect width=".13" height="3.314" x="-.065" y="-1.314" fill="currentColor" ry=".04" transform="translate(30.578 48.779)"/><rect width=".13" height="3.314" x="-.065" y="-1.814" fill="currentColor" ry=".04" transform="translate(30.578 57.779)"/><rect width=".13" height="3.314" x="-.065" y="-.814" fill="currentColor" ry=".04" transform="translate(30.578 39.779)"/><rect width=".13" height="3.314" x="-.065" y="-3.314" fill="currentColor" ry=".04" transform="translate(39.59 57.779)"/><rect width=".13" height="3.314" x="-.065" y="-2.814" fill="currentColor" ry=".04" transform="translate(39.59 48.779)"/><rect width=".13" height="3.314" x="-.065" y="-2.314" fill="currentColor" ry=".04" transform="translate(39.59 39.779)"/><rect width=".13" height="3.314" x="-.065" y="-1.814" fill="currentColor" ry=".04" transform="translate(39.59 30.779)"/><rect width=".13" height="3.314" x="-.065" y="-1.314" fill="currentColor" ry=".04" transform="translate(39.59 21.779)"/><rect width=".13" height="3.314" x="-.065" y="-1.814" fill="currentColor" ry=".04" transform="translate(36.588 39.779)"/><rect width=".13" height="3.314" x="-.065" y="-1.314" fill="currentColor" ry=".04" transform="translate(36.588 30.779)"/><rect width=".13" height="3.314" x="-.065" y="-.814" fill="currentColor" ry=".04" transform="translate(36.588 21.779)"/><rect width=".13" height="3.314" x="-.065" y="-.314" fill="currentColor" ry=".04" transform="translate(36.588 12.779)"/><rect width=".13" height="3.147" x="-.065" y=".186" fill="currentColor" ry=".04" transform="translate(36.588 3.779)"/><path fill="currentColor" d="M37.395 54.235c.22 0 .432.112.432.356 0 .284-.22.484-.408.596a.9.9 0 0 1-.464.136c-.22 0-.432-.112-.432-.356 0-.284.22-.484.408-.596.14-.084.3-.136.464-.136M37.395 45.735c.22 0 .432.112.432.356 0 .284-.22.484-.408.596a.9.9 0 0 1-.464.136c-.22 0-.432-.112-.432-.356 0-.284.22-.484.408-.596.14-.084.3-.136.464-.136M37.395 37.235c.22 0 .432.112.432.356 0 .284-.22.484-.408.596a.9.9 0 0 1-.464.136c-.22 0-.432-.112-.432-.356 0-.284.22-.484.408-.596.14-.084.3-.136.464-.136M37.395 28.735c.22 0 .432.112.432.356 0 .284-.22.484-.408.596a.9.9 0 0 1-.464.136c-.22 0-.432-.112-.432-.356 0-.284.22-.484.408-.596.14-.084.3-.136.464-.136M37.395 20.235c.22 0 .432.112.432.356 0 .284-.22.484-.408.596a.9.9 0 0 1-.464.136c-.22 0-.432-.112-.432-.356 0-.284.22-.484.408-.596.14-.084.3-.136.464-.136M40.398 19.735c.22 0 .431.112.431.356 0 .284-.22.484-.407.596a.9.9 0 0 1-.464.136c-.22 0-.432-.112-.432-.356 0-.284.22-.484.407-.596.14-.084.3-.136.465-.136"/><rect width=".13" height="3.314" x="-.065" y="-.814" fill="currentColor" ry=".04" transform="translate(39.59 12.779)"/><rect width=".13" height="3.314" x="-.065" y="-.314" fill="currentColor" ry=".04" transform="translate(39.59 3.779)"/><path fill="currentColor" d="M40.398 53.735c.22 0 .431.112.431.356 0 .284-.22.484-.407.596a.9.9 0 0 1-.464.136c-.22 0-.432-.112-.432-.356 0-.284.22-.484.407-.596.14-.084.3-.136.465-.136M40.398 45.235c.22 0 .431.112.431.356 0 .284-.22.484-.407.596a.9.9 0 0 1-.464.136c-.22 0-.432-.112-.432-.356 0-.284.22-.484.407-.596.14-.084.3-.136.465-.136M40.398 36.735c.22 0 .431.112.431.356 0 .284-.22.484-.407.596a.9.9 0 0 1-.464.136c-.22 0-.432-.112-.432-.356 0-.284.22-.484.407-.596.14-.084.3-.136.465-.136M40.398 28.235c.22 0 .431.112.431.356 0 .284-.22.484-.407.596a.9.9 0 0 1-.464.136c-.22 0-.432-.112-.432-.356 0-.284.22-.484.407-.596.14-.084.3-.136.465-.136M37.395 11.735c.22 0 .432.112.432.356 0 .284-.22.484-.408.596a.9.9 0 0 1-.464.136c-.22 0-.432-.112-.432-.356 0-.284.22-.484.408-.596.14-.084.3-.136.464-.136M40.398 11.235c.22 0 .431.112.431.356 0 .284-.22.484-.407.596a.9.9 0 0 1-.464.136c-.22 0-.432-.112-.432-.356 0-.284.22-.484.407-.596.14-.084.3-.136.465-.136M40.398 2.735c.22 0 .431.112.431.356 0 .284-.22.484-.407.596a.9.9 0 0 1-.464.136c-.22 0-.432-.112-.432-.356 0-.284.22-.484.407-.596.14-.084.3-.136.465-.136"/><rect width=".13" height="3.314" x="-.065" y="-2.814" fill="currentColor" ry=".04" transform="translate(36.588 57.779)"/><rect width=".13" height="3.314" x="-.065" y="-2.314" fill="currentColor" ry=".04" transform="translate(36.588 48.779)"/><rect width=".13" height="3.147" x="-.065" y=".186" fill="currentColor" ry=".04" transform="translate(17.3 57.779)"/><rect width=".13" height="3.314" x="-.065" y="-3" fill="currentColor" ry=".04" transform="translate(18.475 48.779)"/><rect width=".13" height="3.314" x="-.065" y="-2.5" fill="currentColor" ry=".04" transform="translate(18.475 39.779)"/><rect width=".13" height="3.314" x="-.065" y="-2" fill="currentColor" ry=".04" transform="translate(18.475 30.779)"/><rect width=".13" height="3.314" x="-.065" y="-2.5" fill="currentColor" ry=".04" transform="translate(21.48 30.779)"/><rect width=".13" height="3.314" x="-.065" y="-2" fill="currentColor" ry=".04" transform="translate(21.48 21.779)"/><rect width=".13" height="3.314" x="-.065" y="-1.5" fill="currentColor" ry=".04" transform="translate(21.48 12.779)"/><rect width=".13" height="3.314" x="-.065" y="-1" fill="currentColor" ry=".04" transform="translate(21.48 3.779)"/><path fill="currentColor" d="M21.113 56.735c.22 0 .432.112.432.356 0 .284-.22.484-.408.596a.9.9 0 0 1-.464.136c-.22 0-.432-.112-.432-.356 0-.284.22-.484.408-.596.14-.084.3-.136.464-.136M21.113 48.235c.22 0 .432.112.432.356 0 .284-.22.484-.408.596a.9.9 0 0 1-.464.136c-.22 0-.432-.112-.432-.356 0-.284.22-.484.408-.596.14-.084.3-.136.464-.136M21.113 39.735c.22 0 .432.112.432.356 0 .284-.22.484-.408.596a.9.9 0 0 1-.464.136c-.22 0-.432-.112-.432-.356 0-.284.22-.484.408-.596.14-.084.3-.136.464-.136M21.113 31.235c.22 0 .432.112.432.356 0 .284-.22.484-.408.596a.9.9 0 0 1-.464.136c-.22 0-.432-.112-.432-.356 0-.284.22-.484.408-.596.14-.084.3-.136.464-.136M21.113 22.735c.22 0 .432.112.432.356 0 .284-.22.484-.408.596a.9.9 0 0 1-.464.136c-.22 0-.432-.112-.432-.356 0-.284.22-.484.408-.596.14-.084.3-.136.464-.136M21.113 14.235c.22 0 .432.112.432.356 0 .284-.22.484-.408.596a.9.9 0 0 1-.464.136c-.22 0-.432-.112-.432-.356 0-.284.22-.484.408-.596.14-.084.3-.136.464-.136M21.113 5.735c.22 0 .432.112.432.356 0 .284-.22.484-.408.596a.9.9 0 0 1-.464.136c-.22 0-.432-.112-.432-.356 0-.284.22-.484.408-.596.14-.084.3-.136.464-.136M18.108 23.235c.22 0 .432.112.432.356 0 .284-.22.484-.408.596a.9.9 0 0 1-.464.136c-.22 0-.432-.112-.432-.356 0-.284.22-.484.408-.596.14-.084.3-.136.464-.136M14.972 12.671a.3.3 0 0 1-.3-.3c0-.152.108-.308.288-.308q.025-.001.056.004a.6.6 0 0 0-.48-.236c-.424 0-.452.292-.452.744v.408c0 .452.028.748.452.748.32 0 .556-.28.632-.604.008-.028.028-.04.048-.04.024 0 .052.016.052.048 0 .376-.42.696-.732.696-.272 0-.548-.084-.736-.28-.196-.204-.264-.488-.264-.772s.068-.568.264-.772c.188-.196.464-.276.736-.276.348 0 .64.252.7.596q.005.031.004.056c0 .16-.12.288-.268.288M10.4 16.319h-.024a.783.783 0 0 1-.78-.788c0-.232.212-.412.448-.412.216 0 .38.188.38.412 0 .208-.172.38-.38.38a.3.3 0 0 1-.124-.024c.104.156.272.26.468.26h.016zm.78-1.728a.71.71 0 0 0 .452-.656.764.764 0 0 0-.692-.76c.096.464.184.924.24 1.416m-1.548-.924c0 .54.516.988 1.056.988q.167 0 .328-.024c-.056-.508-.148-.98-.252-1.456-.316.032-.496.244-.496.476 0 .176.1.364.324.492q.029.03.028.06c0 .044-.04.088-.088.088q-.018-.001-.036-.008c-.32-.172-.468-.46-.468-.74 0-.352.232-.696.64-.788a15 15 0 0 0-.184-.7c-.428.484-.852.972-.852 1.612m1.044 1.16c-.752 0-1.332-.688-1.332-1.496 0-.708.524-1.224.992-1.764a4.5 4.5 0 0 1-.18-.76 5 5 0 0 1-.028-.624c0-.46.22-.896.596-1.168a.06.06 0 0 1 .08 0c.284.336.532.98.532 1.432 0 .572-.344 1.02-.72 1.456.084.272.156.552.224.828.016 0 .036-.004.052-.004.62 0 1.024.512 1.024 1.044 0 .304-.132.616-.428.84a.9.9 0 0 1-.292.144q.019.21.02.42c0 .076-.004.156-.008.232-.028.476-.352.9-.808.912l.004-.172c.372-.008.612-.368.636-.764q.007-.11.008-.22c0-.124-.004-.244-.016-.368-.116.02-.232.032-.356.032m.372-4.712c0-.22-.016-.316-.08-.516a1.15 1.15 0 0 0-.648 1.036c0 .296.072.532.144.776.32-.388.584-.792.584-1.296M18.108 14.735c.22 0 .432.112.432.356 0 .284-.22.484-.408.596a.9.9 0 0 1-.464.136c-.22 0-.432-.112-.432-.356 0-.284.22-.484.408-.596.14-.084.3-.136.464-.136M14.972 3.671a.3.3 0 0 1-.3-.3c0-.152.108-.308.288-.308q.025-.001.056.004a.6.6 0 0 0-.48-.236c-.424 0-.452.292-.452.744v.408c0 .452.028.748.452.748.32 0 .556-.28.632-.604.008-.028.028-.04.048-.04.024 0 .052.016.052.048 0 .376-.42.696-.732.696-.272 0-.548-.084-.736-.28-.196-.204-.264-.488-.264-.772s.068-.568.264-.772c.188-.196.464-.276.736-.276.348 0 .64.252.7.596q.005.031.004.056c0 .16-.12.288-.268.288M10.4 7.319h-.024a.783.783 0 0 1-.78-.788c0-.232.212-.412.448-.412.216 0 .38.188.38.412 0 .208-.172.38-.38.38a.3.3 0 0 1-.124-.024c.104.156.272.26.468.26h.016zm.78-1.728a.71.71 0 0 0 .452-.656.764.764 0 0 0-.692-.76c.096.464.184.924.24 1.416m-1.548-.924c0 .54.516.988 1.056.988q.167 0 .328-.024c-.056-.508-.148-.98-.252-1.456-.316.032-.496.244-.496.476 0 .176.1.364.324.492q.029.03.028.06c0 .044-.04.088-.088.088q-.018-.001-.036-.008c-.32-.172-.468-.46-.468-.74 0-.352.232-.696.64-.788a15 15 0 0 0-.184-.7c-.428.484-.852.972-.852 1.612m1.044 1.16c-.752 0-1.332-.688-1.332-1.496 0-.708.524-1.224.992-1.764a4.5 4.5 0 0 1-.18-.76 5 5 0 0 1-.028-.624c0-.46.22-.896.596-1.168a.06.06 0 0 1 .08 0c.284.336.532.98.532 1.432 0 .572-.344 1.02-.72 1.456.084.272.156.552.224.828.016 0 .036-.004.052-.004.62 0 1.024.512 1.024 1.044 0 .304-.132.616-.428.84a.9.9 0 0 1-.292.144q.019.21.02.42-.001.116-.008.232c-.028.476-.352.9-.808.912l.004-.172c.372-.008.612-.368.636-.764q.007-.11.008-.22c0-.124-.004-.244-.016-.368-.116.02-.232.032-.356.032m.372-4.712c0-.22-.016-.316-.08-.516a1.15 1.15 0 0 0-.648 1.036c0 .296.072.532.144.776.32-.388.584-.792.584-1.296M18.108 6.235c.22 0 .432.112.432.356 0 .284-.22.484-.408.596a.9.9 0 0 1-.464.136c-.22 0-.432-.112-.432-.356 0-.284.22-.484.408-.596.14-.084.3-.136.464-.136"/><rect width=".16" height="58.1" y="-29.05" fill="currentColor" ry=".05" transform="translate(8.476 30.779)"/><text fill="currentColor" font-family="serif" font-size="2.2" transform="translate(-7.189 58.443)">
<tspan>VII (Lokrisch)</tspan>
</text><path fill="currentColor" d="M10.4 25.319h-.024a.783.783 0 0 1-.78-.788c0-.232.212-.412.448-.412.216 0 .38.188.38.412 0 .208-.172.38-.38.38a.3.3 0 0 1-.124-.024c.104.156.272.26.468.26h.016zm.78-1.728a.71.71 0 0 0 .452-.656.764.764 0 0 0-.692-.76c.096.464.184.924.24 1.416m-1.548-.924c0 .54.516.988 1.056.988q.167 0 .328-.024c-.056-.508-.148-.98-.252-1.456-.316.032-.496.244-.496.476 0 .176.1.364.324.492q.029.03.028.06c0 .044-.04.088-.088.088q-.018-.001-.036-.008c-.32-.172-.468-.46-.468-.74 0-.352.232-.696.64-.788a15 15 0 0 0-.184-.7c-.428.484-.852.972-.852 1.612m1.044 1.16c-.752 0-1.332-.688-1.332-1.496 0-.708.524-1.224.992-1.764a4.5 4.5 0 0 1-.18-.76 5 5 0 0 1-.028-.624c0-.46.22-.896.596-1.168a.06.06 0 0 1 .08 0c.284.336.532.98.532 1.432 0 .572-.344 1.02-.72 1.456.084.272.156.552.224.828.016 0 .036-.004.052-.004.62 0 1.024.512 1.024 1.044 0 .304-.132.616-.428.84a.9.9 0 0 1-.292.144q.019.21.02.42c0 .076-.004.156-.008.232-.028.476-.352.9-.808.912l.004-.172c.372-.008.612-.368.636-.764a3.775 3.775 0 0 0-.008-.588c-.116.02-.232.032-.356.032m.372-4.712c0-.22-.016-.316-.08-.516a1.15 1.15 0 0 0-.648 1.036c0 .296.072.532.144.776.32-.388.584-.792.584-1.296"/><text fill="currentColor" font-family="serif" font-size="2.2" transform="translate(-6.096 49.443)">
<tspan>VI (Aeolisch)</tspan>
</text><text fill="currentColor" font-family="serif" font-size="2.2" transform="translate(-9.169 40.37)">
<tspan>V (Mixolydisch)</tspan>
</text><text fill="currentColor" font-family="serif" font-size="2.2" transform="translate(-5.208 31.37)">
<tspan>IV (Lydisch)</tspan>
</text><text fill="currentColor" font-family="serif" font-size="2.2" transform="translate(-7.803 22.37)">
<tspan>III (Phrygisch)</tspan>
</text><text fill="currentColor" font-family="serif" font-size="2.2" transform="translate(-4.56 13.443)">
<tspan>II (Dorisch)</tspan>
</text><text fill="currentColor" font-family="serif" font-size="2.2" transform="translate(-3.126 4.443)">
<tspan>I (Ionisch)</tspan>
</text><path fill="currentColor" d="M10.4 61.319h-.024a.783.783 0 0 1-.78-.788c0-.232.212-.412.448-.412.216 0 .38.188.38.412 0 .208-.172.38-.38.38a.3.3 0 0 1-.124-.024c.104.156.272.26.468.26h.016zm.78-1.728a.71.71 0 0 0 .452-.656.764.764 0 0 0-.692-.76c.096.464.184.924.24 1.416m-1.548-.924c0 .54.516.988 1.056.988q.167 0 .328-.024c-.056-.508-.148-.98-.252-1.456-.316.032-.496.244-.496.476 0 .176.1.364.324.492q.029.03.028.06c0 .044-.04.088-.088.088q-.018-.001-.036-.008c-.32-.172-.468-.46-.468-.74 0-.352.232-.696.64-.788a15 15 0 0 0-.184-.7c-.428.484-.852.972-.852 1.612m1.044 1.16c-.752 0-1.332-.688-1.332-1.496 0-.708.524-1.224.992-1.764a4.5 4.5 0 0 1-.18-.76 5 5 0 0 1-.028-.624c0-.46.22-.896.596-1.168a.06.06 0 0 1 .08 0c.284.336.532.98.532 1.432 0 .572-.344 1.02-.72 1.456.084.272.156.552.224.828.016 0 .036-.004.052-.004.62 0 1.024.512 1.024 1.044 0 .304-.132.616-.428.84a.9.9 0 0 1-.292.144q.019.21.02.42-.001.116-.008.232c-.028.476-.352.9-.808.912l.004-.172c.372-.008.612-.368.636-.764a3.775 3.775 0 0 0-.008-.588c-.116.02-.232.032-.356.032m.372-4.712c0-.22-.016-.316-.08-.516a1.15 1.15 0 0 0-.648 1.036c0 .296.072.532.144.776.32-.388.584-.792.584-1.296"/><rect width=".13" height="3.314" x="-.065" y="-1.5" fill="currentColor" ry=".04" transform="translate(18.475 21.779)"/><rect width=".13" height="3.314" x="-.065" y="-1" fill="currentColor" ry=".04" transform="translate(18.475 12.779)"/><rect width=".13" height="3.314" x="-.065" y="-.5" fill="currentColor" ry=".04" transform="translate(18.475 3.779)"/><path fill="currentColor" d="M14.972 57.671a.3.3 0 0 1-.3-.3c0-.152.108-.308.288-.308q.025-.001.056.004a.6.6 0 0 0-.48-.236c-.424 0-.452.292-.452.744v.408c0 .452.028.748.452.748.32 0 .556-.28.632-.604.008-.028.028-.04.048-.04.024 0 .052.016.052.048 0 .376-.42.696-.732.696-.272 0-.548-.084-.736-.28-.196-.204-.264-.488-.264-.772s.068-.568.264-.772c.188-.196.464-.276.736-.276.348 0 .64.252.7.596q.005.031.004.056c0 .16-.12.288-.268.288M18.108 57.235c.22 0 .432.112.432.356 0 .284-.22.484-.408.596a.9.9 0 0 1-.464.136c-.22 0-.432-.112-.432-.356 0-.284.22-.484.408-.596.14-.084.3-.136.464-.136M14.972 48.671a.3.3 0 0 1-.3-.3c0-.152.108-.308.288-.308q.025-.001.056.004a.6.6 0 0 0-.48-.236c-.424 0-.452.292-.452.744v.408c0 .452.028.748.452.748.32 0 .556-.28.632-.604.008-.028.028-.04.048-.04.024 0 .052.016.052.048 0 .376-.42.696-.732.696-.272 0-.548-.084-.736-.28-.196-.204-.264-.488-.264-.772s.068-.568.264-.772c.188-.196.464-.276.736-.276.348 0 .64.252.7.596q.005.031.004.056c0 .16-.12.288-.268.288M10.4 52.319h-.024a.783.783 0 0 1-.78-.788c0-.232.212-.412.448-.412.216 0 .38.188.38.412 0 .208-.172.38-.38.38a.3.3 0 0 1-.124-.024c.104.156.272.26.468.26h.016zm.78-1.728a.71.71 0 0 0 .452-.656.764.764 0 0 0-.692-.76c.096.464.184.924.24 1.416m-1.548-.924c0 .54.516.988 1.056.988q.167 0 .328-.024c-.056-.508-.148-.98-.252-1.456-.316.032-.496.244-.496.476 0 .176.1.364.324.492q.029.03.028.06c0 .044-.04.088-.088.088q-.018-.001-.036-.008c-.32-.172-.468-.46-.468-.74 0-.352.232-.696.64-.788a15 15 0 0 0-.184-.7c-.428.484-.852.972-.852 1.612m1.044 1.16c-.752 0-1.332-.688-1.332-1.496 0-.708.524-1.224.992-1.764a4.5 4.5 0 0 1-.18-.76 5 5 0 0 1-.028-.624c0-.46.22-.896.596-1.168a.06.06 0 0 1 .08 0c.284.336.532.98.532 1.432 0 .572-.344 1.02-.72 1.456.084.272.156.552.224.828.016 0 .036-.004.052-.004.62 0 1.024.512 1.024 1.044 0 .304-.132.616-.428.84a.9.9 0 0 1-.292.144q.019.21.02.42-.001.116-.008.232c-.028.476-.352.9-.808.912l.004-.172c.372-.008.612-.368.636-.764a3.775 3.775 0 0 0-.008-.588c-.116.02-.232.032-.356.032m.372-4.712c0-.22-.016-.316-.08-.516a1.15 1.15 0 0 0-.648 1.036c0 .296.072.532.144.776.32-.388.584-.792.584-1.296M18.108 48.735c.22 0 .432.112.432.356 0 .284-.22.484-.408.596a.9.9 0 0 1-.464.136c-.22 0-.432-.112-.432-.356 0-.284.22-.484.408-.596.14-.084.3-.136.464-.136M14.972 39.671a.3.3 0 0 1-.3-.3c0-.152.108-.308.288-.308q.025-.001.056.004a.6.6 0 0 0-.48-.236c-.424 0-.452.292-.452.744v.408c0 .452.028.748.452.748.32 0 .556-.28.632-.604.008-.028.028-.04.048-.04.024 0 .052.016.052.048 0 .376-.42.696-.732.696-.272 0-.548-.084-.736-.28-.196-.204-.264-.488-.264-.772s.068-.568.264-.772c.188-.196.464-.276.736-.276.348 0 .64.252.7.596q.005.031.004.056c0 .16-.12.288-.268.288M10.4 43.319h-.024a.783.783 0 0 1-.78-.788c0-.232.212-.412.448-.412.216 0 .38.188.38.412 0 .208-.172.38-.38.38a.3.3 0 0 1-.124-.024c.104.156.272.26.468.26h.016zm.78-1.728a.71.71 0 0 0 .452-.656.764.764 0 0 0-.692-.76c.096.464.184.924.24 1.416m-1.548-.924c0 .54.516.988 1.056.988q.167 0 .328-.024c-.056-.508-.148-.98-.252-1.456-.316.032-.496.244-.496.476 0 .176.1.364.324.492q.029.03.028.06c0 .044-.04.088-.088.088q-.018-.001-.036-.008c-.32-.172-.468-.46-.468-.74 0-.352.232-.696.64-.788a15 15 0 0 0-.184-.7c-.428.484-.852.972-.852 1.612m1.044 1.16c-.752 0-1.332-.688-1.332-1.496 0-.708.524-1.224.992-1.764a4.5 4.5 0 0 1-.18-.76 5 5 0 0 1-.028-.624c0-.46.22-.896.596-1.168a.06.06 0 0 1 .08 0c.284.336.532.98.532 1.432 0 .572-.344 1.02-.72 1.456.084.272.156.552.224.828.016 0 .036-.004.052-.004.62 0 1.024.512 1.024 1.044 0 .304-.132.616-.428.84a.9.9 0 0 1-.292.144q.019.21.02.42-.001.116-.008.232c-.028.476-.352.9-.808.912l.004-.172c.372-.008.612-.368.636-.764a3.775 3.775 0 0 0-.008-.588c-.116.02-.232.032-.356.032m.372-4.712c0-.22-.016-.316-.08-.516a1.15 1.15 0 0 0-.648 1.036c0 .296.072.532.144.776.32-.388.584-.792.584-1.296M18.108 40.235c.22 0 .432.112.432.356 0 .284-.22.484-.408.596a.9.9 0 0 1-.464.136c-.22 0-.432-.112-.432-.356 0-.284.22-.484.408-.596.14-.084.3-.136.464-.136M14.972 30.671a.3.3 0 0 1-.3-.3c0-.152.108-.308.288-.308q.025-.001.056.004a.6.6 0 0 0-.48-.236c-.424 0-.452.292-.452.744v.408c0 .452.028.748.452.748.32 0 .556-.28.632-.604.008-.028.028-.04.048-.04.024 0 .052.016.052.048 0 .376-.42.696-.732.696-.272 0-.548-.084-.736-.28-.196-.204-.264-.488-.264-.772s.068-.568.264-.772c.188-.196.464-.276.736-.276.348 0 .64.252.7.596q.005.031.004.056c0 .16-.12.288-.268.288M10.4 34.319h-.024a.783.783 0 0 1-.78-.788c0-.232.212-.412.448-.412.216 0 .38.188.38.412 0 .208-.172.38-.38.38a.3.3 0 0 1-.124-.024c.104.156.272.26.468.26h.016zm.78-1.728a.71.71 0 0 0 .452-.656.764.764 0 0 0-.692-.76c.096.464.184.924.24 1.416m-1.548-.924c0 .54.516.988 1.056.988q.167 0 .328-.024c-.056-.508-.148-.98-.252-1.456-.316.032-.496.244-.496.476 0 .176.1.364.324.492q.029.03.028.06c0 .044-.04.088-.088.088q-.018-.001-.036-.008c-.32-.172-.468-.46-.468-.74 0-.352.232-.696.64-.788a15 15 0 0 0-.184-.7c-.428.484-.852.972-.852 1.612m1.044 1.16c-.752 0-1.332-.688-1.332-1.496 0-.708.524-1.224.992-1.764a4.5 4.5 0 0 1-.18-.76 5 5 0 0 1-.028-.624c0-.46.22-.896.596-1.168a.06.06 0 0 1 .08 0c.284.336.532.98.532 1.432 0 .572-.344 1.02-.72 1.456.084.272.156.552.224.828.016 0 .036-.004.052-.004.62 0 1.024.512 1.024 1.044 0 .304-.132.616-.428.84a.9.9 0 0 1-.292.144q.019.21.02.42c0 .076-.004.156-.008.232-.028.476-.352.9-.808.912l.004-.172c.372-.008.612-.368.636-.764q.007-.11.008-.22.001-.184-.016-.368c-.116.02-.232.032-.356.032m.372-4.712c0-.22-.016-.316-.08-.516a1.15 1.15 0 0 0-.648 1.036c0 .296.072.532.144.776.32-.388.584-.792.584-1.296M18.108 31.735c.22 0 .432.112.432.356 0 .284-.22.484-.408.596a.9.9 0 0 1-.464.136c-.22 0-.432-.112-.432-.356 0-.284.22-.484.408-.596.14-.084.3-.136.464-.136M14.972 21.671a.3.3 0 0 1-.3-.3c0-.152.108-.308.288-.308q.025-.001.056.004a.6.6 0 0 0-.48-.236c-.424 0-.452.292-.452.744v.408c0 .452.028.748.452.748.32 0 .556-.28.632-.604.008-.028.028-.04.048-.04.024 0 .052.016.052.048 0 .376-.42.696-.732.696-.272 0-.548-.084-.736-.28-.196-.204-.264-.488-.264-.772s.068-.568.264-.772c.188-.196.464-.276.736-.276.348 0 .64.252.7.596q.005.031.004.056c0 .16-.12.288-.268.288"/><rect width=".13" height="3.314" x="-.065" y="-2" fill="currentColor" ry=".04" transform="translate(27.49 3.779)"/><rect width=".13" height="3.147" x="-.065" y=".186" fill="currentColor" ry=".04" transform="translate(26.315 30.779)"/><rect width=".13" height="3.314" x="-.065" y="-3" fill="currentColor" ry=".04" transform="translate(27.49 21.779)"/><rect width=".13" height="3.314" x="-.065" y="-2.5" fill="currentColor" ry=".04" transform="translate(27.49 12.779)"/><path fill="currentColor" d="M27.122 55.735c.22 0 .432.112.432.356 0 .284-.22.484-.408.596a.9.9 0 0 1-.464.136c-.22 0-.432-.112-.432-.356 0-.284.22-.484.408-.596.14-.084.3-.136.464-.136M27.122 47.235c.22 0 .432.112.432.356 0 .284-.22.484-.408.596a.9.9 0 0 1-.464.136c-.22 0-.432-.112-.432-.356 0-.284.22-.484.408-.596.14-.084.3-.136.464-.136M27.122 38.735c.22 0 .432.112.432.356 0 .284-.22.484-.408.596a.9.9 0 0 1-.464.136c-.22 0-.432-.112-.432-.356 0-.284.22-.484.408-.596.14-.084.3-.136.464-.136M27.122 30.235c.22 0 .432.112.432.356 0 .284-.22.484-.408.596a.9.9 0 0 1-.464.136c-.22 0-.432-.112-.432-.356 0-.284.22-.484.408-.596.14-.084.3-.136.464-.136M27.122 21.735c.22 0 .432.112.432.356 0 .284-.22.484-.408.596a.9.9 0 0 1-.464.136c-.22 0-.432-.112-.432-.356 0-.284.22-.484.408-.596.14-.084.3-.136.464-.136M27.122 13.235c.22 0 .432.112.432.356 0 .284-.22.484-.408.596a.9.9 0 0 1-.464.136c-.22 0-.432-.112-.432-.356 0-.284.22-.484.408-.596.14-.084.3-.136.464-.136M27.122 4.735c.22 0 .432.112.432.356 0 .284-.22.484-.408.596a.9.9 0 0 1-.464.136c-.22 0-.432-.112-.432-.356 0-.284.22-.484.408-.596.14-.084.3-.136.464-.136"/><rect width=".13" height="3.314" x="-.065" y="-.814" fill="currentColor" ry=".04" transform="translate(23.31 57.779)"/><rect width=".13" height="3.314" x="-.065" y="-2.5" fill="currentColor" ry=".04" transform="translate(31.753 3.779)"/><path fill="currentColor" d="M31.386 55.235c.22 0 .432.112.432.356 0 .284-.22.484-.409.596a.9.9 0 0 1-.464.136c-.22 0-.432-.112-.432-.356 0-.284.22-.484.408-.596.14-.084.3-.136.465-.136M31.386 46.735c.22 0 .432.112.432.356 0 .284-.22.484-.409.596a.9.9 0 0 1-.464.136c-.22 0-.432-.112-.432-.356 0-.284.22-.484.408-.596.14-.084.3-.136.465-.136M31.386 38.235c.22 0 .432.112.432.356 0 .284-.22.484-.409.596a.9.9 0 0 1-.464.136c-.22 0-.432-.112-.432-.356 0-.284.22-.484.408-.596.14-.084.3-.136.465-.136M31.386 29.735c.22 0 .432.112.432.356 0 .284-.22.484-.409.596a.9.9 0 0 1-.464.136c-.22 0-.432-.112-.432-.356 0-.284.22-.484.408-.596.14-.084.3-.136.465-.136M31.386 21.235c.22 0 .432.112.432.356 0 .284-.22.484-.409.596a.9.9 0 0 1-.464.136c-.22 0-.432-.112-.432-.356 0-.284.22-.484.408-.596.14-.084.3-.136.465-.136M31.386 12.735c.22 0 .432.112.432.356 0 .284-.22.484-.409.596a.9.9 0 0 1-.464.136c-.22 0-.432-.112-.432-.356 0-.284.22-.484.408-.596.14-.084.3-.136.465-.136M31.386 4.235c.22 0 .432.112.432.356 0 .284-.22.484-.409.596a.9.9 0 0 1-.464.136c-.22 0-.432-.112-.432-.356 0-.284.22-.484.408-.596.14-.084.3-.136.465-.136"/><rect width=".13" height="3.314" x="-.065" y="-1.314" fill="currentColor" ry=".04" transform="translate(26.315 57.779)"/><rect width=".13" height="3.314" x="-.065" y="-.814" fill="currentColor" ry=".04" transform="translate(26.315 48.779)"/><rect width=".13" height="3.314" x="-.065" y="-.314" fill="currentColor" ry=".04" transform="translate(26.315 39.779)"/><path fill="currentColor" d="M24.118 56.235c.22 0 .432.112.432.356 0 .284-.22.484-.408.596a.9.9 0 0 1-.464.136c-.22 0-.432-.112-.432-.356 0-.284.22-.484.408-.596.14-.084.3-.136.464-.136M24.118 47.735c.22 0 .432.112.432.356 0 .284-.22.484-.408.596a.9.9 0 0 1-.464.136c-.22 0-.432-.112-.432-.356 0-.284.22-.484.408-.596.14-.084.3-.136.464-.136M24.118 39.235c.22 0 .432.112.432.356 0 .284-.22.484-.408.596a.9.9 0 0 1-.464.136c-.22 0-.432-.112-.432-.356 0-.284.22-.484.408-.596.14-.084.3-.136.464-.136M24.118 30.735c.22 0 .432.112.432.356 0 .284-.22.484-.408.596a.9.9 0 0 1-.464.136c-.22 0-.432-.112-.432-.356 0-.284.22-.484.408-.596.14-.084.3-.136.464-.136M24.118 22.235c.22 0 .432.112.432.356 0 .284-.22.484-.408.596a.9.9 0 0 1-.464.136c-.22 0-.432-.112-.432-.356 0-.284.22-.484.408-.596.14-.084.3-.136.464-.136M24.118 13.735c.22 0 .432.112.432.356 0 .284-.22.484-.408.596a.9.9 0 0 1-.464.136c-.22 0-.432-.112-.432-.356 0-.284.22-.484.408-.596.14-.084.3-.136.464-.136M24.118 5.235c.22 0 .432.112.432.356 0 .284-.22.484-.408.596a.9.9 0 0 1-.464.136c-.22 0-.432-.112-.432-.356 0-.284.22-.484.408-.596.14-.084.3-.136.464-.136"/><rect width=".13" height="3.314" x="-.065" y="-1.5" fill="currentColor" ry=".04" transform="translate(24.485 3.779)"/><rect width=".13" height="3.314" x="-.065" y="-.314" fill="currentColor" ry=".04" transform="translate(20.306 57.779)"/><rect width=".13" height="3.147" x="-.065" y=".186" fill="currentColor" ry=".04" transform="translate(20.306 48.779)"/><rect width=".13" height="3.314" x="-.065" y="-3" fill="currentColor" ry=".04" transform="translate(21.48 39.779)"/><rect width=".13" height="3.314" x="-.065" y="-3" fill="currentColor" ry=".04" transform="translate(24.485 30.779)"/><rect width=".13" height="3.314" x="-.065" y="-.314" fill="currentColor" ry=".04" transform="translate(23.31 48.779)"/><rect width=".13" height="3.147" x="-.065" y=".186" fill="currentColor" ry=".04" transform="translate(23.31 39.779)"/><rect width=".13" height="3.314" x="-.065" y="-2" fill="currentColor" ry=".04" transform="translate(24.485 12.779)"/><rect width=".13" height="3.314" x="-.065" y="-2.5" fill="currentColor" ry=".04" transform="translate(24.485 21.779)"/></svg>